<?xml version="1.0" encoding="UTF-8" standalone="no"?>
<svg
   xmlns:dc="http://purl.org/dc/elements/1.1/"
   xmlns:cc="http://creativecommons.org/ns#"
   xmlns:rdf="http://www.w3.org/1999/02/22-rdf-syntax-ns#"
   xmlns:svg="http://www.w3.org/2000/svg"
   xmlns="http://www.w3.org/2000/svg"
   xmlns:sodipodi="http://sodipodi.sourceforge.net/DTD/sodipodi-0.dtd"
   xmlns:inkscape="http://www.inkscape.org/namespaces/inkscape"
   sodipodi:docname="Model2_ChainEnds.svg"
   inkscape:version="1.0 (4035a4fb49, 2020-05-01)"
   id="svg8"
   version="1.1"
   viewBox="0 0 140.09642 57.365261"
   height="57.365261mm"
   width="140.09642mm">
  <defs
     id="defs2" />
  <sodipodi:namedview
     fit-margin-bottom="2"
     fit-margin-right="2"
     fit-margin-left="2"
     fit-margin-top="2"
     inkscape:window-maximized="1"
     inkscape:window-y="-6"
     inkscape:window-x="-6"
     inkscape:window-height="850"
     inkscape:window-width="1368"
     showgrid="false"
     inkscape:document-rotation="0"
     inkscape:current-layer="layer2"
     inkscape:document-units="mm"
     inkscape:cy="246.51916"
     inkscape:cx="289.97659"
     inkscape:zoom="0.66"
     inkscape:pageshadow="2"
     inkscape:pageopacity="0.0"
     borderopacity="1.0"
     bordercolor="#666666"
     pagecolor="#ffffff"
     id="base" />
  <metadata
     id="metadata5">
    <rdf:RDF>
      <cc:Work
         rdf:about="">
        <dc:format>image/svg+xml</dc:format>
        <dc:type
           rdf:resource="http://purl.org/dc/dcmitype/StillImage" />
        <dc:title></dc:title>
      </cc:Work>
    </rdf:RDF>
  </metadata>
  <g
     transform="translate(-29.11036,-84.411714)"
     style="display:inline"
     id="layer1"
     inkscape:groupmode="layer"
     inkscape:label="Layer 1" />
  <g
     transform="translate(-29.11036,-84.411714)"
     inkscape:label="Layer 2"
     id="layer2"
     inkscape:groupmode="layer">
    <g
       id="g864">
      <path
         style="display:inline;fill:none;stroke:#000000;stroke-width:0.465;stroke-linecap:butt;stroke-linejoin:miter;stroke-miterlimit:4;stroke-dasharray:none;stroke-opacity:0.264237"
         d="m 37.68308,114.65278 c 7.072828,-6.74041 15.291527,-13.47711 25.656566,-10.0221 2.981357,0.99378 5.215927,3.44367 8.41856,4.00884 4.189619,0.73934 8.664249,0.40187 12.828283,1.20265 7.787137,1.49753 13.278244,5.68274 21.647731,4.00884 12.01494,-2.40299 23.14145,-11.64925 33.67424,-13.22917 10.11929,-1.517891 17.59203,2.79838 27.2601,4.40973"
         id="path833" />
      <path
         style="display:inline;fill:none;stroke:#000000;stroke-width:0.465;stroke-linecap:butt;stroke-linejoin:miter;stroke-miterlimit:4;stroke-dasharray:none;stroke-opacity:0.264237"
         d="m 39.6875,91.000629 c 2.838124,-2.100347 7.084507,-5.299088 10.823863,-2.806187 7.71108,5.140722 11.305958,15.683198 19.242423,20.445078 4.415605,2.64936 11.406698,-0.1511 16.436239,2.00442 3.657288,1.56741 9.87021,6.41414 13.63005,6.41414 6.658265,0 13.305465,-6.81502 20.044195,-6.81502 3.90505,0 8.78465,3.28502 12.02651,4.8106 8.76385,4.12416 17.18305,8.2389 26.85922,9.62121"
         id="path840" />
      <path
         style="display:inline;fill:none;stroke:#000000;stroke-width:0.465;stroke-linecap:butt;stroke-linejoin:miter;stroke-miterlimit:4;stroke-dasharray:none;stroke-opacity:0.264237"
         d="m 71.758206,127.08018 c 3.010482,8.1964 -5.753769,14.16234 -13.229167,12.02651 -5.212709,-1.48935 -9.69269,-34.07512 10.022097,-34.07512 7.971655,0 10.135986,10.42297 18.84154,10.42297 15.289404,0 25.208844,-4.79499 39.687504,-9.62121 6.81771,-2.27257 25.11851,6.01326 33.67424,6.01326"
         id="path845" />
      <path
         style="fill:none;stroke:#000000;stroke-width:0.965;stroke-linecap:butt;stroke-linejoin:miter;stroke-miterlimit:4;stroke-dasharray:none;stroke-opacity:1"
         d="m 42.092803,129.48548 c 2.509885,-1.06696 2.484101,-9.67652 4.409723,-12.4274 2.709262,-3.87038 12.495855,-12.82828 17.638887,-12.82828 6.862767,0 12.443745,6.4605 19.242426,7.21591 3.072886,0.34143 7.221778,-2.13609 10.022093,-1.20265 5.111846,1.70394 13.033458,3.48208 18.440658,2.80618 4.331,-0.54137 8.04784,-3.17 12.4274,-3.60795 8.81102,-0.88111 15.09806,5.73434 23.25126,-1.60354 2.30411,-2.0737 10.11981,-10.129838 8.81944,-14.030934 -0.96264,-2.887935 -1.6599,-4.068345 -0.40088,-7.215907"
         id="path850" />
      <path
         style="fill:none;stroke:#000000;stroke-width:0.465;stroke-linecap:butt;stroke-linejoin:miter;stroke-miterlimit:4;stroke-dasharray:none;stroke-opacity:0.264237"
         d="m 31.268939,107.03598 c 7.75216,-7.230237 17.612315,-13.538287 26.859217,-5.61237 2.546154,2.18242 3.696621,4.35011 6.815026,6.01326 5.109435,2.72503 12.762108,2.66247 18.440657,4.40972 4.023846,1.23811 7.393794,3.75867 11.62563,4.40972 9.528311,1.4659 23.505501,-10.73341 32.471591,-4.00884 6.20014,4.65011 15.33125,16.93479 21.64773,23.25127"
         id="path854" />
    </g>
  </g>
</svg>
