<?xml version="1.0" encoding="UTF-8" standalone="no"?>
<svg
   xmlns:dc="http://purl.org/dc/elements/1.1/"
   xmlns:cc="http://creativecommons.org/ns#"
   xmlns:rdf="http://www.w3.org/1999/02/22-rdf-syntax-ns#"
   xmlns:svg="http://www.w3.org/2000/svg"
   xmlns="http://www.w3.org/2000/svg"
   xmlns:sodipodi="http://sodipodi.sourceforge.net/DTD/sodipodi-0.dtd"
   xmlns:inkscape="http://www.inkscape.org/namespaces/inkscape"
   inkscape:version="1.0 (4035a4fb49, 2020-05-01)"
   sodipodi:docname="MMA_polym.svg"
   id="svg422"
   version="1.1"
   height="19.308792mm"
   width="28.650297mm"
   preserveAspectRatio="xMidYMid"
   viewBox="81.6 117.84 108.28459 72.978109">
  <metadata
     id="metadata428">
    <rdf:RDF>
      <cc:Work
         rdf:about="">
        <dc:format>image/svg+xml</dc:format>
        <dc:type
           rdf:resource="http://purl.org/dc/dcmitype/StillImage" />
        <dc:title></dc:title>
      </cc:Work>
    </rdf:RDF>
  </metadata>
  <defs
     id="defs426" />
  <sodipodi:namedview
     inkscape:current-layer="svg422"
     inkscape:window-maximized="0"
     inkscape:window-y="0"
     inkscape:window-x="0"
     inkscape:cy="-5.3484447"
     inkscape:cx="44.170877"
     inkscape:zoom="2.2609249"
     fit-margin-bottom="2"
     fit-margin-right="2"
     fit-margin-left="2"
     fit-margin-top="2"
     units="mm"
     showgrid="false"
     id="namedview424"
     inkscape:window-height="770"
     inkscape:window-width="1179"
     inkscape:pageshadow="2"
     inkscape:pageopacity="0"
     guidetolerance="10"
     gridtolerance="10"
     objecttolerance="10"
     borderopacity="1"
     bordercolor="#666666"
     pagecolor="#ffffff" />
  <clipPath
     id="169">
    <rect
       id="rect2"
       height="719.15002"
       width="539.40002"
       y="0.30000001"
       x="0.30000001" />
  </clipPath>
  <rect
     x="33.65905"
     y="-99.810944"
     width="100%"
     height="100%"
     fill="#ffffff"
     id="rect5" />
  <g
     transform="translate(-47.940944,-217.65094)"
     id="g11">
    <text
       id="text9"
       text-rendering="geometricPrecision"
       text-anchor="start"
       xml:space="preserve"><tspan
         id="tspan7"
         fill="#000000"
         font-size="10px"
         font-family="Arial"
         y="149.77"
         x="102.79">O</tspan></text>
  </g>
  <g
     transform="translate(-47.940944,-217.65094)"
     id="Solid">
    <path
       id="path13"
       shape-rendering="geometricPrecision"
       fill="#000000"
       stroke-linejoin="miter"
       fill-rule="evenodd"
       stroke-width="0"
       stroke="#000000"
       d="m 111.34,143.54 v 0 l -0.15,-0.26 -0.15,-0.26 8.12,-4.69 v 0.35 0.35 z" />
  </g>
  <g
     transform="translate(-47.940944,-217.65094)"
     id="g20">
    <text
       id="text18"
       text-rendering="geometricPrecision"
       text-anchor="start"
       xml:space="preserve"><tspan
         id="tspan16"
         fill="#000000"
         font-size="10px"
         font-family="Arial"
         y="128.17999"
         x="115.26">O</tspan></text>
  </g>
  <g
     transform="translate(-47.940944,-217.65094)"
     id="g28">
    <line
       id="line22"
       shape-rendering="auto"
       stroke-width="0.6"
       stroke="#000000"
       y2="130"
       x2="117.86"
       y1="138.67999"
       x1="117.86" />
    <path
       id="path24"
       shape-rendering="geometricPrecision"
       fill="#000000"
       stroke-linejoin="miter"
       fill-rule="evenodd"
       stroke-width="0"
       stroke="#000000"
       d="m 120.16,138.91 v 0 l 0.6,0.35 V 130 h -0.6 z" />
    <path
       id="path26"
       shape-rendering="geometricPrecision"
       fill="#000000"
       stroke-linejoin="miter"
       fill-rule="evenodd"
       stroke-width="0"
       stroke="#000000"
       d="m 117.56,139.26 v 0 l 0.6,-0.35 V 130 h -0.6 z" />
  </g>
  <g
     transform="translate(-47.940944,-217.65094)"
     id="g32">
    <path
       id="path30"
       shape-rendering="geometricPrecision"
       fill="#000000"
       stroke-linejoin="miter"
       fill-rule="evenodd"
       stroke-width="0"
       stroke="#000000"
       d="m 102.46,143.09 v 0 l -0.15,0.26 -0.15,0.26 -7.94,-4.58 v -0.35 -0.35 z" />
  </g>
  <g
     transform="translate(-47.940944,-217.65094)"
     id="g36">
    <path
       id="path34"
       shape-rendering="geometricPrecision"
       fill="#000000"
       stroke-linejoin="miter"
       fill-rule="evenodd"
       stroke-width="0"
       stroke="#000000"
       d="m 94.22,138.33 v 0 0.35 0.35 l -12.32,7.11 -0.15,-0.26 -0.15,-0.26 z" />
  </g>
  <g
     transform="translate(-47.940944,-217.65094)"
     id="g40">
    <path
       id="path38"
       shape-rendering="geometricPrecision"
       fill="#000000"
       stroke-linejoin="miter"
       fill-rule="evenodd"
       stroke-width="0"
       stroke="#000000"
       d="m 119.16,139.03 v 0 -0.35 -0.35 l 12.17,7.03 0.3,0.52 -0.3,0.17 z" />
  </g>
  <g
     transform="translate(-47.940944,-217.65094)"
     id="g44">
    <path
       id="path42"
       shape-rendering="geometricPrecision"
       fill="#000000"
       stroke-linejoin="miter"
       fill-rule="evenodd"
       stroke-width="0"
       stroke="#000000"
       d="m 131.93,146.05 v 0 l -0.3,-0.17 0.3,-0.52 12.02,-6.94 0.15,0.26 0.15,0.26 z" />
  </g>
  <g
     transform="translate(-47.940944,-217.65094)"
     id="g50">
    <text
       id="text48"
       text-rendering="geometricPrecision"
       text-anchor="start"
       xml:space="preserve"><tspan
         id="tspan46"
         fill="#000000"
         font-size="10px"
         font-family="Arial"
         y="164.17"
         x="128.3">Br</tspan></text>
  </g>
  <g
     transform="translate(-47.940944,-217.65094)"
     id="g54">
    <path
       id="path52"
       shape-rendering="geometricPrecision"
       fill="#000000"
       stroke-linejoin="miter"
       fill-rule="evenodd"
       stroke-width="0"
       stroke="#000000"
       d="m 131.33,146.05 v 0 l 0.3,-0.17 0.3,0.17 v 9.45 h -0.3 -0.3 z" />
  </g>
  <g
     transform="translate(-47.940944,-217.65094)"
     id="g58">
    <path
       id="path56"
       shape-rendering="geometricPrecision"
       fill="#000000"
       stroke-linejoin="miter"
       fill-rule="evenodd"
       stroke-width="0"
       stroke="#000000"
       d="m 131.93,145.36 v 0 l -0.3,0.52 -0.3,-0.52 v -13.88 h 0.3 0.3 z" />
  </g>
  <g
     transform="translate(-47.940944,-217.65094)"
     id="g64">
    <text
       id="text62"
       text-rendering="geometricPrecision"
       text-anchor="start"
       xml:space="preserve"><tspan
         id="tspan60"
         fill="#ff0000"
         font-size="10px"
         font-family="Arial"
         y="147.89999"
         x="236.28999">O</tspan></text>
  </g>
  <g
     transform="translate(-47.940944,-217.65094)"
     id="g68">
    <path
       id="path66"
       shape-rendering="geometricPrecision"
       fill="#ff0000"
       stroke-linejoin="miter"
       fill-rule="evenodd"
       stroke-width="0"
       stroke="#ff0000"
       d="m 244.84,141.66 v 0 l -0.15,-0.26 -0.15,-0.26 8.12,-4.69 v 0.35 0.35 z" />
  </g>
  <g
     transform="translate(-47.940944,-217.65094)"
     id="g74">
    <text
       id="text72"
       text-rendering="geometricPrecision"
       text-anchor="start"
       xml:space="preserve"><tspan
         id="tspan70"
         fill="#ff0000"
         font-size="10px"
         font-family="Arial"
         y="126.3"
         x="248.75999">O</tspan></text>
  </g>
  <g
     transform="translate(-47.940944,-217.65094)"
     id="g82">
    <line
       id="line76"
       shape-rendering="auto"
       stroke-width="0.6"
       stroke="#ff0000"
       y2="128.10001"
       x2="251.36"
       y1="136.8"
       x1="251.36" />
    <path
       id="path78"
       shape-rendering="geometricPrecision"
       fill="#ff0000"
       stroke-linejoin="miter"
       fill-rule="evenodd"
       stroke-width="0"
       stroke="#ff0000"
       d="m 253.66,137.03 v 0 l 0.6,0.35 v -9.28 h -0.6 z" />
    <path
       id="path80"
       shape-rendering="geometricPrecision"
       fill="#ff0000"
       stroke-linejoin="miter"
       fill-rule="evenodd"
       stroke-width="0"
       stroke="#ff0000"
       d="m 251.06,137.38 v 0 l 0.6,-0.35 v -8.93 h -0.6 z" />
  </g>
  <g
     transform="translate(-47.940944,-217.65094)"
     id="g86">
    <path
       id="path84"
       shape-rendering="geometricPrecision"
       fill="#ff0000"
       stroke-linejoin="miter"
       fill-rule="evenodd"
       stroke-width="0"
       stroke="#ff0000"
       d="m 235.96,141.21 v 0 l -0.15,0.26 -0.15,0.26 -7.94,-4.58 v -0.35 -0.35 z" />
  </g>
  <g
     transform="translate(-47.940944,-217.65094)"
     id="g90">
    <path
       id="path88"
       shape-rendering="geometricPrecision"
       fill="#ff0000"
       stroke-linejoin="miter"
       fill-rule="evenodd"
       stroke-width="0"
       stroke="#ff0000"
       d="m 227.72,136.45 v 0 0.35 0.35 l -12.32,7.11 -0.15,-0.26 -0.15,-0.26 z" />
  </g>
  <g
     transform="translate(-47.940944,-217.65094)"
     id="g94">
    <path
       id="path92"
       shape-rendering="geometricPrecision"
       fill="#ff0000"
       stroke-linejoin="miter"
       fill-rule="evenodd"
       stroke-width="0"
       stroke="#ff0000"
       d="m 252.66,137.15 v 0 -0.35 -0.35 l 12.17,7.03 0.3,0.52 v 0.35 z" />
  </g>
  <g
     transform="translate(-47.940944,-217.65094)"
     id="g98">
    <path
       id="path96"
       shape-rendering="geometricPrecision"
       fill="#ff0000"
       stroke-linejoin="miter"
       fill-rule="evenodd"
       stroke-width="0"
       stroke="#ff0000"
       d="m 265.13,144.35 v 0 -0.35 l 0.3,-0.52 12.02,-6.94 0.15,0.26 0.15,0.26 z" />
  </g>
  <g
     transform="translate(-47.940944,-217.65094)"
     id="g102">
    <path
       id="path100"
       shape-rendering="geometricPrecision"
       fill="#ff0000"
       stroke-linejoin="miter"
       fill-rule="evenodd"
       stroke-width="0"
       stroke="#ff0000"
       d="m 265.43,143.48 v 0 l -0.3,0.52 -0.3,-0.52 V 129.6 h 0.3 0.3 z" />
  </g>
  <circle
     id="circle104"
     fill="#ff0000"
     stroke-width="0"
     stroke="#ff0000"
     r="0.83333331"
     cy="-70.880951"
     cx="217.15904" />
  <g
     transform="translate(-47.940944,-217.65094)"
     id="g110">
    <text
       id="text108"
       text-rendering="geometricPrecision"
       text-anchor="start"
       xml:space="preserve"><tspan
         id="tspan106"
         fill="#ff0000"
         font-size="10px"
         font-family="Arial"
         y="263.70001"
         x="236.78">O</tspan></text>
  </g>
  <g
     transform="translate(-47.940944,-217.65094)"
     id="g114">
    <path
       id="path112"
       shape-rendering="geometricPrecision"
       fill="#ff0000"
       stroke-linejoin="miter"
       fill-rule="evenodd"
       stroke-width="0"
       stroke="#ff0000"
       d="m 238.36,255.27 v 0 l -0.26,0.15 -0.26,0.15 -4.82,-8.17 h 0.35 0.35 z" />
  </g>
  <g
     transform="translate(-47.940944,-217.65094)"
     id="g120">
    <text
       id="text118"
       text-rendering="geometricPrecision"
       text-anchor="start"
       xml:space="preserve"><tspan
         id="tspan116"
         fill="#ff0000"
         font-size="10px"
         font-family="Arial"
         y="251.42999"
         x="215.07001">O</tspan></text>
  </g>
  <g
     transform="translate(-47.940944,-217.65094)"
     id="g128">
    <line
       id="line122"
       shape-rendering="auto"
       stroke-width="0.6"
       stroke="#ff0000"
       y2="248.78"
       x2="224.00999"
       y1="248.7"
       x1="233.38" />
    <path
       id="path124"
       shape-rendering="geometricPrecision"
       fill="#ff0000"
       stroke-linejoin="miter"
       fill-rule="evenodd"
       stroke-width="0"
       stroke="#ff0000"
       d="m 233.59,246.4 v 0 l 0.34,-0.6 -9.94,0.09 v 0.6 z" />
    <path
       id="path126"
       shape-rendering="geometricPrecision"
       fill="#ff0000"
       stroke-linejoin="miter"
       fill-rule="evenodd"
       stroke-width="0"
       stroke="#ff0000"
       d="m 233.96,248.99 v 0 l -0.35,-0.6 -9.6,0.09 v 0.6 z" />
  </g>
  <g
     transform="translate(-47.940944,-217.65094)"
     id="g132">
    <path
       id="path130"
       shape-rendering="geometricPrecision"
       fill="#ff0000"
       stroke-linejoin="miter"
       fill-rule="evenodd"
       stroke-width="0"
       stroke="#ff0000"
       d="m 237.6,264.65 v 0 l 0.26,0.14 0.26,0.15 -4.17,7.4 h -0.35 -0.35 z" />
  </g>
  <g
     transform="translate(-47.940944,-217.65094)"
     id="g136">
    <path
       id="path134"
       shape-rendering="geometricPrecision"
       fill="#ff0000"
       stroke-linejoin="miter"
       fill-rule="evenodd"
       stroke-width="0"
       stroke="#ff0000"
       d="m 233.25,272.34 v 0 h 0.35 0.35 l 7.23,12.25 -0.26,0.15 -0.26,0.15 z" />
  </g>
  <g
     transform="translate(-47.940944,-217.65094)"
     id="g140">
    <path
       id="path138"
       shape-rendering="geometricPrecision"
       fill="#ff0000"
       stroke-linejoin="miter"
       fill-rule="evenodd"
       stroke-width="0"
       stroke="#ff0000"
       d="m 233.72,247.4 v 0 h -0.35 -0.35 l 6.91,-12.23 0.52,-0.31 h 0.35 z" />
  </g>
  <g
     transform="translate(-47.940944,-217.65094)"
     id="g144">
    <path
       id="path142"
       shape-rendering="geometricPrecision"
       fill="#ff0000"
       stroke-linejoin="miter"
       fill-rule="evenodd"
       stroke-width="0"
       stroke="#ff0000"
       d="m 240.8,234.86 v 0 h -0.35 l -0.52,-0.29 -7.05,-11.96 0.26,-0.15 0.26,-0.15 z" />
  </g>
  <g
     transform="translate(-47.940944,-217.65094)"
     id="g148">
    <path
       id="path146"
       shape-rendering="geometricPrecision"
       fill="#ff0000"
       stroke-linejoin="miter"
       fill-rule="evenodd"
       stroke-width="0"
       stroke="#ff0000"
       d="m 239.93,234.57 v 0 l 0.52,0.29 -0.52,0.31 -13.88,0.13 v -0.3 -0.3 z" />
  </g>
  <circle
     id="circle150"
     fill="#ff0000"
     stroke-width="0"
     stroke="#ff0000"
     r="0.83336961"
     cy="17.209053"
     cx="195.28905" />
  <g
     transform="translate(-47.940944,-217.65094)"
     id="g158">
    <line
       id="line152"
       shape-rendering="auto"
       stroke-width="0.6"
       stroke="#ff0000"
       y2="233.08"
       x2="294.89999"
       y1="233.08"
       x1="280.5" />
    <path
       id="path154"
       shape-rendering="geometricPrecision"
       fill="#ff0000"
       stroke-linejoin="miter"
       fill-rule="evenodd"
       stroke-width="0"
       stroke="#ff0000"
       d="m 280.5,235.38 v 0 0.6 h 14.98 l -0.35,-0.6 z" />
    <path
       id="path156"
       shape-rendering="geometricPrecision"
       fill="#ff0000"
       stroke-linejoin="miter"
       fill-rule="evenodd"
       stroke-width="0"
       stroke="#ff0000"
       d="m 280.5,232.78 v 0 0.6 h 14.63 l 0.34,-0.6 z" />
  </g>
  <g
     transform="translate(-47.940944,-217.65094)"
     id="g162">
    <path
       id="path160"
       shape-rendering="geometricPrecision"
       fill="#ff0000"
       stroke-linejoin="miter"
       fill-rule="evenodd"
       stroke-width="0"
       stroke="#ff0000"
       d="m 295.25,234.38 v 0 h -0.35 -0.35 l 7.29,-12.63 0.26,0.15 0.26,0.15 z" />
  </g>
  <g
     transform="translate(-47.940944,-217.65094)"
     id="g166">
    <path
       id="path164"
       shape-rendering="geometricPrecision"
       fill="#ff0000"
       stroke-linejoin="miter"
       fill-rule="evenodd"
       stroke-width="0"
       stroke="#ff0000"
       d="m 294.55,234.38 v 0 h 0.35 0.35 l 7.2,12.47 h -0.35 -0.35 z" />
  </g>
  <g
     transform="translate(-47.940944,-217.65094)"
     id="g172">
    <text
       id="text170"
       text-rendering="geometricPrecision"
       text-anchor="start"
       xml:space="preserve"><tspan
         id="tspan168"
         fill="#ff0000"
         font-size="10px"
         font-family="Arial"
         y="263.22"
         x="291">O</tspan></text>
  </g>
  <g
     transform="translate(-47.940944,-217.65094)"
     id="g176">
    <path
       id="path174"
       shape-rendering="geometricPrecision"
       fill="#ff0000"
       stroke-linejoin="miter"
       fill-rule="evenodd"
       stroke-width="0"
       stroke="#ff0000"
       d="m 301.75,246.85 v 0 h 0.35 0.35 l -4.75,8.21 -0.26,-0.15 -0.26,-0.15 z" />
  </g>
  <g
     transform="translate(-47.940944,-217.65094)"
     id="g182">
    <text
       id="text180"
       text-rendering="geometricPrecision"
       text-anchor="start"
       xml:space="preserve"><tspan
         id="tspan178"
         fill="#ff0000"
         font-size="10px"
         font-family="Arial"
         y="250.75"
         x="312.60001">O</tspan></text>
  </g>
  <g
     transform="translate(-47.940944,-217.65094)"
     id="g190">
    <line
       id="line184"
       shape-rendering="auto"
       stroke-width="0.6"
       stroke="#ff0000"
       y2="245.55"
       x2="311.5"
       y1="245.55"
       x1="302.10001" />
    <path
       id="path186"
       shape-rendering="geometricPrecision"
       fill="#ff0000"
       stroke-linejoin="miter"
       fill-rule="evenodd"
       stroke-width="0"
       stroke="#ff0000"
       d="m 301.87,247.85 v 0 l -0.35,0.6 h 9.98 v -0.6 z" />
    <path
       id="path188"
       shape-rendering="geometricPrecision"
       fill="#ff0000"
       stroke-linejoin="miter"
       fill-rule="evenodd"
       stroke-width="0"
       stroke="#ff0000"
       d="m 301.52,245.25 v 0 l 0.35,0.6 h 9.63 v -0.6 z" />
  </g>
  <g
     transform="translate(-47.940944,-217.65094)"
     id="g194">
    <path
       id="path192"
       shape-rendering="geometricPrecision"
       fill="#ff0000"
       stroke-linejoin="miter"
       fill-rule="evenodd"
       stroke-width="0"
       stroke="#ff0000"
       d="m 297.51,264.44 v 0 l 0.26,-0.15 0.26,-0.15 4.33,7.5 -0.26,0.15 -0.26,0.15 z" />
  </g>
  <g
     transform="translate(-47.940944,-217.65094)"
     id="g198">
    <path
       id="path196"
       shape-rendering="geometricPrecision"
       fill="#ff0000"
       stroke-linejoin="miter"
       fill-rule="evenodd"
       stroke-width="0"
       stroke="#ff0000"
       d="m 404.18,233.09 v 0 l -0.3,-0.21 0.3,-0.43 18.92,-7.09 v 0.32 0.32 z" />
  </g>
  <g
     transform="translate(-47.940944,-217.65094)"
     id="g202">
    <path
       id="path200"
       shape-rendering="geometricPrecision"
       fill="#ff0000"
       stroke-linejoin="miter"
       fill-rule="evenodd"
       stroke-width="0"
       stroke="#ff0000"
       d="m 403.58,232.36 v 0 l 0.3,0.52 -0.3,0.17 -12.33,-7.11 0.15,-0.26 0.15,-0.26 z" />
  </g>
  <g
     transform="translate(-47.940944,-217.65094)"
     id="g206">
    <path
       id="path204"
       shape-rendering="geometricPrecision"
       fill="#ff0000"
       stroke-linejoin="miter"
       fill-rule="evenodd"
       stroke-width="0"
       stroke="#ff0000"
       d="m 403.58,233.05 v 0 l 0.3,-0.17 0.3,0.21 v 14.35 l -0.3,-0.17 -0.3,-0.17 z" />
  </g>
  <g
     transform="translate(-47.940944,-217.65094)"
     id="g210">
    <path
       id="path208"
       shape-rendering="geometricPrecision"
       fill="#ff0000"
       stroke-linejoin="miter"
       fill-rule="evenodd"
       stroke-width="0"
       stroke="#ff0000"
       d="m 404.18,232.45 v 0 l -0.3,0.43 -0.3,-0.52 v -13.88 h 0.3 0.3 z" />
  </g>
  <g
     transform="translate(-47.940944,-217.65094)"
     id="g214">
    <path
       id="path212"
       shape-rendering="geometricPrecision"
       fill="#ff0000"
       stroke-linejoin="miter"
       fill-rule="evenodd"
       stroke-width="0"
       stroke="#ff0000"
       d="m 423.1,226 v 0 -0.32 -0.32 l 18.92,7.09 0.3,0.43 -0.3,0.21 z" />
  </g>
  <g
     transform="translate(-47.940944,-217.65094)"
     id="g218">
    <path
       id="path216"
       shape-rendering="geometricPrecision"
       fill="#ff0000"
       stroke-linejoin="miter"
       fill-rule="evenodd"
       stroke-width="0"
       stroke="#ff0000"
       d="m 442.62,232.88 v 0 h -0.3 l -0.3,-0.43 v -13.97 h 0.3 0.3 z" />
  </g>
  <g
     transform="translate(-47.940944,-217.65094)"
     id="g222">
    <path
       id="path220"
       shape-rendering="geometricPrecision"
       fill="#ff0000"
       stroke-linejoin="miter"
       fill-rule="evenodd"
       stroke-width="0"
       stroke="#ff0000"
       d="m 442.02,233.09 v 0 l 0.3,-0.21 h 0.3 v 14.56 l -0.3,-0.17 -0.3,-0.17 z" />
  </g>
  <g
     transform="translate(-47.940944,-217.65094)"
     id="g228">
    <text
       id="text226"
       text-rendering="geometricPrecision"
       text-anchor="start"
       xml:space="preserve"><tspan
         id="tspan224"
         fill="#ff0000"
         font-size="10px"
         font-family="Arial"
         y="258.37"
         x="450.89001">O</tspan></text>
  </g>
  <g
     transform="translate(-47.940944,-217.65094)"
     id="g236">
    <line
       id="line230"
       shape-rendering="auto"
       stroke-width="0.6"
       stroke="#ff0000"
       y2="250.59"
       x2="450.66"
       y1="246.14999"
       x1="442.97" />
    <path
       id="path232"
       shape-rendering="geometricPrecision"
       fill="#ff0000"
       stroke-linejoin="miter"
       fill-rule="evenodd"
       stroke-width="0"
       stroke="#ff0000"
       d="m 441.62,248.02 v 0 l -0.6,0.34 8.2,4.73 0.3,-0.51 z" />
    <path
       id="path234"
       shape-rendering="geometricPrecision"
       fill="#ff0000"
       stroke-linejoin="miter"
       fill-rule="evenodd"
       stroke-width="0"
       stroke="#ff0000"
       d="m 442.62,245.6 v 0 0.69 l 7.89,4.56 0.3,-0.52 z" />
  </g>
  <g
     transform="translate(-47.940944,-217.65094)"
     id="g242">
    <text
       id="text240"
       text-rendering="geometricPrecision"
       text-anchor="start"
       xml:space="preserve"><tspan
         id="tspan238"
         fill="#ff0000"
         font-size="10px"
         font-family="Arial"
         y="258.37"
         x="412.45001">O</tspan></text>
  </g>
  <g
     transform="translate(-47.940944,-217.65094)"
     id="g250">
    <line
       id="line244"
       shape-rendering="auto"
       stroke-width="0.6"
       stroke="#ff0000"
       y2="250.61"
       x2="412.26001"
       y1="246.14999"
       x1="404.53" />
    <path
       id="path246"
       shape-rendering="geometricPrecision"
       fill="#ff0000"
       stroke-linejoin="miter"
       fill-rule="evenodd"
       stroke-width="0"
       stroke="#ff0000"
       d="m 403.18,248.02 v 0 l -0.6,0.34 8.24,4.76 0.3,-0.52 z" />
    <path
       id="path248"
       shape-rendering="geometricPrecision"
       fill="#ff0000"
       stroke-linejoin="miter"
       fill-rule="evenodd"
       stroke-width="0"
       stroke="#ff0000"
       d="m 404.18,245.6 v 0 0.69 l 7.93,4.58 0.3,-0.52 z" />
  </g>
  <g
     transform="translate(-47.940944,-217.65094)"
     id="g256">
    <text
       id="text254"
       text-rendering="geometricPrecision"
       text-anchor="start"
       xml:space="preserve"><tspan
         id="tspan252"
         fill="#ff0000"
         font-size="10px"
         font-family="Arial"
         y="258.37"
         x="387.5">O</tspan></text>
  </g>
  <g
     transform="translate(-47.940944,-217.65094)"
     id="g260">
    <path
       id="path258"
       shape-rendering="geometricPrecision"
       fill="#ff0000"
       stroke-linejoin="miter"
       fill-rule="evenodd"
       stroke-width="0"
       stroke="#ff0000"
       d="m 403.58,247.1 v 0 l 0.3,0.17 0.3,0.17 -8.14,4.7 -0.15,-0.26 -0.15,-0.26 z" />
  </g>
  <g
     transform="translate(-47.940944,-217.65094)"
     id="g264">
    <path
       id="path262"
       shape-rendering="geometricPrecision"
       fill="#ff0000"
       stroke-linejoin="miter"
       fill-rule="evenodd"
       stroke-width="0"
       stroke="#ff0000"
       d="m 391.1,260.1 v 0 h 0.3 0.3 v 8.6 l -0.3,0.17 -0.3,0.17 z" />
  </g>
  <g
     transform="translate(-47.940944,-217.65094)"
     id="g268">
    <path
       id="path266"
       shape-rendering="geometricPrecision"
       fill="#ff0000"
       stroke-linejoin="miter"
       fill-rule="evenodd"
       stroke-width="0"
       stroke="#ff0000"
       d="m 391.1,269.04 v 0 l 0.3,-0.17 0.3,-0.17 12.33,7.11 -0.15,0.26 -0.15,0.26 z" />
  </g>
  <g
     transform="translate(-47.940944,-217.65094)"
     id="g274">
    <text
       id="text272"
       text-rendering="geometricPrecision"
       text-anchor="start"
       xml:space="preserve"><tspan
         id="tspan270"
         fill="#ff0000"
         font-size="10px"
         font-family="Arial"
         y="258.37"
         x="425.95001">O</tspan></text>
  </g>
  <g
     transform="translate(-47.940944,-217.65094)"
     id="g278">
    <path
       id="path276"
       shape-rendering="geometricPrecision"
       fill="#ff0000"
       stroke-linejoin="miter"
       fill-rule="evenodd"
       stroke-width="0"
       stroke="#ff0000"
       d="m 442.02,247.1 v 0 l 0.3,0.17 0.3,0.17 -8.08,4.67 -0.15,-0.26 -0.15,-0.26 z" />
  </g>
  <g
     transform="translate(-47.940944,-217.65094)"
     id="g282">
    <path
       id="path280"
       shape-rendering="geometricPrecision"
       fill="#ff0000"
       stroke-linejoin="miter"
       fill-rule="evenodd"
       stroke-width="0"
       stroke="#ff0000"
       d="m 429.55,260.1 v 0 h 0.3 0.3 v 8.77 h -0.3 -0.3 z" />
  </g>
  <circle
     id="circle284"
     fill="#ff0000"
     stroke-width="0"
     stroke="#ff0000"
     r="0.83333331"
     cy="15.199058"
     cx="397.14905" />
  <g
     transform="translate(-47.940944,-217.65094)"
     id="Arrow">
    <line
       id="line286"
       shape-rendering="auto"
       stroke-width="0.6"
       stroke="#ff0000"
       y2="235.88"
       x2="333.75"
       y1="235.88"
       x1="367.29001" />
    <path
       id="path288"
       shape-rendering="geometricPrecision"
       fill="#ff0000"
       stroke-miterlimit="6.93086"
       stroke-linejoin="miter"
       fill-rule="evenodd"
       stroke-width="0"
       stroke="#ff0000"
       d="m 374.17,235.88 -9,-2.25 c 1.56,1.27 1.56,3.23 0,4.5 z" />
  </g>
  <g
     transform="translate(-47.940944,-217.65094)"
     id="g295">
    <path
       id="path291"
       shape-rendering="geometricPrecision"
       fill="none"
       stroke-linejoin="bevel"
       fill-rule="evenodd"
       stroke-width="0.6"
       stroke="#ff0000"
       d="m 259.24,231.99 c -0.82,-4.41 -5.07,-7.33 -9.49,-6.51 -3.01,0.56 -5.58,2.93 -6.37,5.89" />
    <path
       id="path293"
       shape-rendering="geometricPrecision"
       fill="#ff0000"
       stroke-miterlimit="5.88642"
       stroke-linejoin="miter"
       fill-rule="evenodd"
       stroke-width="0"
       stroke="#ff0000"
       d="m 258.8,235.59 1.51,-4.8 c -0.85,1.04 -1.5,0.6 -1.5,0.6 z" />
  </g>
  <g
     transform="translate(-47.940944,-217.65094)"
     id="g301">
    <path
       id="path297"
       shape-rendering="geometricPrecision"
       fill="none"
       stroke-linejoin="bevel"
       fill-rule="evenodd"
       stroke-width="0.6"
       stroke="#ff0000"
       d="m 284.63,229.88 c -1.36,-5.09 -6.61,-8.12 -11.7,-6.76 -3.68,0.98 -6.57,4.33 -7.02,8.11" />
    <path
       id="path299"
       shape-rendering="geometricPrecision"
       fill="#ff0000"
       stroke-miterlimit="5.88642"
       stroke-linejoin="miter"
       fill-rule="evenodd"
       stroke-width="0"
       stroke="#ff0000"
       d="m 266.47,234.81 -1.69,-4.74 c 0.88,1 1.52,0.54 1.52,0.54 z" />
  </g>
  <g
     transform="translate(-47.940944,-217.65094)"
     id="g307">
    <path
       id="path303"
       shape-rendering="geometricPrecision"
       fill="none"
       stroke-linejoin="bevel"
       fill-rule="evenodd"
       stroke-width="0.6"
       stroke="#ff0000"
       d="m 294.75,226.08 c -0.34,-2.17 -2.37,-3.65 -4.55,-3.32 -2.17,0.34 -3.67,2.37 -3.33,4.54 0.13,0.83 0.53,1.61 1.12,2.2" />
    <path
       id="path305"
       shape-rendering="geometricPrecision"
       fill="#ff0000"
       stroke-miterlimit="5.87481"
       stroke-linejoin="miter"
       fill-rule="evenodd"
       stroke-width="0"
       stroke="#ff0000"
       d="m 293.34,229.43 2.55,-4.33 c -1.06,0.82 -1.6,0.25 -1.6,0.25 z" />
  </g>
  <g
     transform="translate(-47.940944,-217.65094)"
     id="g311">
    <path
       id="path309"
       shape-rendering="geometricPrecision"
       fill="#ff0000"
       stroke-linejoin="miter"
       fill-rule="evenodd"
       stroke-width="0"
       stroke="#ff0000"
       d="m 137.1,350.53 v 0 l 0.1,-0.28 0.1,-0.28 21.16,7.06 0.3,0.42 -0.3,0.22 z" />
  </g>
  <g
     transform="translate(-47.940944,-217.65094)"
     id="g315">
    <path
       id="path313"
       shape-rendering="geometricPrecision"
       fill="#ff0000"
       stroke-linejoin="miter"
       fill-rule="evenodd"
       stroke-width="0"
       stroke="#ff0000"
       d="m 159.06,357.67 v 0 l -0.3,-0.22 0.3,-0.42 21.26,-7.1 v 0.32 0.32 z" />
  </g>
  <g
     transform="translate(-47.940944,-217.65094)"
     id="g319">
    <path
       id="path317"
       shape-rendering="geometricPrecision"
       fill="#ff0000"
       stroke-linejoin="miter"
       fill-rule="evenodd"
       stroke-width="0"
       stroke="#ff0000"
       d="m 180.32,350.57 v 0 -0.32 -0.32 l 21.26,7.1 0.3,0.42 -0.3,0.22 z" />
  </g>
  <g
     transform="translate(-47.940944,-217.65094)"
     id="g325">
    <text
       id="text323"
       text-rendering="geometricPrecision"
       text-anchor="start"
       xml:space="preserve"><tspan
         id="tspan321"
         fill="#ff0000"
         font-size="10px"
         font-family="Arial"
         y="354.14999"
         x="220.12">Br</tspan></text>
  </g>
  <g
     transform="translate(-47.940944,-217.65094)"
     id="g329">
    <path
       id="path327"
       shape-rendering="geometricPrecision"
       fill="#ff0000"
       stroke-linejoin="miter"
       fill-rule="evenodd"
       stroke-width="0"
       stroke="#ff0000"
       d="m 202.18,357.67 v 0 l -0.3,-0.22 0.3,-0.42 17.11,-5.71 0.09,0.29 0.1,0.28 z" />
  </g>
  <g
     transform="translate(-47.940944,-217.65094)"
     id="g333">
    <path
       id="path331"
       shape-rendering="geometricPrecision"
       fill="#ff0000"
       stroke-linejoin="miter"
       fill-rule="evenodd"
       stroke-width="0"
       stroke="#ff0000"
       d="m 158.46,357.67 v 0 l 0.3,-0.22 0.3,0.22 v 14.35 l -0.3,-0.17 -0.3,-0.17 z" />
  </g>
  <g
     transform="translate(-47.940944,-217.65094)"
     id="g337">
    <path
       id="path335"
       shape-rendering="geometricPrecision"
       fill="#ff0000"
       stroke-linejoin="miter"
       fill-rule="evenodd"
       stroke-width="0"
       stroke="#ff0000"
       d="m 159.06,357.03 v 0 l -0.3,0.42 -0.3,-0.42 v -13.98 h 0.3 0.3 z" />
  </g>
  <g
     transform="translate(-47.940944,-217.65094)"
     id="g343">
    <text
       id="text341"
       text-rendering="geometricPrecision"
       text-anchor="start"
       xml:space="preserve"><tspan
         id="tspan339"
         fill="#ff0000"
         font-size="10px"
         font-family="Arial"
         y="382.95001"
         x="142.39">O</tspan></text>
  </g>
  <g
     transform="translate(-47.940944,-217.65094)"
     id="g347">
    <path
       id="path345"
       shape-rendering="geometricPrecision"
       fill="#ff0000"
       stroke-linejoin="miter"
       fill-rule="evenodd"
       stroke-width="0"
       stroke="#ff0000"
       d="m 158.46,371.68 v 0 l 0.3,0.17 0.3,0.17 -8.12,4.69 -0.15,-0.26 -0.15,-0.26 z" />
  </g>
  <g
     transform="translate(-47.940944,-217.65094)"
     id="g353">
    <text
       id="text351"
       text-rendering="geometricPrecision"
       text-anchor="start"
       xml:space="preserve"><tspan
         id="tspan349"
         fill="#ff0000"
         font-size="10px"
         font-family="Arial"
         y="382.95001"
         x="167.33">O</tspan></text>
  </g>
  <g
     transform="translate(-47.940944,-217.65094)"
     id="g361">
    <line
       id="line355"
       shape-rendering="auto"
       stroke-width="0.6"
       stroke="#ff0000"
       y2="375.20001"
       x2="167.16"
       y1="370.73001"
       x1="159.41" />
    <path
       id="path357"
       shape-rendering="geometricPrecision"
       fill="#ff0000"
       stroke-linejoin="miter"
       fill-rule="evenodd"
       stroke-width="0"
       stroke="#ff0000"
       d="m 158.06,372.6 v 0 l -0.6,0.34 8.26,4.77 0.3,-0.52 z" />
    <path
       id="path359"
       shape-rendering="geometricPrecision"
       fill="#ff0000"
       stroke-linejoin="miter"
       fill-rule="evenodd"
       stroke-width="0"
       stroke="#ff0000"
       d="m 159.06,370.18 v 0 0.69 l 7.95,4.59 0.3,-0.51 z" />
  </g>
  <g
     transform="translate(-47.940944,-217.65094)"
     id="g365">
    <path
       id="path363"
       shape-rendering="geometricPrecision"
       fill="#ff0000"
       stroke-linejoin="miter"
       fill-rule="evenodd"
       stroke-width="0"
       stroke="#ff0000"
       d="m 145.99,384.7 v 0 h 0.3 0.3 v 8.58 l -0.3,0.17 -0.3,0.17 z" />
  </g>
  <g
     transform="translate(-47.940944,-217.65094)"
     id="g369">
    <path
       id="path367"
       shape-rendering="geometricPrecision"
       fill="#ff0000"
       stroke-linejoin="miter"
       fill-rule="evenodd"
       stroke-width="0"
       stroke="#ff0000"
       d="m 145.99,393.62 v 0 l 0.3,-0.17 0.3,-0.17 12.32,7.11 -0.15,0.26 -0.15,0.26 z" />
  </g>
  <g
     transform="translate(-47.940944,-217.65094)"
     id="g373">
    <path
       id="path371"
       shape-rendering="geometricPrecision"
       fill="#ff0000"
       stroke-linejoin="miter"
       fill-rule="evenodd"
       stroke-width="0"
       stroke="#ff0000"
       d="m 201.58,357.67 v 0 l 0.3,-0.22 0.3,0.22 v 14.35 l -0.3,-0.17 -0.3,-0.17 z" />
  </g>
  <g
     transform="translate(-47.940944,-217.65094)"
     id="g379">
    <text
       id="text377"
       text-rendering="geometricPrecision"
       text-anchor="start"
       xml:space="preserve"><tspan
         id="tspan375"
         fill="#ff0000"
         font-size="10px"
         font-family="Arial"
         y="382.95001"
         x="185.50999">O</tspan></text>
  </g>
  <g
     transform="translate(-47.940944,-217.65094)"
     id="g383">
    <path
       id="path381"
       shape-rendering="geometricPrecision"
       fill="#ff0000"
       stroke-linejoin="miter"
       fill-rule="evenodd"
       stroke-width="0"
       stroke="#ff0000"
       d="m 201.58,371.68 v 0 l 0.3,0.17 0.3,0.17 -8.14,4.71 -0.15,-0.26 -0.15,-0.26 z" />
  </g>
  <g
     transform="translate(-47.940944,-217.65094)"
     id="g389">
    <text
       id="text387"
       text-rendering="geometricPrecision"
       text-anchor="start"
       xml:space="preserve"><tspan
         id="tspan385"
         fill="#ff0000"
         font-size="10px"
         font-family="Arial"
         y="382.95001"
         x="210.45">O</tspan></text>
  </g>
  <g
     transform="translate(-47.940944,-217.65094)"
     id="g397">
    <line
       id="line391"
       shape-rendering="auto"
       stroke-width="0.6"
       stroke="#ff0000"
       y2="375.19"
       x2="210.25999"
       y1="370.73001"
       x1="202.53" />
    <path
       id="path393"
       shape-rendering="geometricPrecision"
       fill="#ff0000"
       stroke-linejoin="miter"
       fill-rule="evenodd"
       stroke-width="0"
       stroke="#ff0000"
       d="m 201.18,372.6 v 0 l -0.6,0.34 8.24,4.76 0.3,-0.52 z" />
    <path
       id="path395"
       shape-rendering="geometricPrecision"
       fill="#ff0000"
       stroke-linejoin="miter"
       fill-rule="evenodd"
       stroke-width="0"
       stroke="#ff0000"
       d="m 202.18,370.18 v 0 0.69 l 7.93,4.58 0.3,-0.52 z" />
  </g>
  <g
     transform="translate(-47.940944,-217.65094)"
     id="g401">
    <path
       id="path399"
       shape-rendering="geometricPrecision"
       fill="#ff0000"
       stroke-linejoin="miter"
       fill-rule="evenodd"
       stroke-width="0"
       stroke="#ff0000"
       d="m 189.11,384.7 v 0 h 0.3 0.3 v 8.75 h -0.3 -0.3 z" />
  </g>
  <g
     transform="translate(-47.940944,-217.65094)"
     id="g405">
    <path
       id="path403"
       shape-rendering="geometricPrecision"
       fill="#ff0000"
       stroke-linejoin="miter"
       fill-rule="evenodd"
       stroke-width="0"
       stroke="#ff0000"
       d="m 202.18,357.03 v 0 l -0.3,0.42 -0.3,-0.42 v -13.98 h 0.3 0.3 z" />
  </g>
  <g
     transform="translate(-47.940944,-217.65094)"
     id="Bracket">
    <path
       id="path407"
       shape-rendering="geometricPrecision"
       fill="none"
       stroke-linejoin="miter"
       fill-rule="evenodd"
       stroke-width="0.6"
       stroke="#ff0000"
       d="m 207.38,344.63 a 18,18 0 0 1 0,18" />
  </g>
  <g
     transform="translate(-47.940944,-217.65094)"
     id="g412">
    <path
       id="path410"
       shape-rendering="geometricPrecision"
       fill="none"
       stroke-linejoin="miter"
       fill-rule="evenodd"
       stroke-width="0.6"
       stroke="#ff0000"
       d="m 172.88,362.63 a 18,18 0 0 1 0,-18" />
  </g>
  <g
     transform="translate(-47.940944,-217.65094)"
     id="g418">
    <text
       id="text416"
       text-rendering="geometricPrecision"
       text-anchor="start"
       xml:space="preserve"><tspan
         id="tspan414"
         fill="#ff0000"
         font-size="10px"
         font-family="Arial"
         y="365.25"
         x="211.13">n</tspan></text>
  </g>
</svg>
