<?xml version="1.0" encoding="UTF-8" standalone="no"?>
<!-- Created with Inkscape (http://www.inkscape.org/) -->

<svg
   width="114.21mm"
   height="11.463mm"
   viewBox="-2 -2 114.21 11.463"
   version="1.1"
   id="svg5"
   inkscape:version="1.2.2 (b0a8486541, 2022-12-01)"
   sodipodi:docname="Model1_rxn.svg"
   xmlns:inkscape="http://www.inkscape.org/namespaces/inkscape"
   xmlns:sodipodi="http://sodipodi.sourceforge.net/DTD/sodipodi-0.dtd"
   xmlns="http://www.w3.org/2000/svg"
   xmlns:svg="http://www.w3.org/2000/svg">
  <sodipodi:namedview
     id="namedview7"
     pagecolor="#ffffff"
     bordercolor="#999999"
     borderopacity="1"
     inkscape:showpageshadow="0"
     inkscape:pageopacity="0"
     inkscape:pagecheckerboard="0"
     inkscape:deskcolor="#d1d1d1"
     inkscape:document-units="mm"
     showgrid="false"
     inkscape:zoom="1.1789508"
     inkscape:cx="251.4948"
     inkscape:cy="150.5576"
     inkscape:window-width="1440"
     inkscape:window-height="890"
     inkscape:window-x="-6"
     inkscape:window-y="-6"
     inkscape:window-maximized="1"
     inkscape:current-layer="layer1" />
  <defs
     id="defs2">
    <marker
       style="overflow:visible"
       id="TriangleStart"
       refX="0"
       refY="0"
       orient="auto-start-reverse"
       inkscape:stockid="TriangleStart"
       markerWidth="5.3244081"
       markerHeight="6.155385"
       viewBox="0 0 5.3244081 6.1553851"
       inkscape:isstock="true"
       inkscape:collect="always"
       preserveAspectRatio="xMidYMid">
      <path
         transform="scale(0.5)"
         style="fill:context-stroke;fill-rule:evenodd;stroke:context-stroke;stroke-width:1pt"
         d="M 5.77,0 -2.88,5 V -5 Z"
         id="path135" />
    </marker>
  </defs>
  <g
     inkscape:label="Layer 1"
     inkscape:groupmode="layer"
     id="layer1"
     transform="translate(-37.176269,-124.4418)">
    <text
       xml:space="preserve"
       style="font-size:4.23333px;font-family:Arial;-inkscape-font-specification:Arial;fill:#000000;stroke:none;stroke-width:0.264583"
       x="47.920849"
       y="131.23148"
       id="text236"><tspan
         sodipodi:role="line"
         id="tspan234"
         style="fill:#000000;stroke:none;stroke-width:0.264583"
         x="47.920849"
         y="131.23148">A</tspan></text>
    <text
       xml:space="preserve"
       style="font-size:4.23333px;font-family:Arial;-inkscape-font-specification:Arial;fill:#000000;stroke:none;stroke-width:0.264583"
       x="70.521538"
       y="131.23148"
       id="text240"><tspan
         sodipodi:role="line"
         id="tspan238"
         style="fill:#000000;stroke:none;stroke-width:0.264583"
         x="70.521538"
         y="131.23148">B</tspan></text>
    <text
       xml:space="preserve"
       style="font-size:4.23333px;font-family:Arial;-inkscape-font-specification:Arial;fill:#000000;stroke:none;stroke-width:0.264583"
       x="59.472015"
       y="131.2077"
       id="text352"><tspan
         sodipodi:role="line"
         id="tspan350"
         style="stroke-width:0.264583"
         x="59.472015"
         y="131.2077">+</tspan></text>
    <text
       xml:space="preserve"
       style="font-size:4.23333px;font-family:Arial;-inkscape-font-specification:Arial;fill:#000000;stroke:none;stroke-width:0.264583"
       x="130.83844"
       y="131.20667"
       id="text356"><tspan
         sodipodi:role="line"
         id="tspan354"
         style="stroke-width:0.264583"
         x="130.83844"
         y="131.20667">ab</tspan></text>
    <text
       xml:space="preserve"
       style="font-size:4.23333px;font-family:Arial;-inkscape-font-specification:Arial;fill:#000000;stroke:none;stroke-width:0.264583"
       x="102.56118"
       y="127.4721"
       id="text360"><tspan
         sodipodi:role="line"
         id="tspan358"
         style="stroke-width:0.264583"
         x="102.56118"
         y="127.4721">k</tspan></text>
    <path
       style="fill:#000000;stroke:#000000;stroke-width:0.711;stroke-dasharray:none;stroke-opacity:1;marker-end:url(#TriangleStart)"
       d="M 96.950608,129.71632 H 109.86427"
       id="path425" />
    <path
       style="fill:none;stroke:#000000;stroke-width:0.710999;stroke-dasharray:none;stroke-opacity:1"
       d="m 47.161827,129.45847 c -1.064125,0.44459 -0.592296,0.40961 -1.373885,0.35646 -0.374957,-0.0255 -1.133908,-1.09886 -2.193379,-0.82397 -1.628353,0.42248 -0.399908,1.77233 -3.256484,1.57808 -0.0996,-0.007 -0.761394,0.018 -0.895623,-0.0609 -0.344914,-0.20281 -0.910982,-1.79484 -1.236854,-1.6587 -0.503637,0.21042 -0.62389,1.08229 -0.971752,1.05864"
       id="path1226" />
    <path
       style="fill:none;stroke:#000000;stroke-width:0.710999;stroke-dasharray:none;stroke-opacity:1"
       d="m 74.283916,129.35456 c 2.751426,-0.39668 1.591352,2.013 4.937299,0.89769 0.366408,-0.12214 1.549773,-1.59215 1.795381,-1.34654 1.146886,1.14688 -0.940999,-0.31301 0.673269,0.89769 0.572056,0.42904 2.526197,0.84014 3.141916,0.22442 0.231029,-0.23102 0.217819,-0.44224 0.448848,-0.67326"
       id="path1228" />
    <path
       style="fill:none;stroke:#000000;stroke-width:0.710999;stroke-dasharray:none;stroke-opacity:1"
       d="m 130.11149,129.45847 c -1.06412,0.44459 -0.59229,0.40961 -1.37388,0.35646 -0.37496,-0.0255 -1.13391,-1.09886 -2.19338,-0.82397 -1.62835,0.42248 -0.39991,1.77233 -3.25648,1.57808 -0.0996,-0.007 -0.7614,0.018 -0.89563,-0.0609 -0.34491,-0.20281 -0.91098,-1.79484 -1.23685,-1.6587 -0.50364,0.21042 -0.62389,1.08229 -0.97175,1.05864"
       id="path1226-2" />
    <path
       style="fill:none;stroke:#000000;stroke-width:0.710999;stroke-dasharray:none;stroke-opacity:1"
       d="m 136.13785,129.35456 c 2.75143,-0.39668 1.59135,2.013 4.9373,0.89769 0.36641,-0.12214 1.54977,-1.59215 1.79538,-1.34654 1.14688,1.14688 -0.941,-0.31301 0.67327,0.89769 0.57205,0.42904 2.52619,0.84014 3.14191,0.22442 0.23103,-0.23102 0.21782,-0.44224 0.44885,-0.67326"
       id="path1228-7" />
  </g>
</svg>
