<?xml version="1.0" encoding="UTF-8" standalone="no"?>
<svg
   width="24.470835mm"
   height="17.894264mm"
   viewBox="0 0 92.488195 67.631865"
   version="1.1"
   id="svg250"
   sodipodi:docname="Model3_figs.svg"
   inkscape:version="1.1.1 (3bf5ae0d25, 2021-09-20)"
   xmlns:inkscape="http://www.inkscape.org/namespaces/inkscape"
   xmlns:sodipodi="http://sodipodi.sourceforge.net/DTD/sodipodi-0.dtd"
   xmlns="http://www.w3.org/2000/svg"
   xmlns:svg="http://www.w3.org/2000/svg">
  <defs
     id="defs254" />
  <sodipodi:namedview
     id="namedview252"
     pagecolor="#ffffff"
     bordercolor="#666666"
     borderopacity="1.0"
     inkscape:pageshadow="2"
     inkscape:pageopacity="0.0"
     inkscape:pagecheckerboard="0"
     showgrid="false"
     units="mm"
     fit-margin-top="2"
     fit-margin-left="2"
     fit-margin-right="2"
     fit-margin-bottom="2"
     inkscape:zoom="1.8336222"
     inkscape:cx="90.258507"
     inkscape:cy="-124.07136"
     inkscape:window-width="1920"
     inkscape:window-height="1017"
     inkscape:window-x="-8"
     inkscape:window-y="559"
     inkscape:window-maximized="1"
     inkscape:current-layer="svg250"
     inkscape:document-units="mm" />
  <text
     x="-174.95775"
     y="-213.91949"
     stroke="none"
     fill="#000000"
     font-style="normal"
     font-weight="normal"
     font-size="13.3333px"
     font-family="Arial"
     id="text2"
     style="stroke-width:0.0666667">O</text>
  <text
     x="-141.70235"
     y="-233.11949"
     stroke="none"
     fill="#000000"
     font-style="normal"
     font-weight="normal"
     font-size="13.3333px"
     font-family="Arial"
     id="text4"
     style="stroke-width:0.0666667">O</text>
  <path
     stroke="none"
     fill="#000000"
     d="m -169.37159,-225.59734 h -0.8 v -12.49134 l 0.4,-0.23066 0.4,0.23066 z"
     id="path6"
     style="stroke-width:0.0666667" />
  <path
     stroke="none"
     fill="#000000"
     d="m -153.14425,-209.98133 v 0.924 l -10.60934,-6.126 0.4,-0.69267 z"
     id="path8"
     style="stroke-width:0.0666667" />
  <path
     stroke="none"
     fill="#000000"
     d="m -136.91624,-219.35067 0.4,0.23134 v 0.462 l -16.62801,9.6 v -0.924 z"
     id="path10"
     style="stroke-width:0.0666667" />
  <path
     stroke="none"
     fill="#000000"
     d="m -136.91624,-230.86401 h 0.8 v 11.51334 l -0.4,0.23134 -0.4,-0.23134 z"
     id="path12"
     style="stroke-width:0.0666667" />
  <path
     stroke="none"
     fill="#000000"
     d="m -153.14425,-247.45735 v -0.924 l 11.12601,6.42334 -0.4,0.69333 z"
     id="path14"
     style="stroke-width:0.0666667" />
  <path
     stroke="none"
     fill="#000000"
     d="m -169.37159,-238.08868 -0.4,-0.23066 v -0.462 l 16.62734,-9.60001 v 0.924 z"
     id="path16"
     style="stroke-width:0.0666667" />
  <path
     stroke="none"
     fill="#000000"
     d="m -186.5996,-247.57335 0.4,-0.69266 16.42801,9.48467 v 0.462 l -0.4,0.23066 z"
     id="path18"
     style="stroke-width:0.0666667" />
  <path
     stroke="none"
     fill="#000000"
     d="m -119.6889,-209.866 -0.4,0.69267 -16.42734,-9.484 v -0.462 l 0.4,-0.23134 z"
     id="path20"
     style="stroke-width:0.0666667" />
  <text
     x="-158.33005"
     y="-185.1194"
     stroke="none"
     fill="#000000"
     font-style="normal"
     font-weight="normal"
     font-size="13.3333px"
     font-family="Arial"
     id="text22"
     style="stroke-width:0.0666667">O</text>
  <path
     stroke="none"
     fill="#000000"
     d="m -151.01625,-196.79732 h -0.8 v -13.72001 h 0.8 z"
     id="path24"
     style="stroke-width:0.0666667" />
  <path
     stroke="none"
     fill="#000000"
     d="m -154.47225,-196.79732 h -0.8 v -13.72001 h 0.8 z"
     id="path26"
     style="stroke-width:0.0666667" />
  <text
     x="-158.33005"
     y="-261.91949"
     stroke="none"
     fill="#000000"
     font-style="normal"
     font-weight="normal"
     font-size="13.3333px"
     font-family="Arial"
     id="text28"
     style="stroke-width:0.0666667">O</text>
  <path
     stroke="none"
     fill="#000000"
     d="m -155.27225,-259.66402 h 0.8 v 12.74201 h -0.8 z"
     id="path30"
     style="stroke-width:0.0666667" />
  <path
     stroke="none"
     fill="#000000"
     d="m -151.81625,-259.66402 h 0.8 v 12.74201 h -0.8 z"
     id="path32"
     style="stroke-width:0.0666667" />
  <text
     x="-194.50844"
     y="-295.4274"
     stroke="none"
     fill="#000000"
     font-style="normal"
     font-weight="normal"
     font-size="13.3333px"
     font-family="Arial"
     id="text34"
     style="stroke-width:0.0666667">RO</text>
  <text
     x="-162.34625"
     y="-295.4274"
     stroke="none"
     fill="#000000"
     font-style="normal"
     font-weight="normal"
     font-size="13.3333px"
     font-family="Arial"
     id="text36"
     style="stroke-width:0.0666667">[M]</text>
  <path
     stroke="none"
     fill="#000000"
     d="m -163.54559,-301.02737 v 0.8 h -9.42933 v -0.8 z"
     id="path38"
     style="stroke-width:0.0666667" />
  <path
     stroke="none"
     fill="#000000"
     d="m -152.73358,-273.59669 -0.8,-10e-4 0.006,-3.41667 0.8,0.001 z"
     id="path40"
     style="stroke-width:0.0666667" />
  <path
     stroke="none"
     fill="#000000"
     d="m -152.72158,-280.4307 -0.8,-10e-4 0.005,-3.41727 0.8,0.001 z"
     id="path42"
     style="stroke-width:0.0666667" />
  <path
     stroke="none"
     fill="#000000"
     d="m -152.71025,-287.26517 -0.8,-10e-4 0.005,-3.41714 0.8,0.001 z"
     id="path44"
     style="stroke-width:0.0666667" />
  <text
     x="-35.957653"
     y="-212.91949"
     stroke="none"
     fill="#000000"
     font-style="normal"
     font-weight="normal"
     font-size="13.3333px"
     font-family="Arial"
     id="text46"
     style="stroke-width:0.0666667">O</text>
  <text
     x="-2.7026536"
     y="-232.11949"
     stroke="none"
     fill="#000000"
     font-style="normal"
     font-weight="normal"
     font-size="13.3333px"
     font-family="Arial"
     id="text48"
     style="stroke-width:0.0666667">O</text>
  <path
     stroke="none"
     fill="#000000"
     d="m -30.371519,-224.59734 h -0.800001 v -12.49134 l 0.4,-0.23066 0.400001,0.23066 z"
     id="path50"
     style="stroke-width:0.0666667" />
  <path
     stroke="none"
     fill="#000000"
     d="m -14.144178,-208.98133 v 0.924 l -10.609339,-6.126 0.400001,-0.69267 z"
     id="path52"
     style="stroke-width:0.0666667" />
  <path
     stroke="none"
     fill="#000000"
     d="m 2.0838302,-218.35067 0.4000002,0.23134 v 0.462 l -16.6280084,9.6 v -0.924 z"
     id="path54"
     style="stroke-width:0.0666667" />
  <path
     stroke="none"
     fill="#000000"
     d="m 2.0838302,-229.86401 h 0.8000004 v 11.51334 l -0.4000002,0.23134 -0.4000002,-0.23134 z"
     id="path56"
     style="stroke-width:0.0666667" />
  <path
     stroke="none"
     fill="#000000"
     d="m -14.144178,-246.45735 v -0.462 l 0.2,-0.34666 10.9260057,6.308 -0.4000002,0.69333 z"
     id="path58"
     style="stroke-width:0.0666667" />
  <path
     stroke="none"
     fill="#000000"
     d="m -30.371519,-237.08868 -0.400001,-0.23066 v -0.462 l 15.967342,-9.21867 0.66,0.0807 v 0.462 z"
     id="path60"
     style="stroke-width:0.0666667" />
  <path
     stroke="none"
     fill="#000000"
     d="m -47.599528,-246.57335 0.4,-0.69266 16.428008,9.48467 v 0.462 l -0.4,0.23066 z"
     id="path62"
     style="stroke-width:0.0666667" />
  <path
     stroke="none"
     fill="#000000"
     d="m 19.311172,-208.86599 -0.4,0.69266 -16.4273416,-9.484 v -0.462 l 0.4000002,-0.23134 z"
     id="path64"
     style="stroke-width:0.0666667" />
  <text
     x="-19.329655"
     y="-184.1194"
     stroke="none"
     fill="#000000"
     font-style="normal"
     font-weight="normal"
     font-size="13.3333px"
     font-family="Arial"
     id="text66"
     style="stroke-width:0.0666667">O</text>
  <path
     stroke="none"
     fill="#000000"
     d="m -12.016177,-195.79732 h -0.8 v -13.72001 h 0.8 z"
     id="path68"
     style="stroke-width:0.0666667" />
  <path
     stroke="none"
     fill="#000000"
     d="m -15.472179,-195.79732 h -0.8 v -13.72001 h 0.8 z"
     id="path70"
     style="stroke-width:0.0666667" />
  <text
     x="-19.329655"
     y="-260.91949"
     stroke="none"
     fill="#000000"
     font-style="normal"
     font-weight="normal"
     font-size="13.3333px"
     font-family="Arial"
     id="text72"
     style="stroke-width:0.0666667">O</text>
  <path
     stroke="none"
     fill="#000000"
     d="m -16.272179,-258.66402 h 0.8 v 10.07734 h -0.8 z"
     id="path74"
     style="stroke-width:0.0666667" />
  <path
     stroke="none"
     fill="#000000"
     d="m -12.816177,-258.66402 h 0.8 v 12.74201 h -0.8 z"
     id="path76"
     style="stroke-width:0.0666667" />
  <text
     x="-67.008652"
     y="-278.4274"
     stroke="none"
     fill="#000000"
     font-style="normal"
     font-weight="normal"
     font-size="13.3333px"
     font-family="Arial"
     id="text78"
     style="stroke-width:0.0666667">RO</text>
  <text
     x="-23.346653"
     y="-294.4274"
     stroke="none"
     fill="#000000"
     font-style="normal"
     font-weight="normal"
     font-size="13.3333px"
     font-family="Arial"
     id="text80"
     style="stroke-width:0.0666667">[M]</text>
  <path
     stroke="none"
     fill="#000000"
     d="m -25.636184,-297.91937 0.370001,0.7094 -20.888011,10.886 -0.369333,-0.70946 z"
     id="path82"
     style="stroke-width:0.0666667" />
  <path
     stroke="none"
     fill="#000000"
     d="m -13.733511,-272.59669 -0.8,-10e-4 0.006,-3.41667 0.8,0.001 z"
     id="path84"
     style="stroke-width:0.0666667" />
  <path
     stroke="none"
     fill="#000000"
     d="m -13.721511,-279.4307 -0.8,-10e-4 0.0053,-3.41727 0.8,0.001 z"
     id="path86"
     style="stroke-width:0.0666667" />
  <path
     stroke="none"
     fill="#000000"
     d="m -13.710178,-286.26517 -0.8,-10e-4 0.0053,-3.41714 0.800001,0.001 z"
     id="path88"
     style="stroke-width:0.0666667" />
  <path
     stroke="none"
     fill="#000000"
     d="m -13.901511,-247.24135 -0.902667,0.24134 -2.488001,-2.40134 0.555333,-0.57533 z"
     id="path90"
     style="stroke-width:0.0666667" />
  <path
     stroke="none"
     fill="#000000"
     d="m -19.225514,-252.37735 -0.555333,0.57533 -2.488668,-2.40066 0.555333,-0.576 z"
     id="path92"
     style="stroke-width:0.0666667" />
  <path
     stroke="none"
     fill="#000000"
     d="m -24.20285,-257.17935 -0.555333,0.576 -2.488668,-2.40067 0.556,-0.576 z"
     id="path94"
     style="stroke-width:0.0666667" />
  <path
     stroke="none"
     fill="#000000"
     d="m -29.179519,-261.98069 -0.555333,0.576 -2.488668,-2.40133 0.555333,-0.57534 z"
     id="path96"
     style="stroke-width:0.0666667" />
  <path
     stroke="none"
     fill="#000000"
     d="m -34.156855,-266.78202 -0.555333,0.57533 -2.488668,-2.40067 0.555334,-0.576 z"
     id="path98"
     style="stroke-width:0.0666667" />
  <path
     stroke="none"
     fill="#000000"
     d="m -39.133524,-271.58403 -0.556,0.576 -2.488001,-2.40066 0.555333,-0.576 z"
     id="path100"
     style="stroke-width:0.0666667" />
  <path
     stroke="none"
     fill="#000000"
     d="m -44.11086,-276.38536 -0.555333,0.576 -2.488668,-2.40134 0.555334,-0.57533 z"
     id="path102"
     style="stroke-width:0.0666667" />
  <path
     stroke="#000000"
     stroke-width="0.8"
     fill="none"
     d="m -6.1935072,-256.62735 c 5.91933624,-1.586 9.4360047,-7.67801 7.8500039,-13.59668 -1.01800053,-3.80066 -4.1826688,-6.92267 -7.9966707,-7.88867"
     id="path104" />
  <path
     stroke="none"
     fill="#000000"
     d="m -11.940177,-278.0747 c 0,0 6.3220034,-1.71 6.3220034,-1.71 0,0 -0.7560004,0.94267 -0.7220004,1.672 0.034,0.72934 0.8773338,1.66134 0.8773338,1.66134 0,0 -6.4773368,-1.62334 -6.4773368,-1.62334 0,0 0,0 0,0"
     id="path106"
     style="stroke-width:0.0666667" />
  <path
     stroke="#000000"
     stroke-width="0.0666667"
     fill="none"
     d="m -11.940177,-278.0747 c 0,0 6.3220034,-1.71 6.3220034,-1.71 0,0 -0.7560004,0.94267 -0.7220004,1.672 0.034,0.72934 0.8773338,1.66134 0.8773338,1.66134 0,0 -6.4773368,-1.62334 -6.4773368,-1.62334 0,0 0,0 0,0"
     id="path108" />
  <path
     stroke="#000000"
     stroke-width="0.8"
     fill="none"
     d="m -36.548189,-274.05603 c 4.126669,-0.802 6.82467,-4.80267 6.02267,-8.92907 -0.414667,-2.1332 -1.786001,-4.05573 -3.668002,-5.14227"
     id="path110" />
  <path
     stroke="none"
     fill="#000000"
     d="m -41.809525,-274.93669 c 0,0 6.331336,-0.56334 6.331336,-0.56334 0,0 -0.937333,0.79 -1.07,1.444 -0.132667,0.654 0.433333,1.69534 0.433333,1.69534 0,0 -5.694669,-2.576 -5.694669,-2.576 0,0 0,0 0,0"
     id="path112"
     style="stroke-width:0.0666667" />
  <path
     stroke="#000000"
     stroke-width="0.0666667"
     fill="none"
     d="m -41.809525,-274.93669 c 0,0 6.331336,-0.56334 6.331336,-0.56334 0,0 -0.937333,0.79 -1.07,1.444 -0.132667,0.654 0.433333,1.69534 0.433333,1.69534 0,0 -5.694669,-2.576 -5.694669,-2.576 0,0 0,0 0,0"
     id="path114" />
  <text
     x="92.992348"
     y="-213.32739"
     stroke="none"
     fill="#000000"
     font-style="normal"
     font-weight="normal"
     font-size="13.3333px"
     font-family="Arial"
     id="text116"
     style="stroke-width:0.0666667">O</text>
  <text
     x="126.24834"
     y="-232.5274"
     stroke="none"
     fill="#000000"
     font-style="normal"
     font-weight="normal"
     font-size="13.3333px"
     font-family="Arial"
     id="text118"
     style="stroke-width:0.0666667">O</text>
  <path
     stroke="none"
     fill="#000000"
     d="m 98.578545,-225.00534 h -0.8 v -12.49134 l 0.4,-0.23066 0.4,0.23066 z"
     id="path120"
     style="stroke-width:0.0666667" />
  <path
     stroke="none"
     fill="#000000"
     d="m 114.80655,-209.38933 v 0.924 l -10.60934,-6.12533 0.4,-0.69334 z"
     id="path122"
     style="stroke-width:0.0666667" />
  <path
     stroke="none"
     fill="#000000"
     d="m 131.03456,-218.758 0.39933,0.23067 v 0.462 l -16.62734,9.6 v -0.924 z"
     id="path124"
     style="stroke-width:0.0666667" />
  <path
     stroke="none"
     fill="#000000"
     d="m 131.03456,-230.27201 h 0.79934 v 11.51401 l -0.40001,0.23067 -0.39933,-0.23067 z"
     id="path126"
     style="stroke-width:0.0666667" />
  <path
     stroke="none"
     fill="#000000"
     d="m 114.80655,-246.86535 v -0.462 l 0.49067,-0.17866 10.63534,6.14 -0.4,0.69333 z"
     id="path128"
     style="stroke-width:0.0666667" />
  <path
     stroke="none"
     fill="#000000"
     d="m 98.578545,-237.49668 -0.4,-0.23066 v -0.462 l 15.976675,-9.22401 0.65133,0.086 v 0.462 z"
     id="path130"
     style="stroke-width:0.0666667" />
  <text
     x="109.62035"
     y="-184.5274"
     stroke="none"
     fill="#000000"
     font-style="normal"
     font-weight="normal"
     font-size="13.3333px"
     font-family="Arial"
     id="text132"
     style="stroke-width:0.0666667">O</text>
  <path
     stroke="none"
     fill="#000000"
     d="m 116.93455,-196.20532 h -0.8 v -13.72001 h 0.8 z"
     id="path134"
     style="stroke-width:0.0666667" />
  <path
     stroke="none"
     fill="#000000"
     d="m 113.47855,-196.20532 h -0.8 v -13.72001 h 0.8 z"
     id="path136"
     style="stroke-width:0.0666667" />
  <text
     x="86.415344"
     y="-255.7038"
     stroke="none"
     fill="#000000"
     font-style="normal"
     font-weight="normal"
     font-size="13.3333px"
     font-family="Arial"
     id="text138"
     style="stroke-width:0.0666667">RO</text>
  <path
     stroke="none"
     fill="#000000"
     d="m 106.17655,-255.39202 0.56533,-0.56533 7.90334,7.90334 0.16133,0.72666 -0.65133,-0.086 z"
     id="path140"
     style="stroke-width:0.0666667" />
  <text
     x="120.22034"
     y="-271.2551"
     stroke="none"
     fill="#000000"
     font-style="normal"
     font-weight="normal"
     font-size="13.3333px"
     font-family="Arial"
     id="text142"
     style="stroke-width:0.0666667">O</text>
  <path
     stroke="none"
     fill="#000000"
     d="m 122.43856,-269.46869 0.75133,0.27333 -7.89267,21.68935 -0.49067,0.17866 -0.16133,-0.72666 z"
     id="path144"
     style="stroke-width:0.0666667" />
  <path
     stroke="none"
     fill="#000000"
     d="m 81.351203,-246.98068 0.4,-0.69333 16.427342,9.48467 v 0.462 l -0.4,0.23066 z"
     id="path146"
     style="stroke-width:0.0666667" />
  <path
     stroke="none"
     fill="#000000"
     d="m 148.2619,-209.274 -0.4,0.69334 -16.42801,-9.48467 v -0.462 l 0.40001,-0.23067 z"
     id="path148"
     style="stroke-width:0.0666667" />
  <text
     x="148.25334"
     y="-271.2551"
     stroke="none"
     fill="#000000"
     font-style="normal"
     font-weight="normal"
     font-size="13.3333px"
     font-family="Arial"
     id="text150"
     style="stroke-width:0.0666667">[M]</text>
  <path
     stroke="none"
     fill="#000000"
     d="m 147.05457,-276.85536 v 0.8 H 132.0879 v -0.8 z"
     id="path152"
     style="stroke-width:0.0666667" />
  <path
     stroke="none"
     fill="#000000"
     d="m 135.43656,-242.95535 -0.66333,-0.44666 1.66867,-2.47867 0.664,0.44667 z"
     id="path154"
     style="stroke-width:0.0666667" />
  <path
     stroke="none"
     fill="#000000"
     d="m 138.77457,-247.91201 -0.66334,-0.44734 1.66867,-2.478 0.664,0.44667 z"
     id="path156"
     style="stroke-width:0.0666667" />
  <path
     stroke="none"
     fill="#000000"
     d="m 142.11257,-252.86935 -0.66334,-0.44667 1.66867,-2.47867 0.66333,0.44667 z"
     id="path158"
     style="stroke-width:0.0666667" />
  <path
     stroke="none"
     fill="#000000"
     d="m 145.45057,-257.82669 -0.66334,-0.44666 1.66867,-2.47867 0.66334,0.44733 z"
     id="path160"
     style="stroke-width:0.0666667" />
  <path
     stroke="none"
     fill="#000000"
     d="m 148.78857,-262.78336 -0.664,-0.44666 1.66933,-2.47867 0.66334,0.44667 z"
     id="path162"
     style="stroke-width:0.0666667" />
  <path
     stroke="#000000"
     stroke-width="0.8"
     fill="none"
     d="m 135.02256,-253.09002 c -3.192,-1.62666 -7.10333,-0.356 -8.73,2.836 -0.72,1.41401 -0.89667,3.09401 -0.486,4.62667"
     id="path164" />
  <path
     stroke="none"
     fill="#000000"
     d="m 138.34523,-248.98735 c 0,0 -5.03667,-3.67267 -5.03667,-3.67267 0,0 1.20267,-0.0113 1.714,-0.43 0.51067,-0.41933 0.764,-1.602 0.764,-1.602 0,0 2.55867,5.70467 2.55867,5.70467 0,0 0,0 0,0"
     id="path166"
     style="stroke-width:0.0666667" />
  <path
     stroke="#000000"
     stroke-width="0.0666667"
     fill="none"
     d="m 138.34523,-248.98735 c 0,0 -5.03667,-3.67267 -5.03667,-3.67267 0,0 1.20267,-0.0113 1.714,-0.43 0.51067,-0.41933 0.764,-1.602 0.764,-1.602 0,0 2.55867,5.70467 2.55867,5.70467 0,0 0,0 0,0"
     id="path168" />
  <path
     stroke="#000000"
     stroke-width="0.8"
     fill="none"
     d="m 128.51256,-261.30269 c 4.132,1.30534 8.54534,-0.98933 9.85067,-5.12067 0.68867,-2.18 0.36467,-4.65067 -0.86267,-6.57933"
     id="path170" />
  <path
     stroke="none"
     fill="#000000"
     d="m 124.25456,-264.57402 c 0,0 5.868,2.45533 5.868,2.45533 0,0 -1.19,0.27734 -1.61,0.816 -0.42,0.538 -0.39267,1.75067 -0.39267,1.75067 0,0 -3.86533,-5.022 -3.86533,-5.022 0,0 0,0 0,0"
     id="path172"
     style="stroke-width:0.0666667" />
  <path
     stroke="#000000"
     stroke-width="0.0666667"
     fill="none"
     d="m 124.25456,-264.57402 c 0,0 5.868,2.45533 5.868,2.45533 0,0 -1.19,0.27734 -1.61,0.816 -0.42,0.538 -0.39267,1.75067 -0.39267,1.75067 0,0 -3.86533,-5.022 -3.86533,-5.022 0,0 0,0 0,0"
     id="path174" />
  <text
     x="228.49135"
     y="-231.9274"
     stroke="none"
     fill="#000000"
     font-style="normal"
     font-weight="normal"
     font-size="13.3333px"
     font-family="Arial"
     id="text176"
     style="stroke-width:0.0666667">RO</text>
  <path
     stroke="none"
     fill="#000000"
     d="m 259.93396,-227.98934 v 0.924 l -10.61001,-6.126 0.4,-0.69267 z"
     id="path178"
     style="stroke-width:0.0666667" />
  <path
     stroke="none"
     fill="#000000"
     d="m 276.16197,-237.35801 0.4,0.23067 v 0.462 l -16.62801,9.6 v -0.924 z"
     id="path180"
     style="stroke-width:0.0666667" />
  <text
     x="288.00336"
     y="-222.32739"
     stroke="none"
     fill="#000000"
     font-style="normal"
     font-weight="normal"
     font-size="13.3333px"
     font-family="Arial"
     id="text182"
     style="stroke-width:0.0666667">O</text>
  <path
     stroke="none"
     fill="#000000"
     d="m 287.68797,-231.16601 -0.4,0.69334 -10.726,-6.19267 v -0.462 l 0.4,-0.23067 z"
     id="path184"
     style="stroke-width:0.0666667" />
  <path
     stroke="none"
     fill="#000000"
     d="m 309.81732,-237.58934 v 0.924 l -10.70401,6.18 -0.4,-0.69267 z"
     id="path186"
     style="stroke-width:0.0666667" />
  <path
     stroke="none"
     fill="#000000"
     d="m 326.44533,-227.98934 v 0.462 l -0.4,0.23067 -16.22801,-9.36867 v -0.924 z"
     id="path188"
     style="stroke-width:0.0666667" />
  <text
     x="337.88635"
     y="-231.9274"
     stroke="none"
     fill="#000000"
     font-style="normal"
     font-weight="normal"
     font-size="13.3333px"
     font-family="Arial"
     id="text190"
     style="stroke-width:0.0666667">O</text>
  <path
     stroke="none"
     fill="#000000"
     d="m 336.70533,-233.91267 0.4,0.69266 -10.26,5.92334 -0.4,-0.23067 v -0.462 z"
     id="path192"
     style="stroke-width:0.0666667" />
  <text
     x="357.84735"
     y="-222.32739"
     stroke="none"
     fill="#000000"
     font-style="normal"
     font-weight="normal"
     font-size="13.3333px"
     font-family="Arial"
     id="text194"
     style="stroke-width:0.0666667">[M]</text>
  <path
     stroke="none"
     fill="#000000"
     d="m 355.86734,-230.20201 -0.4,0.69267 -6.37667,-3.68133 0.4,-0.69334 z"
     id="path196"
     style="stroke-width:0.0666667" />
  <text
     x="254.74835"
     y="-203.1274"
     stroke="none"
     fill="#000000"
     font-style="normal"
     font-weight="normal"
     font-size="13.3333px"
     font-family="Arial"
     id="text198"
     style="stroke-width:0.0666667">O</text>
  <path
     stroke="none"
     fill="#000000"
     d="m 262.06196,-214.80533 h -0.79933 v -13.71934 h 0.79933 z"
     id="path200"
     style="stroke-width:0.0666667" />
  <path
     stroke="none"
     fill="#000000"
     d="m 258.60596,-214.80533 h -0.79934 v -13.71934 h 0.79934 z"
     id="path202"
     style="stroke-width:0.0666667" />
  <path
     stroke="none"
     fill="#000000"
     d="m 276.16197,-256.32735 h 0.8 v 18.96934 l -0.4,0.23067 -0.4,-0.23067 z"
     id="path204"
     style="stroke-width:0.0666667" />
  <text
     x="304.63135"
     y="-251.1274"
     stroke="none"
     fill="#000000"
     font-style="normal"
     font-weight="normal"
     font-size="13.3333px"
     font-family="Arial"
     id="text206"
     style="stroke-width:0.0666667">O</text>
  <path
     stroke="none"
     fill="#000000"
     d="m 307.68932,-248.87201 h 0.8 v 12.742 h -0.8 z"
     id="path208"
     style="stroke-width:0.0666667" />
  <path
     stroke="none"
     fill="#000000"
     d="m 311.14532,-248.87201 h 0.8 v 12.742 h -0.8 z"
     id="path210"
     style="stroke-width:0.0666667" />
  <path
     stroke="none"
     fill="#000000"
     d="m 326.84533,-208.32733 h -0.8 v -18.96934 l 0.4,-0.23067 0.4,0.23067 z"
     id="path212"
     style="stroke-width:0.0666667" />
  <path
     stroke="none"
     fill="#000000"
     d="m -73.878874,-224.97734 h -29.314686 v -0.8 h 29.314686 z"
     id="path214"
     style="stroke-width:0.0666667" />
  <path
     stroke="none"
     fill="#000000"
     d="m -58.193533,-225.37734 c 0,0 -18.000009,4.57067 -18.000009,4.57067 0,0 2.248001,-2.57067 2.248001,-4.57067 0,-2.02933 -2.248001,-4.63733 -2.248001,-4.63733 0,0 18.000009,4.63733 18.000009,4.63733 0,0 0,0 0,0"
     id="path216"
     style="stroke-width:0.0666667" />
  <path
     stroke="#000000"
     stroke-width="0.0666667"
     fill="none"
     d="m -58.193533,-225.37734 c 0,0 -18.000009,4.57067 -18.000009,4.57067 0,0 2.248001,-2.57067 2.248001,-4.57067 0,-2.02933 -2.248001,-4.63733 -2.248001,-4.63733 0,0 18.000009,4.63733 18.000009,4.63733 0,0 0,0 0,0"
     id="path218" />
  <path
     stroke="none"
     fill="#000000"
     d="M 59.621192,-224.97734 H 30.306511 v -0.8 h 29.314681 z"
     id="path220"
     style="stroke-width:0.0666667" />
  <path
     stroke="none"
     fill="#000000"
     d="m 75.306534,-225.37734 c 0,0 -18.000009,4.57067 -18.000009,4.57067 0,0 2.248001,-2.57067 2.248001,-4.57067 0,-2.02933 -2.248001,-4.63733 -2.248001,-4.63733 0,0 18.000009,4.63733 18.000009,4.63733 0,0 0,0 0,0"
     id="path222"
     style="stroke-width:0.0666667" />
  <path
     stroke="#000000"
     stroke-width="0.0666667"
     fill="none"
     d="m 75.306534,-225.37734 c 0,0 -18.000009,4.57067 -18.000009,4.57067 0,0 2.248001,-2.57067 2.248001,-4.57067 0,-2.02933 -2.248001,-4.63733 -2.248001,-4.63733 0,0 18.000009,4.63733 18.000009,4.63733 0,0 0,0 0,0"
     id="path224" />
  <path
     stroke="none"
     fill="#000000"
     d="m 192.12126,-224.97734 h -29.31468 v -0.8 h 29.31468 z"
     id="path226"
     style="stroke-width:0.0666667" />
  <path
     stroke="none"
     fill="#000000"
     d="m 207.8066,-225.37734 c 0,0 -18.00001,4.57067 -18.00001,4.57067 0,0 2.248,-2.57067 2.248,-4.57067 0,-2.02933 -2.248,-4.63733 -2.248,-4.63733 0,0 18.00001,4.63733 18.00001,4.63733 0,0 0,0 0,0"
     id="path228"
     style="stroke-width:0.0666667" />
  <path
     stroke="#000000"
     stroke-width="0.0666667"
     fill="none"
     d="m 207.8066,-225.37734 c 0,0 -18.00001,4.57067 -18.00001,4.57067 0,0 2.248,-2.57067 2.248,-4.57067 0,-2.02933 -2.248,-4.63733 -2.248,-4.63733 0,0 18.00001,4.63733 18.00001,4.63733 0,0 0,0 0,0"
     id="path230" />
  <text
     x="6.4913464"
     y="46.072601"
     stroke="none"
     fill="#ff0000"
     font-style="normal"
     font-weight="normal"
     font-size="13.3333px"
     font-family="Arial"
     id="text232"
     style="stroke-width:0.0666667">HO</text>
  <path
     stroke="none"
     fill="#ff0000"
     d="m 37.934515,30.810792 v 0.924 l -10.705339,6.180003 -0.4,-0.692667 z"
     id="path234"
     style="stroke-width:0.0666667" />
  <path
     stroke="none"
     fill="#ff0000"
     d="m 54.561856,40.410796 v 0.462001 l -0.4,0.230666 -16.227341,-9.368671 v -0.924 z"
     id="path236"
     style="stroke-width:0.0666667" />
  <text
     x="32.748344"
     y="17.272602"
     stroke="none"
     fill="#ff0000"
     font-style="normal"
     font-weight="normal"
     font-size="13.3333px"
     font-family="Arial"
     id="text238"
     style="stroke-width:0.0666667">O</text>
  <path
     stroke="none"
     fill="#ff0000"
     d="m 35.806514,19.528119 h 0.8 v 12.742007 h -0.8 z"
     id="path240"
     style="stroke-width:0.0666667" />
  <path
     stroke="none"
     fill="#ff0000"
     d="m 39.262515,19.528119 h 0.800001 v 12.742007 h -0.800001 z"
     id="path242"
     style="stroke-width:0.0666667" />
  <text
     x="66.003349"
     y="36.472603"
     stroke="none"
     fill="#ff0000"
     font-style="normal"
     font-weight="normal"
     font-size="13.3333px"
     font-family="Arial"
     id="text244"
     style="stroke-width:0.0666667">OH</text>
  <path
     stroke="none"
     fill="#ff0000"
     d="m 64.821862,34.48746 0.4,0.692667 -10.260005,5.923336 -0.400001,-0.230666 v -0.462001 z"
     id="path246"
     style="stroke-width:0.0666667" />
  <path
     stroke="none"
     fill="#ff0000"
     d="M 54.961857,60.072806 H 54.161856 V 41.103463 l 0.4,-0.230666 0.400001,0.230666 z"
     id="path248"
     style="stroke-width:0.0666667" />
</svg>
