<?xml version="1.0"?><svg xmlns="http://www.w3.org/2000/svg" xmlns:xlink="http://www.w3.org/1999/xlink" viewBox="118.69 51.94 142.64 37.05" preserveAspectRatio="xMidYMid" width="100%" height="100%"><clipPath id="37"><rect x="0.3" y="0.3" width="539.4" height="719.15" /></clipPath><g id="drawing"><rect x="118.69" y="51.94" width="100%" height="100%" fill="rgb(255, 255, 255)" /><g id="page" clip-path="url(#37)"><g><text xml:space="preserve" text-anchor="start" text-rendering="geometricPrecision"><tspan x="118.69" y="86.44" font-family="Arial" font-size="10" fill="rgb(0, 0, 0)">cyclopropane</tspan></text></g><g><text xml:space="preserve" text-anchor="start" text-rendering="geometricPrecision"><tspan x="207.94" y="86.44" font-family="Arial" font-size="10" fill="rgb(0, 0, 0)">cyclobutane</tspan></text></g><g id="Solid"><path d="M140.7 65.52 L140.7 65.52 L140.18 65.82 L139.66 66.12 L147.38 52.75 L147.38 53.35 L147.38 53.95 Z" stroke="rgb(0, 0, 0)" stroke-width="0" fill-rule="evenodd" stroke-linejoin="miter" fill="rgb(0, 0, 0)" shape-rendering="geometricPrecision" /></g><g id="Solid"><path d="M147.38 53.95 L147.38 53.95 L147.38 53.35 L147.38 52.75 L155.09 66.12 L154.57 65.82 L154.05 65.52 Z" stroke="rgb(0, 0, 0)" stroke-width="0" fill-rule="evenodd" stroke-linejoin="miter" fill="rgb(0, 0, 0)" shape-rendering="geometricPrecision" /></g><g id="Solid"><path d="M139.66 66.12 L139.66 66.12 L140.18 65.82 L140.7 65.52 L154.05 65.52 L154.57 65.82 L155.09 66.12 Z" stroke="rgb(0, 0, 0)" stroke-width="0" fill-rule="evenodd" stroke-linejoin="miter" fill="rgb(0, 0, 0)" shape-rendering="geometricPrecision" /></g><g id="Solid"><path d="M242.02 66.34 L242.02 66.34 L242.32 66.64 L242.62 66.94 L227.63 66.94 L227.93 66.64 L228.23 66.34 Z" stroke="rgb(0, 0, 0)" stroke-width="0" fill-rule="evenodd" stroke-linejoin="miter" fill="rgb(0, 0, 0)" shape-rendering="geometricPrecision" /></g><g id="Solid"><path d="M228.23 66.34 L228.23 66.34 L227.93 66.64 L227.63 66.94 L227.63 51.94 L227.93 52.24 L228.23 52.54 Z" stroke="rgb(0, 0, 0)" stroke-width="0" fill-rule="evenodd" stroke-linejoin="miter" fill="rgb(0, 0, 0)" shape-rendering="geometricPrecision" /></g><g id="Solid"><path d="M228.23 52.54 L228.23 52.54 L227.93 52.24 L227.63 51.94 L242.62 51.94 L242.32 52.24 L242.02 52.54 Z" stroke="rgb(0, 0, 0)" stroke-width="0" fill-rule="evenodd" stroke-linejoin="miter" fill="rgb(0, 0, 0)" shape-rendering="geometricPrecision" /></g><g id="Solid"><path d="M242.62 66.94 L242.62 66.94 L242.32 66.64 L242.02 66.34 L242.02 52.54 L242.32 52.24 L242.62 51.94 Z" stroke="rgb(0, 0, 0)" stroke-width="0" fill-rule="evenodd" stroke-linejoin="miter" fill="rgb(0, 0, 0)" shape-rendering="geometricPrecision" /></g></g></g></svg>