<?xml version="1.0"?><svg xmlns="http://www.w3.org/2000/svg" xmlns:xlink="http://www.w3.org/1999/xlink" viewBox="110.79 96.25 227.47 80.85" preserveAspectRatio="xMidYMid" width="100%" height="100%"><clipPath id="200"><rect x="0.41" y="0.41" width="539.18" height="719.18" /></clipPath><g id="drawing"><rect x="110.79" y="96.25" width="100%" height="100%" fill="rgb(255, 255, 255)" /><g id="page" clip-path="url(#200)"><g id="Solid"><path d="M133.09 121.66 L133.09 121.66 L132.75 121.25 L132.99 120.84 L152.29 120.84 L152.42 121.25 L152.18 121.66 Z" stroke="rgb(0, 0, 0)" stroke-width="0" fill-rule="evenodd" stroke-linejoin="miter" fill="rgb(0, 0, 0)" shape-rendering="geometricPrecision" /></g><g id="Solid"><path d="M132.99 120.84 L132.99 120.84 L132.75 121.25 L132.3 121.29 L122.55 104.42 L122.91 104.21 L123.27 104 Z" stroke="rgb(0, 0, 0)" stroke-width="0" fill-rule="evenodd" stroke-linejoin="miter" fill="rgb(0, 0, 0)" shape-rendering="geometricPrecision" /></g><g id="Solid"><path d="M152.18 121.66 L152.18 121.66 L152.42 121.25 L153 121.43 L162.62 138.08 L162.26 138.29 L161.9 138.5 Z" stroke="rgb(0, 0, 0)" stroke-width="0" fill-rule="evenodd" stroke-linejoin="miter" fill="rgb(0, 0, 0)" shape-rendering="geometricPrecision" /></g><g><text xml:space="preserve" text-anchor="start" text-rendering="geometricPrecision"><tspan x="152.59" y="107.62" font-family="Arial" font-size="13.65" fill="rgb(191, 191, 191)">H</tspan></text></g><g id="Wedged Hash Begin Bond"><path d="M152.82 121.36 L152.82 121.36 L152.02 121.14 L152.13 120.32 L153.14 120.59 Z" stroke="rgb(191, 191, 191)" stroke-width="0" fill-rule="evenodd" stroke-linejoin="miter" fill="rgb(191, 191, 191)" shape-rendering="geometricPrecision" /><path d="M154.26 117.94 L154.26 117.94 L152.48 117.46 L152.59 116.64 L154.58 117.18 Z" stroke="rgb(191, 191, 191)" stroke-width="0" fill-rule="evenodd" stroke-linejoin="miter" fill="rgb(191, 191, 191)" shape-rendering="geometricPrecision" /><path d="M155.7 114.52 L155.7 114.52 L152.94 113.79 L153.05 112.96 L156.02 113.76 Z" stroke="rgb(191, 191, 191)" stroke-width="0" fill-rule="evenodd" stroke-linejoin="miter" fill="rgb(191, 191, 191)" shape-rendering="geometricPrecision" /><path d="M157.14 111.11 L157.14 111.11 L153.4 110.11 L153.51 109.29 L157.46 110.35 Z" stroke="rgb(191, 191, 191)" stroke-width="0" fill-rule="evenodd" stroke-linejoin="miter" fill="rgb(191, 191, 191)" shape-rendering="geometricPrecision" /></g><g><text xml:space="preserve" text-anchor="start" text-rendering="geometricPrecision"><tspan x="122.73" y="145.63" font-family="Arial" font-size="13.65" fill="rgb(191, 191, 191)">H</tspan></text></g><g id="WedgeBegin"><path d="M132.3 121.29 L132.3 121.29 L132.75 121.25 L133.09 121.66 L131.37 134.31 L129.39 133.78 L127.41 133.25 Z" stroke="rgb(191, 191, 191)" stroke-width="0" fill-rule="evenodd" stroke-linejoin="miter" fill="rgb(191, 191, 191)" shape-rendering="geometricPrecision" /></g><g><text xml:space="preserve" text-anchor="start" text-rendering="geometricPrecision"><tspan x="110.79" y="136.46" font-family="Arial" font-size="13.65" fill="rgb(191, 191, 191)">H</tspan></text></g><g id="Wedged Hash Begin Bond"><path d="M132.54 120.89 L132.54 120.89 L132.96 121.61 L132.3 122.1 L131.78 121.22 Z" stroke="rgb(191, 191, 191)" stroke-width="0" fill-rule="evenodd" stroke-linejoin="miter" fill="rgb(191, 191, 191)" shape-rendering="geometricPrecision" /><path d="M128.77 122.48 L128.77 122.48 L129.7 124.08 L129.04 124.58 L128.01 122.8 Z" stroke="rgb(191, 191, 191)" stroke-width="0" fill-rule="evenodd" stroke-linejoin="miter" fill="rgb(191, 191, 191)" shape-rendering="geometricPrecision" /><path d="M125 124.07 L125 124.07 L126.44 126.55 L125.78 127.05 L124.24 124.39 Z" stroke="rgb(191, 191, 191)" stroke-width="0" fill-rule="evenodd" stroke-linejoin="miter" fill="rgb(191, 191, 191)" shape-rendering="geometricPrecision" /><path d="M121.23 125.65 L121.23 125.65 L123.18 129.02 L122.52 129.52 L120.47 125.98 Z" stroke="rgb(191, 191, 191)" stroke-width="0" fill-rule="evenodd" stroke-linejoin="miter" fill="rgb(191, 191, 191)" shape-rendering="geometricPrecision" /></g><g><text xml:space="preserve" text-anchor="start" text-rendering="geometricPrecision"><tspan x="164.53" y="116.79" font-family="Arial" font-size="13.65" fill="rgb(191, 191, 191)">H</tspan></text></g><g id="WedgeBegin"><path d="M153 121.43 L153 121.43 L152.42 121.25 L152.29 120.84 L162.78 112.9 L163.8 114.68 L164.83 116.45 Z" stroke="rgb(191, 191, 191)" stroke-width="0" fill-rule="evenodd" stroke-linejoin="miter" fill="rgb(191, 191, 191)" shape-rendering="geometricPrecision" /></g><g id="Solid"><path d="M215.03 121.66 L215.03 121.66 L214.69 121.25 L214.93 120.84 L234.23 120.84 L234.36 121.25 L234.12 121.66 Z" stroke="rgb(0, 0, 0)" stroke-width="0" fill-rule="evenodd" stroke-linejoin="miter" fill="rgb(0, 0, 0)" shape-rendering="geometricPrecision" /></g><g id="Solid"><path d="M214.93 120.84 L214.93 120.84 L214.69 121.25 L214.24 121.29 L204.49 104.42 L204.85 104.21 L205.21 104 Z" stroke="rgb(0, 0, 0)" stroke-width="0" fill-rule="evenodd" stroke-linejoin="miter" fill="rgb(0, 0, 0)" shape-rendering="geometricPrecision" /></g><g><text xml:space="preserve" text-anchor="start" text-rendering="geometricPrecision"><tspan x="239.27" y="143.66" font-family="Arial" font-size="13.65" fill="rgb(191, 191, 191)">H</tspan></text></g><g id="Solid"><path d="M234.12 121.66 L234.12 121.66 L234.36 121.25 L234.94 121.43 L240.92 131.8 L240.56 132 L240.21 132.21 Z" stroke="rgb(191, 191, 191)" stroke-width="0" fill-rule="evenodd" stroke-linejoin="miter" fill="rgb(191, 191, 191)" shape-rendering="geometricPrecision" /></g><g><text xml:space="preserve" text-anchor="start" text-rendering="geometricPrecision"><tspan x="234.52" y="107.62" font-family="Arial" font-size="13.65" fill="rgb(191, 191, 191)">H</tspan></text></g><g id="Wedged Hash Begin Bond"><path d="M234.76 121.36 L234.76 121.36 L233.96 121.14 L234.07 120.32 L235.08 120.59 Z" stroke="rgb(191, 191, 191)" stroke-width="0" fill-rule="evenodd" stroke-linejoin="miter" fill="rgb(191, 191, 191)" shape-rendering="geometricPrecision" /><path d="M236.2 117.94 L236.2 117.94 L234.42 117.46 L234.53 116.64 L236.52 117.18 Z" stroke="rgb(191, 191, 191)" stroke-width="0" fill-rule="evenodd" stroke-linejoin="miter" fill="rgb(191, 191, 191)" shape-rendering="geometricPrecision" /><path d="M237.64 114.52 L237.64 114.52 L234.88 113.79 L234.99 112.96 L237.96 113.76 Z" stroke="rgb(191, 191, 191)" stroke-width="0" fill-rule="evenodd" stroke-linejoin="miter" fill="rgb(191, 191, 191)" shape-rendering="geometricPrecision" /><path d="M239.08 111.11 L239.08 111.11 L235.34 110.11 L235.45 109.29 L239.4 110.35 Z" stroke="rgb(191, 191, 191)" stroke-width="0" fill-rule="evenodd" stroke-linejoin="miter" fill="rgb(191, 191, 191)" shape-rendering="geometricPrecision" /></g><g><text xml:space="preserve" text-anchor="start" text-rendering="geometricPrecision"><tspan x="204.67" y="145.63" font-family="Arial" font-size="13.65" fill="rgb(191, 191, 191)">H</tspan></text></g><g id="WedgeBegin"><path d="M214.24 121.29 L214.24 121.29 L214.69 121.25 L215.03 121.66 L213.31 134.31 L211.33 133.78 L209.35 133.25 Z" stroke="rgb(191, 191, 191)" stroke-width="0" fill-rule="evenodd" stroke-linejoin="miter" fill="rgb(191, 191, 191)" shape-rendering="geometricPrecision" /></g><g><text xml:space="preserve" text-anchor="start" text-rendering="geometricPrecision"><tspan x="192.73" y="136.46" font-family="Arial" font-size="13.65" fill="rgb(191, 191, 191)">H</tspan></text></g><g id="Wedged Hash Begin Bond"><path d="M214.48 120.89 L214.48 120.89 L214.9 121.61 L214.24 122.1 L213.72 121.22 Z" stroke="rgb(191, 191, 191)" stroke-width="0" fill-rule="evenodd" stroke-linejoin="miter" fill="rgb(191, 191, 191)" shape-rendering="geometricPrecision" /><path d="M210.7 122.49 L210.7 122.49 L211.62 124.09 L210.96 124.58 L209.94 122.81 Z" stroke="rgb(191, 191, 191)" stroke-width="0" fill-rule="evenodd" stroke-linejoin="miter" fill="rgb(191, 191, 191)" shape-rendering="geometricPrecision" /><path d="M206.92 124.08 L206.92 124.08 L208.35 126.57 L207.69 127.06 L206.16 124.4 Z" stroke="rgb(191, 191, 191)" stroke-width="0" fill-rule="evenodd" stroke-linejoin="miter" fill="rgb(191, 191, 191)" shape-rendering="geometricPrecision" /><path d="M203.13 125.68 L203.13 125.68 L205.08 129.05 L204.42 129.54 L202.37 126 Z" stroke="rgb(191, 191, 191)" stroke-width="0" fill-rule="evenodd" stroke-linejoin="miter" fill="rgb(191, 191, 191)" shape-rendering="geometricPrecision" /></g><g id="WedgeBegin"><path d="M234.94 121.43 L234.94 121.43 L234.36 121.25 L234.23 120.84 L250.37 109.64 L251.39 111.41 L252.41 113.18 Z" stroke="rgb(0, 0, 0)" stroke-width="0" fill-rule="evenodd" stroke-linejoin="miter" fill="rgb(0, 0, 0)" shape-rendering="geometricPrecision" /></g><g id="Solid"><path d="M296.97 121.66 L296.97 121.66 L296.63 121.25 L296.87 120.84 L316.17 120.84 L316.3 121.25 L316.06 121.66 Z" stroke="rgb(0, 0, 0)" stroke-width="0" fill-rule="evenodd" stroke-linejoin="miter" fill="rgb(0, 0, 0)" shape-rendering="geometricPrecision" /></g><g id="Solid"><path d="M296.87 120.84 L296.87 120.84 L296.63 121.25 L296.18 121.29 L286.43 104.42 L286.79 104.21 L287.15 104 Z" stroke="rgb(0, 0, 0)" stroke-width="0" fill-rule="evenodd" stroke-linejoin="miter" fill="rgb(0, 0, 0)" shape-rendering="geometricPrecision" /></g><g><text xml:space="preserve" text-anchor="start" text-rendering="geometricPrecision"><tspan x="321.21" y="143.66" font-family="Arial" font-size="13.65" fill="rgb(191, 191, 191)">H</tspan></text></g><g id="Solid"><path d="M316.06 121.66 L316.06 121.66 L316.3 121.25 L316.88 121.43 L322.86 131.8 L322.5 132 L322.15 132.21 Z" stroke="rgb(191, 191, 191)" stroke-width="0" fill-rule="evenodd" stroke-linejoin="miter" fill="rgb(191, 191, 191)" shape-rendering="geometricPrecision" /></g><g id="Wedged Hash Begin Bond"><path d="M316.7 121.36 L316.7 121.36 L315.9 121.14 L316.05 120.33 L316.97 120.58 Z" stroke="rgb(0, 0, 0)" stroke-width="0" fill-rule="evenodd" stroke-linejoin="miter" fill="rgb(0, 0, 0)" shape-rendering="geometricPrecision" /><path d="M317.97 117.8 L317.97 117.8 L316.58 117.42 L316.72 116.61 L318.25 117.02 Z" stroke="rgb(0, 0, 0)" stroke-width="0" fill-rule="evenodd" stroke-linejoin="miter" fill="rgb(0, 0, 0)" shape-rendering="geometricPrecision" /><path d="M319.25 114.24 L319.25 114.24 L317.25 113.7 L317.4 112.89 L319.53 113.46 Z" stroke="rgb(0, 0, 0)" stroke-width="0" fill-rule="evenodd" stroke-linejoin="miter" fill="rgb(0, 0, 0)" shape-rendering="geometricPrecision" /><path d="M320.53 110.67 L320.53 110.67 L317.92 109.98 L318.07 109.17 L320.81 109.9 Z" stroke="rgb(0, 0, 0)" stroke-width="0" fill-rule="evenodd" stroke-linejoin="miter" fill="rgb(0, 0, 0)" shape-rendering="geometricPrecision" /><path d="M321.81 107.11 L321.81 107.11 L318.59 106.25 L318.74 105.44 L322.09 106.34 Z" stroke="rgb(0, 0, 0)" stroke-width="0" fill-rule="evenodd" stroke-linejoin="miter" fill="rgb(0, 0, 0)" shape-rendering="geometricPrecision" /><path d="M323.09 103.55 L323.09 103.55 L319.27 102.53 L319.41 101.72 L323.37 102.78 Z" stroke="rgb(0, 0, 0)" stroke-width="0" fill-rule="evenodd" stroke-linejoin="miter" fill="rgb(0, 0, 0)" shape-rendering="geometricPrecision" /></g><g><text xml:space="preserve" text-anchor="start" text-rendering="geometricPrecision"><tspan x="286.61" y="145.63" font-family="Arial" font-size="13.65" fill="rgb(191, 191, 191)">H</tspan></text></g><g id="WedgeBegin"><path d="M296.18 121.29 L296.18 121.29 L296.63 121.25 L296.97 121.66 L295.24 134.32 L293.27 133.78 L291.29 133.25 Z" stroke="rgb(191, 191, 191)" stroke-width="0" fill-rule="evenodd" stroke-linejoin="miter" fill="rgb(191, 191, 191)" shape-rendering="geometricPrecision" /></g><g><text xml:space="preserve" text-anchor="start" text-rendering="geometricPrecision"><tspan x="274.66" y="136.46" font-family="Arial" font-size="13.65" fill="rgb(191, 191, 191)">H</tspan></text></g><g id="Wedged Hash Begin Bond"><path d="M296.42 120.89 L296.42 120.89 L296.84 121.61 L296.18 122.1 L295.66 121.22 Z" stroke="rgb(191, 191, 191)" stroke-width="0" fill-rule="evenodd" stroke-linejoin="miter" fill="rgb(191, 191, 191)" shape-rendering="geometricPrecision" /><path d="M292.66 122.48 L292.66 122.48 L293.58 124.07 L292.92 124.57 L291.9 122.8 Z" stroke="rgb(191, 191, 191)" stroke-width="0" fill-rule="evenodd" stroke-linejoin="miter" fill="rgb(191, 191, 191)" shape-rendering="geometricPrecision" /><path d="M288.9 124.06 L288.9 124.06 L290.33 126.54 L289.67 127.04 L288.14 124.38 Z" stroke="rgb(191, 191, 191)" stroke-width="0" fill-rule="evenodd" stroke-linejoin="miter" fill="rgb(191, 191, 191)" shape-rendering="geometricPrecision" /><path d="M285.13 125.64 L285.13 125.64 L287.08 129.01 L286.42 129.51 L284.37 125.96 Z" stroke="rgb(191, 191, 191)" stroke-width="0" fill-rule="evenodd" stroke-linejoin="miter" fill="rgb(191, 191, 191)" shape-rendering="geometricPrecision" /></g><g><text xml:space="preserve" text-anchor="start" text-rendering="geometricPrecision"><tspan x="328.41" y="116.79" font-family="Arial" font-size="13.65" fill="rgb(191, 191, 191)">H</tspan></text></g><g id="WedgeBegin"><path d="M316.88 121.43 L316.88 121.43 L316.3 121.25 L316.17 120.84 L326.58 112.95 L327.6 114.72 L328.63 116.49 Z" stroke="rgb(191, 191, 191)" stroke-width="0" fill-rule="evenodd" stroke-linejoin="miter" fill="rgb(191, 191, 191)" shape-rendering="geometricPrecision" /></g><g><text xml:space="preserve" text-anchor="start" text-rendering="geometricPrecision"><tspan x="132" y="173.75" font-family="Arial" font-size="13.65" fill="rgb(0, 0, 0)">trans</tspan></text></g><g><text xml:space="preserve" text-anchor="start" text-rendering="geometricPrecision"><tspan x="202.21" y="173.75" font-family="Arial" font-size="13.65" fill="rgb(0, 0, 0)">gauche</tspan></text></g><g><text xml:space="preserve" text-anchor="start" text-rendering="geometricPrecision"><tspan x="286.88" y="173.75" font-family="Arial" font-size="13.65" fill="rgb(0, 0, 0)">gauche</tspan></text></g></g></g></svg>