<?xml version="1.0" encoding="UTF-8" standalone="no"?>
<!-- Created with Inkscape (http://www.inkscape.org/) -->

<svg
   width="147.75999mm"
   height="63.285mm"
   viewBox="0 0 147.75999 63.285"
   version="1.1"
   id="svg3132"
   inkscape:version="1.2.2 (b0a8486541, 2022-12-01)"
   sodipodi:docname="Exc_architectures.svg"
   xmlns:inkscape="http://www.inkscape.org/namespaces/inkscape"
   xmlns:sodipodi="http://sodipodi.sourceforge.net/DTD/sodipodi-0.dtd"
   xmlns="http://www.w3.org/2000/svg"
   xmlns:svg="http://www.w3.org/2000/svg">
  <sodipodi:namedview
     id="namedview3134"
     pagecolor="#ffffff"
     bordercolor="#999999"
     borderopacity="1"
     inkscape:showpageshadow="0"
     inkscape:pageopacity="0"
     inkscape:pagecheckerboard="0"
     inkscape:deskcolor="#d1d1d1"
     inkscape:document-units="mm"
     showgrid="false"
     inkscape:zoom="1.1789508"
     inkscape:cx="231.98593"
     inkscape:cy="131.04872"
     inkscape:window-width="1440"
     inkscape:window-height="890"
     inkscape:window-x="-6"
     inkscape:window-y="-6"
     inkscape:window-maximized="1"
     inkscape:current-layer="layer1" />
  <defs
     id="defs3129" />
  <g
     inkscape:label="Layer 1"
     inkscape:groupmode="layer"
     id="layer1"
     transform="translate(-16.854962,-52.185807)">
    <text
       xml:space="preserve"
       style="font-size:4.23333px;font-family:Arial;-inkscape-font-specification:Arial;fill:#ffffff;stroke:#ffffff;stroke-width:0.264583"
       x="26.266253"
       y="74.709351"
       id="text3307"><tspan
         sodipodi:role="line"
         id="tspan3305"
         style="font-size:4.23333px;fill:#000000;stroke:none;stroke-width:0.264583"
         x="26.266253"
         y="74.709351">linear</tspan></text>
    <text
       xml:space="preserve"
       style="font-size:4.23333px;font-family:Arial;-inkscape-font-specification:Arial;fill:#ffffff;stroke:#ffffff;stroke-width:0.264583"
       x="65.355179"
       y="73.868057"
       id="text3307-2"><tspan
         sodipodi:role="line"
         id="tspan3305-7"
         style="font-size:4.23333px;fill:#000000;stroke:none;stroke-width:0.264583"
         x="65.355179"
         y="73.868057">cyclic</tspan></text>
    <text
       xml:space="preserve"
       style="font-size:4.23333px;font-family:Arial;-inkscape-font-specification:Arial;fill:#ffffff;stroke:#ffffff;stroke-width:0.264583"
       x="105.95409"
       y="74.709351"
       id="text3307-7"><tspan
         sodipodi:role="line"
         id="tspan3305-6"
         style="font-size:4.23333px;fill:#000000;stroke:none;stroke-width:0.264583"
         x="105.95409"
         y="74.709351">star</tspan></text>
    <text
       xml:space="preserve"
       style="font-size:4.23333px;font-family:Arial;-inkscape-font-specification:Arial;fill:#ffffff;stroke:#ffffff;stroke-width:0.264583"
       x="143.38937"
       y="74.709351"
       id="text3307-6"><tspan
         sodipodi:role="line"
         id="tspan3305-3"
         style="font-size:4.23333px;fill:#000000;stroke:none;stroke-width:0.264583"
         x="143.38937"
         y="74.709351">comb</tspan></text>
    <text
       xml:space="preserve"
       style="font-size:4.23333px;font-family:Arial;-inkscape-font-specification:Arial;fill:#ffffff;stroke:#ffffff;stroke-width:0.264583"
       x="80.453926"
       y="113.42104"
       id="text3307-8"><tspan
         sodipodi:role="line"
         id="tspan3305-5"
         style="font-size:4.23333px;fill:#000000;stroke:none;stroke-width:0.264583"
         x="80.453926"
         y="113.42104">dendrimer</tspan></text>
    <text
       xml:space="preserve"
       style="font-size:4.23333px;font-family:Arial;-inkscape-font-specification:Arial;fill:#ffffff;stroke:#ffffff;stroke-width:0.264583"
       x="42.287937"
       y="113.42104"
       id="text3307-62"><tspan
         sodipodi:role="line"
         id="tspan3305-61"
         style="font-size:4.23333px;fill:#000000;stroke:none;stroke-width:0.264583"
         x="42.287937"
         y="113.42104">branched</tspan></text>
    <text
       xml:space="preserve"
       style="font-size:4.23333px;font-family:Arial;-inkscape-font-specification:Arial;fill:#000000;stroke:none;stroke-width:0.264583"
       x="118.5517"
       y="113.42104"
       id="text3568"><tspan
         sodipodi:role="line"
         id="tspan3566"
         style="stroke-width:0.264583"
         x="118.5517"
         y="113.42104">crosslinked</tspan></text>
    <path
       style="fill:none;stroke:#000000;stroke-width:0.264583"
       d="m 18.946672,63.08531 c 6.040025,-5.809843 9.652819,-1.314135 16.695888,-1.793515 1.162794,-0.07915 2.697893,-0.752433 3.409974,-1.675519 0.679704,-0.881116 0.181845,-0.5924 0.672555,-0.837758"
       id="path3635" />
    <path
       style="fill:none;stroke:#000000;stroke-width:0.264583"
       d="m 70.393625,55.451078 c -1.466768,-0.317823 -2.476725,-0.03179 -3.657756,0.82596 -7.090662,5.149737 1.242853,8.794634 6.465969,7.716827 0.845603,-0.174492 1.871305,-0.349226 2.607628,-0.896757 1.534718,-1.141222 3.251599,-3.702968 1.415904,-5.35694 -1.812134,-1.632746 -4.576918,-1.847416 -6.831745,-2.28909 z"
       id="path3637" />
    <g
       id="g3809"
       transform="translate(3.9999996,4.0000001)">
      <path
         style="fill:none;stroke:#000000;stroke-width:0.264583"
         d="m 99.617838,50.660516 c 0.35791,-0.114062 0.698262,-0.330541 1.073732,-0.342183 0.78949,-0.02447 1.48932,1.954432 1.75808,2.407084 1.05584,1.778289 5.53289,7.663212 7.32731,8.04721 1.88668,0.403743 3.72645,-0.185561 5.48664,0.401182"
         id="path3645" />
      <path
         style="fill:none;stroke:#000000;stroke-width:0.264583"
         d="m 112.83296,50.648716 c -3.12131,0.533805 -5.11703,2.238605 -5.73442,5.39234 -0.16727,0.854427 -0.24085,1.893369 -0.93214,2.525078 -1.43285,1.309354 -3.19649,1.977916 -4.87307,2.914459 -1.03032,0.575541 -2.283118,2.648257 -3.480773,1.899709"
         id="path3647" />
    </g>
    <g
       id="g3805"
       transform="translate(3.9999996,4.0000001)">
      <path
         style="fill:none;stroke:#000000;stroke-width:0.264583"
         d="m 131.8061,58.164954 c 3.05003,-2.088576 6.55952,-1.303441 9.99393,-1.168143 4.20443,0.165632 8.9116,0.401391 13.06173,-0.0826 1.04709,-0.12211 2.51487,-0.06673 3.52797,-0.471977"
         id="path3649" />
      <path
         style="fill:none;stroke:#000000;stroke-width:0.264583"
         d="m 135.75883,51.946653 c -1.59673,2.056016 -0.0275,1.349423 0.20059,2.831865 0.0571,0.371451 -0.11809,1.508871 -0.25958,1.852509"
         id="path3651" />
      <path
         style="fill:none;stroke:#000000;stroke-width:0.264583"
         d="m 141.32806,62.105963 c -0.14159,-0.326451 -0.33536,-0.634934 -0.42477,-0.979353 -0.0993,-0.382349 0.76978,-0.817152 0.86134,-1.168143 0.27671,-1.060723 -0.50614,-1.702266 -0.0826,-2.796466"
         id="path3653" />
      <path
         style="fill:none;stroke:#000000;stroke-width:0.264583"
         d="m 151.95915,53.799165 c -0.60985,1.061337 0.0236,2.079842 0.0236,3.115048"
         id="path3655" />
      <path
         style="fill:none;stroke:#000000;stroke-width:0.264583"
         d="m 149.68191,57.268197 c -0.93497,1.609203 0.82334,3.101464 -0.23599,4.778769"
         id="path3657" />
      <path
         style="fill:none;stroke:#000000;stroke-width:0.264583"
         d="m 158.53132,62.094165 c -0.40472,-0.330258 -2.24464,-4.834448 -1.86428,-5.109155"
         id="path3659" />
    </g>
    <g
       id="g3765"
       transform="translate(13.874599,-1.5964107)">
      <path
         style="fill:none;stroke:#000000;stroke-width:0.264583"
         d="m 28.161792,93.598642 c 0.19181,-1.122376 0.9579,-1.667444 2.029465,-1.793513 1.96369,-0.231026 3.836313,3.451532 4.36571,4.96756 0.406588,1.164339 0.448749,2.791603 1.109125,3.846611 1.943148,3.10436 3.975889,4.86148 7.516101,4.01181"
         id="path3661" />
      <path
         style="fill:none;stroke:#000000;stroke-width:0.264583"
         d="m 35.500905,99.852341 c 1.181827,-1.272725 2.707968,-3.956029 4.873074,-3.362838 0.459553,0.125907 0.979805,0.615638 1.451304,0.601771 2.732838,-0.08038 5.270351,-2.641597 6.147392,-5.097354"
         id="path3663" />
      <path
         style="fill:none;stroke:#000000;stroke-width:0.264583"
         d="m 44.763287,96.111921 c 3.613454,0.698638 2.892624,4.253239 7.5515,3.858414"
         id="path3665" />
      <path
         style="fill:none;stroke:#000000;stroke-width:0.264583"
         d="m 33.495038,94.778585 c -0.436571,0.432647 -0.882886,0.855676 -1.309714,1.297938 -2.073656,2.148649 -1.747176,4.944587 -3.268382,6.737477 -0.789144,0.93008 -2.015818,1.24097 -2.938004,2.0059 -0.529447,0.43916 -1.050084,1.29602 -1.415906,1.80531"
         id="path3667" />
      <path
         style="fill:none;stroke:#000000;stroke-width:0.264583"
         d="m 29.554101,101.96444 c -1.25235,-1.22628 -3.974765,-2.947111 -5.899609,-2.737468 -0.795023,0.08659 -1.30468,0.773768 -2.076662,0.802358"
         id="path3669" />
      <path
         style="fill:none;stroke:#000000;stroke-width:0.264583"
         d="M 25.152993,98.943783 C 24.070517,97.439317 23.71123,95.627144 23.39491,93.834631"
         id="path3671" />
    </g>
    <g
       id="g3782"
       transform="translate(-0.03960907,-2.7185243)">
      <path
         style="fill:none;stroke:#000000;stroke-width:0.264583"
         d="m 87.287657,99.757946 c 1.63245,-1.089533 2.248702,1.200554 3.834747,0.365784"
         id="path3679" />
      <path
         style="fill:none;stroke:#000000;stroke-width:0.264583"
         d="m 93.659234,97.173869 c 0.47126,0.907931 -2.752958,2.148213 -2.501434,3.091451 0.0478,0.17925 2.69658,2.11763 3.173989,2.85546"
         id="path3685" />
      <path
         style="fill:none;stroke:#000000;stroke-width:0.264583"
         d="m 85.305391,97.244666 c 1.457248,2.063935 2.762496,1.070351 1.805278,3.268444 -0.327308,0.75161 -0.700727,1.87193 -1.050128,2.45428"
         id="path3687" />
      <path
         style="fill:none;stroke:#000000;stroke-width:0.264583"
         d="m 93.517645,93.704837 c 0.991139,0.355296 -0.20482,2.945625 0.318577,3.469032 0.05484,0.05484 1.020624,-0.05984 1.144524,-0.0472 0.861692,0.08793 1.744548,0.470205 2.607627,0.424778"
         id="path3689" />
      <path
         style="fill:none;stroke:#000000;stroke-width:0.264583"
         d="m 97.765361,103.76975 c -4.586751,-2.3516 -2.928475,0.33224 -4.271317,2.50148"
         id="path3691" />
      <path
         style="fill:none;stroke:#000000;stroke-width:0.264583"
         d="m 81.765626,103.73435 c 0.418994,0.074 0.851056,-0.23407 1.286113,-0.22419 0.665514,0.0151 1.630997,0.68055 2.312646,0.37758 0.517091,-0.22982 0.807929,-1.43962 1.345113,-1.27433 0.312922,0.0963 0.537876,4.00586 0.294978,4.34219"
         id="path3693" />
      <path
         style="fill:none;stroke:#000000;stroke-width:0.264583"
         d="m 80.703697,95.687141 c 0.393306,0.232055 0.786614,0.464111 1.17992,0.696166 0.184856,0.08653 0.376055,0.160631 0.554564,0.259588 0.705982,0.391366 1.116462,0.368295 1.840677,0.519176 3.323958,0.692502 1.144677,-0.82704 1.533898,-3.551629"
         id="path3695" />
      <path
         style="fill:none;stroke:#000000;stroke-width:0.264583"
         d="m 92.054541,89.775627 c 0.338558,0.903801 0.528132,2.085665 1.227119,2.784665 0.04297,0.04297 0.58501,1.314686 0.75515,1.144545 0.438655,-0.438665 0.66376,-1.249111 1.073727,-1.746316 0.713131,-0.864878 1.198287,-1.229653 1.427705,-2.348087"
         id="path3697" />
      <path
         style="fill:none;stroke:#000000;stroke-width:0.264583"
         d="m 100.59717,94.235811 c -0.0998,0.0071 -2.904231,2.877648 -2.867208,3.044254 0.07674,0.345321 0.386154,0.204581 0.648957,0.306784 0.950579,0.369679 1.910781,0.743365 2.914411,0.743365"
         id="path3699" />
      <path
         style="fill:none;stroke:#000000;stroke-width:0.264583"
         d="m 101.16353,103.38037 c -1.06101,-0.71473 -1.55764,-0.6371 -2.548627,-0.16519 -1.723093,0.82054 -0.121136,1.42065 0.495568,2.80826 0.235852,0.53068 0.284593,1.1119 0.460171,1.66372"
         id="path3701" />
      <path
         style="fill:none;stroke:#000000;stroke-width:0.264583"
         d="m 95.688699,109.30368 c -2.101122,-5.45028 -2.339723,-2.50668 -2.997001,0.96756"
         id="path3703" />
      <path
         style="fill:none;stroke:#000000;stroke-width:0.264583"
         d="m 88.207997,109.69307 c -1.064527,-3.45169 1.088266,3.8362 -0.542764,-1.72272 -0.559911,-1.90831 -0.426294,-1.5804 -1.592894,-0.55457 -0.982748,0.86415 -2.032786,1.5199 -3.032398,2.32448"
         id="path3705" />
      <path
         style="fill:none;stroke:#000000;stroke-width:0.264583"
         d="m 79.688964,101.77565 c -0.739955,0.72753 2.234533,1.8426 1.970469,2.19469 -0.235903,0.31454 -0.547196,0.38837 -0.790549,0.73157 -0.590336,0.83254 -1.044408,1.79744 -1.61649,2.58407"
         id="path3707" />
      <path
         style="fill:none;stroke:#000000;stroke-width:0.264583"
         d="m 76.857153,95.238765 c 0.102187,0.535672 0.378769,1.630127 1.168122,1.663718 0.440552,0.01876 0.831866,-0.585555 1.215318,-0.719764 0.263377,-0.09218 1.627148,-0.335325 1.651892,-0.483778 0.124598,-0.747609 -1.079045,-2.218933 -1.168125,-3.020655"
         id="path3709" />
      <path
         style="fill:none;stroke:#000000;stroke-width:0.264583"
         d="m 83.547306,90.294803 c 1.147239,2.371002 0.06462,0.344432 0.825947,1.463127 0.478748,0.703482 0.839552,0.780452 1.368708,1.274339 0.199726,0.186415 0.29744,0.95554 0.412973,0.707967 0.551733,-1.182309 -0.232191,-3.572785 1.109125,-4.377589"
         id="path3711" />
    </g>
    <g
       id="g3797"
       transform="translate(-11.260744,-1.1475654)">
      <path
         style="fill:none;stroke:#000000;stroke-width:0.264583"
         d="m 126.34306,93.197462 c 0.88459,-0.429948 2.16329,-1.346631 3.32738,-1.156343 2.52697,0.413067 6.81657,8.321721 9.0382,10.289101 1.8004,1.59436 4.25077,3.38844 6.69015,3.77582 1.7999,0.28582 3.66471,-0.69537 5.21525,-0.67257"
         id="path3727" />
      <path
         style="fill:none;stroke:#000000;stroke-width:0.264583"
         d="m 123.86984,98.294816 c 0.67302,-0.207008 -0.97805,-0.254982 -0.33499,-0.0354 2.10657,0.719334 4.4273,1.887854 6.71375,1.581124 1.46828,-0.196969 2.55099,-1.441553 3.92914,-1.392333"
         id="path3729"
         sodipodi:nodetypes="cssc" />
      <path
         style="fill:none;stroke:#000000;stroke-width:0.264583"
         d="m 136.57298,97.693045 c 1.36135,-1.290804 1.91507,-3.083214 3.17399,-4.460185 0.79476,-0.869288 1.9458,-0.647916 2.79641,-1.486728 1.64092,-1.618162 2.97374,-3.43508 4.5191,-5.120952 0.44087,-0.480954 1.47782,-0.694362 2.05306,-1.026551"
         id="path3731" />
      <path
         style="fill:none;stroke:#000000;stroke-width:0.264583"
         d="m 138.64964,83.309538 c 0.16681,2.555645 1.53214,4.260901 3.57516,5.486736 0.579,0.347406 1.05318,0.45153 1.32151,1.026552"
         id="path3733" />
      <path
         style="fill:none;stroke:#000000;stroke-width:0.264583"
         d="m 144.91502,91.049966 c 0.29105,0.393314 0.60586,0.770107 0.87315,1.179944 1.32147,2.026301 2.04698,4.546605 3.18578,6.690275 0.39955,0.752102 1.10373,1.357385 1.4749,2.088495 0.48616,0.95761 0.86659,2.06166 1.22712,3.07966 0.39387,1.1121 -0.008,2.33664 0.17699,3.48083"
         id="path3737" />
      <path
         style="fill:none;stroke:#000000;stroke-width:0.264583"
         d="m 153.57565,104.8081 c 0.10619,-0.43658 0.21351,-0.87288 0.31858,-1.30973 0.52335,-2.17608 1.48655,-4.013175 2.9262,-5.734528 0.96841,-1.157899 2.05579,-1.996239 2.32445,-3.563429"
         id="path3739" />
      <path
         style="fill:none;stroke:#000000;stroke-width:0.264583"
         d="m 143.8413,105.46887 c 0.24386,-0.82125 0.36353,-1.96842 1.08552,-2.57228 1.12353,-0.93969 2.55979,-1.75632 3.42177,-2.949853 0.17454,-0.241666 0.9133,-1.840019 0.94394,-1.227141"
         id="path3741" />
      <path
         style="fill:none;stroke:#000000;stroke-width:0.264583"
         d="m 130.36659,92.890677 c -0.30285,0.38938 -0.65664,0.744019 -0.90854,1.168144 -0.70039,1.179253 0.034,2.418471 -0.11799,3.634224 -0.0804,0.642863 -0.46017,1.396558 -0.46017,1.994104 0,0.328401 -0.21378,0.417471 -0.24778,0.09439"
         id="path3743" />
      <path
         style="fill:none;stroke:#000000;stroke-width:0.264583"
         d="m 137.88269,101.79925 c -0.76996,1.12273 -1.04575,4.34491 -2.02946,4.89676 -1.07458,0.60283 -2.42463,0.64875 -2.96161,1.72272"
         id="path3745" />
      <path
         style="fill:none;stroke:#000000;stroke-width:0.264583"
         d="m 140.36053,86.920164 c -1.48098,2.29624 0.18845,4.248788 -0.48377,6.265497"
         id="path3749" />
      <path
         style="fill:none;stroke:#000000;stroke-width:0.264583"
         d="m 155.99449,98.802191 c -0.95147,-0.446521 -1.37385,-1.152355 -1.71089,-2.100299 -0.84992,-2.390442 0.5391,-3.200093 0.94394,-5.533932 0.0669,-0.385602 -0.24082,-1.034884 -0.34218,-1.404134"
         id="path3751" />
      <path
         style="fill:none;stroke:#000000;stroke-width:0.264583"
         d="m 147.26307,86.424589 c -0.27899,2.916491 3.02524,2.476021 4.53089,3.941008 0.7947,0.773237 1.51209,2.025124 2.46604,2.442483 0.1574,0.06886 0.0147,-0.379733 0.14159,-0.495575 0.15986,-0.145955 0.41132,0.149153 0.58996,0.271385"
         id="path3753" />
      <path
         style="fill:none;stroke:#000000;stroke-width:0.264583"
         d="m 133.04501,94.719589 c -0.0358,-0.81383 -0.12767,-1.598883 0.22419,-2.359888 0.87231,-1.886659 2.27679,-4.757314 4.01173,-5.828916 0.30294,-0.187111 2.17102,-1.81864 1.80528,-1.404133"
         id="path3755" />
    </g>
  </g>
</svg>
