<?xml version="1.0" standalone="no" ?>
<!DOCTYPE svg PUBLIC "-//W3C//DTD SVG 1.1//EN" "http://www.w3.org/Graphics/SVG/1.1/DTD/svg11.dtd">
<svg width="605px" height="802px" viewBox="0 0 605 802" style="background-color: #ffffff00" xmlns="http://www.w3.org/2000/svg" xmlns:xlink="http://www.w3.org/1999/xlink" version="1.1" >
<path stroke="none" fill="#000000" transform="matrix(0.0666667 0 0 0.0666667 -15.6333 -20.3333)" d="M 797,509.072 L 797,522.928 L 550.6,665.196 L 544.6,654.804 L 797,509.072 Z " />
<path stroke="none" fill="#000000" transform="matrix(0.0666667 0 0 0.0666667 -15.6333 -20.3333)" d="M 1046.4,653.072 L 1046.4,660 L 1040.4,663.464 L 797,522.928 L 797,509.072 L 1046.4,653.072 Z " />
<path stroke="none" fill="#000000" transform="matrix(0.0666667 0 0 0.0666667 -15.6333 -20.3333)" d="M 1292.8,510.804 L 1298.8,521.196 L 1052.4,663.464 L 1046.4,660 L 1046.4,653.072 L 1292.8,510.804 Z " />
<path stroke="none" fill="#000000" transform="matrix(0.0666667 0 0 0.0666667 -15.6333 -20.3333)" d="M 1052.4,944.536 L 1046.4,948 L 1040.4,944.536 L 1040.4,663.464 L 1046.4,660 L 1052.4,663.464 L 1052.4,944.536 Z " />
<path stroke="none" fill="#000000" transform="matrix(0.0666667 0 0 0.0666667 -15.6333 -20.3333)" d="M 803,1095.46 L 791,1088.54 L 1040.4,944.536 L 1046.4,948 L 1046.4,954.928 L 803,1095.46 Z " />
<path stroke="none" fill="#000000" transform="matrix(0.0666667 0 0 0.0666667 -15.6333 -20.3333)" d="M 851.838,1127.12 L 845.837,1116.73 L 1043.4,1002.66 L 1049.4,1013.05 L 851.838,1127.12 Z " />
<path stroke="none" fill="#000000" transform="matrix(0.0666667 0 0 0.0666667 -15.6333 -20.3333)" d="M 803,1376.54 L 791,1383.46 L 791,1088.54 L 803,1095.46 L 803,1376.54 Z " />
<path stroke="none" fill="#000000" transform="matrix(0.0666667 0 0 0.0666667 -15.6333 -20.3333)" d="M 1046.4,1517.07 L 1046.4,1530.93 L 791,1383.46 L 803,1376.54 L 1046.4,1517.07 Z " />
<path stroke="none" fill="#000000" transform="matrix(0.0666667 0 0 0.0666667 -15.6333 -20.3333)" d="M 1049.4,1458.95 L 1043.4,1469.34 L 845.837,1355.27 L 851.838,1344.88 L 1049.4,1458.95 Z " />
<path stroke="none" fill="#000000" transform="matrix(0.0666667 0 0 0.0666667 -15.6333 -20.3333)" d="M 1289.8,1376.54 L 1301.8,1383.46 L 1046.4,1530.93 L 1046.4,1517.07 L 1289.8,1376.54 Z " />
<path stroke="none" fill="#000000" transform="matrix(0.0666667 0 0 0.0666667 -15.6333 -20.3333)" d="M 1289.8,1095.46 L 1301.8,1088.54 L 1301.8,1383.46 L 1289.8,1376.54 L 1289.8,1095.46 Z " />
<path stroke="none" fill="#000000" transform="matrix(0.0666667 0 0 0.0666667 -15.6333 -20.3333)" d="M 1237.96,1121.93 L 1249.96,1121.93 L 1249.96,1350.07 L 1237.96,1350.07 L 1237.96,1121.93 Z " />
<path stroke="none" fill="#000000" transform="matrix(0.0666667 0 0 0.0666667 -15.6333 -20.3333)" d="M 1046.4,954.928 L 1046.4,948 L 1052.4,944.536 L 1301.8,1088.54 L 1289.8,1095.46 L 1046.4,954.928 Z " />
<path stroke="#000000" stroke-width="12" fill="none" transform="matrix(0.0666667 0 0 0.0666667 -15.6333 -20.3333)" d="M 1159.34,710.188 A 345,345 0 0 0 1165.36,365.241" />
<text x="0" y="0" stroke="none" fill="#000000" transform="matrix(0.0666667 0 0 0.0666667 65.61 29.7389)" font-style="normal" font-weight="normal" font-size="150px" font-family="Arial" >
n</text>
<path stroke="#000000" stroke-width="12" fill="none" transform="matrix(0.0666667 0 0 0.0666667 -15.6333 -20.3333)" d="M 697.6,360 A 345,345 0 0 0 697.6,705" />
<path stroke="none" fill="#000000" transform="matrix(0.0666667 0 0 0.0666667 -15.6333 -20.3333)" d="M 2839.4,659.364 L 2839.4,671.836 L 2332.84,815.373 L 2329.56,803.827 L 2839.4,659.364 Z " />
<path stroke="none" fill="#000000" transform="matrix(0.0666667 0 0 0.0666667 -15.6333 -20.3333)" d="M 3347.6,803.364 L 3347.6,809.6 L 3341.6,814.136 L 2839.4,671.836 L 2839.4,659.364 L 3347.6,803.364 Z " />
<path stroke="none" fill="#000000" transform="matrix(0.0666667 0 0 0.0666667 -15.6333 -20.3333)" d="M 3855.8,659.364 L 3855.8,671.836 L 3353.6,814.136 L 3347.6,809.6 L 3347.6,803.364 L 3855.8,659.364 Z " />
<path stroke="none" fill="#000000" transform="matrix(0.0666667 0 0 0.0666667 -15.6333 -20.3333)" d="M 4364.2,803.364 L 4364.2,809.6 L 4358.2,814.136 L 3855.8,671.836 L 3855.8,659.364 L 4364.2,803.364 Z " />
<path stroke="none" fill="#000000" transform="matrix(0.0666667 0 0 0.0666667 -15.6333 -20.3333)" d="M 4870.76,659.827 L 4874.04,671.373 L 4370.2,814.136 L 4364.2,809.6 L 4364.2,803.364 L 4870.76,659.827 Z " />
<path stroke="none" fill="#000000" transform="matrix(0.0666667 0 0 0.0666667 -15.6333 -20.3333)" d="M 3353.6,1094.14 L 3341.6,1101.06 L 3341.6,814.136 L 3347.6,809.6 L 3353.6,814.136 L 3353.6,1094.14 Z " />
<path stroke="none" fill="#000000" transform="matrix(0.0666667 0 0 0.0666667 -15.6333 -20.3333)" d="M 4370.2,1094.14 L 4358.2,1101.06 L 4358.2,814.136 L 4364.2,809.6 L 4370.2,814.136 L 4370.2,1094.14 Z " />
<text x="0" y="0" stroke="none" fill="#000000" transform="matrix(0.0666667 0 0 0.0666667 185.728 67.64)" font-style="normal" font-weight="normal" font-size="200px" font-family="Arial" >
O</text>
<path stroke="none" fill="#000000" transform="matrix(0.0666667 0 0 0.0666667 -15.6333 -20.3333)" d="M 3200.01,1219.67 L 3194.01,1209.28 L 3370.52,1107.37 L 3376.52,1117.76 L 3200.01,1219.67 Z " />
<path stroke="none" fill="#000000" transform="matrix(0.0666667 0 0 0.0666667 -15.6333 -20.3333)" d="M 3174.09,1174.78 L 3168.09,1164.39 L 3344.6,1062.47 L 3350.6,1072.87 L 3174.09,1174.78 Z " />
<text x="0" y="0" stroke="none" fill="#000000" transform="matrix(0.0666667 0 0 0.0666667 219.352 67.64)" font-style="normal" font-weight="normal" font-size="200px" font-family="Arial" >
NH</text>
<text x="0" y="0" stroke="none" fill="#000000" transform="matrix(0.0666667 0 0 0.0666667 238.61 70.5733)" font-style="normal" font-weight="normal" font-size="150px" font-family="Arial" >
2</text>
<path stroke="none" fill="#000000" transform="matrix(0.0666667 0 0 0.0666667 -15.6333 -20.3333)" d="M 3502.92,1180.35 L 3496.92,1190.74 L 3341.6,1101.06 L 3353.6,1094.14 L 3502.92,1180.35 Z " />
<text x="0" y="0" stroke="none" fill="#000000" transform="matrix(0.0666667 0 0 0.0666667 253.501 67.64)" font-style="normal" font-weight="normal" font-size="200px" font-family="Arial" >
O</text>
<path stroke="none" fill="#000000" transform="matrix(0.0666667 0 0 0.0666667 -15.6333 -20.3333)" d="M 4216.61,1219.67 L 4210.61,1209.28 L 4387.12,1107.37 L 4393.12,1117.76 L 4216.61,1219.67 Z " />
<path stroke="none" fill="#000000" transform="matrix(0.0666667 0 0 0.0666667 -15.6333 -20.3333)" d="M 4190.69,1174.78 L 4184.69,1164.39 L 4361.2,1062.47 L 4367.2,1072.87 L 4190.69,1174.78 Z " />
<text x="0" y="0" stroke="none" fill="#000000" transform="matrix(0.0666667 0 0 0.0666667 286.754 67.64)" font-style="normal" font-weight="normal" font-size="200px" font-family="Arial" >
OH</text>
<path stroke="none" fill="#000000" transform="matrix(0.0666667 0 0 0.0666667 -15.6333 -20.3333)" d="M 4531.07,1187.02 L 4525.07,1197.41 L 4358.2,1101.06 L 4370.2,1094.14 L 4531.07,1187.02 Z " />
<path stroke="#000000" stroke-width="12" fill="none" transform="matrix(0.0666667 0 0 0.0666667 -15.6333 -20.3333)" d="M 3425.08,874.286 A 285,285 0 0 0 3430.05,589.329" />
<text x="0" y="0" stroke="none" fill="#000000" transform="matrix(0.0666667 0 0 0.0666667 216.623 40.6611)" font-style="normal" font-weight="normal" font-size="150px" font-family="Arial" >
x</text>
<path stroke="#000000" stroke-width="12" fill="none" transform="matrix(0.0666667 0 0 0.0666667 -15.6333 -20.3333)" d="M 2722.4,585 A 285,285 0 0 0 2722.4,870" />
<path stroke="#000000" stroke-width="12" fill="none" transform="matrix(0.0666667 0 0 0.0666667 -15.6333 -20.3333)" d="M 4489.88,859.286 A 285,285 0 0 0 4494.85,574.329" />
<text x="0" y="0" stroke="none" fill="#000000" transform="matrix(0.0666667 0 0 0.0666667 287.61 38.6278)" font-style="normal" font-weight="normal" font-size="150px" font-family="Arial" >
y</text>
<path stroke="#000000" stroke-width="12" fill="none" transform="matrix(0.0666667 0 0 0.0666667 -15.6333 -20.3333)" d="M 3727.6,570 A 285,285 0 0 0 3727.6,855" />
<path stroke="#000000" stroke-width="12" fill="none" transform="matrix(0.0666667 0 0 0.0666667 -15.6333 -20.3333)" d="M 4685.65,480 L 4717.6,480 " />
<path stroke="#000000" stroke-width="12" fill="none" transform="matrix(0.0666667 0 0 0.0666667 -15.6333 -20.3333)" d="M 4717.6,480 L 4717.6,915 " />
<path stroke="#000000" stroke-width="12" fill="none" transform="matrix(0.0666667 0 0 0.0666667 -15.6333 -20.3333)" d="M 4717.6,915 L 4685.65,915 " />
<path stroke="#000000" stroke-width="12" fill="none" transform="matrix(0.0666667 0 0 0.0666667 -15.6333 -20.3333)" d="M 2604.35,915 L 2572.4,915 " />
<path stroke="#000000" stroke-width="12" fill="none" transform="matrix(0.0666667 0 0 0.0666667 -15.6333 -20.3333)" d="M 2572.4,915 L 2572.4,480 " />
<path stroke="#000000" stroke-width="12" fill="none" transform="matrix(0.0666667 0 0 0.0666667 -15.6333 -20.3333)" d="M 2572.4,480 L 2604.35,480 " />
<text x="0" y="0" stroke="none" fill="#000000" transform="matrix(0.0666667 0 0 0.0666667 197.088 196.413)" font-style="normal" font-weight="normal" font-size="200px" font-family="Arial" >
O</text>
<path stroke="none" fill="#000000" transform="matrix(0.0666667 0 0 0.0666667 -15.6333 -20.3333)" d="M 3128.96,2736 L 3124.6,2730 L 3125.58,2724 L 3411.42,2724 L 3412.4,2730 L 3408.04,2736 L 3128.96,2736 Z " />
<path stroke="none" fill="#000000" transform="matrix(0.0666667 0 0 0.0666667 -15.6333 -20.3333)" d="M 3042.65,3001.71 L 3028.55,3006.29 L 3117.06,2733.8 L 3124.6,2730 L 3128.96,2736 L 3042.65,3001.71 Z " />
<path stroke="none" fill="#000000" transform="matrix(0.0666667 0 0 0.0666667 -15.6333 -20.3333)" d="M 3192.22,3110.32 L 3185.17,3120.03 L 3028.55,3006.29 L 3042.65,3001.71 L 3192.22,3110.32 Z " />
<path stroke="none" fill="#000000" transform="matrix(0.0666667 0 0 0.0666667 -15.6333 -20.3333)" d="M 3494.35,3001.71 L 3508.45,3006.29 L 3352.29,3119.79 L 3345.24,3110.08 L 3494.35,3001.71 Z " />
<path stroke="none" fill="#000000" transform="matrix(0.0666667 0 0 0.0666667 -15.6333 -20.3333)" d="M 3408.04,2736 L 3412.4,2730 L 3419.94,2733.8 L 3508.45,3006.29 L 3494.35,3001.71 L 3408.04,2736 Z " />
<path stroke="none" fill="#000000" transform="matrix(0.0666667 0 0 0.0666667 -15.6333 -20.3333)" d="M 3842,2579.67 L 3842,2592.33 L 3419.94,2733.8 L 3412.4,2730 L 3411.42,2724 L 3842,2579.67 Z " />
<path stroke="none" fill="#000000" transform="matrix(0.0666667 0 0 0.0666667 -15.6333 -20.3333)" d="M 4270.74,2723.45 L 4271.4,2730 L 4265.4,2734.32 L 3842,2592.33 L 3842,2579.67 L 4270.74,2723.45 Z " />
<path stroke="none" fill="#000000" transform="matrix(0.0666667 0 0 0.0666667 -15.6333 -20.3333)" d="M 2693.09,2591.69 L 2696.91,2580.31 L 3125.58,2724 L 3124.6,2730 L 3117.06,2733.8 L 2693.09,2591.69 Z " />
<path stroke="none" fill="#000000" transform="matrix(0.0666667 0 0 0.0666667 -15.6333 -20.3333)" d="M 4517.8,2580.8 L 4523.8,2591.2 L 4277.4,2733.46 L 4271.4,2730 L 4270.74,2723.45 L 4517.8,2580.8 Z " />
<path stroke="none" fill="#000000" transform="matrix(0.0666667 0 0 0.0666667 -15.6333 -20.3333)" d="M 4277.4,3014.54 L 4271.4,3018 L 4265.4,3014.54 L 4265.4,2734.32 L 4271.4,2730 L 4277.4,2733.46 L 4277.4,3014.54 Z " />
<path stroke="none" fill="#000000" transform="matrix(0.0666667 0 0 0.0666667 -15.6333 -20.3333)" d="M 4028,3165.46 L 4016,3158.54 L 4265.4,3014.54 L 4271.4,3018 L 4271.4,3024.93 L 4028,3165.46 Z " />
<path stroke="none" fill="#000000" transform="matrix(0.0666667 0 0 0.0666667 -15.6333 -20.3333)" d="M 4076.84,3197.12 L 4070.84,3186.73 L 4268.4,3072.66 L 4274.4,3083.05 L 4076.84,3197.12 Z " />
<path stroke="none" fill="#000000" transform="matrix(0.0666667 0 0 0.0666667 -15.6333 -20.3333)" d="M 4028,3446.54 L 4016,3453.46 L 4016,3158.54 L 4028,3165.46 L 4028,3446.54 Z " />
<path stroke="none" fill="#000000" transform="matrix(0.0666667 0 0 0.0666667 -15.6333 -20.3333)" d="M 4271.4,3587.07 L 4271.4,3600.93 L 4016,3453.46 L 4028,3446.54 L 4271.4,3587.07 Z " />
<path stroke="none" fill="#000000" transform="matrix(0.0666667 0 0 0.0666667 -15.6333 -20.3333)" d="M 4274.4,3528.95 L 4268.4,3539.34 L 4070.84,3425.27 L 4076.84,3414.88 L 4274.4,3528.95 Z " />
<path stroke="none" fill="#000000" transform="matrix(0.0666667 0 0 0.0666667 -15.6333 -20.3333)" d="M 4514.8,3446.54 L 4526.8,3453.46 L 4271.4,3600.93 L 4271.4,3587.07 L 4514.8,3446.54 Z " />
<path stroke="none" fill="#000000" transform="matrix(0.0666667 0 0 0.0666667 -15.6333 -20.3333)" d="M 4514.8,3165.46 L 4526.8,3158.54 L 4526.8,3453.46 L 4514.8,3446.54 L 4514.8,3165.46 Z " />
<path stroke="none" fill="#000000" transform="matrix(0.0666667 0 0 0.0666667 -15.6333 -20.3333)" d="M 4462.96,3191.93 L 4474.96,3191.93 L 4474.96,3420.07 L 4462.96,3420.07 L 4462.96,3191.93 Z " />
<path stroke="none" fill="#000000" transform="matrix(0.0666667 0 0 0.0666667 -15.6333 -20.3333)" d="M 4271.4,3024.93 L 4271.4,3018 L 4277.4,3014.54 L 4526.8,3158.54 L 4514.8,3165.46 L 4271.4,3024.93 Z " />
<text x="0" y="0" stroke="none" fill="#000000" transform="matrix(0.0666667 0 0 0.0666667 163.288 191.067)" font-style="normal" font-weight="normal" font-size="200px" font-family="Arial" >
O</text>
<path stroke="none" fill="#000000" transform="matrix(0.0666667 0 0 0.0666667 -15.6333 -20.3333)" d="M 2865.91,3092.69 L 2862.2,3081.28 L 3059.69,3017.13 L 3063.39,3028.54 L 2865.91,3092.69 Z " />
<path stroke="none" fill="#000000" transform="matrix(0.0666667 0 0 0.0666667 -15.6333 -20.3333)" d="M 2849.89,3043.37 L 2846.18,3031.96 L 3043.65,2967.82 L 3047.35,2979.23 L 2849.89,3043.37 Z " />
<text x="0" y="0" stroke="none" fill="#000000" transform="matrix(0.0666667 0 0 0.0666667 230.874 191.067)" font-style="normal" font-weight="normal" font-size="200px" font-family="Arial" >
O</text>
<path stroke="none" fill="#000000" transform="matrix(0.0666667 0 0 0.0666667 -15.6333 -20.3333)" d="M 3691.48,3032.17 L 3687.77,3043.58 L 3489.65,2979.23 L 3493.35,2967.82 L 3691.48,3032.17 Z " />
<path stroke="none" fill="#000000" transform="matrix(0.0666667 0 0 0.0666667 -15.6333 -20.3333)" d="M 3675.46,3081.49 L 3671.75,3092.9 L 3473.62,3028.55 L 3477.33,3017.13 L 3675.46,3081.49 Z " />
<path stroke="#000000" stroke-width="12" fill="none" transform="matrix(0.0666667 0 0 0.0666667 -15.6333 -20.3333)" d="M 4369.08,2810.64 A 375,375 0 0 0 4375.62,2435.7" />
<text x="0" y="0" stroke="none" fill="#000000" transform="matrix(0.0666667 0 0 0.0666667 279.61 169.739)" font-style="normal" font-weight="normal" font-size="150px" font-family="Arial" >
n</text>
<path stroke="#000000" stroke-width="12" fill="none" transform="matrix(0.0666667 0 0 0.0666667 -15.6333 -20.3333)" d="M 2902.4,2430 A 375,375 0 0 0 2902.4,2805" />
<path stroke="none" fill="#000000" transform="matrix(0.0666667 0 0 0.0666667 -15.6333 -20.3333)" d="M 662.001,2759.07 L 661.999,2772.93 L 415.398,2915.2 L 409.402,2904.8 L 662.001,2759.07 Z " />
<path stroke="none" fill="#000000" transform="matrix(0.0666667 0 0 0.0666667 -15.6333 -20.3333)" d="M 911.4,2903.07 L 911.4,2910 L 905.4,2913.46 L 661.999,2772.93 L 662.001,2759.07 L 911.4,2903.07 Z " />
<path stroke="none" fill="#000000" transform="matrix(0.0666667 0 0 0.0666667 -15.6333 -20.3333)" d="M 1153.59,2763.23 L 1160.8,2766 L 1162.41,2772 L 917.4,2913.46 L 911.4,2910 L 911.4,2903.07 L 1153.59,2763.23 Z " />
<text x="0" y="0" stroke="none" fill="#000000" transform="matrix(0.0666667 0 0 0.0666667 66.1678 139.72)" font-style="normal" font-weight="normal" font-size="200px" font-family="Arial" >
O</text>
<path stroke="none" fill="#000000" transform="matrix(0.0666667 0 0 0.0666667 -15.6333 -20.3333)" d="M 1444.44,2760 L 1448.8,2766 L 1447.19,2772 L 1162.41,2772 L 1160.8,2766 L 1165.16,2760 L 1444.44,2760 Z " />
<path stroke="none" fill="#000000" transform="matrix(0.0666667 0 0 0.0666667 -15.6333 -20.3333)" d="M 1530.75,2494.29 L 1544.85,2489.71 L 1456.01,2763.23 L 1448.8,2766 L 1444.44,2760 L 1530.75,2494.29 Z " />
<path stroke="none" fill="#000000" transform="matrix(0.0666667 0 0 0.0666667 -15.6333 -20.3333)" d="M 1389.69,2391.86 L 1396.74,2382.15 L 1544.85,2489.71 L 1530.75,2494.29 L 1389.69,2391.86 Z " />
<path stroke="none" fill="#000000" transform="matrix(0.0666667 0 0 0.0666667 -15.6333 -20.3333)" d="M 1078.85,2494.29 L 1064.75,2489.71 L 1213.62,2381.6 L 1220.67,2391.31 L 1078.85,2494.29 Z " />
<path stroke="none" fill="#000000" transform="matrix(0.0666667 0 0 0.0666667 -15.6333 -20.3333)" d="M 1165.16,2760 L 1160.8,2766 L 1153.59,2763.23 L 1064.75,2489.71 L 1078.85,2494.29 L 1165.16,2760 Z " />
<path stroke="none" fill="#000000" transform="matrix(0.0666667 0 0 0.0666667 -15.6333 -20.3333)" d="M 1701.2,2904.8 L 1695.2,2915.2 L 1447.19,2772 L 1448.8,2766 L 1456.01,2763.23 L 1701.2,2904.8 Z " />
<text x="0" y="0" stroke="none" fill="#000000" transform="matrix(0.0666667 0 0 0.0666667 32.3678 145.067)" font-style="normal" font-weight="normal" font-size="200px" font-family="Arial" >
O</text>
<path stroke="none" fill="#000000" transform="matrix(0.0666667 0 0 0.0666667 -15.6333 -20.3333)" d="M 887.328,2465.65 L 891.035,2454.24 L 1083.55,2516.77 L 1079.85,2528.18 L 887.328,2465.65 Z " />
<path stroke="none" fill="#000000" transform="matrix(0.0666667 0 0 0.0666667 -15.6333 -20.3333)" d="M 903.348,2416.33 L 907.055,2404.92 L 1099.59,2467.46 L 1095.89,2478.87 L 903.348,2416.33 Z " />
<text x="0" y="0" stroke="none" fill="#000000" transform="matrix(0.0666667 0 0 0.0666667 99.9544 145.067)" font-style="normal" font-weight="normal" font-size="200px" font-family="Arial" >
O</text>
<path stroke="none" fill="#000000" transform="matrix(0.0666667 0 0 0.0666667 -15.6333 -20.3333)" d="M 1703.06,2404.73 L 1706.77,2416.14 L 1513.74,2478.88 L 1510.03,2467.47 L 1703.06,2404.73 Z " />
<path stroke="none" fill="#000000" transform="matrix(0.0666667 0 0 0.0666667 -15.6333 -20.3333)" d="M 1719.08,2454.01 L 1722.79,2465.42 L 1529.76,2528.17 L 1526.05,2516.76 L 1719.08,2454.01 Z " />
<path stroke="none" fill="#000000" transform="matrix(0.0666667 0 0 0.0666667 -15.6333 -20.3333)" d="M 917.4,3194.54 L 911.4,3198 L 905.4,3194.54 L 905.4,2913.46 L 911.4,2910 L 917.4,2913.46 L 917.4,3194.54 Z " />
<path stroke="none" fill="#000000" transform="matrix(0.0666667 0 0 0.0666667 -15.6333 -20.3333)" d="M 668,3345.46 L 656,3338.54 L 905.4,3194.54 L 911.4,3198 L 911.4,3204.93 L 668,3345.46 Z " />
<path stroke="none" fill="#000000" transform="matrix(0.0666667 0 0 0.0666667 -15.6333 -20.3333)" d="M 716.838,3377.12 L 710.837,3366.73 L 908.4,3252.66 L 914.4,3263.05 L 716.838,3377.12 Z " />
<path stroke="none" fill="#000000" transform="matrix(0.0666667 0 0 0.0666667 -15.6333 -20.3333)" d="M 668,3626.54 L 656,3633.46 L 656,3338.54 L 668,3345.46 L 668,3626.54 Z " />
<path stroke="none" fill="#000000" transform="matrix(0.0666667 0 0 0.0666667 -15.6333 -20.3333)" d="M 911.4,3767.07 L 911.4,3780.93 L 656,3633.46 L 668,3626.54 L 911.4,3767.07 Z " />
<path stroke="none" fill="#000000" transform="matrix(0.0666667 0 0 0.0666667 -15.6333 -20.3333)" d="M 914.4,3708.95 L 908.4,3719.34 L 710.837,3605.27 L 716.838,3594.88 L 914.4,3708.95 Z " />
<path stroke="none" fill="#000000" transform="matrix(0.0666667 0 0 0.0666667 -15.6333 -20.3333)" d="M 1154.8,3626.54 L 1166.8,3633.46 L 911.4,3780.93 L 911.4,3767.07 L 1154.8,3626.54 Z " />
<path stroke="none" fill="#000000" transform="matrix(0.0666667 0 0 0.0666667 -15.6333 -20.3333)" d="M 1154.8,3345.46 L 1166.8,3338.54 L 1166.8,3633.46 L 1154.8,3626.54 L 1154.8,3345.46 Z " />
<path stroke="none" fill="#000000" transform="matrix(0.0666667 0 0 0.0666667 -15.6333 -20.3333)" d="M 1102.96,3371.93 L 1114.96,3371.93 L 1114.96,3600.07 L 1102.96,3600.07 L 1102.96,3371.93 Z " />
<path stroke="none" fill="#000000" transform="matrix(0.0666667 0 0 0.0666667 -15.6333 -20.3333)" d="M 911.4,3204.93 L 911.4,3198 L 917.4,3194.54 L 1166.8,3338.54 L 1154.8,3345.46 L 911.4,3204.93 Z " />
<path stroke="#000000" stroke-width="12" fill="none" transform="matrix(0.0666667 0 0 0.0666667 -15.6333 -20.3333)" d="M 1559,3020.09 A 338.6,338.6 0 0 0 1564.91,2681.54" />
<text x="0" y="0" stroke="none" fill="#000000" transform="matrix(0.0666667 0 0 0.0666667 92.25 183.739)" font-style="normal" font-weight="normal" font-size="150px" font-family="Arial" >
n</text>
<path stroke="#000000" stroke-width="12" fill="none" transform="matrix(0.0666667 0 0 0.0666667 -15.6333 -20.3333)" d="M 557,2676.4 A 338.6,338.6 0 0 0 557,3015" />
<path stroke="none" fill="#000000" transform="matrix(0.0666667 0 0 0.0666667 -15.6333 -20.3333)" d="M 801.8,4454.34 L 801.8,4466.86 L 322.922,4610.35 L 319.478,4598.85 L 801.8,4454.34 Z " />
<path stroke="none" fill="#000000" transform="matrix(0.0666667 0 0 0.0666667 -15.6333 -20.3333)" d="M 1282.4,4598.34 L 1282.4,4604.6 L 1276.4,4609.07 L 801.8,4466.86 L 801.8,4454.34 L 1282.4,4598.34 Z " />
<path stroke="none" fill="#000000" transform="matrix(0.0666667 0 0 0.0666667 -15.6333 -20.3333)" d="M 1763,4454.34 L 1763,4466.86 L 1288.4,4609.07 L 1282.4,4604.6 L 1282.4,4598.34 L 1763,4454.34 Z " />
<path stroke="none" fill="#000000" transform="matrix(0.0666667 0 0 0.0666667 -15.6333 -20.3333)" d="M 2237.8,4596.54 L 2243.8,4604.6 L 2237.8,4609.07 L 1763,4466.86 L 1763,4454.34 L 2237.8,4596.54 Z " />
<path stroke="none" fill="#000000" transform="matrix(0.0666667 0 0 0.0666667 -15.6333 -20.3333)" d="M 2722.68,4454.85 L 2726.12,4466.35 L 2249.8,4609.07 L 2243.8,4604.6 L 2249.8,4596.54 L 2722.68,4454.85 Z " />
<path stroke="none" fill="#000000" transform="matrix(0.0666667 0 0 0.0666667 -15.6333 -20.3333)" d="M 1288.4,4889.14 L 1282.4,4892.6 L 1276.4,4889.14 L 1276.4,4609.07 L 1282.4,4604.6 L 1288.4,4609.07 L 1288.4,4889.14 Z " />
<path stroke="none" fill="#000000" transform="matrix(0.0666667 0 0 0.0666667 -15.6333 -20.3333)" d="M 2249.8,4889.14 L 2237.8,4896.06 L 2237.8,4609.07 L 2243.8,4604.6 L 2249.8,4609.07 L 2249.8,4889.14 Z " />
<text x="0" y="0" stroke="none" fill="#000000" transform="matrix(0.0666667 0 0 0.0666667 145.394 320.64)" font-style="normal" font-weight="normal" font-size="200px" font-family="Arial" >
O</text>
<path stroke="none" fill="#000000" transform="matrix(0.0666667 0 0 0.0666667 -15.6333 -20.3333)" d="M 2410.67,4982.02 L 2404.67,4992.41 L 2237.8,4896.06 L 2249.8,4889.14 L 2410.67,4982.02 Z " />
<text x="0" y="0" stroke="none" fill="#000000" transform="matrix(0.0666667 0 0 0.0666667 112.128 320.64)" font-style="normal" font-weight="normal" font-size="200px" font-family="Arial" >
O</text>
<path stroke="none" fill="#000000" transform="matrix(0.0666667 0 0 0.0666667 -15.6333 -20.3333)" d="M 2096.03,5014.72 L 2090.03,5004.33 L 2266.74,4902.38 L 2272.74,4912.77 L 2096.03,5014.72 Z " />
<path stroke="none" fill="#000000" transform="matrix(0.0666667 0 0 0.0666667 -15.6333 -20.3333)" d="M 2070.11,4969.79 L 2064.11,4959.4 L 2240.8,4857.46 L 2246.8,4867.86 L 2070.11,4969.79 Z " />
<path stroke="none" fill="#000000" transform="matrix(0.0666667 0 0 0.0666667 -15.6333 -20.3333)" d="M 2499.2,5324.6 L 2487.2,5324.6 L 2487.2,5148.43 L 2499.2,5148.43 L 2499.2,5324.6 Z " />
<path stroke="none" fill="#000000" transform="matrix(0.0666667 0 0 0.0666667 -15.6333 -20.3333)" d="M 2237.8,4316.6 L 2249.8,4316.6 L 2249.8,4596.54 L 2243.8,4604.6 L 2237.8,4596.54 L 2237.8,4316.6 Z " />
<path stroke="none" fill="#000000" transform="matrix(0.0666667 0 0 0.0666667 -15.6333 -20.3333)" d="M 1039,5040.06 L 1027,5033.14 L 1276.4,4889.14 L 1282.4,4892.6 L 1282.4,4899.53 L 1039,5040.06 Z " />
<path stroke="none" fill="#000000" transform="matrix(0.0666667 0 0 0.0666667 -15.6333 -20.3333)" d="M 1087.84,5071.72 L 1081.84,5061.33 L 1279.4,4947.26 L 1285.4,4957.65 L 1087.84,5071.72 Z " />
<path stroke="none" fill="#000000" transform="matrix(0.0666667 0 0 0.0666667 -15.6333 -20.3333)" d="M 1039,5321.14 L 1027,5328.06 L 1027,5033.14 L 1039,5040.06 L 1039,5321.14 Z " />
<path stroke="none" fill="#000000" transform="matrix(0.0666667 0 0 0.0666667 -15.6333 -20.3333)" d="M 1282.4,5461.67 L 1282.4,5475.53 L 1027,5328.06 L 1039,5321.14 L 1282.4,5461.67 Z " />
<path stroke="none" fill="#000000" transform="matrix(0.0666667 0 0 0.0666667 -15.6333 -20.3333)" d="M 1285.4,5403.55 L 1279.4,5413.94 L 1081.84,5299.87 L 1087.84,5289.48 L 1285.4,5403.55 Z " />
<path stroke="none" fill="#000000" transform="matrix(0.0666667 0 0 0.0666667 -15.6333 -20.3333)" d="M 1525.8,5321.14 L 1537.8,5328.06 L 1282.4,5475.53 L 1282.4,5461.67 L 1525.8,5321.14 Z " />
<path stroke="none" fill="#000000" transform="matrix(0.0666667 0 0 0.0666667 -15.6333 -20.3333)" d="M 1525.8,5040.06 L 1537.8,5033.14 L 1537.8,5328.06 L 1525.8,5321.14 L 1525.8,5040.06 Z " />
<path stroke="none" fill="#000000" transform="matrix(0.0666667 0 0 0.0666667 -15.6333 -20.3333)" d="M 1473.96,5066.53 L 1485.96,5066.53 L 1485.96,5294.67 L 1473.96,5294.67 L 1473.96,5066.53 Z " />
<path stroke="none" fill="#000000" transform="matrix(0.0666667 0 0 0.0666667 -15.6333 -20.3333)" d="M 1282.4,4899.53 L 1282.4,4892.6 L 1288.4,4889.14 L 1537.8,5033.14 L 1525.8,5040.06 L 1282.4,4899.53 Z " />
<path stroke="#000000" stroke-width="12" fill="none" transform="matrix(0.0666667 0 0 0.0666667 -15.6333 -20.3333)" d="M 1368.95,4700.86 A 390,390 0 0 0 1375.75,4310.92" />
<text x="0" y="0" stroke="none" fill="#000000" transform="matrix(0.0666667 0 0 0.0666667 79.61 295.739)" font-style="normal" font-weight="normal" font-size="150px" font-family="Arial" >
n</text>
<path stroke="#000000" stroke-width="12" fill="none" transform="matrix(0.0666667 0 0 0.0666667 -15.6333 -20.3333)" d="M 652.4,4305 A 390,390 0 0 0 652.4,4695" />
<path stroke="#000000" stroke-width="12" fill="none" transform="matrix(0.0666667 0 0 0.0666667 -15.6333 -20.3333)" d="M 2478.95,4700.86 A 390,390 0 0 0 2485.75,4310.92" />
<text x="0" y="0" stroke="none" fill="#000000" transform="matrix(0.0666667 0 0 0.0666667 153.61 295.739)" font-style="normal" font-weight="normal" font-size="150px" font-family="Arial" >
m</text>
<path stroke="#000000" stroke-width="12" fill="none" transform="matrix(0.0666667 0 0 0.0666667 -15.6333 -20.3333)" d="M 1642.4,4305 A 390,390 0 0 0 1642.4,4695" />
<text x="0" y="0" stroke="none" fill="#000000" transform="matrix(0.0666667 0 0 0.0666667 230.059 303.867)" font-style="normal" font-weight="normal" font-size="200px" font-family="Arial" >
HO</text>
<path stroke="none" fill="#000000" transform="matrix(0.0666667 0 0 0.0666667 -15.6333 -20.3333)" d="M 4288.6,4634.59 L 4288.6,4647.41 L 4002.46,4755.56 L 3998.22,4744.33 L 4288.6,4634.59 Z " />
<path stroke="none" fill="#000000" transform="matrix(0.0666667 0 0 0.0666667 -15.6333 -20.3333)" d="M 4669.8,4778.59 L 4669.8,4791.41 L 4288.6,4647.41 L 4288.6,4634.59 L 4669.8,4778.59 Z " />
<text x="0" y="0" stroke="none" fill="#000000" transform="matrix(0.0666667 0 0 0.0666667 315.914 294.267)" font-style="normal" font-weight="normal" font-size="200px" font-family="Arial" >
O</text>
<path stroke="none" fill="#000000" transform="matrix(0.0666667 0 0 0.0666667 -15.6333 -20.3333)" d="M 4951.16,4672.3 L 4955.4,4683.53 L 4669.8,4791.41 L 4669.8,4778.59 L 4951.16,4672.3 Z " />
<path stroke="none" fill="#000000" transform="matrix(0.0666667 0 0 0.0666667 -15.6333 -20.3333)" d="M 5492.05,4778.64 L 5492.2,4785 L 5486.2,4789.35 L 5148.5,4679.13 L 5152.22,4667.72 L 5492.05,4778.64 Z " />
<path stroke="none" fill="#000000" transform="matrix(0.0666667 0 0 0.0666667 -15.6333 -20.3333)" d="M 5873.4,4634.59 L 5873.4,4647.41 L 5498.2,4789.15 L 5492.2,4785 L 5492.05,4778.64 L 5873.4,4634.59 Z " />
<text x="0" y="0" stroke="none" fill="#000000" transform="matrix(0.0666667 0 0 0.0666667 396.141 303.867)" font-style="normal" font-weight="normal" font-size="200px" font-family="Arial" >
O</text>
<path stroke="none" fill="#000000" transform="matrix(0.0666667 0 0 0.0666667 -15.6333 -20.3333)" d="M 6164.2,4744.5 L 6159.96,4755.72 L 5873.4,4647.41 L 5873.4,4634.59 L 6164.2,4744.5 Z " />
<path stroke="none" fill="#000000" transform="matrix(0.0666667 0 0 0.0666667 -15.6333 -20.3333)" d="M 6695.75,4634.64 L 6695.45,4647.36 L 6350.66,4759.89 L 6346.94,4748.48 L 6695.75,4634.64 Z " />
<path stroke="none" fill="#000000" transform="matrix(0.0666667 0 0 0.0666667 -15.6333 -20.3333)" d="M 7076.8,4778.59 L 7076.8,4791.41 L 6695.45,4647.36 L 6695.75,4634.64 L 7076.8,4778.59 Z " />
<text x="0" y="0" stroke="none" fill="#000000" transform="matrix(0.0666667 0 0 0.0666667 476.381 294.267)" font-style="normal" font-weight="normal" font-size="200px" font-family="Arial" >
O</text>
<path stroke="none" fill="#000000" transform="matrix(0.0666667 0 0 0.0666667 -15.6333 -20.3333)" d="M 7358.16,4672.3 L 7362.4,4683.53 L 7076.8,4791.41 L 7076.8,4778.59 L 7358.16,4672.3 Z " />
<text x="0" y="0" stroke="none" fill="#000000" transform="matrix(0.0666667 0 0 0.0666667 502.166 303.867)" font-style="normal" font-weight="normal" font-size="200px" font-family="Arial" >
H</text>
<path stroke="none" fill="#000000" transform="matrix(0.0666667 0 0 0.0666667 -15.6333 -20.3333)" d="M 7742.95,4742.23 L 7738.71,4753.45 L 7554.31,4683.79 L 7558.55,4672.57 L 7742.95,4742.23 Z " />
<path stroke="none" fill="#000000" transform="matrix(0.0666667 0 0 0.0666667 -15.6333 -20.3333)" d="M 5498.2,5073 L 5486.2,5073 L 5486.2,4789.35 L 5492.2,4785 L 5498.2,4789.15 L 5498.2,5073 Z " />
<path stroke="#000000" stroke-width="12" fill="none" transform="matrix(0.0666667 0 0 0.0666667 -15.6333 -20.3333)" d="M 5149.81,4849.74 A 315,315 0 0 0 5155.31,4534.78" />
<text x="0" y="0" stroke="none" fill="#000000" transform="matrix(0.0666667 0 0 0.0666667 331.623 305.739)" font-style="normal" font-weight="normal" font-size="150px" font-family="Arial" >
n</text>
<path stroke="#000000" stroke-width="12" fill="none" transform="matrix(0.0666667 0 0 0.0666667 -15.6333 -20.3333)" d="M 4192.4,4545 A 315,315 0 0 0 4192.4,4860" />
<path stroke="#000000" stroke-width="12" fill="none" transform="matrix(0.0666667 0 0 0.0666667 -15.6333 -20.3333)" d="M 6379.61,4849.74 A 315,315 0 0 0 6385.11,4534.78" />
<text x="0" y="0" stroke="none" fill="#000000" transform="matrix(0.0666667 0 0 0.0666667 413.61 305.739)" font-style="normal" font-weight="normal" font-size="150px" font-family="Arial" >
m</text>
<path stroke="#000000" stroke-width="12" fill="none" transform="matrix(0.0666667 0 0 0.0666667 -15.6333 -20.3333)" d="M 5392.4,4530 A 315,315 0 0 0 5392.4,4845" />
<path stroke="#000000" stroke-width="12" fill="none" transform="matrix(0.0666667 0 0 0.0666667 -15.6333 -20.3333)" d="M 7564.81,4849.74 A 315,315 0 0 0 7570.31,4534.78" />
<text x="0" y="0" stroke="none" fill="#000000" transform="matrix(0.0666667 0 0 0.0666667 492.623 305.739)" font-style="normal" font-weight="normal" font-size="150px" font-family="Arial" >
n</text>
<path stroke="#000000" stroke-width="12" fill="none" transform="matrix(0.0666667 0 0 0.0666667 -15.6333 -20.3333)" d="M 6637.6,4530 A 315,315 0 0 0 6637.6,4845" />
<path stroke="none" fill="#000000" transform="matrix(0.0666667 0 0 0.0666667 -15.6333 -20.3333)" d="M 617.41,6269.31 L 616.59,6282.69 L 279.943,6425.52 L 275.256,6414.48 L 617.41,6269.31 Z " />
<path stroke="none" fill="#000000" transform="matrix(0.0666667 0 0 0.0666667 -15.6333 -20.3333)" d="M 867.057,6413.45 L 866.4,6420 L 860.4,6423.46 L 616.59,6282.69 L 617.41,6269.31 L 867.057,6413.45 Z " />
<path stroke="none" fill="#000000" transform="matrix(0.0666667 0 0 0.0666667 -15.6333 -20.3333)" d="M 1296.46,6269.45 L 1295.14,6282.55 L 872.4,6424.32 L 866.4,6420 L 867.057,6413.45 L 1296.46,6269.45 Z " />
<path stroke="none" fill="#000000" transform="matrix(0.0666667 0 0 0.0666667 -15.6333 -20.3333)" d="M 1545.2,6413.07 L 1545.2,6426.93 L 1295.14,6282.55 L 1296.46,6269.45 L 1545.2,6413.07 Z " />
<path stroke="none" fill="#000000" transform="matrix(0.0666667 0 0 0.0666667 -15.6333 -20.3333)" d="M 1794.6,6269.07 L 1794.6,6282.93 L 1545.2,6426.93 L 1545.2,6413.07 L 1794.6,6269.07 Z " />
<path stroke="none" fill="#000000" transform="matrix(0.0666667 0 0 0.0666667 -15.6333 -20.3333)" d="M 1765.68,6225.91 L 1771.68,6236.3 L 1548.2,6365.34 L 1542.2,6354.95 L 1765.68,6225.91 Z " />
<path stroke="none" fill="#000000" transform="matrix(0.0666667 0 0 0.0666667 -15.6333 -20.3333)" d="M 2044.66,6413.45 L 2043.34,6426.55 L 1794.6,6282.93 L 1794.6,6269.07 L 2044.66,6413.45 Z " />
<path stroke="none" fill="#000000" transform="matrix(0.0666667 0 0 0.0666667 -15.6333 -20.3333)" d="M 2474.06,6269.45 L 2472.74,6282.55 L 2043.34,6426.55 L 2044.66,6413.45 L 2474.06,6269.45 Z " />
<path stroke="none" fill="#000000" transform="matrix(0.0666667 0 0 0.0666667 -15.6333 -20.3333)" d="M 2723.21,6413.31 L 2722.8,6420 L 2716.8,6423.46 L 2472.74,6282.55 L 2474.06,6269.45 L 2723.21,6413.31 Z " />
<path stroke="none" fill="#000000" transform="matrix(0.0666667 0 0 0.0666667 -15.6333 -20.3333)" d="M 3059.86,6270.48 L 3064.54,6281.52 L 2728.8,6423.97 L 2722.8,6420 L 2723.21,6413.31 L 3059.86,6270.48 Z " />
<text x="0" y="0" stroke="none" fill="#000000" transform="matrix(0.0666667 0 0 0.0666667 37.3122 432.067)" font-style="normal" font-weight="normal" font-size="200px" font-family="Arial" >
CN</text>
<path stroke="none" fill="#000000" transform="matrix(0.0666667 0 0 0.0666667 -15.6333 -20.3333)" d="M 872.4,6610.83 L 860.4,6610.83 L 860.4,6423.46 L 866.4,6420 L 872.4,6424.32 L 872.4,6610.83 Z " />
<path stroke="none" fill="#000000" transform="matrix(0.0666667 0 0 0.0666667 -15.6333 -20.3333)" d="M 2728.8,6704.54 L 2722.8,6708 L 2716.8,6704.54 L 2716.8,6423.46 L 2722.8,6420 L 2728.8,6423.97 L 2728.8,6704.54 Z " />
<path stroke="none" fill="#000000" transform="matrix(0.0666667 0 0 0.0666667 -15.6333 -20.3333)" d="M 2479.4,6855.46 L 2467.4,6848.54 L 2716.8,6704.54 L 2722.8,6708 L 2722.8,6714.93 L 2479.4,6855.46 Z " />
<path stroke="none" fill="#000000" transform="matrix(0.0666667 0 0 0.0666667 -15.6333 -20.3333)" d="M 2528.24,6887.12 L 2522.24,6876.73 L 2719.8,6762.66 L 2725.8,6773.05 L 2528.24,6887.12 Z " />
<path stroke="none" fill="#000000" transform="matrix(0.0666667 0 0 0.0666667 -15.6333 -20.3333)" d="M 2479.4,7136.54 L 2467.4,7143.46 L 2467.4,6848.54 L 2479.4,6855.46 L 2479.4,7136.54 Z " />
<path stroke="none" fill="#000000" transform="matrix(0.0666667 0 0 0.0666667 -15.6333 -20.3333)" d="M 2722.8,7277.07 L 2722.8,7290.93 L 2467.4,7143.46 L 2479.4,7136.54 L 2722.8,7277.07 Z " />
<path stroke="none" fill="#000000" transform="matrix(0.0666667 0 0 0.0666667 -15.6333 -20.3333)" d="M 2725.8,7218.95 L 2719.8,7229.34 L 2522.24,7115.27 L 2528.24,7104.88 L 2725.8,7218.95 Z " />
<path stroke="none" fill="#000000" transform="matrix(0.0666667 0 0 0.0666667 -15.6333 -20.3333)" d="M 2966.2,7136.54 L 2978.2,7143.46 L 2722.8,7290.93 L 2722.8,7277.07 L 2966.2,7136.54 Z " />
<path stroke="none" fill="#000000" transform="matrix(0.0666667 0 0 0.0666667 -15.6333 -20.3333)" d="M 2966.2,6855.46 L 2978.2,6848.54 L 2978.2,7143.46 L 2966.2,7136.54 L 2966.2,6855.46 Z " />
<path stroke="none" fill="#000000" transform="matrix(0.0666667 0 0 0.0666667 -15.6333 -20.3333)" d="M 2914.36,6881.93 L 2926.36,6881.93 L 2926.36,7110.07 L 2914.36,7110.07 L 2914.36,6881.93 Z " />
<path stroke="none" fill="#000000" transform="matrix(0.0666667 0 0 0.0666667 -15.6333 -20.3333)" d="M 2722.8,6714.93 L 2722.8,6708 L 2728.8,6704.54 L 2978.2,6848.54 L 2966.2,6855.46 L 2722.8,6714.93 Z " />
<path stroke="#000000" stroke-width="12" fill="none" transform="matrix(0.0666667 0 0 0.0666667 -15.6333 -20.3333)" d="M 949.742,6484.51 A 300,300 0 0 0 954.978,6184.56" />
<text x="0" y="0" stroke="none" fill="#000000" transform="matrix(0.0666667 0 0 0.0666667 51.61 414.661)" font-style="normal" font-weight="normal" font-size="150px" font-family="Arial" >
x</text>
<path stroke="#000000" stroke-width="12" fill="none" transform="matrix(0.0666667 0 0 0.0666667 -15.6333 -20.3333)" d="M 487.6,6180 A 300,300 0 0 0 487.6,6480" />
<path stroke="#000000" stroke-width="12" fill="none" transform="matrix(0.0666667 0 0 0.0666667 -15.6333 -20.3333)" d="M 2164.81,6499.74 A 315,315 0 0 0 2170.31,6184.78" />
<text x="0" y="0" stroke="none" fill="#000000" transform="matrix(0.0666667 0 0 0.0666667 132.623 414.628)" font-style="normal" font-weight="normal" font-size="150px" font-family="Arial" >
y</text>
<path stroke="#000000" stroke-width="12" fill="none" transform="matrix(0.0666667 0 0 0.0666667 -15.6333 -20.3333)" d="M 1207.6,6180 A 315,315 0 0 0 1207.6,6495" />
<path stroke="#000000" stroke-width="12" fill="none" transform="matrix(0.0666667 0 0 0.0666667 -15.6333 -20.3333)" d="M 2809.61,6499.74 A 315,315 0 0 0 2815.11,6184.78" />
<text x="0" y="0" stroke="none" fill="#000000" transform="matrix(0.0666667 0 0 0.0666667 175.61 415.661)" font-style="normal" font-weight="normal" font-size="150px" font-family="Arial" >
z</text>
<path stroke="#000000" stroke-width="12" fill="none" transform="matrix(0.0666667 0 0 0.0666667 -15.6333 -20.3333)" d="M 2392.4,6180 A 315,315 0 0 0 2392.4,6495" />
<path stroke="#000000" stroke-width="12" fill="none" transform="matrix(0.0666667 0 0 0.0666667 -15.6333 -20.3333)" d="M 2953.96,6075 L 2992.4,6075 " />
<path stroke="#000000" stroke-width="12" fill="none" transform="matrix(0.0666667 0 0 0.0666667 -15.6333 -20.3333)" d="M 2992.4,6075 L 2992.4,6600 " />
<path stroke="#000000" stroke-width="12" fill="none" transform="matrix(0.0666667 0 0 0.0666667 -15.6333 -20.3333)" d="M 2992.4,6600 L 2953.96,6600 " />
<path stroke="#000000" stroke-width="12" fill="none" transform="matrix(0.0666667 0 0 0.0666667 -15.6333 -20.3333)" d="M 420.837,6600 L 382.4,6600 " />
<path stroke="#000000" stroke-width="12" fill="none" transform="matrix(0.0666667 0 0 0.0666667 -15.6333 -20.3333)" d="M 382.4,6600 L 382.4,6075 " />
<path stroke="#000000" stroke-width="12" fill="none" transform="matrix(0.0666667 0 0 0.0666667 -15.6333 -20.3333)" d="M 382.4,6075 L 420.837,6075 " />
<path stroke="none" fill="#000000" transform="matrix(0.0666667 0 0 0.0666667 -15.6333 -20.3333)" d="M 632.001,8849.07 L 631.999,8862.93 L 385.398,9005.2 L 379.402,8994.8 L 632.001,8849.07 Z " />
<path stroke="none" fill="#000000" transform="matrix(0.0666667 0 0 0.0666667 -15.6333 -20.3333)" d="M 881.81,8993.31 L 881.4,9000 L 875.4,9003.46 L 631.999,8862.93 L 632.001,8849.07 L 881.81,8993.31 Z " />
<path stroke="none" fill="#000000" transform="matrix(0.0666667 0 0 0.0666667 -15.6333 -20.3333)" d="M 1221.21,8849.31 L 1220.39,8862.69 L 887.4,9003.97 L 881.4,9000 L 881.81,8993.31 L 1221.21,8849.31 Z " />
<path stroke="none" fill="#000000" transform="matrix(0.0666667 0 0 0.0666667 -15.6333 -20.3333)" d="M 1470.2,8993.07 L 1470.2,9000 L 1464.2,9003.46 L 1220.39,8862.69 L 1221.21,8849.31 L 1470.2,8993.07 Z " />
<path stroke="none" fill="#000000" transform="matrix(0.0666667 0 0 0.0666667 -15.6333 -20.3333)" d="M 1719.6,8849.07 L 1719.6,8862.93 L 1476.2,9003.46 L 1470.2,9000 L 1470.2,8993.07 L 1719.6,8849.07 Z " />
<path stroke="none" fill="#000000" transform="matrix(0.0666667 0 0 0.0666667 -15.6333 -20.3333)" d="M 1716.6,8910.66 L 1722.6,8921.05 L 1525.04,9035.12 L 1519.04,9024.73 L 1716.6,8910.66 Z " />
<path stroke="none" fill="#000000" transform="matrix(0.0666667 0 0 0.0666667 -15.6333 -20.3333)" d="M 1969.41,8993.31 L 1968.59,9006.69 L 1719.6,8862.93 L 1719.6,8849.07 L 1969.41,8993.31 Z " />
<path stroke="none" fill="#000000" transform="matrix(0.0666667 0 0 0.0666667 -15.6333 -20.3333)" d="M 2308.81,8849.31 L 2307.99,8862.69 L 1968.59,9006.69 L 1969.41,8993.31 L 2308.81,8849.31 Z " />
<path stroke="none" fill="#000000" transform="matrix(0.0666667 0 0 0.0666667 -15.6333 -20.3333)" d="M 2557.8,8993.07 L 2557.8,9000 L 2551.8,9003.46 L 2307.99,8862.69 L 2308.81,8849.31 L 2557.8,8993.07 Z " />
<path stroke="none" fill="#000000" transform="matrix(0.0666667 0 0 0.0666667 -15.6333 -20.3333)" d="M 2804.2,8850.8 L 2810.2,8861.2 L 2563.8,9003.46 L 2557.8,9000 L 2557.8,8993.07 L 2804.2,8850.8 Z " />
<path stroke="none" fill="#000000" transform="matrix(0.0666667 0 0 0.0666667 -15.6333 -20.3333)" d="M 887.4,9284.54 L 881.4,9288 L 875.4,9284.54 L 875.4,9003.46 L 881.4,9000 L 887.4,9003.97 L 887.4,9284.54 Z " />
<path stroke="none" fill="#000000" transform="matrix(0.0666667 0 0 0.0666667 -15.6333 -20.3333)" d="M 1476.2,9288 L 1464.2,9288 L 1464.2,9003.46 L 1470.2,9000 L 1476.2,9003.46 L 1476.2,9288 Z " />
<path stroke="none" fill="#000000" transform="matrix(0.0666667 0 0 0.0666667 -15.6333 -20.3333)" d="M 2563.8,9284.54 L 2557.8,9288 L 2551.8,9284.54 L 2551.8,9003.46 L 2557.8,9000 L 2563.8,9003.46 L 2563.8,9284.54 Z " />
<path stroke="none" fill="#000000" transform="matrix(0.0666667 0 0 0.0666667 -15.6333 -20.3333)" d="M 638,9435.46 L 626,9428.54 L 875.4,9284.54 L 881.4,9288 L 881.4,9294.93 L 638,9435.46 Z " />
<path stroke="none" fill="#000000" transform="matrix(0.0666667 0 0 0.0666667 -15.6333 -20.3333)" d="M 686.838,9467.12 L 680.837,9456.73 L 878.4,9342.66 L 884.4,9353.05 L 686.838,9467.12 Z " />
<path stroke="none" fill="#000000" transform="matrix(0.0666667 0 0 0.0666667 -15.6333 -20.3333)" d="M 638,9716.54 L 626,9723.46 L 626,9428.54 L 638,9435.46 L 638,9716.54 Z " />
<path stroke="none" fill="#000000" transform="matrix(0.0666667 0 0 0.0666667 -15.6333 -20.3333)" d="M 881.4,9857.07 L 881.4,9870.93 L 626,9723.46 L 638,9716.54 L 881.4,9857.07 Z " />
<path stroke="none" fill="#000000" transform="matrix(0.0666667 0 0 0.0666667 -15.6333 -20.3333)" d="M 884.4,9798.95 L 878.4,9809.34 L 680.837,9695.27 L 686.838,9684.88 L 884.4,9798.95 Z " />
<path stroke="none" fill="#000000" transform="matrix(0.0666667 0 0 0.0666667 -15.6333 -20.3333)" d="M 1124.8,9716.54 L 1136.8,9723.46 L 881.4,9870.93 L 881.4,9857.07 L 1124.8,9716.54 Z " />
<path stroke="none" fill="#000000" transform="matrix(0.0666667 0 0 0.0666667 -15.6333 -20.3333)" d="M 1124.8,9435.46 L 1136.8,9428.54 L 1136.8,9723.46 L 1124.8,9716.54 L 1124.8,9435.46 Z " />
<path stroke="none" fill="#000000" transform="matrix(0.0666667 0 0 0.0666667 -15.6333 -20.3333)" d="M 1072.96,9461.93 L 1084.96,9461.93 L 1084.96,9690.07 L 1072.96,9690.07 L 1072.96,9461.93 Z " />
<path stroke="none" fill="#000000" transform="matrix(0.0666667 0 0 0.0666667 -15.6333 -20.3333)" d="M 881.4,9294.93 L 881.4,9288 L 887.4,9284.54 L 1136.8,9428.54 L 1124.8,9435.46 L 881.4,9294.93 Z " />
<path stroke="none" fill="#000000" transform="matrix(0.0666667 0 0 0.0666667 -15.6333 -20.3333)" d="M 2314.4,9435.46 L 2302.4,9428.54 L 2551.8,9284.54 L 2557.8,9288 L 2557.8,9294.93 L 2314.4,9435.46 Z " />
<path stroke="none" fill="#000000" transform="matrix(0.0666667 0 0 0.0666667 -15.6333 -20.3333)" d="M 2363.24,9467.12 L 2357.24,9456.73 L 2554.8,9342.66 L 2560.8,9353.05 L 2363.24,9467.12 Z " />
<path stroke="none" fill="#000000" transform="matrix(0.0666667 0 0 0.0666667 -15.6333 -20.3333)" d="M 2314.4,9716.54 L 2302.4,9723.46 L 2302.4,9428.54 L 2314.4,9435.46 L 2314.4,9716.54 Z " />
<path stroke="none" fill="#000000" transform="matrix(0.0666667 0 0 0.0666667 -15.6333 -20.3333)" d="M 2557.8,9857.07 L 2557.8,9870.93 L 2302.4,9723.46 L 2314.4,9716.54 L 2557.8,9857.07 Z " />
<path stroke="none" fill="#000000" transform="matrix(0.0666667 0 0 0.0666667 -15.6333 -20.3333)" d="M 2560.8,9798.95 L 2554.8,9809.34 L 2357.24,9695.27 L 2363.24,9684.88 L 2560.8,9798.95 Z " />
<path stroke="none" fill="#000000" transform="matrix(0.0666667 0 0 0.0666667 -15.6333 -20.3333)" d="M 2801.2,9716.54 L 2813.2,9723.46 L 2557.8,9870.93 L 2557.8,9857.07 L 2801.2,9716.54 Z " />
<path stroke="none" fill="#000000" transform="matrix(0.0666667 0 0 0.0666667 -15.6333 -20.3333)" d="M 2801.2,9435.46 L 2813.2,9428.54 L 2813.2,9723.46 L 2801.2,9716.54 L 2801.2,9435.46 Z " />
<path stroke="none" fill="#000000" transform="matrix(0.0666667 0 0 0.0666667 -15.6333 -20.3333)" d="M 2749.36,9461.93 L 2761.36,9461.93 L 2761.36,9690.07 L 2749.36,9690.07 L 2749.36,9461.93 Z " />
<path stroke="none" fill="#000000" transform="matrix(0.0666667 0 0 0.0666667 -15.6333 -20.3333)" d="M 2557.8,9294.93 L 2557.8,9288 L 2563.8,9284.54 L 2813.2,9428.54 L 2801.2,9435.46 L 2557.8,9294.93 Z " />
<path stroke="#000000" stroke-width="12" fill="none" transform="matrix(0.0666667 0 0 0.0666667 -15.6333 -20.3333)" d="M 949.875,9049.29 A 285,285 0 0 0 954.849,8764.33" />
<text x="0" y="0" stroke="none" fill="#000000" transform="matrix(0.0666667 0 0 0.0666667 51.61 585.739)" font-style="normal" font-weight="normal" font-size="150px" font-family="Arial" >
n</text>
<path stroke="#000000" stroke-width="12" fill="none" transform="matrix(0.0666667 0 0 0.0666667 -15.6333 -20.3333)" d="M 487.6,8760 A 285,285 0 0 0 487.6,9045" />
<path stroke="#000000" stroke-width="12" fill="none" transform="matrix(0.0666667 0 0 0.0666667 -15.6333 -20.3333)" d="M 2016.94,9065.32 A 300.8,300.8 0 0 0 2022.19,8764.57" />
<text x="0" y="0" stroke="none" fill="#000000" transform="matrix(0.0666667 0 0 0.0666667 122.757 586.792)" font-style="normal" font-weight="normal" font-size="150px" font-family="Arial" >
m</text>
<path stroke="#000000" stroke-width="12" fill="none" transform="matrix(0.0666667 0 0 0.0666667 -15.6333 -20.3333)" d="M 1164.6,8760 A 300.8,300.8 0 0 0 1164.6,9060.8" />
<path stroke="#000000" stroke-width="12" fill="none" transform="matrix(0.0666667 0 0 0.0666667 -15.6333 -20.3333)" d="M 2674.94,9064.51 A 300,300 0 0 0 2680.18,8764.56" />
<text x="0" y="0" stroke="none" fill="#000000" transform="matrix(0.0666667 0 0 0.0666667 166.623 586.739)" font-style="normal" font-weight="normal" font-size="150px" font-family="Arial" >
n</text>
<path stroke="#000000" stroke-width="12" fill="none" transform="matrix(0.0666667 0 0 0.0666667 -15.6333 -20.3333)" d="M 2257.6,8760 A 300,300 0 0 0 2257.6,9060" />
<path stroke="none" fill="#000000" transform="matrix(0.0666667 0 0 0.0666667 -15.6333 -20.3333)" d="M 4772,6647.07 L 4772,6660.93 L 4521.99,6516.69 L 4522.81,6503.31 L 4772,6647.07 Z " />
<path stroke="none" fill="#000000" transform="matrix(0.0666667 0 0 0.0666667 -15.6333 -20.3333)" d="M 5021.4,6503.07 L 5021.4,6516.93 L 4772,6660.93 L 4772,6647.07 L 5021.4,6503.07 Z " />
<path stroke="none" fill="#000000" transform="matrix(0.0666667 0 0 0.0666667 -15.6333 -20.3333)" d="M 4992.48,6459.91 L 4998.48,6470.3 L 4774.99,6599.34 L 4768.99,6588.95 L 4992.48,6459.91 Z " />
<path stroke="none" fill="#000000" transform="matrix(0.0666667 0 0 0.0666667 -15.6333 -20.3333)" d="M 5271.46,6647.45 L 5270.14,6660.55 L 5021.4,6516.93 L 5021.4,6503.07 L 5271.46,6647.45 Z " />
<path stroke="none" fill="#000000" transform="matrix(0.0666667 0 0 0.0666667 -15.6333 -20.3333)" d="M 5700.86,6503.45 L 5699.54,6516.55 L 5270.14,6660.55 L 5271.46,6647.45 L 5700.86,6503.45 Z " />
<path stroke="none" fill="#000000" transform="matrix(0.0666667 0 0 0.0666667 -15.6333 -20.3333)" d="M 5949.6,6647.07 L 5949.6,6654 L 5943.6,6657.46 L 5699.54,6516.55 L 5700.86,6503.45 L 5949.6,6647.07 Z " />
<path stroke="none" fill="#000000" transform="matrix(0.0666667 0 0 0.0666667 -15.6333 -20.3333)" d="M 6193,6506.54 L 6199,6510 L 6199,6516.93 L 5955.6,6657.46 L 5949.6,6654 L 5949.6,6647.07 L 6193,6506.54 Z " />
<path stroke="none" fill="#000000" transform="matrix(0.0666667 0 0 0.0666667 -15.6333 -20.3333)" d="M 6448.81,6647.31 L 6447.99,6660.69 L 6199,6516.93 L 6199,6510 L 6205,6506.54 L 6448.81,6647.31 Z " />
<path stroke="none" fill="#000000" transform="matrix(0.0666667 0 0 0.0666667 -15.6333 -20.3333)" d="M 6785.46,6504.48 L 6790.14,6515.52 L 6447.99,6660.69 L 6448.81,6647.31 L 6785.46,6504.48 Z " />
<path stroke="none" fill="#000000" transform="matrix(0.0666667 0 0 0.0666667 -15.6333 -20.3333)" d="M 4185.34,6659.52 L 4180.66,6648.48 L 4522.81,6503.31 L 4521.99,6516.69 L 4185.34,6659.52 Z " />
<path stroke="none" fill="#000000" transform="matrix(0.0666667 0 0 0.0666667 -15.6333 -20.3333)" d="M 6193,6225.46 L 6199,6222 L 6205,6225.46 L 6205,6506.54 L 6199,6510 L 6193,6506.54 L 6193,6225.46 Z " />
<path stroke="none" fill="#000000" transform="matrix(0.0666667 0 0 0.0666667 -15.6333 -20.3333)" d="M 5955.6,6945.46 L 5943.6,6938.54 L 5943.6,6657.46 L 5949.6,6654 L 5955.6,6657.46 L 5955.6,6945.46 Z " />
<path stroke="none" fill="#000000" transform="matrix(0.0666667 0 0 0.0666667 -15.6333 -20.3333)" d="M 5943.6,6081.46 L 5955.6,6074.54 L 6199,6215.07 L 6199,6222 L 6193,6225.46 L 5943.6,6081.46 Z " />
<path stroke="none" fill="#000000" transform="matrix(0.0666667 0 0 0.0666667 -15.6333 -20.3333)" d="M 6442.4,6074.54 L 6448.4,6078 L 6448.4,6084.93 L 6205,6225.46 L 6199,6222 L 6199,6215.07 L 6442.4,6074.54 Z " />
<path stroke="none" fill="#000000" transform="matrix(0.0666667 0 0 0.0666667 -15.6333 -20.3333)" d="M 5943.6,5790 L 5955.6,5790 L 5955.6,6074.54 L 5943.6,6081.46 L 5943.6,5790 Z " />
<path stroke="none" fill="#000000" transform="matrix(0.0666667 0 0 0.0666667 -15.6333 -20.3333)" d="M 5706.2,7089.46 L 5700.2,7086 L 5700.2,7079.07 L 5943.6,6938.54 L 5955.6,6945.46 L 5706.2,7089.46 Z " />
<path stroke="none" fill="#000000" transform="matrix(0.0666667 0 0 0.0666667 -15.6333 -20.3333)" d="M 5706.2,7370.54 L 5700.2,7374 L 5694.2,7370.54 L 5694.2,7089.46 L 5700.2,7086 L 5706.2,7089.46 L 5706.2,7370.54 Z " />
<path stroke="none" fill="#000000" transform="matrix(0.0666667 0 0 0.0666667 -15.6333 -20.3333)" d="M 5447.8,6947.2 L 5453.8,6936.8 L 5700.2,7079.07 L 5700.2,7086 L 5694.2,7089.46 L 5447.8,6947.2 Z " />
<path stroke="none" fill="#000000" transform="matrix(0.0666667 0 0 0.0666667 -15.6333 -20.3333)" d="M 5456.8,7521.46 L 5444.8,7514.54 L 5694.2,7370.54 L 5700.2,7374 L 5700.2,7380.93 L 5456.8,7521.46 Z " />
<path stroke="none" fill="#000000" transform="matrix(0.0666667 0 0 0.0666667 -15.6333 -20.3333)" d="M 5505.64,7553.12 L 5499.64,7542.73 L 5697.2,7428.66 L 5703.2,7439.05 L 5505.64,7553.12 Z " />
<path stroke="none" fill="#000000" transform="matrix(0.0666667 0 0 0.0666667 -15.6333 -20.3333)" d="M 5456.8,7802.54 L 5444.8,7809.46 L 5444.8,7514.54 L 5456.8,7521.46 L 5456.8,7802.54 Z " />
<path stroke="none" fill="#000000" transform="matrix(0.0666667 0 0 0.0666667 -15.6333 -20.3333)" d="M 5700.2,7943.07 L 5700.2,7956.93 L 5444.8,7809.46 L 5456.8,7802.54 L 5700.2,7943.07 Z " />
<path stroke="none" fill="#000000" transform="matrix(0.0666667 0 0 0.0666667 -15.6333 -20.3333)" d="M 5703.2,7884.95 L 5697.2,7895.34 L 5499.64,7781.27 L 5505.64,7770.88 L 5703.2,7884.95 Z " />
<path stroke="none" fill="#000000" transform="matrix(0.0666667 0 0 0.0666667 -15.6333 -20.3333)" d="M 5943.6,7802.54 L 5955.6,7809.46 L 5700.2,7956.93 L 5700.2,7943.07 L 5943.6,7802.54 Z " />
<path stroke="none" fill="#000000" transform="matrix(0.0666667 0 0 0.0666667 -15.6333 -20.3333)" d="M 5943.6,7521.46 L 5955.6,7514.54 L 5955.6,7809.46 L 5943.6,7802.54 L 5943.6,7521.46 Z " />
<path stroke="none" fill="#000000" transform="matrix(0.0666667 0 0 0.0666667 -15.6333 -20.3333)" d="M 5891.76,7547.93 L 5903.76,7547.93 L 5903.76,7776.07 L 5891.76,7776.07 L 5891.76,7547.93 Z " />
<path stroke="none" fill="#000000" transform="matrix(0.0666667 0 0 0.0666667 -15.6333 -20.3333)" d="M 5700.2,7380.93 L 5700.2,7374 L 5706.2,7370.54 L 5955.6,7514.54 L 5943.6,7521.46 L 5700.2,7380.93 Z " />
<path stroke="none" fill="#000000" transform="matrix(0.0666667 0 0 0.0666667 -15.6333 -20.3333)" d="M 6697.8,6215.07 L 6697.8,6228.93 L 6448.4,6084.93 L 6448.4,6078 L 6454.4,6074.54 L 6697.8,6215.07 Z " />
<path stroke="none" fill="#000000" transform="matrix(0.0666667 0 0 0.0666667 -15.6333 -20.3333)" d="M 6700.8,6156.95 L 6694.8,6167.34 L 6497.24,6053.27 L 6503.24,6042.88 L 6700.8,6156.95 Z " />
<path stroke="none" fill="#000000" transform="matrix(0.0666667 0 0 0.0666667 -15.6333 -20.3333)" d="M 6941.2,6074.54 L 6953.2,6081.46 L 6697.8,6228.93 L 6697.8,6215.07 L 6941.2,6074.54 Z " />
<path stroke="none" fill="#000000" transform="matrix(0.0666667 0 0 0.0666667 -15.6333 -20.3333)" d="M 6941.2,5793.46 L 6953.2,5786.54 L 6953.2,6081.46 L 6941.2,6074.54 L 6941.2,5793.46 Z " />
<path stroke="none" fill="#000000" transform="matrix(0.0666667 0 0 0.0666667 -15.6333 -20.3333)" d="M 6889.36,5819.93 L 6901.36,5819.93 L 6901.36,6048.07 L 6889.36,6048.07 L 6889.36,5819.93 Z " />
<path stroke="none" fill="#000000" transform="matrix(0.0666667 0 0 0.0666667 -15.6333 -20.3333)" d="M 6697.8,5652.93 L 6697.8,5639.07 L 6953.2,5786.54 L 6941.2,5793.46 L 6697.8,5652.93 Z " />
<path stroke="none" fill="#000000" transform="matrix(0.0666667 0 0 0.0666667 -15.6333 -20.3333)" d="M 6454.4,5793.46 L 6442.4,5786.54 L 6697.8,5639.07 L 6697.8,5652.93 L 6454.4,5793.46 Z " />
<path stroke="none" fill="#000000" transform="matrix(0.0666667 0 0 0.0666667 -15.6333 -20.3333)" d="M 6503.24,5825.12 L 6497.24,5814.73 L 6694.8,5700.66 L 6700.8,5711.05 L 6503.24,5825.12 Z " />
<path stroke="none" fill="#000000" transform="matrix(0.0666667 0 0 0.0666667 -15.6333 -20.3333)" d="M 6454.4,6074.54 L 6448.4,6078 L 6442.4,6074.54 L 6442.4,5786.54 L 6454.4,5793.46 L 6454.4,6074.54 Z " />
<path stroke="#000000" stroke-width="12" fill="none" transform="matrix(0.0666667 0 0 0.0666667 -15.6333 -20.3333)" d="M 5329.21,6740.41 A 360,360 0 0 0 5335.49,6380.47" />
<text x="0" y="0" stroke="none" fill="#000000" transform="matrix(0.0666667 0 0 0.0666667 343.61 431.661)" font-style="normal" font-weight="normal" font-size="150px" font-family="Arial" >
x</text>
<path stroke="#000000" stroke-width="12" fill="none" transform="matrix(0.0666667 0 0 0.0666667 -15.6333 -20.3333)" d="M 4432.4,6375 A 360,360 0 0 0 4432.4,6735" />
<path stroke="#000000" stroke-width="12" fill="none" transform="matrix(0.0666667 0 0 0.0666667 -15.6333 -20.3333)" d="M 6514.28,6755.64 A 375,375 0 0 0 6520.82,6380.7" />
<text x="0" y="0" stroke="none" fill="#000000" transform="matrix(0.0666667 0 0 0.0666667 422.623 431.628)" font-style="normal" font-weight="normal" font-size="150px" font-family="Arial" >
y</text>
<path stroke="#000000" stroke-width="12" fill="none" transform="matrix(0.0666667 0 0 0.0666667 -15.6333 -20.3333)" d="M 5587.6,6375 A 375,375 0 0 0 5587.6,6750" />
<path stroke="#000000" stroke-width="12" fill="none" transform="matrix(0.0666667 0 0 0.0666667 -15.6333 -20.3333)" d="M 6628.08,6285 L 6667.6,6285 " />
<path stroke="#000000" stroke-width="12" fill="none" transform="matrix(0.0666667 0 0 0.0666667 -15.6333 -20.3333)" d="M 6667.6,6285 L 6667.6,6825 " />
<path stroke="#000000" stroke-width="12" fill="none" transform="matrix(0.0666667 0 0 0.0666667 -15.6333 -20.3333)" d="M 6667.6,6825 L 6628.08,6825 " />
<path stroke="#000000" stroke-width="12" fill="none" transform="matrix(0.0666667 0 0 0.0666667 -15.6333 -20.3333)" d="M 4337.12,6825 L 4297.6,6825 " />
<path stroke="#000000" stroke-width="12" fill="none" transform="matrix(0.0666667 0 0 0.0666667 -15.6333 -20.3333)" d="M 4297.6,6825 L 4297.6,6285 " />
<path stroke="#000000" stroke-width="12" fill="none" transform="matrix(0.0666667 0 0 0.0666667 -15.6333 -20.3333)" d="M 4297.6,6285 L 4337.12,6285 " />
<path stroke="#000000" stroke-width="12" fill="none" transform="matrix(0.0666667 0 0 0.0666667 -15.6333 -20.3333)" d="M 6084.7,6363.84 A 269.929,269.929 0 0 0 6311.08,6216.82" />
<text x="0" y="0" stroke="none" fill="#000000" transform="matrix(0.0666667 0 0 0.0666667 389.611 413.049)" font-style="normal" font-weight="normal" font-size="150px" font-family="Arial" >
z</text>
<path stroke="#000000" stroke-width="12" fill="none" transform="matrix(0.0666667 0 0 0.0666667 -15.6333 -20.3333)" d="M 6083,5893.96 A 269.929,269.929 0 0 0 5854.09,6037" />
<path stroke="#000000" stroke-width="12" fill="none" transform="matrix(0.0666667 0 0 0.0666667 -15.6333 -20.3333)" d="M 5637.58,6910.94 A 269.799,269.799 0 0 0 5614.07,7179.71" />
<text x="0" y="0" stroke="none" fill="#000000" transform="matrix(0.0666667 0 0 0.0666667 349.911 461.005)" font-style="normal" font-weight="normal" font-size="150px" font-family="Arial" >
z</text>
<path stroke="#000000" stroke-width="12" fill="none" transform="matrix(0.0666667 0 0 0.0666667 -15.6333 -20.3333)" d="M 6077.8,6963.95 A 270.052,270.052 0 0 0 5859.32,6805.22" />
<path stroke="none" fill="#000000" transform="matrix(0.0666667 0 0 0.0666667 -15.6333 -20.3333)" d="M 4472,9029.07 L 4472,9042.93 L 4225.4,9185.2 L 4219.4,9174.8 L 4472,9029.07 Z " />
<path stroke="none" fill="#000000" transform="matrix(0.0666667 0 0 0.0666667 -15.6333 -20.3333)" d="M 4721.4,9173.07 L 4721.4,9180 L 4715.4,9183.46 L 4472,9042.93 L 4472,9029.07 L 4721.4,9173.07 Z " />
<path stroke="none" fill="#000000" transform="matrix(0.0666667 0 0 0.0666667 -15.6333 -20.3333)" d="M 4970.8,9029.07 L 4970.8,9042.93 L 4727.4,9183.46 L 4721.4,9180 L 4721.4,9173.07 L 4970.8,9029.07 Z " />
<path stroke="none" fill="#000000" transform="matrix(0.0666667 0 0 0.0666667 -15.6333 -20.3333)" d="M 4967.8,9090.66 L 4973.8,9101.05 L 4776.24,9215.12 L 4770.24,9204.73 L 4967.8,9090.66 Z " />
<path stroke="none" fill="#000000" transform="matrix(0.0666667 0 0 0.0666667 -15.6333 -20.3333)" d="M 5220.2,9173.07 L 5220.2,9186.93 L 4970.8,9042.93 L 4970.8,9029.07 L 5220.2,9173.07 Z " />
<path stroke="none" fill="#000000" transform="matrix(0.0666667 0 0 0.0666667 -15.6333 -20.3333)" d="M 5466.6,9030.8 L 5472.6,9041.2 L 5220.2,9186.93 L 5220.2,9173.07 L 5466.6,9030.8 Z " />
<text x="0" y="0" stroke="none" fill="#000000" transform="matrix(0.0666667 0 0 0.0666667 294.312 616.067)" font-style="normal" font-weight="normal" font-size="200px" font-family="Arial" >
Cl</text>
<path stroke="none" fill="#000000" transform="matrix(0.0666667 0 0 0.0666667 -15.6333 -20.3333)" d="M 4727.4,9370.83 L 4715.4,9370.83 L 4715.4,9183.46 L 4721.4,9180 L 4727.4,9183.46 L 4727.4,9370.83 Z " />
<path stroke="#000000" stroke-width="12" fill="none" transform="matrix(0.0666667 0 0 0.0666667 -15.6333 -20.3333)" d="M 5299.21,9260.41 A 360,360 0 0 0 5305.49,8900.47" />
<text x="0" y="0" stroke="none" fill="#000000" transform="matrix(0.0666667 0 0 0.0666667 341.61 599.739)" font-style="normal" font-weight="normal" font-size="150px" font-family="Arial" >
n</text>
<path stroke="#000000" stroke-width="12" fill="none" transform="matrix(0.0666667 0 0 0.0666667 -15.6333 -20.3333)" d="M 4387.6,8895 A 360,360 0 0 0 4387.6,9255" />
<path stroke="none" fill="#000000" transform="matrix(0.0666667 0 0 0.0666667 -15.6333 -20.3333)" d="M 7234.4,8984.36 L 7234.4,8996.84 L 6727.84,9140.37 L 6724.56,9128.83 L 7234.4,8984.36 Z " />
<path stroke="none" fill="#000000" transform="matrix(0.0666667 0 0 0.0666667 -15.6333 -20.3333)" d="M 7736.6,9126.66 L 7742.6,9134.6 L 7736.6,9139.14 L 7234.4,8996.84 L 7234.4,8984.36 L 7736.6,9126.66 Z " />
<path stroke="none" fill="#000000" transform="matrix(0.0666667 0 0 0.0666667 -15.6333 -20.3333)" d="M 8250.8,8984.36 L 8250.8,8996.84 L 7748.6,9139.14 L 7742.6,9134.6 L 7748.6,9126.66 L 8250.8,8984.36 Z " />
<path stroke="none" fill="#000000" transform="matrix(0.0666667 0 0 0.0666667 -15.6333 -20.3333)" d="M 8753.2,9126.66 L 8759.2,9134.6 L 8753.2,9139.14 L 8250.8,8996.84 L 8250.8,8984.36 L 8753.2,9126.66 Z " />
<path stroke="none" fill="#000000" transform="matrix(0.0666667 0 0 0.0666667 -15.6333 -20.3333)" d="M 9265.76,8984.83 L 9269.04,8996.37 L 8765.2,9139.14 L 8759.2,9134.6 L 8765.2,9126.66 L 9265.76,8984.83 Z " />
<path stroke="none" fill="#000000" transform="matrix(0.0666667 0 0 0.0666667 -15.6333 -20.3333)" d="M 7748.6,9419.14 L 7736.6,9426.06 L 7736.6,9139.14 L 7742.6,9134.6 L 7748.6,9139.14 L 7748.6,9419.14 Z " />
<path stroke="none" fill="#000000" transform="matrix(0.0666667 0 0 0.0666667 -15.6333 -20.3333)" d="M 8765.2,9419.14 L 8753.2,9426.06 L 8753.2,9139.14 L 8759.2,9134.6 L 8765.2,9139.14 L 8765.2,9419.14 Z " />
<text x="0" y="0" stroke="none" fill="#000000" transform="matrix(0.0666667 0 0 0.0666667 478.728 622.64)" font-style="normal" font-weight="normal" font-size="200px" font-family="Arial" >
O</text>
<path stroke="none" fill="#000000" transform="matrix(0.0666667 0 0 0.0666667 -15.6333 -20.3333)" d="M 7595.01,9544.67 L 7589.01,9534.28 L 7765.52,9432.37 L 7771.52,9442.76 L 7595.01,9544.67 Z " />
<path stroke="none" fill="#000000" transform="matrix(0.0666667 0 0 0.0666667 -15.6333 -20.3333)" d="M 7569.09,9499.78 L 7563.09,9489.39 L 7739.6,9387.47 L 7745.6,9397.87 L 7569.09,9499.78 Z " />
<text x="0" y="0" stroke="none" fill="#000000" transform="matrix(0.0666667 0 0 0.0666667 511.981 622.64)" font-style="normal" font-weight="normal" font-size="200px" font-family="Arial" >
O</text>
<path stroke="none" fill="#000000" transform="matrix(0.0666667 0 0 0.0666667 -15.6333 -20.3333)" d="M 7909.47,9512.02 L 7903.47,9522.41 L 7736.6,9426.06 L 7748.6,9419.14 L 7909.47,9512.02 Z " />
<text x="0" y="0" stroke="none" fill="#000000" transform="matrix(0.0666667 0 0 0.0666667 546.501 622.64)" font-style="normal" font-weight="normal" font-size="200px" font-family="Arial" >
O</text>
<path stroke="none" fill="#000000" transform="matrix(0.0666667 0 0 0.0666667 -15.6333 -20.3333)" d="M 8611.61,9544.67 L 8605.61,9534.28 L 8782.12,9432.37 L 8788.12,9442.76 L 8611.61,9544.67 Z " />
<path stroke="none" fill="#000000" transform="matrix(0.0666667 0 0 0.0666667 -15.6333 -20.3333)" d="M 8585.69,9499.78 L 8579.69,9489.39 L 8756.2,9387.47 L 8762.2,9397.87 L 8585.69,9499.78 Z " />
<text x="0" y="0" stroke="none" fill="#000000" transform="matrix(0.0666667 0 0 0.0666667 579.754 622.64)" font-style="normal" font-weight="normal" font-size="200px" font-family="Arial" >
O</text>
<path stroke="none" fill="#000000" transform="matrix(0.0666667 0 0 0.0666667 -15.6333 -20.3333)" d="M 8926.07,9512.02 L 8920.07,9522.41 L 8753.2,9426.06 L 8765.2,9419.14 L 8926.07,9512.02 Z " />
<path stroke="#000000" stroke-width="12" fill="none" transform="matrix(0.0666667 0 0 0.0666667 -15.6333 -20.3333)" d="M 7820.08,9199.29 A 285,285 0 0 0 7825.05,8914.33" />
<text x="0" y="0" stroke="none" fill="#000000" transform="matrix(0.0666667 0 0 0.0666667 509.623 595.661)" font-style="normal" font-weight="normal" font-size="150px" font-family="Arial" >
x</text>
<path stroke="#000000" stroke-width="12" fill="none" transform="matrix(0.0666667 0 0 0.0666667 -15.6333 -20.3333)" d="M 7117.4,8910 A 285,285 0 0 0 7117.4,9195" />
<path stroke="#000000" stroke-width="12" fill="none" transform="matrix(0.0666667 0 0 0.0666667 -15.6333 -20.3333)" d="M 8884.88,9184.29 A 285,285 0 0 0 8889.85,8899.33" />
<text x="0" y="0" stroke="none" fill="#000000" transform="matrix(0.0666667 0 0 0.0666667 580.61 593.628)" font-style="normal" font-weight="normal" font-size="150px" font-family="Arial" >
y</text>
<path stroke="#000000" stroke-width="12" fill="none" transform="matrix(0.0666667 0 0 0.0666667 -15.6333 -20.3333)" d="M 8122.6,8895 A 285,285 0 0 0 8122.6,9180" />
<path stroke="#000000" stroke-width="12" fill="none" transform="matrix(0.0666667 0 0 0.0666667 -15.6333 -20.3333)" d="M 9080.65,8805 L 9112.6,8805 " />
<path stroke="#000000" stroke-width="12" fill="none" transform="matrix(0.0666667 0 0 0.0666667 -15.6333 -20.3333)" d="M 9112.6,8805 L 9112.6,9240 " />
<path stroke="#000000" stroke-width="12" fill="none" transform="matrix(0.0666667 0 0 0.0666667 -15.6333 -20.3333)" d="M 9112.6,9240 L 9080.65,9240 " />
<path stroke="#000000" stroke-width="12" fill="none" transform="matrix(0.0666667 0 0 0.0666667 -15.6333 -20.3333)" d="M 6999.35,9240 L 6967.4,9240 " />
<path stroke="#000000" stroke-width="12" fill="none" transform="matrix(0.0666667 0 0 0.0666667 -15.6333 -20.3333)" d="M 6967.4,9240 L 6967.4,8805 " />
<path stroke="#000000" stroke-width="12" fill="none" transform="matrix(0.0666667 0 0 0.0666667 -15.6333 -20.3333)" d="M 6967.4,8805 L 6999.35,8805 " />
<path stroke="none" fill="#000000" transform="matrix(0.0666667 0 0 0.0666667 -15.6333 -20.3333)" d="M 7998,9858.06 L 7986,9851.14 L 7986,9678.43 L 7998,9678.43 L 7998,9858.06 Z " />
<path stroke="none" fill="#000000" transform="matrix(0.0666667 0 0 0.0666667 -15.6333 -20.3333)" d="M 9014.6,9858.06 L 9002.6,9851.14 L 9002.6,9678.43 L 9014.6,9678.43 L 9014.6,9858.06 Z " />
<path stroke="none" fill="#000000" transform="matrix(0.0666667 0 0 0.0666667 -15.6333 -20.3333)" d="M 8765.2,10002.1 L 8753.2,9995.14 L 9002.6,9851.14 L 9014.6,9858.06 L 8765.2,10002.1 Z " />
<text x="0" y="0" stroke="none" fill="#000000" transform="matrix(0.0666667 0 0 0.0666667 563.499 670.64)" font-style="normal" font-weight="normal" font-size="200px" font-family="Arial" >
N</text>
<path stroke="none" fill="#000000" transform="matrix(0.0666667 0 0 0.0666667 -15.6333 -20.3333)" d="M 8765.2,10191.8 L 8753.2,10191.8 L 8753.2,9995.14 L 8765.2,10002.1 L 8765.2,10191.8 Z " />
<path stroke="none" fill="#000000" transform="matrix(0.0666667 0 0 0.0666667 -15.6333 -20.3333)" d="M 8512.8,10435.8 L 8506.8,10425.4 L 8653.34,10340.8 L 8659.34,10351.2 L 8512.8,10435.8 Z " />
<path stroke="none" fill="#000000" transform="matrix(0.0666667 0 0 0.0666667 -15.6333 -20.3333)" d="M 9011.6,10425.4 L 9005.6,10435.8 L 8858.3,10350.7 L 8864.3,10340.4 L 9011.6,10425.4 Z " />
<path stroke="none" fill="#000000" transform="matrix(0.0666667 0 0 0.0666667 -15.6333 -20.3333)" d="M 8753.2,8846.6 L 8765.2,8846.6 L 8765.2,9126.66 L 8759.2,9134.6 L 8753.2,9126.66 L 8753.2,8846.6 Z " />
<path stroke="none" fill="#000000" transform="matrix(0.0666667 0 0 0.0666667 -15.6333 -20.3333)" d="M 7736.6,8846.6 L 7748.6,8846.6 L 7748.6,9126.66 L 7742.6,9134.6 L 7736.6,9126.66 L 7736.6,8846.6 Z " />
<path stroke="none" fill="#000000" transform="matrix(0.0666667 0 0 0.0666667 -15.6333 -20.3333)" d="M 7748.6,10002.1 L 7736.6,9995.14 L 7986,9851.14 L 7998,9858.06 L 7748.6,10002.1 Z " />
<text x="0" y="0" stroke="none" fill="#000000" transform="matrix(0.0666667 0 0 0.0666667 495.354 670.64)" font-style="normal" font-weight="normal" font-size="200px" font-family="Arial" >
OH</text>
<path stroke="none" fill="#000000" transform="matrix(0.0666667 0 0 0.0666667 -15.6333 -20.3333)" d="M 7748.6,10189.4 L 7736.6,10189.4 L 7736.6,9995.14 L 7748.6,10002.1 L 7748.6,10189.4 Z " />
<path stroke="none" fill="#ff0000" transform="matrix(0.0666667 0 0 0.0666667 -15.6333 -20.3333)" d="M 1402,11264.3 L 1401.6,11276.9 L 922.922,11420.3 L 919.478,11408.9 L 1402,11264.3 Z " />
<path stroke="none" fill="#ff0000" transform="matrix(0.0666667 0 0 0.0666667 -15.6333 -20.3333)" d="M 1792.6,11408.3 L 1792.4,11414.6 L 1786.4,11418.8 L 1401.6,11276.9 L 1402,11264.3 L 1792.6,11408.3 Z " />
<path stroke="none" fill="#ff0000" transform="matrix(0.0666667 0 0 0.0666667 -15.6333 -20.3333)" d="M 2273.2,11264.3 L 2272.8,11276.9 L 1798.4,11419.1 L 1792.4,11414.6 L 1792.6,11408.3 L 2273.2,11264.3 Z " />
<path stroke="none" fill="#ff0000" transform="matrix(0.0666667 0 0 0.0666667 -15.6333 -20.3333)" d="M 2664,11408.3 L 2663.8,11414.6 L 2657.8,11418.8 L 2272.8,11276.9 L 2273.2,11264.3 L 2664,11408.3 Z " />
<path stroke="none" fill="#ff0000" transform="matrix(0.0666667 0 0 0.0666667 -15.6333 -20.3333)" d="M 3142.68,11264.9 L 3146.12,11276.3 L 2669.8,11419.1 L 2663.8,11414.6 L 2664,11408.3 L 3142.68,11264.9 Z " />
<path stroke="none" fill="#ff0000" transform="matrix(0.0666667 0 0 0.0666667 -15.6333 -20.3333)" d="M 1798.4,11699.1 L 1792.4,11702.6 L 1786.4,11699.1 L 1786.4,11418.8 L 1792.4,11414.6 L 1798.4,11419.1 L 1798.4,11699.1 Z " />
<text x="0" y="0" stroke="none" fill="#ff0000" transform="matrix(0.0666667 0 0 0.0666667 157.139 765.04)" font-style="normal" font-weight="normal" font-size="200px" font-family="Arial" >
CN</text>
<path stroke="none" fill="#ff0000" transform="matrix(0.0666667 0 0 0.0666667 -15.6333 -20.3333)" d="M 2669.8,11605.4 L 2657.8,11605.4 L 2657.8,11418.8 L 2663.8,11414.6 L 2669.8,11419.1 L 2669.8,11605.4 Z " />
<path stroke="none" fill="#ff0000" transform="matrix(0.0666667 0 0 0.0666667 -15.6333 -20.3333)" d="M 1549,11850.1 L 1537,11843.1 L 1786.4,11699.1 L 1792.4,11702.6 L 1792.4,11709.5 L 1549,11850.1 Z " />
<path stroke="none" fill="#ff0000" transform="matrix(0.0666667 0 0 0.0666667 -15.6333 -20.3333)" d="M 1597.84,11881.7 L 1591.84,11871.3 L 1789.4,11757.3 L 1795.4,11767.7 L 1597.84,11881.7 Z " />
<path stroke="none" fill="#ff0000" transform="matrix(0.0666667 0 0 0.0666667 -15.6333 -20.3333)" d="M 1549,12131.1 L 1537,12138.1 L 1537,11843.1 L 1549,11850.1 L 1549,12131.1 Z " />
<path stroke="none" fill="#ff0000" transform="matrix(0.0666667 0 0 0.0666667 -15.6333 -20.3333)" d="M 1792.4,12271.7 L 1792.4,12285.5 L 1537,12138.1 L 1549,12131.1 L 1792.4,12271.7 Z " />
<path stroke="none" fill="#ff0000" transform="matrix(0.0666667 0 0 0.0666667 -15.6333 -20.3333)" d="M 1795.4,12213.5 L 1789.4,12223.9 L 1591.84,12109.9 L 1597.84,12099.5 L 1795.4,12213.5 Z " />
<path stroke="none" fill="#ff0000" transform="matrix(0.0666667 0 0 0.0666667 -15.6333 -20.3333)" d="M 2035.8,12131.1 L 2047.8,12138.1 L 1792.4,12285.5 L 1792.4,12271.7 L 2035.8,12131.1 Z " />
<path stroke="none" fill="#ff0000" transform="matrix(0.0666667 0 0 0.0666667 -15.6333 -20.3333)" d="M 2035.8,11850.1 L 2047.8,11843.1 L 2047.8,12138.1 L 2035.8,12131.1 L 2035.8,11850.1 Z " />
<path stroke="none" fill="#ff0000" transform="matrix(0.0666667 0 0 0.0666667 -15.6333 -20.3333)" d="M 1983.96,11876.5 L 1995.96,11876.5 L 1995.96,12104.7 L 1983.96,12104.7 L 1983.96,11876.5 Z " />
<path stroke="none" fill="#ff0000" transform="matrix(0.0666667 0 0 0.0666667 -15.6333 -20.3333)" d="M 1792.4,11709.5 L 1792.4,11702.6 L 1798.4,11699.1 L 2047.8,11843.1 L 2035.8,11850.1 L 1792.4,11709.5 Z " />
<path stroke="#ff0000" stroke-width="12" fill="none" transform="matrix(0.0666667 0 0 0.0666667 -15.6333 -20.3333)" d="M 1878.95,11510.9 A 390,390 0 0 0 1885.75,11120.9" />
<text x="0" y="0" stroke="none" fill="#ff0000" transform="matrix(0.0666667 0 0 0.0666667 113.61 749.661)" font-style="normal" font-weight="normal" font-size="150px" font-family="Arial" >
x</text>
<path stroke="#ff0000" stroke-width="12" fill="none" transform="matrix(0.0666667 0 0 0.0666667 -15.6333 -20.3333)" d="M 1252.4,11115 A 390,390 0 0 0 1252.4,11505" />
<path stroke="#ff0000" stroke-width="12" fill="none" transform="matrix(0.0666667 0 0 0.0666667 -15.6333 -20.3333)" d="M 2808.95,11510.9 A 390,390 0 0 0 2815.75,11120.9" />
<text x="0" y="0" stroke="none" fill="#ff0000" transform="matrix(0.0666667 0 0 0.0666667 175.61 748.628)" font-style="normal" font-weight="normal" font-size="150px" font-family="Arial" >
y</text>
<path stroke="#ff0000" stroke-width="12" fill="none" transform="matrix(0.0666667 0 0 0.0666667 -15.6333 -20.3333)" d="M 2152.4,11115 A 390,390 0 0 0 2152.4,11505" />
<path stroke="#ff0000" stroke-width="12" fill="none" transform="matrix(0.0666667 0 0 0.0666667 -15.6333 -20.3333)" d="M 3001.08,10995 L 3052.5,10995 " />
<path stroke="#ff0000" stroke-width="12" fill="none" transform="matrix(0.0666667 0 0 0.0666667 -15.6333 -20.3333)" d="M 3052.5,10995 L 3052.5,11700 " />
<path stroke="#ff0000" stroke-width="12" fill="none" transform="matrix(0.0666667 0 0 0.0666667 -15.6333 -20.3333)" d="M 3052.5,11700 L 3001.08,11700 " />
<path stroke="#ff0000" stroke-width="12" fill="none" transform="matrix(0.0666667 0 0 0.0666667 -15.6333 -20.3333)" d="M 1093.92,11700 L 1042.5,11700 " />
<path stroke="#ff0000" stroke-width="12" fill="none" transform="matrix(0.0666667 0 0 0.0666667 -15.6333 -20.3333)" d="M 1042.5,11700 L 1042.5,10995 " />
<path stroke="#ff0000" stroke-width="12" fill="none" transform="matrix(0.0666667 0 0 0.0666667 -15.6333 -20.3333)" d="M 1042.5,10995 L 1093.92,10995 " />
</svg>
