<?xml version="1.0" standalone="no" ?>
<!DOCTYPE svg PUBLIC "-//W3C//DTD SVG 1.1//EN" "http://www.w3.org/Graphics/SVG/1.1/DTD/svg11.dtd">
<svg width="645px" height="148px" viewBox="0 0 645 148" style="background-color: #ffffff00" xmlns="http://www.w3.org/2000/svg" xmlns:xlink="http://www.w3.org/1999/xlink" version="1.1" >
<path stroke="none" fill="#000000" transform="matrix(0.133333 0 0 0.133333 -254.533 -225)" d="M 1962.54,1887.94 L 1956.54,1877.55 L 2006.43,1848.75 L 2012.43,1859.14 L 1962.54,1887.94 Z " />
<path stroke="none" fill="#000000" transform="matrix(0.133333 0 0 0.133333 -254.533 -225)" d="M 2062.31,1830.34 L 2056.31,1819.95 L 2106.19,1791.15 L 2112.19,1801.54 L 2062.31,1830.34 Z " />
<path stroke="none" fill="#000000" transform="matrix(0.133333 0 0 0.133333 -254.533 -225)" d="M 2162.07,1772.74 L 2156.07,1762.35 L 2205.96,1733.55 L 2211.96,1743.94 L 2162.07,1772.74 Z " />
<path stroke="none" fill="#000000" transform="matrix(0.133333 0 0 0.133333 -254.533 -225)" d="M 2208.96,1745.51 L 2208.96,1731.65 L 2458.37,1875.98 L 2458.37,1889.84 L 2208.96,1745.51 Z " />
<path stroke="none" fill="#000000" transform="matrix(0.133333 0 0 0.133333 -254.533 -225)" d="M 2458.37,1889.84 L 2458.37,1875.98 L 2707.79,1731.65 L 2707.79,1745.51 L 2458.37,1889.84 Z " />
<path stroke="none" fill="#000000" transform="matrix(0.133333 0 0 0.133333 -254.533 -225)" d="M 2707.79,1745.51 L 2707.79,1731.65 L 2957.2,1875.98 L 2957.2,1889.84 L 2707.79,1745.51 Z " />
<path stroke="none" fill="#000000" transform="matrix(0.133333 0 0 0.133333 -254.533 -225)" d="M 2957.2,1889.84 L 2957.2,1875.98 L 3206.62,1731.65 L 3206.62,1745.51 L 2957.2,1889.84 Z " />
<path stroke="none" fill="#000000" transform="matrix(0.133333 0 0 0.133333 -254.533 -225)" d="M 3206.62,1745.51 L 3206.62,1731.65 L 3456.03,1875.98 L 3456.03,1889.84 L 3206.62,1745.51 Z " />
<path stroke="none" fill="#000000" transform="matrix(0.133333 0 0 0.133333 -254.533 -225)" d="M 3456.03,1889.84 L 3456.03,1875.98 L 3705.45,1731.65 L 3705.45,1745.51 L 3456.03,1889.84 Z " />
<path stroke="none" fill="#000000" transform="matrix(0.133333 0 0 0.133333 -254.533 -225)" d="M 3705.45,1745.51 L 3705.45,1731.65 L 3954.86,1875.98 L 3954.86,1889.84 L 3705.45,1745.51 Z " />
<path stroke="none" fill="#000000" transform="matrix(0.133333 0 0 0.133333 -254.533 -225)" d="M 3954.86,1889.84 L 3954.86,1875.98 L 4204.28,1731.65 L 4204.28,1745.51 L 3954.86,1889.84 Z " />
<path stroke="none" fill="#000000" transform="matrix(0.133333 0 0 0.133333 -254.533 -225)" d="M 4204.28,1745.51 L 4204.28,1731.65 L 4453.69,1875.98 L 4453.69,1882.75 L 4447.84,1886.13 L 4204.28,1745.51 Z " />
<path stroke="none" fill="#000000" transform="matrix(0.133333 0 0 0.133333 -254.533 -225)" d="M 4459.55,1886.13 L 4453.69,1882.75 L 4453.69,1875.98 L 4703.11,1731.65 L 4703.11,1745.51 L 4459.55,1886.13 Z " />
<path stroke="none" fill="#000000" transform="matrix(0.133333 0 0 0.133333 -254.533 -225)" d="M 4703.11,1745.51 L 4703.11,1731.65 L 4952.52,1875.98 L 4952.52,1889.84 L 4703.11,1745.51 Z " />
<path stroke="none" fill="#000000" transform="matrix(0.133333 0 0 0.133333 -254.533 -225)" d="M 4952.52,1889.84 L 4952.52,1875.98 L 5201.94,1731.65 L 5201.94,1745.51 L 4952.52,1889.84 Z " />
<path stroke="none" fill="#000000" transform="matrix(0.133333 0 0 0.133333 -254.533 -225)" d="M 5201.94,1745.51 L 5201.94,1731.65 L 5451.36,1875.98 L 5451.36,1889.84 L 5201.94,1745.51 Z " />
<path stroke="none" fill="#000000" transform="matrix(0.133333 0 0 0.133333 -254.533 -225)" d="M 5451.36,1889.84 L 5451.36,1875.98 L 5700.77,1731.65 L 5700.77,1745.51 L 5451.36,1889.84 Z " />
<path stroke="none" fill="#000000" transform="matrix(0.133333 0 0 0.133333 -254.533 -225)" d="M 5700.77,1745.51 L 5700.77,1731.65 L 5950.19,1875.98 L 5950.19,1889.84 L 5700.77,1745.51 Z " />
<path stroke="none" fill="#000000" transform="matrix(0.133333 0 0 0.133333 -254.533 -225)" d="M 5950.19,1889.84 L 5950.19,1875.98 L 6199.6,1731.65 L 6199.6,1745.51 L 5950.19,1889.84 Z " />
<path stroke="none" fill="#000000" transform="matrix(0.133333 0 0 0.133333 -254.533 -225)" d="M 6199.6,1745.51 L 6199.6,1731.65 L 6449.02,1875.98 L 6449.02,1889.84 L 6199.6,1745.51 Z " />
<path stroke="none" fill="#000000" transform="matrix(0.133333 0 0 0.133333 -254.533 -225)" d="M 6449.02,1889.84 L 6449.02,1875.98 L 6495.9,1848.75 L 6501.9,1859.14 L 6449.02,1889.84 Z " />
<path stroke="none" fill="#000000" transform="matrix(0.133333 0 0 0.133333 -254.533 -225)" d="M 6551.78,1830.34 L 6545.78,1819.95 L 6595.67,1791.15 L 6601.67,1801.54 L 6551.78,1830.34 Z " />
<path stroke="none" fill="#000000" transform="matrix(0.133333 0 0 0.133333 -254.533 -225)" d="M 6651.55,1772.74 L 6645.55,1762.35 L 6695.43,1733.55 L 6701.43,1743.94 L 6651.55,1772.74 Z " />
<path stroke="none" fill="#000000" transform="matrix(0.133333 0 0 0.133333 -254.533 -225)" d="M 4447.84,1886.13 L 4453.69,1882.75 L 4459.55,1886.13 L 4459.55,2167.36 L 4453.69,2170.75 L 4447.84,2167.36 L 4447.84,1886.13 Z " />
<path stroke="none" fill="#000000" transform="matrix(0.133333 0 0 0.133333 -254.533 -225)" d="M 4447.84,2167.36 L 4453.69,2170.75 L 4453.69,2177.51 L 4210.14,2318.13 L 4198.13,2311.2 L 4447.84,2167.36 Z " />
<path stroke="none" fill="#000000" transform="matrix(0.133333 0 0 0.133333 -254.533 -225)" d="M 4450.69,2225.41 L 4456.69,2235.8 L 4259.12,2349.87 L 4253.12,2339.48 L 4450.69,2225.41 Z " />
<path stroke="none" fill="#000000" transform="matrix(0.133333 0 0 0.133333 -254.533 -225)" d="M 4198.13,2311.2 L 4210.14,2318.13 L 4210.14,2599.36 L 4198.13,2606.3 L 4198.13,2311.2 Z " />
<path stroke="none" fill="#000000" transform="matrix(0.133333 0 0 0.133333 -254.533 -225)" d="M 4198.13,2606.3 L 4210.14,2599.36 L 4453.69,2739.98 L 4453.69,2753.84 L 4198.13,2606.3 Z " />
<path stroke="none" fill="#000000" transform="matrix(0.133333 0 0 0.133333 -254.533 -225)" d="M 4253.12,2578.01 L 4259.12,2567.62 L 4456.69,2681.69 L 4450.69,2692.08 L 4253.12,2578.01 Z " />
<path stroke="none" fill="#000000" transform="matrix(0.133333 0 0 0.133333 -254.533 -225)" d="M 4453.69,2753.84 L 4453.69,2739.98 L 4697.25,2599.36 L 4709.26,2606.3 L 4453.69,2753.84 Z " />
<path stroke="none" fill="#000000" transform="matrix(0.133333 0 0 0.133333 -254.533 -225)" d="M 4709.26,2606.3 L 4697.25,2599.36 L 4697.25,2318.13 L 4709.26,2311.2 L 4709.26,2606.3 Z " />
<path stroke="none" fill="#000000" transform="matrix(0.133333 0 0 0.133333 -254.533 -225)" d="M 4657.27,2572.82 L 4645.27,2572.82 L 4645.27,2344.68 L 4657.27,2344.68 L 4657.27,2572.82 Z " />
<path stroke="none" fill="#000000" transform="matrix(0.133333 0 0 0.133333 -254.533 -225)" d="M 4709.26,2311.2 L 4697.25,2318.13 L 4453.69,2177.51 L 4453.69,2170.75 L 4459.55,2167.36 L 4709.26,2311.2 Z " />
</svg>
