<?xml version="1.0" encoding="UTF-8" standalone="no"?>
<!-- Created with Inkscape (http://www.inkscape.org/) -->

<svg
   width="77.953819mm"
   height="33.699863mm"
   viewBox="0 0 77.95382 33.699863"
   version="1.1"
   id="svg5"
   inkscape:version="1.1.1 (3bf5ae0d25, 2021-09-20)"
   sodipodi:docname="Model1_blend.svg"
   xmlns:inkscape="http://www.inkscape.org/namespaces/inkscape"
   xmlns:sodipodi="http://sodipodi.sourceforge.net/DTD/sodipodi-0.dtd"
   xmlns="http://www.w3.org/2000/svg"
   xmlns:svg="http://www.w3.org/2000/svg">
  <sodipodi:namedview
     id="namedview7"
     pagecolor="#ffffff"
     bordercolor="#666666"
     borderopacity="1.0"
     inkscape:pageshadow="2"
     inkscape:pageopacity="0.0"
     inkscape:pagecheckerboard="0"
     inkscape:document-units="mm"
     showgrid="false"
     fit-margin-top="2"
     fit-margin-left="2"
     fit-margin-right="2"
     fit-margin-bottom="2"
     inkscape:zoom="0.74118967"
     inkscape:cx="452.65067"
     inkscape:cy="-238.13068"
     inkscape:window-width="1920"
     inkscape:window-height="1017"
     inkscape:window-x="-8"
     inkscape:window-y="559"
     inkscape:window-maximized="1"
     inkscape:current-layer="layer1" />
  <defs
     id="defs2">
    <marker
       style="overflow:visible"
       id="Arrow1Lend"
       refX="0"
       refY="0"
       orient="auto"
       inkscape:stockid="Arrow1Lend"
       inkscape:isstock="true">
      <path
         transform="matrix(-0.8,0,0,-0.8,-10,0)"
         style="fill:context-stroke;fill-rule:evenodd;stroke:context-stroke;stroke-width:1pt"
         d="M 0,0 5,-5 -12.5,0 5,5 Z"
         id="path2607" />
    </marker>
  </defs>
  <g
     inkscape:label="Layer 1"
     inkscape:groupmode="layer"
     id="layer1"
     transform="translate(-76.806872,-211.63079)">
    <path
       style="fill:none;stroke:#ff0000;stroke-width:0.705556;stroke-linecap:butt;stroke-linejoin:miter;stroke-miterlimit:4;stroke-dasharray:none;stroke-opacity:1"
       d="m 15.349759,103.52163 c 0,0 -1.070913,-3.21274 7.139423,-6.068507 8.210337,-2.855769 4.283653,3.212737 8.567308,8.210337 4.283654,4.9976 4.640625,1.78486 4.997595,0 0.356973,-1.78486 6.425483,-7.139422 11.066108,-6.425481 4.640625,0.713943 6.42548,6.068511 3.569711,10.352161 -2.85577,4.28366 -8.92428,-3.21274 -16.777645,3.56971 -7.853365,6.78246 -0.35697,9.9952 2.498799,9.28125 2.855767,-0.71394 4.283652,-8.5673 10.709135,-5.71153"
       id="path892" />
    <path
       style="fill:none;stroke:#ff0000;stroke-width:0.705556;stroke-linecap:butt;stroke-linejoin:miter;stroke-miterlimit:4;stroke-dasharray:none;stroke-opacity:1"
       d="m 57.983848,59.88328 c 0,0 0.942503,-3.252732 9.322585,-0.94206 8.380088,2.31067 1.702207,5.07679 2.391035,11.62288 0.688828,6.54608 2.806755,4.10405 4.113985,2.83744 1.307233,-1.26661 9.342902,-2.22898 12.757684,0.9935 3.414781,3.22248 1.843941,8.6437 -2.939,10.54857 -4.782948,1.90489 -5.522333,-7.71157 -15.837984,-6.58714 -10.315656,1.12443 -5.968747,8.0253 -3.212545,9.05898 2.756195,1.03369 8.390457,-4.62045 12.058472,1.37855"
       id="path892-6" />
    <path
       style="fill:none;stroke:#ff0000;stroke-width:0.705556;stroke-linecap:butt;stroke-linejoin:miter;stroke-miterlimit:4;stroke-dasharray:none;stroke-opacity:1"
       d="m 67.288957,91.960024 c 0,0 0.748661,3.302738 -7.703404,5.334388 -8.452067,2.03166 -3.945722,-3.619757 -7.715319,-9.015668 -3.769596,-5.395909 -4.44185,-2.234074 -4.973204,-0.49315 -0.531356,1.740923 -7.098624,6.470527 -11.64615,5.302145 -4.547526,-1.168385 -5.795294,-6.672946 -2.530762,-10.653889 3.264533,-3.980952 8.563699,4.077687 17.048011,-1.89671 8.484314,-5.97441 1.341531,-9.911197 -1.570752,-9.482532 -2.912279,0.428656 -5.108146,8.102792 -11.220469,4.626906"
       id="path892-0" />
    <path
       style="fill:none;stroke:#ff0000;stroke-width:0.705556;stroke-linecap:butt;stroke-linejoin:miter;stroke-miterlimit:4;stroke-dasharray:none;stroke-opacity:1"
       d="m 75.798162,92.109735 c 0,0 3.29688,-0.77404 5.393482,7.662138 2.096602,8.436177 -3.589307,3.973447 -8.956064,7.784427 -5.366758,3.81099 -2.199846,4.45891 -0.454887,4.97685 1.744959,0.51795 6.52493,7.04864 5.391568,11.60502 -1.133371,4.55638 -6.628183,5.84644 -10.634106,2.61263 -4.005943,-3.23382 4.011701,-8.59481 -2.027773,-17.03292 -6.039484,-8.43811 -9.921218,-1.26526 -9.470167,1.64364 0.451042,2.90889 8.141835,5.04567 4.713065,11.18455"
       id="path892-8" />
    <path
       style="fill:none;stroke:#ff0000;stroke-width:0.705556;stroke-linecap:butt;stroke-linejoin:miter;stroke-miterlimit:4;stroke-dasharray:none;stroke-opacity:1"
       d="m 115.42341,227.76676 c 0,0 1.81065,2.86184 -5.47436,7.60457 -7.28501,4.74273 -4.9295,-2.0908 -10.287353,-5.91429 -5.357858,-3.82349 -4.933362,-0.61897 -4.851536,1.19939 0.08182,1.81837 -4.52427,8.47284 -9.200612,8.89349 -4.676343,0.42065 -7.694094,-4.34908 -5.949839,-9.1929 1.744258,-4.84383 9.434503,0.97708 15.430601,-7.49191 5.996099,-8.469 -2.052251,-9.78876 -4.653216,-8.4103 -2.600958,1.37844 -2.102355,9.34496 -9.025421,8.11473"
       id="path892-8-0" />
    <path
       style="fill:none;stroke:#0000ff;stroke-width:0.705556;stroke-linecap:butt;stroke-linejoin:miter;stroke-miterlimit:4;stroke-dasharray:none;stroke-opacity:1"
       d="m 111.28367,103.71919 c 0,0 -1.07091,-3.21274 7.13942,-6.068515 8.21034,-2.85577 4.28365,3.212745 8.56731,8.210345 4.28365,4.9976 4.64062,1.78486 4.99759,0 0.35698,-1.78486 6.42549,-7.139425 11.06611,-6.425485 4.64063,0.713945 6.42548,6.068515 3.56971,10.352165 -2.85577,4.28366 -8.92428,-3.21274 -16.77764,3.56971 -7.85337,6.78246 -0.35697,9.9952 2.4988,9.28125 2.85576,-0.71394 4.28365,-8.5673 10.70913,-5.71153"
       id="path892-4" />
    <path
       style="fill:none;stroke:#0000ff;stroke-width:0.705556;stroke-linecap:butt;stroke-linejoin:miter;stroke-miterlimit:4;stroke-dasharray:none;stroke-opacity:1"
       d="m 153.91776,60.080835 c 0,0 0.9425,-3.252732 9.32258,-0.94206 8.38009,2.31067 1.70221,5.07679 2.39104,11.62288 0.68883,6.54608 2.80675,4.10405 4.11398,2.83744 1.30724,-1.26661 9.3429,-2.22898 12.75769,0.9935 3.41478,3.22248 1.84394,8.6437 -2.939,10.54857 -4.78295,1.90489 -5.52234,-7.71157 -15.83799,-6.58714 -10.31565,1.12443 -5.96874,8.0253 -3.21254,9.05898 2.75619,1.03369 8.39045,-4.62045 12.05847,1.37855"
       id="path892-6-9" />
    <path
       style="fill:none;stroke:#0000ff;stroke-width:0.705556;stroke-linecap:butt;stroke-linejoin:miter;stroke-miterlimit:4;stroke-dasharray:none;stroke-opacity:1"
       d="m 115.95258,228.29593 c 0,0 -1.69543,-2.93157 5.77242,-7.38085 7.46786,-4.4493 4.84246,2.28515 10.04404,6.31868 5.20157,4.03352 4.90484,0.81466 4.89539,-1.00552 -0.009,-1.82019 4.85762,-8.28623 9.547,-8.52059 4.68937,-0.23436 7.51507,4.6516 5.57957,9.42223 -1.93549,4.77065 -9.38819,-1.35147 -15.71632,6.87239 -6.32812,8.22385 1.66138,9.86261 4.3151,8.58868 2.65372,-1.27391 2.4723,-9.25397 9.34097,-7.74941"
       id="path892-6-9-9" />
    <path
       style="fill:none;stroke:#0000ff;stroke-width:0.705556;stroke-linecap:butt;stroke-linejoin:miter;stroke-miterlimit:4;stroke-dasharray:none;stroke-opacity:1"
       d="m 163.22287,92.157575 c 0,0 0.74866,3.30274 -7.70341,5.33439 -8.45206,2.03166 -3.94572,-3.61975 -7.71532,-9.01567 -3.76959,-5.39591 -4.44185,-2.23407 -4.9732,-0.49315 -0.53136,1.74093 -7.09862,6.47053 -11.64615,5.30215 -4.54753,-1.16839 -5.79529,-6.67295 -2.53076,-10.65389 3.26453,-3.98095 8.5637,4.07769 17.04801,-1.89671 8.48431,-5.97441 1.34153,-9.9112 -1.57075,-9.48253 -2.91228,0.42865 -5.10815,8.10279 -11.22047,4.6269"
       id="path892-0-9" />
    <path
       style="fill:none;stroke:#0000ff;stroke-width:0.705556;stroke-linecap:butt;stroke-linejoin:miter;stroke-miterlimit:4;stroke-dasharray:none;stroke-opacity:1"
       d="m 171.73207,92.307285 c 0,0 3.29688,-0.77403 5.39348,7.66214 2.09661,8.436185 -3.5893,3.973455 -8.95606,7.784435 -5.36676,3.81099 -2.19985,4.45891 -0.45489,4.97685 1.74496,0.51795 6.52493,7.04864 5.39157,11.60502 -1.13337,4.55638 -6.62818,5.84644 -10.6341,2.61263 -4.00595,-3.23382 4.0117,-8.59481 -2.02778,-17.03292 -6.03948,-8.43811 -9.92122,-1.26526 -9.47016,1.64364 0.45104,2.90889 8.14183,5.04567 4.71306,11.18455"
       id="path892-8-5" />
    <path
       style="fill:none;stroke:#ff0000;stroke-width:0.705556;stroke-linecap:butt;stroke-linejoin:miter;stroke-miterlimit:4;stroke-dasharray:none;stroke-opacity:1"
       d="m 241.01927,72.525164 c 0,0 0.2314,-3.37861 8.91088,-2.8973 8.67948,0.48132 2.73993,4.60046 4.80105,10.85166 2.06112,6.25119 3.61311,3.41563 4.62206,1.90065 1.00896,-1.51499 8.65787,-4.15926 12.67827,-1.73408 4.0204,2.42518 3.63473,8.0562 -0.63558,10.93189 -4.27031,2.87569 -7.03185,-6.36535 -16.87455,-3.07928 -9.8427,3.28607 -4.13145,9.10838 -1.21874,9.53416 2.9127,0.42579 7.22002,-6.29441 12.0766,-1.20953"
       id="path892-3" />
    <path
       style="fill:none;stroke:#ff0000;stroke-width:0.705556;stroke-linecap:butt;stroke-linejoin:miter;stroke-miterlimit:4;stroke-dasharray:none;stroke-opacity:1"
       d="m 327.43481,53.264394 c 0,0 2.10874,-2.64986 8.98035,2.67423 6.87162,5.3241 -0.35647,5.34268 -2.20897,11.65885 -1.85249,6.31617 1.03503,4.86311 2.72574,4.18883 1.69071,-0.67427 9.48857,1.49174 11.4212,5.77076 1.93264,4.27902 -1.58192,8.69547 -6.72991,8.6382 -5.14801,-0.0573 -2.17456,-9.23232 -12.14271,-12.11556 -9.96815,-2.88325 -8.57237,5.15226 -6.41639,7.15649 2.15596,2.00424 9.51719,-1.08226 10.62809,5.86095"
       id="path892-6-7" />
    <path
       style="fill:none;stroke:#ff0000;stroke-width:0.705556;stroke-linecap:butt;stroke-linejoin:miter;stroke-miterlimit:4;stroke-dasharray:none;stroke-opacity:1"
       d="m 293.45267,81.585454 c 0,0 -0.56367,3.33929 -9.15329,2.00385 -8.58962,-1.33543 -2.27259,-4.84837 -3.7068,-11.27245 -1.43421,-6.42406 -3.25843,-3.75549 -4.41195,-2.34746 -1.15353,1.40803 -9.02605,3.28462 -12.78751,0.47455 -3.76146,-2.81008 -2.82202,-8.37555 1.71121,-10.81581 4.53324,-2.44027 6.36941,7.02816 16.48834,4.72939 10.11893,-2.29879 5.01008,-8.65625 2.1536,-9.36737 -2.85646,-0.71114 -7.8059,5.55123 -12.13701,0.0119"
       id="path892-0-92" />
    <path
       style="fill:none;stroke:#ff0000;stroke-width:0.705556;stroke-linecap:butt;stroke-linejoin:miter;stroke-miterlimit:4;stroke-dasharray:none;stroke-opacity:1"
       d="m 318.0381,78.841494 c 0,0 3.34353,0.53796 2.0742,9.13759 -1.26933,8.59963 -4.83075,2.30982 -11.24361,3.79338 -6.41286,1.48358 -3.73032,3.28723 -2.31346,4.42989 1.41685,1.14265 3.35395,9.000496 0.57289,12.783466 -2.78106,3.78297 -8.35358,2.88634 -10.82862,-1.62797 -2.47505,-4.51434 6.97894,-6.42328 4.60241,-16.524216 -2.37653,-10.10095 -8.69448,-4.94336 -9.38361,-2.0815 -0.68914,2.86185 5.61108,7.76298 0.10528,12.136556"
       id="path892-8-9" />
    <path
       style="fill:none;stroke:#0000ff;stroke-width:0.705556;stroke-linecap:butt;stroke-linejoin:miter;stroke-miterlimit:4;stroke-dasharray:none;stroke-opacity:1"
       d="m 288.67234,50.263134 c 0,0 0.23141,-3.37861 8.91089,-2.89731 8.67948,0.48132 2.73992,4.60047 4.80104,10.85167 2.06112,6.25119 3.61311,3.41562 4.62206,1.90064 1.00896,-1.51497 8.65788,-4.15926 12.67828,-1.73408 4.02039,2.4252 3.63472,8.05621 -0.63559,10.93189 -4.27032,2.8757 -7.03185,-6.36534 -16.87454,-3.07927 -9.84271,3.28607 -4.13145,9.10838 -1.21874,9.53416 2.91269,0.42579 7.22002,-6.29441 12.07659,-1.20953"
       id="path892-4-4" />
    <path
       style="fill:none;stroke:#0000ff;stroke-width:0.705556;stroke-linecap:butt;stroke-linejoin:miter;stroke-miterlimit:4;stroke-dasharray:none;stroke-opacity:1"
       d="m 358.75649,67.901744 c 0,0 2.10873,-2.64987 8.98034,2.67422 6.87161,5.32411 -0.35647,5.34268 -2.20896,11.65886 -1.85249,6.31616 1.03502,4.8631 2.72573,4.18883 1.69072,-0.67428 9.48856,1.49174 11.42121,5.77076 1.93264,4.27902 -1.58193,8.695456 -6.72992,8.638186 -5.148,-0.0573 -2.17457,-9.232316 -12.14271,-12.115566 -9.96815,-2.88323 -8.57236,5.15228 -6.41639,7.1565 2.15596,2.00423 9.51719,-1.08226 10.62809,5.860966"
       id="path892-6-9-0" />
    <path
       style="fill:none;stroke:#0000ff;stroke-width:0.705556;stroke-linecap:butt;stroke-linejoin:miter;stroke-miterlimit:4;stroke-dasharray:none;stroke-opacity:1"
       d="m 294.28352,124.3193 c 0,0 -0.56366,3.33929 -9.15329,2.00384 -8.58962,-1.33542 -2.27259,-4.84836 -3.7068,-11.27244 -1.4342,-6.42408 -3.25843,-3.75549 -4.41195,-2.34747 -1.15353,1.40803 -9.02604,3.28463 -12.78751,0.47456 -3.76146,-2.81008 -2.82201,-8.37556 1.71122,-10.81582 4.53323,-2.440266 6.36941,7.02817 16.48833,4.72939 10.11892,-2.29879 5.01008,-8.656246 2.15361,-9.367366 -2.85647,-0.71113 -7.80591,5.551236 -12.13701,0.0119"
       id="path892-0-9-2" />
    <path
       style="fill:none;stroke:#0000ff;stroke-width:0.705556;stroke-linecap:butt;stroke-linejoin:miter;stroke-miterlimit:4;stroke-dasharray:none;stroke-opacity:1"
       d="m 343.02835,90.103324 c 0,0 3.34351,0.53798 2.07419,9.1376 -1.26933,8.599636 -4.83075,2.309826 -11.24361,3.793386 -6.41285,1.48358 -3.73033,3.28723 -2.31346,4.42988 1.41685,1.14266 3.35394,9.00051 0.57289,12.78348 -2.78105,3.78297 -8.3536,2.88634 -10.82864,-1.62797 -2.47508,-4.51434 6.97896,-6.42328 4.60242,-16.52423 -2.37653,-10.100936 -8.69452,-4.943346 -9.38364,-2.08149 -0.68915,2.86185 5.6111,7.76297 0.10528,12.13656"
       id="path892-8-5-3" />
    <text
       xml:space="preserve"
       style="font-size:16.9333px;line-height:1.25;font-family:sans-serif;stroke-width:0.264583"
       x="92.098557"
       y="97.096146"
       id="text1827"><tspan
         sodipodi:role="line"
         id="tspan1825"
         style="font-size:16.9333px;stroke-width:0.264583"
         x="92.098557"
         y="97.096146">+</tspan></text>
    <path
       style="fill:none;stroke:#000000;stroke-width:1.76389;stroke-linecap:butt;stroke-linejoin:miter;stroke-miterlimit:4;stroke-dasharray:none;stroke-opacity:1;marker-end:url(#Arrow1Lend)"
       d="m 195.26322,95.668268 h 40.33774"
       id="path2602" />
  </g>
</svg>
