<?xml version="1.0"?><svg xmlns="http://www.w3.org/2000/svg" xmlns:xlink="http://www.w3.org/1999/xlink" viewBox="22.35 16.65 479.57 338.1" preserveAspectRatio="xMidYMid" width="100%" height="100%"><clipPath id="425"><rect x="0.3" y="0.3" width="539.4" height="719.4" /></clipPath><g id="drawing"><rect x="22.35" y="16.65" width="100%" height="100%" fill="rgb(255, 255, 255)" /><g id="page" clip-path="url(#425)"><g id="Solid"><path d="M32.85 72.64 L32.85 72.64 L33 72.38 L33.15 72.12 L45.47 79.22 L45.47 79.57 L45.17 79.74 Z" stroke="rgb(0, 0, 0)" stroke-width="0" fill-rule="evenodd" stroke-linejoin="miter" fill="rgb(0, 0, 0)" shape-rendering="geometricPrecision" /></g><g id="Solid"><path d="M45.77 79.74 L45.77 79.74 L45.47 79.57 L45.47 79.22 L57.94 72.03 L57.94 72.38 L57.94 72.73 Z" stroke="rgb(0, 0, 0)" stroke-width="0" fill-rule="evenodd" stroke-linejoin="miter" fill="rgb(0, 0, 0)" shape-rendering="geometricPrecision" /></g><g id="Solid"><path d="M57.94 72.73 L57.94 72.73 L57.94 72.38 L57.94 72.03 L70.41 79.22 L70.41 79.57 L70.11 79.74 Z" stroke="rgb(0, 0, 0)" stroke-width="0" fill-rule="evenodd" stroke-linejoin="miter" fill="rgb(0, 0, 0)" shape-rendering="geometricPrecision" /></g><g id="Solid"><path d="M70.71 79.74 L70.71 79.74 L70.41 79.57 L70.41 79.22 L82.58 72.21 L82.88 72.38 L82.88 72.73 Z" stroke="rgb(0, 0, 0)" stroke-width="0" fill-rule="evenodd" stroke-linejoin="miter" fill="rgb(0, 0, 0)" shape-rendering="geometricPrecision" /></g><g id="Solid"><path d="M82.88 72.73 L82.88 72.73 L82.88 72.38 L83.18 72.21 L95.35 79.22 L95.35 79.57 L95.05 79.74 Z" stroke="rgb(0, 0, 0)" stroke-width="0" fill-rule="evenodd" stroke-linejoin="miter" fill="rgb(0, 0, 0)" shape-rendering="geometricPrecision" /></g><g id="Solid"><path d="M95.65 79.74 L95.65 79.74 L95.35 79.57 L95.35 79.22 L107.82 72.03 L107.82 72.38 L107.82 72.73 Z" stroke="rgb(0, 0, 0)" stroke-width="0" fill-rule="evenodd" stroke-linejoin="miter" fill="rgb(0, 0, 0)" shape-rendering="geometricPrecision" /></g><g id="Solid"><path d="M107.82 72.73 L107.82 72.73 L107.82 72.38 L107.82 72.03 L120.3 79.22 L120.3 79.57 L120 79.74 Z" stroke="rgb(0, 0, 0)" stroke-width="0" fill-rule="evenodd" stroke-linejoin="miter" fill="rgb(0, 0, 0)" shape-rendering="geometricPrecision" /></g><g id="Solid"><path d="M120.6 79.74 L120.6 79.74 L120.3 79.57 L120.3 79.22 L132.62 72.12 L132.77 72.38 L132.92 72.64 Z" stroke="rgb(0, 0, 0)" stroke-width="0" fill-rule="evenodd" stroke-linejoin="miter" fill="rgb(0, 0, 0)" shape-rendering="geometricPrecision" /></g><g><text xml:space="preserve" text-anchor="start" text-rendering="geometricPrecision"><tspan x="42.15" y="97.87" font-family="Arial" font-size="10" fill="rgb(0, 0, 0)">X</tspan></text></g><g id="Solid"><path d="M45.17 79.74 L45.17 79.74 L45.47 79.57 L45.77 79.74 L45.77 89.2 L45.47 89.2 L45.17 89.2 Z" stroke="rgb(0, 0, 0)" stroke-width="0" fill-rule="evenodd" stroke-linejoin="miter" fill="rgb(0, 0, 0)" shape-rendering="geometricPrecision" /></g><g><text xml:space="preserve" text-anchor="start" text-rendering="geometricPrecision"><tspan x="67.09" y="97.87" font-family="Arial" font-size="10" fill="rgb(0, 0, 0)">X</tspan></text></g><g id="Solid"><path d="M70.11 79.74 L70.11 79.74 L70.41 79.57 L70.71 79.74 L70.71 89.2 L70.41 89.2 L70.11 89.2 Z" stroke="rgb(0, 0, 0)" stroke-width="0" fill-rule="evenodd" stroke-linejoin="miter" fill="rgb(0, 0, 0)" shape-rendering="geometricPrecision" /></g><g><text xml:space="preserve" text-anchor="start" text-rendering="geometricPrecision"><tspan x="92.03" y="97.87" font-family="Arial" font-size="10" fill="rgb(0, 0, 0)">X</tspan></text></g><g id="Solid"><path d="M95.05 79.74 L95.05 79.74 L95.35 79.57 L95.65 79.74 L95.65 89.2 L95.35 89.2 L95.05 89.2 Z" stroke="rgb(0, 0, 0)" stroke-width="0" fill-rule="evenodd" stroke-linejoin="miter" fill="rgb(0, 0, 0)" shape-rendering="geometricPrecision" /></g><g><text xml:space="preserve" text-anchor="start" text-rendering="geometricPrecision"><tspan x="116.97" y="97.87" font-family="Arial" font-size="10" fill="rgb(0, 0, 0)">X</tspan></text></g><g id="Solid"><path d="M120 79.74 L120 79.74 L120.3 79.57 L120.6 79.74 L120.6 89.2 L120.3 89.2 L120 89.2 Z" stroke="rgb(0, 0, 0)" stroke-width="0" fill-rule="evenodd" stroke-linejoin="miter" fill="rgb(0, 0, 0)" shape-rendering="geometricPrecision" /></g><g><text xml:space="preserve" text-anchor="start" text-rendering="geometricPrecision"><tspan x="79.28" y="61.88" font-family="Arial" font-size="10" fill="rgb(0, 0, 0)">H</tspan></text></g><g id="Solid"><path d="M83.18 72.21 L83.18 72.21 L82.88 72.38 L82.58 72.21 L82.58 63.5 L82.88 63.5 L83.18 63.5 Z" stroke="rgb(0, 0, 0)" stroke-width="0" fill-rule="evenodd" stroke-linejoin="miter" fill="rgb(0, 0, 0)" shape-rendering="geometricPrecision" /></g><g><text xml:space="preserve" text-anchor="start" text-rendering="geometricPrecision"><tspan x="50.62" y="27.75" font-family="Arial" font-size="10" fill="rgb(0, 0, 0)">P</tspan></text></g><circle cx="59.78" cy="17.55" r="0.833333333333333" stroke="rgb(0, 0, 0)" stroke-width="0" fill="rgb(0, 0, 0)" /><g id="Arrow"><path d="M71.96 38.14 C77.19 34.92 78.83 28.04 75.61 22.8 C73.17 18.84 68.14 16.74 63.61 17.79 " stroke="rgb(0, 0, 0)" stroke-width="0.6" fill-rule="evenodd" stroke-linejoin="bevel" fill="none" shape-rendering="geometricPrecision" /><path d="M68.51 39.24 L73.5 38.66 C72.21 38.31 72.35 37.53 72.35 37.53 Z" stroke="rgb(0, 0, 0)" stroke-width="0" fill-rule="evenodd" stroke-linejoin="miter" stroke-miterlimit="5.88108911346757" fill="rgb(0, 0, 0)" shape-rendering="geometricPrecision" /></g><g id="Arrow"><path d="M66.55 43.86 C61.81 48.27 61.57 56.09 66.03 61.32 C69.4 65.28 75.07 66.76 79.54 64.85 " stroke="rgb(0, 0, 0)" stroke-width="0.6" fill-rule="evenodd" stroke-linejoin="bevel" fill="none" shape-rendering="geometricPrecision" /><path d="M69.87 42.06 L64.94 43.59 C66.3 43.68 66.32 44.5 66.32 44.5 Z" stroke="rgb(0, 0, 0)" stroke-width="0" fill-rule="evenodd" stroke-linejoin="miter" stroke-miterlimit="6.17720904419698" fill="rgb(0, 0, 0)" shape-rendering="geometricPrecision" /></g><g id="Arrow"><path d="M80.74 68.91 C80.35 67.49 78.89 66.66 77.47 67.04 C76.05 67.42 75.22 68.88 75.6 70.29 C75.62 70.36 75.64 70.43 75.67 70.5 " stroke="rgb(0, 0, 0)" stroke-width="0.6" fill-rule="evenodd" stroke-linejoin="bevel" fill="none" shape-rendering="geometricPrecision" /><path d="M79.02 71.9 L74.6 70.96 C75.82 70.69 75.75 70.03 75.75 70.03 Z" stroke="rgb(0, 0, 0)" stroke-width="0" fill-rule="evenodd" stroke-linejoin="miter" stroke-miterlimit="4.92141466741955" fill="rgb(0, 0, 0)" shape-rendering="geometricPrecision" /></g><g id="Arrow"><line x1="195.9" y1="75.38" x2="161.81" y2="75.38" stroke="rgb(0, 0, 0)" stroke-width="0.6" shape-rendering="auto" /><path d="M200.15 75.38 L194.15 73.88 C195.34 74.72 195.34 76.04 194.15 76.88 Z" stroke="rgb(0, 0, 0)" stroke-width="0" fill-rule="evenodd" stroke-linejoin="miter" stroke-miterlimit="6.93525005514877" fill="rgb(0, 0, 0)" shape-rendering="geometricPrecision" /></g><g id="Solid"><path d="M239.48 70.39 L239.48 70.39 L239.63 70.13 L239.78 69.87 L252.1 76.97 L252.1 77.32 L251.8 77.49 Z" stroke="rgb(255, 0, 0)" stroke-width="0" fill-rule="evenodd" stroke-linejoin="miter" fill="rgb(255, 0, 0)" shape-rendering="geometricPrecision" /></g><g id="Solid"><path d="M252.4 77.49 L252.4 77.49 L252.1 77.32 L252.1 76.97 L264.57 69.78 L264.57 70.13 L264.57 70.48 Z" stroke="rgb(255, 0, 0)" stroke-width="0" fill-rule="evenodd" stroke-linejoin="miter" fill="rgb(255, 0, 0)" shape-rendering="geometricPrecision" /></g><g id="Solid"><path d="M264.57 70.48 L264.57 70.48 L264.57 70.13 L264.57 69.78 L277.04 76.97 L277.04 77.32 L276.74 77.49 Z" stroke="rgb(255, 0, 0)" stroke-width="0" fill-rule="evenodd" stroke-linejoin="miter" fill="rgb(255, 0, 0)" shape-rendering="geometricPrecision" /></g><g id="Solid"><path d="M277.34 77.49 L277.34 77.49 L277.04 77.32 L277.04 76.97 L289.51 69.78 L289.51 70.13 L289.51 70.48 Z" stroke="rgb(255, 0, 0)" stroke-width="0" fill-rule="evenodd" stroke-linejoin="miter" fill="rgb(255, 0, 0)" shape-rendering="geometricPrecision" /></g><g id="Solid"><path d="M289.51 70.48 L289.51 70.48 L289.51 70.13 L289.51 69.78 L301.98 76.97 L301.98 77.32 L301.68 77.49 Z" stroke="rgb(255, 0, 0)" stroke-width="0" fill-rule="evenodd" stroke-linejoin="miter" fill="rgb(255, 0, 0)" shape-rendering="geometricPrecision" /></g><g id="Solid"><path d="M302.28 77.49 L302.28 77.49 L301.98 77.32 L301.98 76.97 L314.45 69.78 L314.45 70.13 L314.45 70.48 Z" stroke="rgb(255, 0, 0)" stroke-width="0" fill-rule="evenodd" stroke-linejoin="miter" fill="rgb(255, 0, 0)" shape-rendering="geometricPrecision" /></g><g id="Solid"><path d="M314.45 70.48 L314.45 70.48 L314.45 70.13 L314.45 69.78 L326.92 76.97 L326.92 77.32 L326.62 77.49 Z" stroke="rgb(255, 0, 0)" stroke-width="0" fill-rule="evenodd" stroke-linejoin="miter" fill="rgb(255, 0, 0)" shape-rendering="geometricPrecision" /></g><g id="Solid"><path d="M327.22 77.49 L327.22 77.49 L326.92 77.32 L326.92 76.97 L339.24 69.87 L339.39 70.13 L339.54 70.39 Z" stroke="rgb(255, 0, 0)" stroke-width="0" fill-rule="evenodd" stroke-linejoin="miter" fill="rgb(255, 0, 0)" shape-rendering="geometricPrecision" /></g><g><text xml:space="preserve" text-anchor="start" text-rendering="geometricPrecision"><tspan x="248.77" y="95.62" font-family="Arial" font-size="10" fill="rgb(255, 0, 0)">X</tspan></text></g><g id="Solid"><path d="M251.8 77.49 L251.8 77.49 L252.1 77.32 L252.4 77.49 L252.4 86.9 L252.1 86.9 L251.8 86.9 Z" stroke="rgb(255, 0, 0)" stroke-width="0" fill-rule="evenodd" stroke-linejoin="miter" fill="rgb(255, 0, 0)" shape-rendering="geometricPrecision" /></g><g><text xml:space="preserve" text-anchor="start" text-rendering="geometricPrecision"><tspan x="273.71" y="95.62" font-family="Arial" font-size="10" fill="rgb(255, 0, 0)">X</tspan></text></g><g id="Solid"><path d="M276.74 77.49 L276.74 77.49 L277.04 77.32 L277.34 77.49 L277.34 86.9 L277.04 86.9 L276.74 86.9 Z" stroke="rgb(255, 0, 0)" stroke-width="0" fill-rule="evenodd" stroke-linejoin="miter" fill="rgb(255, 0, 0)" shape-rendering="geometricPrecision" /></g><g><text xml:space="preserve" text-anchor="start" text-rendering="geometricPrecision"><tspan x="298.65" y="95.62" font-family="Arial" font-size="10" fill="rgb(255, 0, 0)">X</tspan></text></g><g id="Solid"><path d="M301.68 77.49 L301.68 77.49 L301.98 77.32 L302.28 77.49 L302.28 86.9 L301.98 86.9 L301.68 86.9 Z" stroke="rgb(255, 0, 0)" stroke-width="0" fill-rule="evenodd" stroke-linejoin="miter" fill="rgb(255, 0, 0)" shape-rendering="geometricPrecision" /></g><g><text xml:space="preserve" text-anchor="start" text-rendering="geometricPrecision"><tspan x="323.6" y="95.62" font-family="Arial" font-size="10" fill="rgb(255, 0, 0)">X</tspan></text></g><g id="Solid"><path d="M326.62 77.49 L326.62 77.49 L326.92 77.32 L327.22 77.49 L327.22 86.9 L326.92 86.9 L326.62 86.9 Z" stroke="rgb(255, 0, 0)" stroke-width="0" fill-rule="evenodd" stroke-linejoin="miter" fill="rgb(255, 0, 0)" shape-rendering="geometricPrecision" /></g><circle cx="289.48" cy="67.35" r="0.833333333333333" stroke="rgb(255, 0, 0)" stroke-width="0" fill="rgb(255, 0, 0)" /><g><text xml:space="preserve" text-anchor="start" text-rendering="geometricPrecision"><tspan x="267.61" y="44.4" font-family="Arial" font-size="10" fill="rgb(255, 0, 0)">P</tspan></text></g><g><text xml:space="preserve" text-anchor="start" text-rendering="geometricPrecision"><tspan x="281.74" y="44.4" font-family="Arial" font-size="10" fill="rgb(255, 0, 0)">H</tspan></text></g><g id="Solid"><path d="M275.3 40.8 L275.3 40.8 L275.3 40.5 L275.3 40.2 L281 40.2 L281 40.5 L281 40.8 Z" stroke="rgb(255, 0, 0)" stroke-width="0" fill-rule="evenodd" stroke-linejoin="miter" fill="rgb(255, 0, 0)" shape-rendering="geometricPrecision" /></g><g id="Solid"><path d="M22.35 179.51 L22.35 179.51 L22.5 179.25 L22.65 178.99 L34.97 186.1 L34.97 186.45 L34.67 186.62 Z" stroke="rgb(255, 0, 0)" stroke-width="0" fill-rule="evenodd" stroke-linejoin="miter" fill="rgb(255, 0, 0)" shape-rendering="geometricPrecision" /></g><g id="Solid"><path d="M35.27 186.62 L35.27 186.62 L34.97 186.45 L34.97 186.1 L47.44 178.9 L47.44 179.25 L47.44 179.6 Z" stroke="rgb(255, 0, 0)" stroke-width="0" fill-rule="evenodd" stroke-linejoin="miter" fill="rgb(255, 0, 0)" shape-rendering="geometricPrecision" /></g><g id="Solid"><path d="M47.44 179.6 L47.44 179.6 L47.44 179.25 L47.44 178.9 L59.91 186.1 L59.91 186.45 L59.61 186.62 Z" stroke="rgb(255, 0, 0)" stroke-width="0" fill-rule="evenodd" stroke-linejoin="miter" fill="rgb(255, 0, 0)" shape-rendering="geometricPrecision" /></g><g id="Solid"><path d="M60.21 186.62 L60.21 186.62 L59.91 186.45 L59.91 186.1 L72.38 178.9 L72.38 179.25 L72.38 179.6 Z" stroke="rgb(255, 0, 0)" stroke-width="0" fill-rule="evenodd" stroke-linejoin="miter" fill="rgb(255, 0, 0)" shape-rendering="geometricPrecision" /></g><g id="Solid"><path d="M72.38 179.6 L72.38 179.6 L72.38 179.25 L72.38 178.9 L84.85 186.1 L84.85 186.45 L84.55 186.62 Z" stroke="rgb(255, 0, 0)" stroke-width="0" fill-rule="evenodd" stroke-linejoin="miter" fill="rgb(255, 0, 0)" shape-rendering="geometricPrecision" /></g><g id="Solid"><path d="M85.15 186.62 L85.15 186.62 L84.85 186.45 L84.85 186.1 L97.32 178.9 L97.32 179.25 L97.32 179.6 Z" stroke="rgb(255, 0, 0)" stroke-width="0" fill-rule="evenodd" stroke-linejoin="miter" fill="rgb(255, 0, 0)" shape-rendering="geometricPrecision" /></g><g id="Solid"><path d="M97.32 179.6 L97.32 179.6 L97.32 179.25 L97.32 178.9 L109.8 186.1 L109.8 186.45 L109.5 186.62 Z" stroke="rgb(255, 0, 0)" stroke-width="0" fill-rule="evenodd" stroke-linejoin="miter" fill="rgb(255, 0, 0)" shape-rendering="geometricPrecision" /></g><g id="Solid"><path d="M110.1 186.62 L110.1 186.62 L109.8 186.45 L109.8 186.1 L122.12 178.99 L122.27 179.25 L122.42 179.51 Z" stroke="rgb(255, 0, 0)" stroke-width="0" fill-rule="evenodd" stroke-linejoin="miter" fill="rgb(255, 0, 0)" shape-rendering="geometricPrecision" /></g><g><text xml:space="preserve" text-anchor="start" text-rendering="geometricPrecision"><tspan x="31.65" y="204.75" font-family="Arial" font-size="10" fill="rgb(255, 0, 0)">X</tspan></text></g><g id="Solid"><path d="M34.67 186.62 L34.67 186.62 L34.97 186.45 L35.27 186.62 L35.27 196 L34.97 196 L34.67 196 Z" stroke="rgb(255, 0, 0)" stroke-width="0" fill-rule="evenodd" stroke-linejoin="miter" fill="rgb(255, 0, 0)" shape-rendering="geometricPrecision" /></g><g><text xml:space="preserve" text-anchor="start" text-rendering="geometricPrecision"><tspan x="56.59" y="204.75" font-family="Arial" font-size="10" fill="rgb(255, 0, 0)">X</tspan></text></g><g id="Solid"><path d="M59.61 186.62 L59.61 186.62 L59.91 186.45 L60.21 186.62 L60.21 196 L59.91 196 L59.61 196 Z" stroke="rgb(255, 0, 0)" stroke-width="0" fill-rule="evenodd" stroke-linejoin="miter" fill="rgb(255, 0, 0)" shape-rendering="geometricPrecision" /></g><g><text xml:space="preserve" text-anchor="start" text-rendering="geometricPrecision"><tspan x="81.53" y="204.75" font-family="Arial" font-size="10" fill="rgb(255, 0, 0)">X</tspan></text></g><g id="Solid"><path d="M84.55 186.62 L84.55 186.62 L84.85 186.45 L85.15 186.62 L85.15 196 L84.85 196 L84.55 196 Z" stroke="rgb(255, 0, 0)" stroke-width="0" fill-rule="evenodd" stroke-linejoin="miter" fill="rgb(255, 0, 0)" shape-rendering="geometricPrecision" /></g><g><text xml:space="preserve" text-anchor="start" text-rendering="geometricPrecision"><tspan x="106.47" y="204.75" font-family="Arial" font-size="10" fill="rgb(255, 0, 0)">X</tspan></text></g><g id="Solid"><path d="M109.5 186.62 L109.5 186.62 L109.8 186.45 L110.1 186.62 L110.1 196 L109.8 196 L109.5 196 Z" stroke="rgb(255, 0, 0)" stroke-width="0" fill-rule="evenodd" stroke-linejoin="miter" fill="rgb(255, 0, 0)" shape-rendering="geometricPrecision" /></g><circle cx="72.36" cy="176.47" r="0.833333333333333" stroke="rgb(255, 0, 0)" stroke-width="0" fill="rgb(255, 0, 0)" /><g id="Solid"><path d="M85.46 147.64 L85.46 147.64 L85.31 147.38 L85.16 147.12 L97.78 139.83 L97.78 140.18 L97.78 140.53 Z" stroke="rgb(255, 0, 0)" stroke-width="0" fill-rule="evenodd" stroke-linejoin="miter" fill="rgb(255, 0, 0)" shape-rendering="geometricPrecision" /><line x1="86.61" y1="149.62" x2="97.78" y2="143.17" stroke="rgb(255, 0, 0)" stroke-width="0.6" shape-rendering="auto" /></g><g><text xml:space="preserve" text-anchor="start" text-rendering="geometricPrecision"><tspan x="106.93" y="151.27" font-family="Arial" font-size="10" fill="rgb(255, 0, 0)">X</tspan></text></g><g id="Solid"><path d="M97.78 140.53 L97.78 140.53 L97.78 140.18 L97.78 139.83 L107.56 145.48 L107.41 145.74 L107.26 146 Z" stroke="rgb(255, 0, 0)" stroke-width="0" fill-rule="evenodd" stroke-linejoin="miter" fill="rgb(255, 0, 0)" shape-rendering="geometricPrecision" /></g><g id="Solid"><path d="M209.1 179.14 L209.1 179.14 L209.25 178.88 L209.4 178.62 L221.72 185.72 L221.72 186.07 L221.42 186.24 Z" stroke="rgb(255, 0, 0)" stroke-width="0" fill-rule="evenodd" stroke-linejoin="miter" fill="rgb(255, 0, 0)" shape-rendering="geometricPrecision" /></g><g id="Solid"><path d="M222.02 186.24 L222.02 186.24 L221.72 186.07 L221.72 185.72 L234.19 178.53 L234.19 178.88 L234.19 179.23 Z" stroke="rgb(255, 0, 0)" stroke-width="0" fill-rule="evenodd" stroke-linejoin="miter" fill="rgb(255, 0, 0)" shape-rendering="geometricPrecision" /></g><g id="Solid"><path d="M234.19 179.23 L234.19 179.23 L234.19 178.88 L234.19 178.53 L246.66 185.72 L246.66 186.07 L246.36 186.24 Z" stroke="rgb(255, 0, 0)" stroke-width="0" fill-rule="evenodd" stroke-linejoin="miter" fill="rgb(255, 0, 0)" shape-rendering="geometricPrecision" /></g><g id="Solid"><path d="M246.96 186.24 L246.96 186.24 L246.66 186.07 L246.66 185.72 L258.83 178.71 L259.13 178.88 L259.13 179.23 Z" stroke="rgb(255, 0, 0)" stroke-width="0" fill-rule="evenodd" stroke-linejoin="miter" fill="rgb(255, 0, 0)" shape-rendering="geometricPrecision" /></g><g id="Solid"><path d="M259.13 179.23 L259.13 179.23 L259.13 178.88 L259.43 178.71 L271.6 185.72 L271.6 186.07 L271.3 186.24 Z" stroke="rgb(255, 0, 0)" stroke-width="0" fill-rule="evenodd" stroke-linejoin="miter" fill="rgb(255, 0, 0)" shape-rendering="geometricPrecision" /></g><g id="Solid"><path d="M271.9 186.24 L271.9 186.24 L271.6 186.07 L271.6 185.72 L284.07 178.53 L284.07 178.88 L284.07 179.23 Z" stroke="rgb(255, 0, 0)" stroke-width="0" fill-rule="evenodd" stroke-linejoin="miter" fill="rgb(255, 0, 0)" shape-rendering="geometricPrecision" /></g><g id="Solid"><path d="M284.07 179.23 L284.07 179.23 L284.07 178.88 L284.07 178.53 L296.55 185.72 L296.55 186.07 L296.25 186.24 Z" stroke="rgb(255, 0, 0)" stroke-width="0" fill-rule="evenodd" stroke-linejoin="miter" fill="rgb(255, 0, 0)" shape-rendering="geometricPrecision" /></g><g id="Solid"><path d="M296.85 186.24 L296.85 186.24 L296.55 186.07 L296.55 185.72 L308.87 178.62 L309.02 178.88 L309.17 179.14 Z" stroke="rgb(255, 0, 0)" stroke-width="0" fill-rule="evenodd" stroke-linejoin="miter" fill="rgb(255, 0, 0)" shape-rendering="geometricPrecision" /></g><g><text xml:space="preserve" text-anchor="start" text-rendering="geometricPrecision"><tspan x="218.4" y="204.37" font-family="Arial" font-size="10" fill="rgb(255, 0, 0)">X</tspan></text></g><g id="Solid"><path d="M221.42 186.24 L221.42 186.24 L221.72 186.07 L222.02 186.24 L222.02 195.7 L221.72 195.7 L221.42 195.7 Z" stroke="rgb(255, 0, 0)" stroke-width="0" fill-rule="evenodd" stroke-linejoin="miter" fill="rgb(255, 0, 0)" shape-rendering="geometricPrecision" /></g><g><text xml:space="preserve" text-anchor="start" text-rendering="geometricPrecision"><tspan x="243.34" y="204.37" font-family="Arial" font-size="10" fill="rgb(255, 0, 0)">X</tspan></text></g><g id="Solid"><path d="M246.36 186.24 L246.36 186.24 L246.66 186.07 L246.96 186.24 L246.96 195.7 L246.66 195.7 L246.36 195.7 Z" stroke="rgb(255, 0, 0)" stroke-width="0" fill-rule="evenodd" stroke-linejoin="miter" fill="rgb(255, 0, 0)" shape-rendering="geometricPrecision" /></g><g><text xml:space="preserve" text-anchor="start" text-rendering="geometricPrecision"><tspan x="268.28" y="204.37" font-family="Arial" font-size="10" fill="rgb(255, 0, 0)">X</tspan></text></g><g id="Solid"><path d="M271.3 186.24 L271.3 186.24 L271.6 186.07 L271.9 186.24 L271.9 195.7 L271.6 195.7 L271.3 195.7 Z" stroke="rgb(255, 0, 0)" stroke-width="0" fill-rule="evenodd" stroke-linejoin="miter" fill="rgb(255, 0, 0)" shape-rendering="geometricPrecision" /></g><g><text xml:space="preserve" text-anchor="start" text-rendering="geometricPrecision"><tspan x="293.22" y="204.37" font-family="Arial" font-size="10" fill="rgb(255, 0, 0)">X</tspan></text></g><g id="Solid"><path d="M296.25 186.24 L296.25 186.24 L296.55 186.07 L296.85 186.24 L296.85 195.7 L296.55 195.7 L296.25 195.7 Z" stroke="rgb(255, 0, 0)" stroke-width="0" fill-rule="evenodd" stroke-linejoin="miter" fill="rgb(255, 0, 0)" shape-rendering="geometricPrecision" /></g><g id="Solid"><path d="M259.43 178.71 L259.43 178.71 L259.13 178.88 L258.83 178.71 L258.83 164.31 L259.13 164.48 L259.43 164.65 Z" stroke="rgb(255, 0, 0)" stroke-width="0" fill-rule="evenodd" stroke-linejoin="miter" fill="rgb(255, 0, 0)" shape-rendering="geometricPrecision" /></g><g id="Solid"><path d="M259.43 164.65 L259.43 164.65 L259.13 164.48 L258.83 164.31 L271.6 156.93 L271.6 157.28 L271.6 157.63 Z" stroke="rgb(255, 0, 0)" stroke-width="0" fill-rule="evenodd" stroke-linejoin="miter" fill="rgb(255, 0, 0)" shape-rendering="geometricPrecision" /></g><g><text xml:space="preserve" text-anchor="start" text-rendering="geometricPrecision"><tspan x="280.75" y="168.38" font-family="Arial" font-size="10" fill="rgb(255, 0, 0)">X</tspan></text></g><g id="Solid"><path d="M271.6 157.63 L271.6 157.63 L271.6 157.28 L271.6 156.93 L279.56 161.53 L279.41 161.79 L279.26 162.05 Z" stroke="rgb(255, 0, 0)" stroke-width="0" fill-rule="evenodd" stroke-linejoin="miter" fill="rgb(255, 0, 0)" shape-rendering="geometricPrecision" /></g><circle cx="271.58" cy="154.5" r="0.833333333333333" stroke="rgb(255, 0, 0)" stroke-width="0" fill="rgb(255, 0, 0)" /><g id="Solid"><path d="M401.85 179.51 L401.85 179.51 L402 179.25 L402.15 178.99 L414.47 186.1 L414.47 186.45 L414.17 186.62 Z" stroke="rgb(255, 0, 0)" stroke-width="0" fill-rule="evenodd" stroke-linejoin="miter" fill="rgb(255, 0, 0)" shape-rendering="geometricPrecision" /></g><g id="Solid"><path d="M414.77 186.62 L414.77 186.62 L414.47 186.45 L414.47 186.1 L426.94 178.9 L426.94 179.25 L426.94 179.6 Z" stroke="rgb(255, 0, 0)" stroke-width="0" fill-rule="evenodd" stroke-linejoin="miter" fill="rgb(255, 0, 0)" shape-rendering="geometricPrecision" /></g><g id="Solid"><path d="M426.94 179.6 L426.94 179.6 L426.94 179.25 L426.94 178.9 L439.41 186.1 L439.41 186.45 L439.11 186.62 Z" stroke="rgb(255, 0, 0)" stroke-width="0" fill-rule="evenodd" stroke-linejoin="miter" fill="rgb(255, 0, 0)" shape-rendering="geometricPrecision" /></g><g id="Solid"><path d="M439.71 186.62 L439.71 186.62 L439.41 186.45 L439.41 186.1 L451.58 179.08 L451.88 179.25 L451.88 179.6 Z" stroke="rgb(255, 0, 0)" stroke-width="0" fill-rule="evenodd" stroke-linejoin="miter" fill="rgb(255, 0, 0)" shape-rendering="geometricPrecision" /></g><g id="Solid"><path d="M451.88 179.6 L451.88 179.6 L451.88 179.25 L452.18 179.08 L464.35 186.1 L464.35 186.45 L464.05 186.62 Z" stroke="rgb(255, 0, 0)" stroke-width="0" fill-rule="evenodd" stroke-linejoin="miter" fill="rgb(255, 0, 0)" shape-rendering="geometricPrecision" /></g><g id="Solid"><path d="M464.65 186.62 L464.65 186.62 L464.35 186.45 L464.35 186.1 L476.82 178.9 L476.82 179.25 L476.82 179.6 Z" stroke="rgb(255, 0, 0)" stroke-width="0" fill-rule="evenodd" stroke-linejoin="miter" fill="rgb(255, 0, 0)" shape-rendering="geometricPrecision" /></g><g id="Solid"><path d="M476.82 179.6 L476.82 179.6 L476.82 179.25 L476.82 178.9 L489.3 186.1 L489.3 186.45 L489 186.62 Z" stroke="rgb(255, 0, 0)" stroke-width="0" fill-rule="evenodd" stroke-linejoin="miter" fill="rgb(255, 0, 0)" shape-rendering="geometricPrecision" /></g><g id="Solid"><path d="M489.6 186.62 L489.6 186.62 L489.3 186.45 L489.3 186.1 L501.62 178.99 L501.77 179.25 L501.92 179.51 Z" stroke="rgb(255, 0, 0)" stroke-width="0" fill-rule="evenodd" stroke-linejoin="miter" fill="rgb(255, 0, 0)" shape-rendering="geometricPrecision" /></g><g><text xml:space="preserve" text-anchor="start" text-rendering="geometricPrecision"><tspan x="411.15" y="204.75" font-family="Arial" font-size="10" fill="rgb(255, 0, 0)">X</tspan></text></g><g id="Solid"><path d="M414.17 186.62 L414.17 186.62 L414.47 186.45 L414.77 186.62 L414.77 196 L414.47 196 L414.17 196 Z" stroke="rgb(255, 0, 0)" stroke-width="0" fill-rule="evenodd" stroke-linejoin="miter" fill="rgb(255, 0, 0)" shape-rendering="geometricPrecision" /></g><g><text xml:space="preserve" text-anchor="start" text-rendering="geometricPrecision"><tspan x="436.09" y="204.75" font-family="Arial" font-size="10" fill="rgb(255, 0, 0)">X</tspan></text></g><g id="Solid"><path d="M439.11 186.62 L439.11 186.62 L439.41 186.45 L439.71 186.62 L439.71 196 L439.41 196 L439.11 196 Z" stroke="rgb(255, 0, 0)" stroke-width="0" fill-rule="evenodd" stroke-linejoin="miter" fill="rgb(255, 0, 0)" shape-rendering="geometricPrecision" /></g><g><text xml:space="preserve" text-anchor="start" text-rendering="geometricPrecision"><tspan x="461.03" y="204.75" font-family="Arial" font-size="10" fill="rgb(255, 0, 0)">X</tspan></text></g><g id="Solid"><path d="M464.05 186.62 L464.05 186.62 L464.35 186.45 L464.65 186.62 L464.65 196 L464.35 196 L464.05 196 Z" stroke="rgb(255, 0, 0)" stroke-width="0" fill-rule="evenodd" stroke-linejoin="miter" fill="rgb(255, 0, 0)" shape-rendering="geometricPrecision" /></g><g><text xml:space="preserve" text-anchor="start" text-rendering="geometricPrecision"><tspan x="485.97" y="204.75" font-family="Arial" font-size="10" fill="rgb(255, 0, 0)">X</tspan></text></g><g id="Solid"><path d="M489 186.62 L489 186.62 L489.3 186.45 L489.6 186.62 L489.6 196 L489.3 196 L489 196 Z" stroke="rgb(255, 0, 0)" stroke-width="0" fill-rule="evenodd" stroke-linejoin="miter" fill="rgb(255, 0, 0)" shape-rendering="geometricPrecision" /></g><g id="Solid"><path d="M452.18 179.08 L452.18 179.08 L451.88 179.25 L451.58 179.08 L451.58 164.68 L451.88 164.85 L452.18 165.02 Z" stroke="rgb(255, 0, 0)" stroke-width="0" fill-rule="evenodd" stroke-linejoin="miter" fill="rgb(255, 0, 0)" shape-rendering="geometricPrecision" /></g><g id="Solid"><path d="M452.18 165.02 L452.18 165.02 L451.88 164.85 L451.58 164.68 L464.05 157.48 L464.35 157.65 L464.35 158 Z" stroke="rgb(255, 0, 0)" stroke-width="0" fill-rule="evenodd" stroke-linejoin="miter" fill="rgb(255, 0, 0)" shape-rendering="geometricPrecision" /></g><g><text xml:space="preserve" text-anchor="start" text-rendering="geometricPrecision"><tspan x="473.5" y="168.75" font-family="Arial" font-size="10" fill="rgb(255, 0, 0)">X</tspan></text></g><g id="Solid"><path d="M464.35 158 L464.35 158 L464.35 157.65 L464.65 157.48 L474.16 162.97 L474.01 163.23 L473.86 163.49 Z" stroke="rgb(255, 0, 0)" stroke-width="0" fill-rule="evenodd" stroke-linejoin="miter" fill="rgb(255, 0, 0)" shape-rendering="geometricPrecision" /></g><g id="Solid"><path d="M464.65 157.48 L464.65 157.48 L464.35 157.65 L464.05 157.48 L464.05 143.08 L464.35 143.25 L464.65 143.42 Z" stroke="rgb(255, 0, 0)" stroke-width="0" fill-rule="evenodd" stroke-linejoin="miter" fill="rgb(255, 0, 0)" shape-rendering="geometricPrecision" /></g><g id="Solid"><path d="M464.65 143.42 L464.65 143.42 L464.35 143.25 L464.05 143.08 L476.82 135.7 L476.82 136.05 L476.82 136.4 Z" stroke="rgb(255, 0, 0)" stroke-width="0" fill-rule="evenodd" stroke-linejoin="miter" fill="rgb(255, 0, 0)" shape-rendering="geometricPrecision" /></g><g><text xml:space="preserve" text-anchor="start" text-rendering="geometricPrecision"><tspan x="485.97" y="147.15" font-family="Arial" font-size="10" fill="rgb(255, 0, 0)">X</tspan></text></g><g id="Solid"><path d="M476.82 136.4 L476.82 136.4 L476.82 136.05 L476.82 135.7 L486.66 141.38 L486.51 141.64 L486.36 141.9 Z" stroke="rgb(255, 0, 0)" stroke-width="0" fill-rule="evenodd" stroke-linejoin="miter" fill="rgb(255, 0, 0)" shape-rendering="geometricPrecision" /></g><g id="Bracket"><path d="M456.32 148.2 A15.7504539617117,15.7504539617117 0 0,1 469.84 156.28 " stroke="rgb(255, 0, 0)" stroke-width="0.6" fill-rule="evenodd" stroke-linejoin="miter" fill="none" shape-rendering="geometricPrecision" /></g><g id="Bracket"><path d="M459.05 174.3 A15.7418709180326,15.7418709180326 0 0,1 445.54 166.22 " stroke="rgb(255, 0, 0)" stroke-width="0.6" fill-rule="evenodd" stroke-linejoin="miter" fill="none" shape-rendering="geometricPrecision" /></g><circle cx="476.8" cy="133.28" r="0.833333333333333" stroke="rgb(255, 0, 0)" stroke-width="0" fill="rgb(255, 0, 0)" /><g id="Arrow"><line x1="184.94" y1="183.38" x2="148.69" y2="183.38" stroke="rgb(255, 0, 0)" stroke-width="0.6" shape-rendering="auto" /><path d="M189.19 183.38 L183.19 181.88 C184.38 182.72 184.38 184.04 183.19 184.88 Z" stroke="rgb(255, 0, 0)" stroke-width="0" fill-rule="evenodd" stroke-linejoin="miter" stroke-miterlimit="6.93525005514877" fill="rgb(255, 0, 0)" shape-rendering="geometricPrecision" /></g><g id="Arrow"><line x1="368.76" y1="176.63" x2="336.56" y2="176.63" stroke="rgb(255, 0, 0)" stroke-width="0.6" shape-rendering="auto" /><path d="M373.01 176.63 L367.01 175.13 C368.2 175.97 368.2 177.29 367.01 178.13 Z" stroke="rgb(255, 0, 0)" stroke-width="0" fill-rule="evenodd" stroke-linejoin="miter" stroke-miterlimit="6.93525005514877" fill="rgb(255, 0, 0)" shape-rendering="geometricPrecision" /></g><g id="Arrow"><line x1="372.51" y1="180.38" x2="340.31" y2="180.38" stroke="rgb(255, 0, 0)" stroke-width="0.6" shape-rendering="auto" /><path d="M376.76 180.38 L370.76 178.88 C371.95 179.72 371.95 181.04 370.76 181.88 Z" stroke="rgb(255, 0, 0)" stroke-width="0" fill-rule="evenodd" stroke-linejoin="miter" stroke-miterlimit="6.93525005514877" fill="rgb(255, 0, 0)" shape-rendering="geometricPrecision" /></g><g id="Arrow"><line x1="376.26" y1="184.13" x2="344.06" y2="184.13" stroke="rgb(255, 0, 0)" stroke-width="0.6" shape-rendering="auto" /><path d="M380.51 184.13 L374.51 182.63 C375.7 183.47 375.7 184.79 374.51 185.63 Z" stroke="rgb(255, 0, 0)" stroke-width="0" fill-rule="evenodd" stroke-linejoin="miter" stroke-miterlimit="6.93525005514877" fill="rgb(255, 0, 0)" shape-rendering="geometricPrecision" /></g><g id="Arrow"><path d="M98.92 134.74 C98.44 131.81 95.68 129.83 92.76 130.3 C89.83 130.78 87.85 133.54 88.32 136.46 C88.58 138.03 89.56 139.46 90.94 140.25 " stroke="rgb(255, 0, 0)" stroke-width="0.6" fill-rule="evenodd" stroke-linejoin="bevel" fill="none" shape-rendering="geometricPrecision" /><path d="M98.27 138.28 L100.04 133.66 C99.24 134.61 98.2 134.48 97.66 133.37 Z" stroke="rgb(255, 0, 0)" stroke-width="0" fill-rule="evenodd" stroke-linejoin="miter" stroke-miterlimit="6.93525005514874" fill="rgb(255, 0, 0)" shape-rendering="geometricPrecision" /></g><g id="Arrow"><path d="M68.71 159.52 C64.26 160.33 61.31 164.61 62.13 169.06 C62.68 172.1 65.08 174.7 68.07 175.5 " stroke="rgb(255, 0, 0)" stroke-width="0.6" fill-rule="evenodd" stroke-linejoin="bevel" fill="none" shape-rendering="geometricPrecision" /><path d="M72.31 159.66 L67.51 158.45 C68.55 159.13 68.55 160.18 67.51 160.85 Z" stroke="rgb(255, 0, 0)" stroke-width="0" fill-rule="evenodd" stroke-linejoin="miter" stroke-miterlimit="6.935250055149" fill="rgb(255, 0, 0)" shape-rendering="geometricPrecision" /></g><g id="Arrow"><path d="M86.44 143.62 C82.92 140.1 77.2 140.1 73.68 143.62 C71.19 146.11 70.37 150.11 71.69 153.38 " stroke="rgb(255, 0, 0)" stroke-width="0.6" fill-rule="evenodd" stroke-linejoin="bevel" fill="none" shape-rendering="geometricPrecision" /><path d="M73.68 156.38 L72.19 151.66 C72.16 152.9 71.26 153.45 70.15 152.92 Z" stroke="rgb(255, 0, 0)" stroke-width="0" fill-rule="evenodd" stroke-linejoin="miter" stroke-miterlimit="6.93525005514897" fill="rgb(255, 0, 0)" shape-rendering="geometricPrecision" /></g><g id="Solid"><path d="M115.61 318.95 L115.61 318.95 L115.31 318.75 L115.61 318.3 L132.98 311.23 L132.98 311.55 L132.98 311.87 Z" stroke="rgb(255, 0, 0)" stroke-width="0" fill-rule="evenodd" stroke-linejoin="miter" fill="rgb(255, 0, 0)" shape-rendering="geometricPrecision" /></g><g id="Solid"><path d="M132.98 311.87 L132.98 311.87 L132.98 311.55 L132.98 311.23 L150.35 318.3 L150.65 318.75 L150.35 318.95 Z" stroke="rgb(255, 0, 0)" stroke-width="0" fill-rule="evenodd" stroke-linejoin="miter" fill="rgb(255, 0, 0)" shape-rendering="geometricPrecision" /></g><g id="Solid"><path d="M150.95 318.95 L150.95 318.95 L150.65 318.75 L150.95 318.3 L168.33 311.23 L168.33 311.55 L168.33 311.87 Z" stroke="rgb(255, 0, 0)" stroke-width="0" fill-rule="evenodd" stroke-linejoin="miter" fill="rgb(255, 0, 0)" shape-rendering="geometricPrecision" /></g><g id="Solid"><path d="M150.35 318.95 L150.35 318.95 L150.65 318.75 L150.95 318.95 L150.95 333.32 L150.65 333.15 L150.35 332.98 Z" stroke="rgb(255, 0, 0)" stroke-width="0" fill-rule="evenodd" stroke-linejoin="miter" fill="rgb(255, 0, 0)" shape-rendering="geometricPrecision" /></g><g id="Solid"><path d="M168.33 311.87 L168.33 311.87 L168.33 311.55 L168.33 311.23 L185.7 318.3 L186 318.75 L185.7 318.95 Z" stroke="rgb(255, 0, 0)" stroke-width="0" fill-rule="evenodd" stroke-linejoin="miter" fill="rgb(255, 0, 0)" shape-rendering="geometricPrecision" /></g><g id="Solid"><path d="M185.7 318.95 L185.7 318.95 L186 318.75 L186.3 319.05 L186.3 333.32 L186 333.15 L185.7 332.98 Z" stroke="rgb(255, 0, 0)" stroke-width="0" fill-rule="evenodd" stroke-linejoin="miter" fill="rgb(255, 0, 0)" shape-rendering="geometricPrecision" /></g><g id="Solid"><path d="M150.95 318.3 L150.95 318.3 L150.65 318.75 L150.35 318.3 L150.35 304.35 L150.65 304.35 L150.95 304.35 Z" stroke="rgb(255, 0, 0)" stroke-width="0" fill-rule="evenodd" stroke-linejoin="miter" fill="rgb(255, 0, 0)" shape-rendering="geometricPrecision" /></g><g id="Solid"><path d="M186.3 318.45 L186.3 318.45 L186 318.75 L185.7 318.3 L185.7 304.35 L186 304.35 L186.3 304.35 Z" stroke="rgb(255, 0, 0)" stroke-width="0" fill-rule="evenodd" stroke-linejoin="miter" fill="rgb(255, 0, 0)" shape-rendering="geometricPrecision" /></g><g id="Solid"><path d="M115.01 318.92 L115.01 318.92 L115.31 318.75 L115.61 318.95 L115.61 333.15 L115.31 333.15 L115.01 333.15 Z" stroke="rgb(255, 0, 0)" stroke-width="0" fill-rule="evenodd" stroke-linejoin="miter" fill="rgb(255, 0, 0)" shape-rendering="geometricPrecision" /></g><g id="Solid"><path d="M115.01 318.23 L115.01 318.23 L115.31 318.75 L115.01 318.92 L107.34 314.49 L107.49 314.23 L107.64 313.97 Z" stroke="rgb(255, 0, 0)" stroke-width="0" fill-rule="evenodd" stroke-linejoin="miter" fill="rgb(255, 0, 0)" shape-rendering="geometricPrecision" /></g><g><text xml:space="preserve" text-anchor="end" text-rendering="geometricPrecision"><tspan x="106.44" y="315.45" font-family="Arial" font-size="10" fill="rgb(255, 0, 0)">NC</tspan></text></g><g id="Solid"><path d="M115.61 318.3 L115.61 318.3 L115.31 318.75 L115.01 318.23 L115.01 304.35 L115.31 304.35 L115.61 304.35 Z" stroke="rgb(255, 0, 0)" stroke-width="0" fill-rule="evenodd" stroke-linejoin="miter" fill="rgb(255, 0, 0)" shape-rendering="geometricPrecision" /></g><g><text xml:space="preserve" text-anchor="start" text-rendering="geometricPrecision"><tspan x="134.28" y="344.25" font-family="Arial" font-size="10" fill="rgb(255, 0, 0)">O</tspan></text></g><g id="Solid"><path d="M150.35 332.98 L150.35 332.98 L150.65 333.15 L150.95 333.32 L142.84 338.01 L142.69 337.75 L142.54 337.49 Z" stroke="rgb(255, 0, 0)" stroke-width="0" fill-rule="evenodd" stroke-linejoin="miter" fill="rgb(255, 0, 0)" shape-rendering="geometricPrecision" /></g><g id="Solid"><line x1="151.3" y1="332.03" x2="159.06" y2="336.51" stroke="rgb(255, 0, 0)" stroke-width="0.6" shape-rendering="auto" /><path d="M149.95 333.9 L149.95 333.9 L149.35 334.25 L157.62 339.01 L157.92 338.49 Z" stroke="rgb(255, 0, 0)" stroke-width="0" fill-rule="evenodd" stroke-linejoin="miter" fill="rgb(255, 0, 0)" shape-rendering="geometricPrecision" /><path d="M150.95 331.48 L150.95 331.48 L150.95 332.17 L158.91 336.77 L159.21 336.25 Z" stroke="rgb(255, 0, 0)" stroke-width="0" fill-rule="evenodd" stroke-linejoin="miter" fill="rgb(255, 0, 0)" shape-rendering="geometricPrecision" /></g><g><text xml:space="preserve" text-anchor="start" text-rendering="geometricPrecision"><tspan x="159.23" y="344.25" font-family="Arial" font-size="10" fill="rgb(255, 0, 0)">O</tspan></text></g><g id="Solid"><path d="M185.7 332.98 L185.7 332.98 L186 333.15 L186.3 333.32 L178.24 337.98 L178.09 337.72 L177.94 337.46 Z" stroke="rgb(255, 0, 0)" stroke-width="0" fill-rule="evenodd" stroke-linejoin="miter" fill="rgb(255, 0, 0)" shape-rendering="geometricPrecision" /></g><g><text xml:space="preserve" text-anchor="start" text-rendering="geometricPrecision"><tspan x="169.63" y="344.25" font-family="Arial" font-size="10" fill="rgb(255, 0, 0)">O</tspan></text></g><g id="Solid"><line x1="186.65" y1="332.03" x2="194.36" y2="336.48" stroke="rgb(255, 0, 0)" stroke-width="0.6" shape-rendering="auto" /><path d="M185.3 333.9 L185.3 333.9 L184.7 334.24 L192.92 338.99 L193.22 338.47 Z" stroke="rgb(255, 0, 0)" stroke-width="0" fill-rule="evenodd" stroke-linejoin="miter" fill="rgb(255, 0, 0)" shape-rendering="geometricPrecision" /><path d="M186.3 331.48 L186.3 331.48 L186.3 332.17 L194.21 336.74 L194.51 336.22 Z" stroke="rgb(255, 0, 0)" stroke-width="0" fill-rule="evenodd" stroke-linejoin="miter" fill="rgb(255, 0, 0)" shape-rendering="geometricPrecision" /></g><g><text xml:space="preserve" text-anchor="start" text-rendering="geometricPrecision"><tspan x="194.57" y="344.25" font-family="Arial" font-size="10" fill="rgb(255, 0, 0)">O</tspan></text></g><g id="Solid"><path d="M173.23 346 L173.23 346 L173.53 346 L173.83 346 L173.83 354.75 L173.53 354.75 L173.23 354.75 Z" stroke="rgb(255, 0, 0)" stroke-width="0" fill-rule="evenodd" stroke-linejoin="miter" fill="rgb(255, 0, 0)" shape-rendering="geometricPrecision" /></g><g id="Solid"><path d="M137.88 346 L137.88 346 L138.18 346 L138.48 346 L138.48 354.75 L138.18 354.75 L137.88 354.75 Z" stroke="rgb(255, 0, 0)" stroke-width="0" fill-rule="evenodd" stroke-linejoin="miter" fill="rgb(255, 0, 0)" shape-rendering="geometricPrecision" /></g><g id="Bracket"><path d="M156.94 306.38 A15.75,15.75 0 0,1 156.94 322.13 " stroke="rgb(255, 0, 0)" stroke-width="0.6" fill-rule="evenodd" stroke-linejoin="miter" fill="none" shape-rendering="geometricPrecision" /></g><g id="Bracket"><path d="M125.81 322.13 A15.75,15.75 0 0,1 125.81 306.38 " stroke="rgb(255, 0, 0)" stroke-width="0.6" fill-rule="evenodd" stroke-linejoin="miter" fill="none" shape-rendering="geometricPrecision" /></g><g><text xml:space="preserve" text-anchor="start" text-rendering="geometricPrecision"><tspan x="159.56" y="327" font-family="Arial" font-size="10" fill="rgb(255, 0, 0)">n</tspan></text></g><g id="Solid"><path d="M295.75 318.3 L295.75 318.3 L296.05 318.75 L295.75 318.95 L278.38 311.87 L278.38 311.55 L278.38 311.23 Z" stroke="rgb(255, 0, 0)" stroke-width="0" fill-rule="evenodd" stroke-linejoin="miter" fill="rgb(255, 0, 0)" shape-rendering="geometricPrecision" /></g><g id="Solid"><path d="M278.38 311.23 L278.38 311.23 L278.38 311.55 L278.38 311.87 L261.01 318.95 L260.71 318.75 L261.01 318.3 Z" stroke="rgb(255, 0, 0)" stroke-width="0" fill-rule="evenodd" stroke-linejoin="miter" fill="rgb(255, 0, 0)" shape-rendering="geometricPrecision" /></g><g id="Solid"><path d="M260.41 318.3 L260.41 318.3 L260.71 318.75 L260.41 318.95 L243.04 311.87 L243.04 311.55 L243.04 311.23 Z" stroke="rgb(255, 0, 0)" stroke-width="0" fill-rule="evenodd" stroke-linejoin="miter" fill="rgb(255, 0, 0)" shape-rendering="geometricPrecision" /></g><g id="Solid"><path d="M260.41 318.95 L260.41 318.95 L260.71 318.75 L261.01 318.95 L261.01 332.98 L260.71 333.15 L260.41 333.32 Z" stroke="rgb(255, 0, 0)" stroke-width="0" fill-rule="evenodd" stroke-linejoin="miter" fill="rgb(255, 0, 0)" shape-rendering="geometricPrecision" /></g><g id="Solid"><path d="M243.04 311.23 L243.04 311.23 L243.04 311.55 L243.04 311.87 L225.67 318.95 L225.37 318.75 L225.67 318.3 Z" stroke="rgb(255, 0, 0)" stroke-width="0" fill-rule="evenodd" stroke-linejoin="miter" fill="rgb(255, 0, 0)" shape-rendering="geometricPrecision" /></g><g id="Solid"><path d="M225.07 319.05 L225.07 319.05 L225.37 318.75 L225.67 318.95 L225.67 332.98 L225.37 333.15 L225.07 333.32 Z" stroke="rgb(255, 0, 0)" stroke-width="0" fill-rule="evenodd" stroke-linejoin="miter" fill="rgb(255, 0, 0)" shape-rendering="geometricPrecision" /></g><g id="Solid"><path d="M261.01 318.3 L261.01 318.3 L260.71 318.75 L260.41 318.3 L260.41 304.35 L260.71 304.35 L261.01 304.35 Z" stroke="rgb(255, 0, 0)" stroke-width="0" fill-rule="evenodd" stroke-linejoin="miter" fill="rgb(255, 0, 0)" shape-rendering="geometricPrecision" /></g><g id="Solid"><path d="M225.67 318.3 L225.67 318.3 L225.37 318.75 L225.07 318.45 L225.07 304.35 L225.37 304.35 L225.67 304.35 Z" stroke="rgb(255, 0, 0)" stroke-width="0" fill-rule="evenodd" stroke-linejoin="miter" fill="rgb(255, 0, 0)" shape-rendering="geometricPrecision" /></g><g id="Solid"><path d="M295.75 318.95 L295.75 318.95 L296.05 318.75 L296.35 318.92 L296.35 333.15 L296.05 333.15 L295.75 333.15 Z" stroke="rgb(255, 0, 0)" stroke-width="0" fill-rule="evenodd" stroke-linejoin="miter" fill="rgb(255, 0, 0)" shape-rendering="geometricPrecision" /></g><g id="Solid"><path d="M296.35 318.92 L296.35 318.92 L296.05 318.75 L296.35 318.23 L304.06 313.78 L304.21 314.04 L304.36 314.3 Z" stroke="rgb(255, 0, 0)" stroke-width="0" fill-rule="evenodd" stroke-linejoin="miter" fill="rgb(255, 0, 0)" shape-rendering="geometricPrecision" /></g><g><text xml:space="preserve" text-anchor="start" text-rendering="geometricPrecision"><tspan x="304.92" y="315.45" font-family="Arial" font-size="10" fill="rgb(255, 0, 0)">CN</tspan></text></g><g id="Solid"><path d="M296.35 318.23 L296.35 318.23 L296.05 318.75 L295.75 318.3 L295.75 304.35 L296.05 304.35 L296.35 304.35 Z" stroke="rgb(255, 0, 0)" stroke-width="0" fill-rule="evenodd" stroke-linejoin="miter" fill="rgb(255, 0, 0)" shape-rendering="geometricPrecision" /></g><g id="Solid"><path d="M260.41 333.32 L260.41 333.32 L260.71 333.15 L261.01 332.98 L268.96 337.57 L268.81 337.83 L268.66 338.09 Z" stroke="rgb(255, 0, 0)" stroke-width="0" fill-rule="evenodd" stroke-linejoin="miter" fill="rgb(255, 0, 0)" shape-rendering="geometricPrecision" /></g><g><text xml:space="preserve" text-anchor="start" text-rendering="geometricPrecision"><tspan x="269.28" y="344.25" font-family="Arial" font-size="10" fill="rgb(255, 0, 0)">O</tspan></text></g><g id="Solid"><line x1="261.36" y1="334.27" x2="253.73" y2="338.67" stroke="rgb(255, 0, 0)" stroke-width="0.6" shape-rendering="auto" /><path d="M260.41 332.17 L260.41 332.17 L260.41 331.48 L252.29 336.17 L252.59 336.69 Z" stroke="rgb(255, 0, 0)" stroke-width="0" fill-rule="evenodd" stroke-linejoin="miter" fill="rgb(255, 0, 0)" shape-rendering="geometricPrecision" /><path d="M262.01 334.24 L262.01 334.24 L261.41 333.9 L253.58 338.41 L253.88 338.93 Z" stroke="rgb(255, 0, 0)" stroke-width="0" fill-rule="evenodd" stroke-linejoin="miter" fill="rgb(255, 0, 0)" shape-rendering="geometricPrecision" /></g><g><text xml:space="preserve" text-anchor="start" text-rendering="geometricPrecision"><tspan x="244.34" y="344.25" font-family="Arial" font-size="10" fill="rgb(255, 0, 0)">O</tspan></text></g><g><text xml:space="preserve" text-anchor="start" text-rendering="geometricPrecision"><tspan x="233.94" y="344.25" font-family="Arial" font-size="10" fill="rgb(255, 0, 0)">O</tspan></text></g><g id="Solid"><path d="M225.07 333.32 L225.07 333.32 L225.37 333.15 L225.67 332.98 L233.56 337.53 L233.41 337.79 L233.26 338.05 Z" stroke="rgb(255, 0, 0)" stroke-width="0" fill-rule="evenodd" stroke-linejoin="miter" fill="rgb(255, 0, 0)" shape-rendering="geometricPrecision" /></g><g><text xml:space="preserve" text-anchor="start" text-rendering="geometricPrecision"><tspan x="209" y="344.25" font-family="Arial" font-size="10" fill="rgb(255, 0, 0)">O</tspan></text></g><g id="Solid"><line x1="226.02" y1="334.27" x2="218.43" y2="338.65" stroke="rgb(255, 0, 0)" stroke-width="0.6" shape-rendering="auto" /><path d="M225.07 332.17 L225.07 332.17 L225.07 331.48 L216.99 336.15 L217.29 336.67 Z" stroke="rgb(255, 0, 0)" stroke-width="0" fill-rule="evenodd" stroke-linejoin="miter" fill="rgb(255, 0, 0)" shape-rendering="geometricPrecision" /><path d="M226.67 334.24 L226.67 334.24 L226.07 333.9 L218.28 338.39 L218.58 338.91 Z" stroke="rgb(255, 0, 0)" stroke-width="0" fill-rule="evenodd" stroke-linejoin="miter" fill="rgb(255, 0, 0)" shape-rendering="geometricPrecision" /></g><g id="Solid"><path d="M237.54 346 L237.54 346 L237.84 346 L238.14 346 L238.14 354.75 L237.84 354.75 L237.54 354.75 Z" stroke="rgb(255, 0, 0)" stroke-width="0" fill-rule="evenodd" stroke-linejoin="miter" fill="rgb(255, 0, 0)" shape-rendering="geometricPrecision" /></g><g id="Solid"><path d="M272.88 346 L272.88 346 L273.18 346 L273.48 346 L273.48 354.75 L273.18 354.75 L272.88 354.75 Z" stroke="rgb(255, 0, 0)" stroke-width="0" fill-rule="evenodd" stroke-linejoin="miter" fill="rgb(255, 0, 0)" shape-rendering="geometricPrecision" /></g><g id="Bracket"><path d="M252.55 322.13 A15.75,15.75 0 0,1 252.55 306.38 " stroke="rgb(255, 0, 0)" stroke-width="0.6" fill-rule="evenodd" stroke-linejoin="miter" fill="none" shape-rendering="geometricPrecision" /></g><g id="Bracket"><path d="M281.8 306.38 A15.75,15.75 0 0,1 281.8 322.13 " stroke="rgb(255, 0, 0)" stroke-width="0.6" fill-rule="evenodd" stroke-linejoin="miter" fill="none" shape-rendering="geometricPrecision" /></g><g><text xml:space="preserve" text-anchor="end" text-rendering="geometricPrecision"><tspan x="291.93" y="328.13" font-family="Arial" font-size="10" fill="rgb(255, 0, 0)">m</tspan></text></g><g id="Solid"><path d="M186.3 319.05 L186.3 319.05 L186 318.75 L186.3 318.45 L225.07 318.45 L225.37 318.75 L225.07 319.05 Z" stroke="rgb(255, 0, 0)" stroke-width="0" fill-rule="evenodd" stroke-linejoin="miter" fill="rgb(255, 0, 0)" shape-rendering="geometricPrecision" /></g></g></g></svg>