<?xml version="1.0"?><svg xmlns="http://www.w3.org/2000/svg" xmlns:xlink="http://www.w3.org/1999/xlink" viewBox="40.5 32.48 804.3 614.13" preserveAspectRatio="xMidYMid" width="100%" height="100%"><clipPath id="643"><rect x="0.3" y="0.3" width="1079.4" height="719.4" /></clipPath><g id="drawing"><rect x="40.5" y="32.48" width="100%" height="100%" fill="rgb(255, 255, 255)" /><g id="page" clip-path="url(#643)"><g id="Solid"><path d="M116.48 160.98 L116.48 160.98 L116.63 160.72 L116.78 160.46 L129.4 167.75 L129.1 167.92 L128.8 168.09 Z" stroke="rgb(0, 0, 0)" stroke-width="0" fill-rule="evenodd" stroke-linejoin="miter" fill="rgb(0, 0, 0)" shape-rendering="geometricPrecision" /><line x1="115.33" y1="162.96" x2="126.51" y2="169.42" stroke="rgb(0, 0, 0)" stroke-width="0.6" shape-rendering="auto" /></g><g><text xml:space="preserve" text-anchor="start" text-rendering="geometricPrecision"><tspan x="125.77" y="186.22" font-family="Arial" font-size="10" fill="rgb(0, 0, 0)">X</tspan></text></g><g id="Solid"><path d="M128.8 168.09 L128.8 168.09 L129.1 167.92 L129.4 167.75 L129.4 177.5 L129.1 177.5 L128.8 177.5 Z" stroke="rgb(0, 0, 0)" stroke-width="0" fill-rule="evenodd" stroke-linejoin="miter" fill="rgb(0, 0, 0)" shape-rendering="geometricPrecision" /></g><g><text xml:space="preserve" text-anchor="start" text-rendering="geometricPrecision"><tspan x="220.17" y="171.86" font-family="Arial" font-size="10" fill="rgb(0, 0, 0)">P</tspan></text></g><g id="Solid"><path d="M227.94 165.75 L227.94 165.75 L227.79 165.49 L227.64 165.23 L235.97 160.41 L235.97 160.76 L235.97 161.11 Z" stroke="rgb(0, 0, 0)" stroke-width="0" fill-rule="evenodd" stroke-linejoin="miter" fill="rgb(0, 0, 0)" shape-rendering="geometricPrecision" /></g><g id="Solid"><path d="M235.97 161.11 L235.97 161.11 L235.97 160.76 L235.97 160.41 L248.74 167.79 L248.44 167.96 L248.14 168.13 Z" stroke="rgb(0, 0, 0)" stroke-width="0" fill-rule="evenodd" stroke-linejoin="miter" fill="rgb(0, 0, 0)" shape-rendering="geometricPrecision" /></g><g><text xml:space="preserve" text-anchor="start" text-rendering="geometricPrecision"><tspan x="245.12" y="186.26" font-family="Arial" font-size="10" fill="rgb(0, 0, 0)">X</tspan></text></g><g id="Solid"><path d="M248.14 168.13 L248.14 168.13 L248.44 167.96 L248.74 167.79 L248.74 177.5 L248.44 177.5 L248.14 177.5 Z" stroke="rgb(0, 0, 0)" stroke-width="0" fill-rule="evenodd" stroke-linejoin="miter" fill="rgb(0, 0, 0)" shape-rendering="geometricPrecision" /></g><g><text xml:space="preserve" text-anchor="start" text-rendering="geometricPrecision"><tspan x="71.57" y="176.82" font-family="Arial" font-size="10" fill="rgb(0, 0, 0)">P</tspan></text></g><g><text xml:space="preserve" text-anchor="start" text-rendering="geometricPrecision"><tspan x="94.13" y="176.54" font-family="Arial" font-size="10" fill="rgb(0, 0, 0)">+</tspan></text></g><g id="Arrow"><line x1="186.44" y1="173.52" x2="157.5" y2="173.52" stroke="rgb(0, 0, 0)" stroke-width="0.6" shape-rendering="auto" /><path d="M197.25 173.52 L183.75 170.14 C185.87 172.04 185.87 175 183.75 176.9 Z" stroke="rgb(0, 0, 0)" stroke-width="0" fill-rule="evenodd" stroke-linejoin="miter" stroke-miterlimit="6.92897103804176" fill="rgb(0, 0, 0)" shape-rendering="geometricPrecision" /></g><circle cx="79.63" cy="168.2" r="0.833333333333333" stroke="rgb(0, 0, 0)" stroke-width="0" fill="rgb(0, 0, 0)" /><circle cx="251.22" cy="167.99" r="0.833333333333333" stroke="rgb(0, 0, 0)" stroke-width="0" fill="rgb(0, 0, 0)" /><g id="Arrow"><path d="M95.39 156.06 C92.35 152.23 86.76 151.58 82.92 154.63 C80.22 156.77 78.98 160.55 79.87 163.88 " stroke="rgb(0, 0, 0)" stroke-width="0.6" fill-rule="evenodd" stroke-linejoin="bevel" fill="none" shape-rendering="geometricPrecision" /><path d="M96.75 159.42 L95.76 154.49 C95.51 155.81 94.73 155.74 94.73 155.74 Z" stroke="rgb(0, 0, 0)" stroke-width="0" fill-rule="evenodd" stroke-linejoin="miter" stroke-miterlimit="5.8864222926684" fill="rgb(0, 0, 0)" shape-rendering="geometricPrecision" /></g><g id="Arrow"><path d="M132.45 163.65 C132.73 160.73 130.58 158.12 127.65 157.83 C126.09 157.68 124.48 158.26 123.37 159.37 " stroke="rgb(0, 0, 0)" stroke-width="0.6" fill-rule="evenodd" stroke-linejoin="bevel" fill="none" shape-rendering="geometricPrecision" /><path d="M130.63 166.8 L133.81 162.9 C132.64 163.55 132.19 162.9 132.19 162.9 Z" stroke="rgb(0, 0, 0)" stroke-width="0" fill-rule="evenodd" stroke-linejoin="miter" stroke-miterlimit="5.88642229266862" fill="rgb(0, 0, 0)" shape-rendering="geometricPrecision" /></g><g id="Arrow"><path d="M119.77 158.2 C119.77 153.35 115.83 149.41 110.98 149.41 C107.58 149.41 104.29 151.56 102.93 154.68 " stroke="rgb(0, 0, 0)" stroke-width="0.6" fill-rule="evenodd" stroke-linejoin="bevel" fill="none" shape-rendering="geometricPrecision" /><path d="M102.48 158.27 L102.17 153.25 C102.74 154.46 103.48 154.19 103.48 154.19 Z" stroke="rgb(0, 0, 0)" stroke-width="0" fill-rule="evenodd" stroke-linejoin="miter" stroke-miterlimit="5.88642229266848" fill="rgb(0, 0, 0)" shape-rendering="geometricPrecision" /></g><g id="Solid"><path d="M119.85 45.48 L119.85 45.48 L120 45.22 L120.15 44.96 L132.77 52.25 L132.47 52.42 L132.17 52.59 Z" stroke="rgb(0, 0, 0)" stroke-width="0" fill-rule="evenodd" stroke-linejoin="miter" fill="rgb(0, 0, 0)" shape-rendering="geometricPrecision" /><line x1="118.7" y1="47.46" x2="129.88" y2="53.92" stroke="rgb(0, 0, 0)" stroke-width="0.6" shape-rendering="auto" /></g><g id="Solid"><path d="M132.17 52.59 L132.17 52.59 L132.47 52.42 L132.77 52.25 L132.77 62 L132.47 62 L132.17 62 Z" stroke="rgb(0, 0, 0)" stroke-width="0" fill-rule="evenodd" stroke-linejoin="miter" fill="rgb(0, 0, 0)" shape-rendering="geometricPrecision" /></g><g><text xml:space="preserve" text-anchor="start" text-rendering="geometricPrecision"><tspan x="129.15" y="70.72" font-family="Arial" font-size="10" fill="rgb(0, 0, 0)">X</tspan></text></g><g id="Solid"><path d="M262.05 52.63 L262.05 52.63 L261.75 52.46 L261.75 52.11 L274.22 44.91 L274.22 45.26 L274.22 45.61 Z" stroke="rgb(0, 0, 0)" stroke-width="0" fill-rule="evenodd" stroke-linejoin="miter" fill="rgb(0, 0, 0)" shape-rendering="geometricPrecision" /></g><g id="Solid"><path d="M274.22 45.61 L274.22 45.61 L274.22 45.26 L274.22 44.91 L286.99 52.29 L286.69 52.46 L286.39 52.63 Z" stroke="rgb(0, 0, 0)" stroke-width="0" fill-rule="evenodd" stroke-linejoin="miter" fill="rgb(0, 0, 0)" shape-rendering="geometricPrecision" /></g><g id="Solid"><path d="M286.39 52.63 L286.39 52.63 L286.69 52.46 L286.99 52.29 L286.99 62 L286.69 62 L286.39 62 Z" stroke="rgb(0, 0, 0)" stroke-width="0" fill-rule="evenodd" stroke-linejoin="miter" fill="rgb(0, 0, 0)" shape-rendering="geometricPrecision" /></g><g><text xml:space="preserve" text-anchor="start" text-rendering="geometricPrecision"><tspan x="283.37" y="70.76" font-family="Arial" font-size="10" fill="rgb(0, 0, 0)">X</tspan></text></g><g><text xml:space="preserve" text-anchor="start" text-rendering="geometricPrecision"><tspan x="97.5" y="61.04" font-family="Arial" font-size="10" fill="rgb(0, 0, 0)">+</tspan></text></g><g id="Arrow"><line x1="189.82" y1="58.02" x2="160.88" y2="58.02" stroke="rgb(0, 0, 0)" stroke-width="0.6" shape-rendering="auto" /><path d="M200.63 58.02 L187.13 54.64 C189.25 56.54 189.25 59.5 187.13 61.4 Z" stroke="rgb(0, 0, 0)" stroke-width="0" fill-rule="evenodd" stroke-linejoin="miter" stroke-miterlimit="6.92897103804184" fill="rgb(0, 0, 0)" shape-rendering="geometricPrecision" /></g><circle cx="289.47" cy="52.49" r="0.833333333333333" stroke="rgb(0, 0, 0)" stroke-width="0" fill="rgb(0, 0, 0)" /><g id="Arrow"><path d="M98.76 39.81 C95.72 35.98 90.14 35.34 86.31 38.38 C83.61 40.53 82.37 44.3 83.26 47.63 " stroke="rgb(0, 0, 0)" stroke-width="0.6" fill-rule="evenodd" stroke-linejoin="bevel" fill="none" shape-rendering="geometricPrecision" /><path d="M100.12 43.17 L99.13 38.24 C98.88 39.56 98.1 39.49 98.1 39.49 Z" stroke="rgb(0, 0, 0)" stroke-width="0" fill-rule="evenodd" stroke-linejoin="miter" stroke-miterlimit="5.89457784237493" fill="rgb(0, 0, 0)" shape-rendering="geometricPrecision" /></g><g id="Arrow"><path d="M135.83 47.4 C136.11 44.48 133.96 41.87 131.03 41.58 C129.47 41.43 127.86 42.01 126.75 43.12 " stroke="rgb(0, 0, 0)" stroke-width="0.6" fill-rule="evenodd" stroke-linejoin="bevel" fill="none" shape-rendering="geometricPrecision" /><path d="M134.01 50.55 L137.19 46.65 C136.02 47.3 135.57 46.65 135.57 46.65 Z" stroke="rgb(0, 0, 0)" stroke-width="0" fill-rule="evenodd" stroke-linejoin="miter" stroke-miterlimit="5.88642229266842" fill="rgb(0, 0, 0)" shape-rendering="geometricPrecision" /></g><g id="Arrow"><path d="M123.15 41.95 C123.15 37.09 119.21 33.15 114.36 33.15 C110.96 33.15 107.67 35.3 106.31 38.42 " stroke="rgb(0, 0, 0)" stroke-width="0.6" fill-rule="evenodd" stroke-linejoin="bevel" fill="none" shape-rendering="geometricPrecision" /><path d="M105.86 42.02 L105.55 37 C106.12 38.21 106.86 37.94 106.86 37.94 Z" stroke="rgb(0, 0, 0)" stroke-width="0" fill-rule="evenodd" stroke-linejoin="miter" stroke-miterlimit="5.89748360169011" fill="rgb(0, 0, 0)" shape-rendering="geometricPrecision" /></g><g id="Solid"><path d="M54.53 52.72 L54.53 52.72 L54.38 52.46 L54.23 52.2 L66.85 44.91 L66.85 45.26 L66.85 45.61 Z" stroke="rgb(0, 0, 0)" stroke-width="0" fill-rule="evenodd" stroke-linejoin="miter" fill="rgb(0, 0, 0)" shape-rendering="geometricPrecision" /></g><g id="Solid"><path d="M66.85 45.61 L66.85 45.61 L66.85 45.26 L66.85 44.91 L79.62 52.29 L79.32 52.46 L79.02 52.63 Z" stroke="rgb(0, 0, 0)" stroke-width="0" fill-rule="evenodd" stroke-linejoin="miter" fill="rgb(0, 0, 0)" shape-rendering="geometricPrecision" /></g><g><text xml:space="preserve" text-anchor="start" text-rendering="geometricPrecision"><tspan x="75.99" y="70.76" font-family="Arial" font-size="10" fill="rgb(0, 0, 0)">X</tspan></text></g><g id="Solid"><path d="M79.02 52.63 L79.02 52.63 L79.32 52.46 L79.62 52.29 L79.62 62 L79.32 62 L79.02 62 Z" stroke="rgb(0, 0, 0)" stroke-width="0" fill-rule="evenodd" stroke-linejoin="miter" fill="rgb(0, 0, 0)" shape-rendering="geometricPrecision" /></g><circle cx="82.09" cy="52.49" r="0.833333333333333" stroke="rgb(0, 0, 0)" stroke-width="0" fill="rgb(0, 0, 0)" /><g><text xml:space="preserve" text-anchor="start" text-rendering="geometricPrecision"><tspan x="258.42" y="70.76" font-family="Arial" font-size="10" fill="rgb(0, 0, 0)">X</tspan></text></g><g id="Solid"><path d="M261.45 52.63 L261.45 52.63 L261.75 52.46 L262.05 52.63 L262.05 62 L261.75 62 L261.45 62 Z" stroke="rgb(0, 0, 0)" stroke-width="0" fill-rule="evenodd" stroke-linejoin="miter" fill="rgb(0, 0, 0)" shape-rendering="geometricPrecision" /></g><g id="Solid"><path d="M261.75 52.11 L261.75 52.11 L261.75 52.46 L261.45 52.63 L249.28 45.61 L249.28 45.26 L249.28 44.91 Z" stroke="rgb(0, 0, 0)" stroke-width="0" fill-rule="evenodd" stroke-linejoin="miter" fill="rgb(0, 0, 0)" shape-rendering="geometricPrecision" /></g><g id="Solid"><path d="M249.28 44.91 L249.28 44.91 L249.28 45.26 L249.28 45.61 L236.96 52.72 L236.81 52.46 L236.66 52.2 Z" stroke="rgb(0, 0, 0)" stroke-width="0" fill-rule="evenodd" stroke-linejoin="miter" fill="rgb(0, 0, 0)" shape-rendering="geometricPrecision" /></g><g><text xml:space="preserve" text-anchor="start" text-rendering="geometricPrecision"><tspan x="109.13" y="98.25" font-family="Arial" font-size="10" fill="rgb(0, 0, 0)">monomer</tspan></text></g><g><text xml:space="preserve" text-anchor="start" text-rendering="geometricPrecision"><tspan x="40.5" y="98.25" font-family="Arial" font-size="10" fill="rgb(0, 0, 0)">active chain</tspan></text></g><g><text xml:space="preserve" text-anchor="start" text-rendering="geometricPrecision"><tspan x="236.25" y="98.25" font-family="Arial" font-size="10" fill="rgb(0, 0, 0)">active chain</tspan></text></g><g><text xml:space="preserve" text-anchor="start" text-rendering="geometricPrecision"><tspan x="114.38" y="206.25" font-family="Arial" font-size="10" fill="rgb(0, 0, 0)">monomer</tspan></text></g><g><text xml:space="preserve" text-anchor="start" text-rendering="geometricPrecision"><tspan x="45.75" y="206.25" font-family="Arial" font-size="10" fill="rgb(0, 0, 0)">active chain</tspan></text></g><g><text xml:space="preserve" text-anchor="start" text-rendering="geometricPrecision"><tspan x="207" y="206.25" font-family="Arial" font-size="10" fill="rgb(0, 0, 0)">active chain</tspan></text></g><g id="Solid"><path d="M90.6 282.48 L90.6 282.48 L90.75 282.22 L90.9 281.96 L103.52 289.25 L103.22 289.42 L102.92 289.59 Z" stroke="rgb(0, 0, 0)" stroke-width="0" fill-rule="evenodd" stroke-linejoin="miter" fill="rgb(0, 0, 0)" shape-rendering="geometricPrecision" /><line x1="89.45" y1="284.46" x2="100.63" y2="290.92" stroke="rgb(0, 0, 0)" stroke-width="0.6" shape-rendering="auto" /></g><g id="Solid"><path d="M102.92 289.59 L102.92 289.59 L103.22 289.42 L103.52 289.25 L103.52 303.65 L103.22 303.82 L102.92 303.65 Z" stroke="rgb(0, 0, 0)" stroke-width="0" fill-rule="evenodd" stroke-linejoin="miter" fill="rgb(0, 0, 0)" shape-rendering="geometricPrecision" /></g><g><text xml:space="preserve" text-anchor="start" text-rendering="geometricPrecision"><tspan x="45.7" y="298.32" font-family="Arial" font-size="10" fill="rgb(0, 0, 0)">P</tspan></text></g><g><text xml:space="preserve" text-anchor="start" text-rendering="geometricPrecision"><tspan x="68.25" y="298.04" font-family="Arial" font-size="10" fill="rgb(0, 0, 0)">+</tspan></text></g><g id="Arrow"><line x1="154.75" y1="295.02" x2="125.81" y2="295.02" stroke="rgb(0, 0, 0)" stroke-width="0.6" shape-rendering="auto" /><path d="M165.56 295.02 L152.06 291.64 C154.18 293.54 154.18 296.5 152.06 298.4 Z" stroke="rgb(0, 0, 0)" stroke-width="0" fill-rule="evenodd" stroke-linejoin="miter" stroke-miterlimit="6.92897103804184" fill="rgb(0, 0, 0)" shape-rendering="geometricPrecision" /></g><circle cx="53.75" cy="289.7" r="0.833333333333333" stroke="rgb(0, 0, 0)" stroke-width="0" fill="rgb(0, 0, 0)" /><g id="Arrow"><path d="M69.51 277.56 C66.47 273.73 60.89 273.09 57.06 276.13 C54.36 278.28 53.12 282.05 54.01 285.38 " stroke="rgb(0, 0, 0)" stroke-width="0.6" fill-rule="evenodd" stroke-linejoin="bevel" fill="none" shape-rendering="geometricPrecision" /><path d="M70.87 280.92 L69.88 275.99 C69.63 277.31 68.85 277.24 68.85 277.24 Z" stroke="rgb(0, 0, 0)" stroke-width="0" fill-rule="evenodd" stroke-linejoin="miter" stroke-miterlimit="5.89457784237499" fill="rgb(0, 0, 0)" shape-rendering="geometricPrecision" /></g><g id="Arrow"><path d="M106.58 285.15 C106.86 282.23 104.71 279.62 101.78 279.33 C100.22 279.18 98.61 279.76 97.5 280.87 " stroke="rgb(0, 0, 0)" stroke-width="0.6" fill-rule="evenodd" stroke-linejoin="bevel" fill="none" shape-rendering="geometricPrecision" /><path d="M104.76 288.3 L107.94 284.4 C106.77 285.05 106.32 284.4 106.32 284.4 Z" stroke="rgb(0, 0, 0)" stroke-width="0" fill-rule="evenodd" stroke-linejoin="miter" stroke-miterlimit="5.88642229266848" fill="rgb(0, 0, 0)" shape-rendering="geometricPrecision" /></g><g id="Arrow"><path d="M93.9 279.7 C93.9 274.84 89.96 270.9 85.11 270.9 C81.71 270.9 78.42 273.05 77.06 276.17 " stroke="rgb(0, 0, 0)" stroke-width="0.6" fill-rule="evenodd" stroke-linejoin="bevel" fill="none" shape-rendering="geometricPrecision" /><path d="M76.61 279.77 L76.3 274.75 C76.87 275.96 77.61 275.69 77.61 275.69 Z" stroke="rgb(0, 0, 0)" stroke-width="0" fill-rule="evenodd" stroke-linejoin="miter" stroke-miterlimit="5.89748360169007" fill="rgb(0, 0, 0)" shape-rendering="geometricPrecision" /></g><g id="Solid"><path d="M102.92 303.65 L102.92 303.65 L103.22 303.82 L103.22 304.17 L91.05 311.19 L90.75 311.02 L90.45 310.85 Z" stroke="rgb(0, 0, 0)" stroke-width="0" fill-rule="evenodd" stroke-linejoin="miter" fill="rgb(0, 0, 0)" shape-rendering="geometricPrecision" /><line x1="103.22" y1="306.81" x2="93.34" y2="312.52" stroke="rgb(0, 0, 0)" stroke-width="0.6" shape-rendering="auto" /></g><g id="Solid"><path d="M90.45 310.85 L90.45 310.85 L90.75 311.02 L91.05 311.19 L91.05 325.25 L90.75 325.42 L90.45 325.59 Z" stroke="rgb(0, 0, 0)" stroke-width="0" fill-rule="evenodd" stroke-linejoin="miter" fill="rgb(0, 0, 0)" shape-rendering="geometricPrecision" /></g><g id="Solid"><path d="M90.45 325.59 L90.45 325.59 L90.75 325.42 L91.05 325.25 L103.22 332.27 L103.22 332.62 L103.22 332.97 Z" stroke="rgb(0, 0, 0)" stroke-width="0" fill-rule="evenodd" stroke-linejoin="miter" fill="rgb(0, 0, 0)" shape-rendering="geometricPrecision" /><line x1="93.34" y1="323.92" x2="103.22" y2="329.63" stroke="rgb(0, 0, 0)" stroke-width="0.6" shape-rendering="auto" /></g><g id="Solid"><path d="M103.22 332.97 L103.22 332.97 L103.22 332.62 L103.22 332.27 L115.39 325.25 L115.69 325.42 L115.99 325.59 Z" stroke="rgb(0, 0, 0)" stroke-width="0" fill-rule="evenodd" stroke-linejoin="miter" fill="rgb(0, 0, 0)" shape-rendering="geometricPrecision" /></g><g id="Solid"><path d="M115.99 325.59 L115.99 325.59 L115.69 325.42 L115.39 325.25 L115.39 311.19 L115.69 311.02 L115.99 310.85 Z" stroke="rgb(0, 0, 0)" stroke-width="0" fill-rule="evenodd" stroke-linejoin="miter" fill="rgb(0, 0, 0)" shape-rendering="geometricPrecision" /><line x1="113.1" y1="323.92" x2="113.1" y2="312.52" stroke="rgb(0, 0, 0)" stroke-width="0.6" shape-rendering="auto" /></g><g id="Solid"><path d="M115.99 310.85 L115.99 310.85 L115.69 311.02 L115.39 311.19 L103.22 304.17 L103.22 303.82 L103.52 303.65 Z" stroke="rgb(0, 0, 0)" stroke-width="0" fill-rule="evenodd" stroke-linejoin="miter" fill="rgb(0, 0, 0)" shape-rendering="geometricPrecision" /></g><g id="Solid"><path d="M93.55 380.75 L93.55 380.75 L93.85 380.92 L94.15 381.09 L94.15 395.15 L93.85 395.32 L93.55 395.15 Z" stroke="rgb(0, 0, 0)" stroke-width="0" fill-rule="evenodd" stroke-linejoin="miter" fill="rgb(0, 0, 0)" shape-rendering="geometricPrecision" /></g><g><text xml:space="preserve" text-anchor="start" text-rendering="geometricPrecision"><tspan x="48.7" y="392.07" font-family="Arial" font-size="10" fill="rgb(0, 0, 0)">P</tspan></text></g><g><text xml:space="preserve" text-anchor="start" text-rendering="geometricPrecision"><tspan x="71.25" y="391.79" font-family="Arial" font-size="10" fill="rgb(0, 0, 0)">+</tspan></text></g><g id="Arrow"><line x1="154.75" y1="388.77" x2="125.81" y2="388.77" stroke="rgb(0, 0, 0)" stroke-width="0.6" shape-rendering="auto" /><path d="M165.56 388.77 L152.06 385.39 C154.18 387.29 154.18 390.25 152.06 392.15 Z" stroke="rgb(0, 0, 0)" stroke-width="0" fill-rule="evenodd" stroke-linejoin="miter" stroke-miterlimit="6.92897103804184" fill="rgb(0, 0, 0)" shape-rendering="geometricPrecision" /></g><circle cx="56.75" cy="383.45" r="0.833333333333333" stroke="rgb(0, 0, 0)" stroke-width="0" fill="rgb(0, 0, 0)" /><g id="Arrow"><path d="M72.51 371.31 C69.47 367.48 63.89 366.84 60.06 369.88 C57.36 372.03 56.12 375.8 57.01 379.13 " stroke="rgb(0, 0, 0)" stroke-width="0.6" fill-rule="evenodd" stroke-linejoin="bevel" fill="none" shape-rendering="geometricPrecision" /><path d="M73.87 374.67 L72.88 369.74 C72.63 371.06 71.85 370.99 71.85 370.99 Z" stroke="rgb(0, 0, 0)" stroke-width="0" fill-rule="evenodd" stroke-linejoin="miter" stroke-miterlimit="5.89457784237488" fill="rgb(0, 0, 0)" shape-rendering="geometricPrecision" /></g><g id="Arrow"><path d="M105.04 367.33 C102.63 366.07 99.65 367 98.38 369.41 C97.75 370.61 97.65 372.07 98.1 373.35 " stroke="rgb(0, 0, 0)" stroke-width="0.6" fill-rule="evenodd" stroke-linejoin="bevel" fill="none" shape-rendering="geometricPrecision" /><path d="M107.19 370.26 L104.87 365.8 C105.01 367.13 104.23 367.28 104.23 367.28 Z" stroke="rgb(0, 0, 0)" stroke-width="0" fill-rule="evenodd" stroke-linejoin="miter" stroke-miterlimit="5.88642229266827" fill="rgb(0, 0, 0)" shape-rendering="geometricPrecision" /></g><g id="Arrow"><path d="M95.4 374.95 C95.4 370.09 91.46 366.15 86.61 366.15 C83.21 366.15 79.92 368.3 78.56 371.42 " stroke="rgb(0, 0, 0)" stroke-width="0.6" fill-rule="evenodd" stroke-linejoin="bevel" fill="none" shape-rendering="geometricPrecision" /><path d="M78.11 375.02 L77.8 370 C78.37 371.21 79.11 370.94 79.11 370.94 Z" stroke="rgb(0, 0, 0)" stroke-width="0" fill-rule="evenodd" stroke-linejoin="miter" stroke-miterlimit="5.89748360169007" fill="rgb(0, 0, 0)" shape-rendering="geometricPrecision" /></g><g id="Solid"><path d="M93.55 395.15 L93.55 395.15 L93.85 395.32 L93.85 395.67 L81.67 402.69 L81.37 402.52 L81.07 402.35 Z" stroke="rgb(0, 0, 0)" stroke-width="0" fill-rule="evenodd" stroke-linejoin="miter" fill="rgb(0, 0, 0)" shape-rendering="geometricPrecision" /><line x1="93.85" y1="398.31" x2="83.96" y2="404.02" stroke="rgb(0, 0, 0)" stroke-width="0.6" shape-rendering="auto" /></g><g id="Solid"><path d="M81.07 402.35 L81.07 402.35 L81.37 402.52 L81.67 402.69 L81.67 416.75 L81.37 416.92 L81.07 417.09 Z" stroke="rgb(0, 0, 0)" stroke-width="0" fill-rule="evenodd" stroke-linejoin="miter" fill="rgb(0, 0, 0)" shape-rendering="geometricPrecision" /></g><g id="Solid"><path d="M81.07 417.09 L81.07 417.09 L81.37 416.92 L81.67 416.75 L93.85 423.77 L93.85 424.12 L93.85 424.47 Z" stroke="rgb(0, 0, 0)" stroke-width="0" fill-rule="evenodd" stroke-linejoin="miter" fill="rgb(0, 0, 0)" shape-rendering="geometricPrecision" /><line x1="83.96" y1="415.42" x2="93.85" y2="421.13" stroke="rgb(0, 0, 0)" stroke-width="0.6" shape-rendering="auto" /></g><g id="Solid"><path d="M93.85 424.47 L93.85 424.47 L93.85 424.12 L93.85 423.77 L106.02 416.75 L106.32 416.92 L106.62 417.09 Z" stroke="rgb(0, 0, 0)" stroke-width="0" fill-rule="evenodd" stroke-linejoin="miter" fill="rgb(0, 0, 0)" shape-rendering="geometricPrecision" /></g><g id="Solid"><path d="M106.62 417.09 L106.62 417.09 L106.32 416.92 L106.02 416.75 L106.02 402.69 L106.32 402.52 L106.62 402.35 Z" stroke="rgb(0, 0, 0)" stroke-width="0" fill-rule="evenodd" stroke-linejoin="miter" fill="rgb(0, 0, 0)" shape-rendering="geometricPrecision" /><line x1="103.73" y1="415.42" x2="103.73" y2="404.02" stroke="rgb(0, 0, 0)" stroke-width="0.6" shape-rendering="auto" /></g><g id="Solid"><path d="M106.62 402.35 L106.62 402.35 L106.32 402.52 L106.02 402.69 L93.85 395.67 L93.85 395.32 L94.15 395.15 Z" stroke="rgb(0, 0, 0)" stroke-width="0" fill-rule="evenodd" stroke-linejoin="miter" fill="rgb(0, 0, 0)" shape-rendering="geometricPrecision" /></g><g id="Solid"><path d="M92.48 487.23 L92.48 487.23 L92.63 486.97 L92.78 486.71 L105.4 494 L105.1 494.17 L104.8 494.34 Z" stroke="rgb(0, 0, 0)" stroke-width="0" fill-rule="evenodd" stroke-linejoin="miter" fill="rgb(0, 0, 0)" shape-rendering="geometricPrecision" /><line x1="91.33" y1="489.21" x2="102.51" y2="495.67" stroke="rgb(0, 0, 0)" stroke-width="0.6" shape-rendering="auto" /></g><g><text xml:space="preserve" text-anchor="start" text-rendering="geometricPrecision"><tspan x="47.57" y="503.07" font-family="Arial" font-size="10" fill="rgb(0, 0, 0)">P</tspan></text></g><g><text xml:space="preserve" text-anchor="start" text-rendering="geometricPrecision"><tspan x="70.13" y="502.79" font-family="Arial" font-size="10" fill="rgb(0, 0, 0)">+</tspan></text></g><g id="Arrow"><line x1="154.75" y1="499.77" x2="125.81" y2="499.77" stroke="rgb(0, 0, 0)" stroke-width="0.6" shape-rendering="auto" /><path d="M165.56 499.77 L152.06 496.39 C154.18 498.29 154.18 501.25 152.06 503.15 Z" stroke="rgb(0, 0, 0)" stroke-width="0" fill-rule="evenodd" stroke-linejoin="miter" stroke-miterlimit="6.92897103804184" fill="rgb(0, 0, 0)" shape-rendering="geometricPrecision" /></g><circle cx="55.63" cy="494.45" r="0.833333333333333" stroke="rgb(0, 0, 0)" stroke-width="0" fill="rgb(0, 0, 0)" /><g id="Arrow"><path d="M71.39 482.31 C68.35 478.48 62.76 477.83 58.92 480.88 C56.22 483.02 54.98 486.8 55.87 490.13 " stroke="rgb(0, 0, 0)" stroke-width="0.6" fill-rule="evenodd" stroke-linejoin="bevel" fill="none" shape-rendering="geometricPrecision" /><path d="M72.75 485.67 L71.76 480.74 C71.51 482.06 70.73 481.99 70.73 481.99 Z" stroke="rgb(0, 0, 0)" stroke-width="0" fill-rule="evenodd" stroke-linejoin="miter" stroke-miterlimit="5.88642229266867" fill="rgb(0, 0, 0)" shape-rendering="geometricPrecision" /></g><g id="Arrow"><path d="M108.45 489.9 C108.73 486.98 106.58 484.37 103.65 484.08 C102.09 483.93 100.48 484.51 99.37 485.62 " stroke="rgb(0, 0, 0)" stroke-width="0.6" fill-rule="evenodd" stroke-linejoin="bevel" fill="none" shape-rendering="geometricPrecision" /><path d="M106.63 493.05 L109.81 489.15 C108.64 489.8 108.19 489.15 108.19 489.15 Z" stroke="rgb(0, 0, 0)" stroke-width="0" fill-rule="evenodd" stroke-linejoin="miter" stroke-miterlimit="5.88642229266834" fill="rgb(0, 0, 0)" shape-rendering="geometricPrecision" /></g><g id="Arrow"><path d="M95.77 484.45 C95.77 479.6 91.83 475.66 86.98 475.66 C83.58 475.66 80.29 477.81 78.93 480.93 " stroke="rgb(0, 0, 0)" stroke-width="0.6" fill-rule="evenodd" stroke-linejoin="bevel" fill="none" shape-rendering="geometricPrecision" /><path d="M78.48 484.52 L78.17 479.5 C78.74 480.71 79.48 480.44 79.48 480.44 Z" stroke="rgb(0, 0, 0)" stroke-width="0" fill-rule="evenodd" stroke-linejoin="miter" stroke-miterlimit="5.88642229266848" fill="rgb(0, 0, 0)" shape-rendering="geometricPrecision" /></g><g id="Solid"><path d="M104.8 494.34 L104.8 494.34 L105.1 494.17 L105.4 494 L105.4 508.57 L105.1 508.57 L104.8 508.57 Z" stroke="rgb(0, 0, 0)" stroke-width="0" fill-rule="evenodd" stroke-linejoin="miter" fill="rgb(0, 0, 0)" shape-rendering="geometricPrecision" /></g><g id="Solid"><path d="M94.15 381.09 L94.15 381.09 L93.85 380.92 L93.55 380.75 L106.17 373.46 L106.32 373.72 L106.47 373.98 Z" stroke="rgb(0, 0, 0)" stroke-width="0" fill-rule="evenodd" stroke-linejoin="miter" fill="rgb(0, 0, 0)" shape-rendering="geometricPrecision" /><line x1="96.44" y1="382.42" x2="107.62" y2="375.96" stroke="rgb(0, 0, 0)" stroke-width="0.6" shape-rendering="auto" /></g><g id="Bracket"><path d="M497.44 267 L502.88 267 L502.88 341.25 L497.44 341.25 " stroke="rgb(0, 0, 0)" stroke-width="0.6" fill-rule="evenodd" stroke-linejoin="miter" fill="none" shape-rendering="geometricPrecision" /></g><g id="Bracket"><path d="M190.41 341.25 L184.97 341.25 L184.97 267 L190.41 267 " stroke="rgb(0, 0, 0)" stroke-width="0.6" fill-rule="evenodd" stroke-linejoin="miter" fill="none" shape-rendering="geometricPrecision" /></g><g id="Bracket"><path d="M497.44 358.5 L502.88 358.5 L502.88 432.75 L497.44 432.75 " stroke="rgb(0, 0, 0)" stroke-width="0.6" fill-rule="evenodd" stroke-linejoin="miter" fill="none" shape-rendering="geometricPrecision" /></g><g id="Bracket"><path d="M190.41 432.75 L184.97 432.75 L184.97 358.5 L190.41 358.5 " stroke="rgb(0, 0, 0)" stroke-width="0.6" fill-rule="evenodd" stroke-linejoin="miter" fill="none" shape-rendering="geometricPrecision" /></g><g id="Bracket"><path d="M497.44 448.13 L502.88 448.13 L502.88 522.38 L497.44 522.38 " stroke="rgb(0, 0, 0)" stroke-width="0.6" fill-rule="evenodd" stroke-linejoin="miter" fill="none" shape-rendering="geometricPrecision" /></g><g id="Bracket"><path d="M190.41 522.38 L184.97 522.38 L184.97 448.13 L190.41 448.13 " stroke="rgb(0, 0, 0)" stroke-width="0.6" fill-rule="evenodd" stroke-linejoin="miter" fill="none" shape-rendering="geometricPrecision" /></g><g id="Solid"><path d="M55.09 601.96 L55.09 601.96 L54.94 601.7 L54.79 601.44 L67.41 594.15 L67.41 594.5 L67.41 594.85 Z" stroke="rgb(0, 0, 0)" stroke-width="0" fill-rule="evenodd" stroke-linejoin="miter" fill="rgb(0, 0, 0)" shape-rendering="geometricPrecision" /></g><g id="Solid"><path d="M67.41 594.85 L67.41 594.85 L67.41 594.5 L67.41 594.15 L79.88 601.35 L79.88 601.7 L79.58 601.87 Z" stroke="rgb(0, 0, 0)" stroke-width="0" fill-rule="evenodd" stroke-linejoin="miter" fill="rgb(0, 0, 0)" shape-rendering="geometricPrecision" /></g><g id="Dash"><path d="M82.35 600.62 L82.35 600.62 L82.05 600.1 L79.88 601.35 L79.88 601.7 L80.18 601.87 Z" stroke="rgb(255, 0, 0)" stroke-width="0" fill-rule="evenodd" stroke-linejoin="miter" fill="rgb(255, 0, 0)" shape-rendering="geometricPrecision" /><path d="M90.18 596.1 L90.18 596.1 L89.88 595.58 L92.35 594.15 L92.35 594.5 L92.35 594.85 Z" stroke="rgb(255, 0, 0)" stroke-width="0" fill-rule="evenodd" stroke-linejoin="miter" fill="rgb(255, 0, 0)" shape-rendering="geometricPrecision" /><path d="M85.18 598.98 L85.18 598.98 L87.35 597.73 L87.05 597.22 L84.88 598.47 Z" stroke="rgb(255, 0, 0)" stroke-width="0" fill-rule="evenodd" stroke-linejoin="miter" fill="rgb(255, 0, 0)" shape-rendering="geometricPrecision" /></g><g id="Solid"><path d="M92.35 594.85 L92.35 594.85 L92.35 594.5 L92.35 594.15 L104.82 601.35 L104.82 601.7 L104.52 601.87 Z" stroke="rgb(0, 0, 0)" stroke-width="0" fill-rule="evenodd" stroke-linejoin="miter" fill="rgb(0, 0, 0)" shape-rendering="geometricPrecision" /></g><g id="Solid"><path d="M105.12 601.87 L105.12 601.87 L104.82 601.7 L104.82 601.35 L117.14 594.24 L117.29 594.5 L117.44 594.76 Z" stroke="rgb(0, 0, 0)" stroke-width="0" fill-rule="evenodd" stroke-linejoin="miter" fill="rgb(0, 0, 0)" shape-rendering="geometricPrecision" /></g><g><text xml:space="preserve" text-anchor="start" text-rendering="geometricPrecision"><tspan x="76.55" y="620" font-family="Arial" font-size="10" fill="rgb(0, 0, 0)">X</tspan></text></g><g id="Solid"><path d="M79.58 601.87 L79.58 601.87 L79.88 601.7 L80.18 601.87 L80.18 611.3 L79.88 611.3 L79.58 611.3 Z" stroke="rgb(0, 0, 0)" stroke-width="0" fill-rule="evenodd" stroke-linejoin="miter" fill="rgb(0, 0, 0)" shape-rendering="geometricPrecision" /></g><g><text xml:space="preserve" text-anchor="start" text-rendering="geometricPrecision"><tspan x="101.5" y="620" font-family="Arial" font-size="10" fill="rgb(0, 0, 0)">X</tspan></text></g><g id="Solid"><path d="M104.52 601.87 L104.52 601.87 L104.82 601.7 L105.12 601.87 L105.12 611.3 L104.82 611.3 L104.52 611.3 Z" stroke="rgb(0, 0, 0)" stroke-width="0" fill-rule="evenodd" stroke-linejoin="miter" fill="rgb(0, 0, 0)" shape-rendering="geometricPrecision" /></g><g id="Solid"><path d="M173.59 601.96 L173.59 601.96 L173.44 601.7 L173.29 601.44 L185.91 594.15 L185.91 594.5 L185.91 594.85 Z" stroke="rgb(0, 0, 0)" stroke-width="0" fill-rule="evenodd" stroke-linejoin="miter" fill="rgb(0, 0, 0)" shape-rendering="geometricPrecision" /></g><g id="Solid"><path d="M185.91 594.85 L185.91 594.85 L185.91 594.5 L185.91 594.15 L198.46 601.4 L198.38 601.7 L198.08 601.87 Z" stroke="rgb(0, 0, 0)" stroke-width="0" fill-rule="evenodd" stroke-linejoin="miter" fill="rgb(0, 0, 0)" shape-rendering="geometricPrecision" /></g><g id="Dash"><path d="M201.18 602 L201.18 602 L201.18 601.4 L198.46 601.4 L198.38 601.7 L198.68 602 Z" stroke="rgb(255, 0, 0)" stroke-width="0" fill-rule="evenodd" stroke-linejoin="miter" fill="rgb(255, 0, 0)" shape-rendering="geometricPrecision" /><path d="M209.98 602 L209.98 602 L209.98 601.4 L212.7 601.4 L212.78 601.7 L212.48 602 Z" stroke="rgb(255, 0, 0)" stroke-width="0" fill-rule="evenodd" stroke-linejoin="miter" fill="rgb(255, 0, 0)" shape-rendering="geometricPrecision" /><path d="M204.33 602 L204.33 602 L206.83 602 L206.83 601.4 L204.33 601.4 Z" stroke="rgb(255, 0, 0)" stroke-width="0" fill-rule="evenodd" stroke-linejoin="miter" fill="rgb(255, 0, 0)" shape-rendering="geometricPrecision" /></g><g id="Solid"><path d="M213.08 601.87 L213.08 601.87 L212.78 601.7 L212.7 601.4 L225.25 594.15 L225.25 594.5 L225.25 594.85 Z" stroke="rgb(0, 0, 0)" stroke-width="0" fill-rule="evenodd" stroke-linejoin="miter" fill="rgb(0, 0, 0)" shape-rendering="geometricPrecision" /></g><g id="Solid"><path d="M225.25 594.85 L225.25 594.85 L225.25 594.5 L225.25 594.15 L237.87 601.44 L237.72 601.7 L237.57 601.96 Z" stroke="rgb(0, 0, 0)" stroke-width="0" fill-rule="evenodd" stroke-linejoin="miter" fill="rgb(0, 0, 0)" shape-rendering="geometricPrecision" /></g><g><text xml:space="preserve" text-anchor="start" text-rendering="geometricPrecision"><tspan x="195.05" y="620" font-family="Arial" font-size="10" fill="rgb(0, 0, 0)">X</tspan></text></g><g id="Solid"><path d="M198.08 601.87 L198.08 601.87 L198.38 601.7 L198.68 602 L198.68 611.3 L198.38 611.3 L198.08 611.3 Z" stroke="rgb(0, 0, 0)" stroke-width="0" fill-rule="evenodd" stroke-linejoin="miter" fill="rgb(0, 0, 0)" shape-rendering="geometricPrecision" /></g><g id="Solid"><path d="M212.48 602 L212.48 602 L212.78 601.7 L213.08 601.87 L213.08 611.3 L212.78 611.3 L212.48 611.3 Z" stroke="rgb(0, 0, 0)" stroke-width="0" fill-rule="evenodd" stroke-linejoin="miter" fill="rgb(0, 0, 0)" shape-rendering="geometricPrecision" /></g><g><text xml:space="preserve" text-anchor="start" text-rendering="geometricPrecision"><tspan x="209.45" y="620" font-family="Arial" font-size="10" fill="rgb(0, 0, 0)">X</tspan></text></g><g id="Solid"><path d="M304.61 601.85 L304.61 601.85 L304.31 601.68 L304.31 601.33 L316.7 594.18 L316.78 594.48 L316.86 594.78 Z" stroke="rgb(0, 0, 0)" stroke-width="0" fill-rule="evenodd" stroke-linejoin="miter" fill="rgb(0, 0, 0)" shape-rendering="geometricPrecision" /></g><g id="Solid"><path d="M304.31 601.33 L304.31 601.33 L304.31 601.68 L304.01 601.85 L291.69 594.74 L291.84 594.48 L291.99 594.22 Z" stroke="rgb(0, 0, 0)" stroke-width="0" fill-rule="evenodd" stroke-linejoin="miter" fill="rgb(0, 0, 0)" shape-rendering="geometricPrecision" /></g><g id="Dash"><path d="M319.36 594.78 L319.36 594.78 L319.36 594.18 L316.7 594.18 L316.78 594.48 L316.86 594.78 Z" stroke="rgb(255, 0, 0)" stroke-width="0" fill-rule="evenodd" stroke-linejoin="miter" fill="rgb(255, 0, 0)" shape-rendering="geometricPrecision" /><path d="M328.6 594.78 L328.6 594.78 L328.6 594.18 L331.26 594.18 L331.18 594.48 L331.1 594.78 Z" stroke="rgb(255, 0, 0)" stroke-width="0" fill-rule="evenodd" stroke-linejoin="miter" fill="rgb(255, 0, 0)" shape-rendering="geometricPrecision" /><path d="M322.73 594.78 L322.73 594.78 L325.23 594.78 L325.23 594.18 L322.73 594.18 Z" stroke="rgb(255, 0, 0)" stroke-width="0" fill-rule="evenodd" stroke-linejoin="miter" fill="rgb(255, 0, 0)" shape-rendering="geometricPrecision" /></g><g id="Solid"><path d="M331.1 594.78 L331.1 594.78 L331.18 594.48 L331.26 594.18 L343.65 601.33 L343.65 601.68 L343.35 601.85 Z" stroke="rgb(0, 0, 0)" stroke-width="0" fill-rule="evenodd" stroke-linejoin="miter" fill="rgb(0, 0, 0)" shape-rendering="geometricPrecision" /></g><g id="Solid"><path d="M343.95 601.85 L343.95 601.85 L343.65 601.68 L343.65 601.33 L355.97 594.22 L356.12 594.48 L356.27 594.74 Z" stroke="rgb(0, 0, 0)" stroke-width="0" fill-rule="evenodd" stroke-linejoin="miter" fill="rgb(0, 0, 0)" shape-rendering="geometricPrecision" /></g><g id="Solid"><path d="M304.01 601.85 L304.01 601.85 L304.31 601.68 L304.61 601.85 L304.61 611.3 L304.31 611.3 L304.01 611.3 Z" stroke="rgb(0, 0, 0)" stroke-width="0" fill-rule="evenodd" stroke-linejoin="miter" fill="rgb(0, 0, 0)" shape-rendering="geometricPrecision" /></g><g><text xml:space="preserve" text-anchor="start" text-rendering="geometricPrecision"><tspan x="300.99" y="619.98" font-family="Arial" font-size="10" fill="rgb(0, 0, 0)">X</tspan></text></g><g id="Solid"><path d="M343.35 601.85 L343.35 601.85 L343.65 601.68 L343.95 601.85 L343.95 611.3 L343.65 611.3 L343.35 611.3 Z" stroke="rgb(0, 0, 0)" stroke-width="0" fill-rule="evenodd" stroke-linejoin="miter" fill="rgb(0, 0, 0)" shape-rendering="geometricPrecision" /></g><g><text xml:space="preserve" text-anchor="start" text-rendering="geometricPrecision"><tspan x="340.33" y="619.98" font-family="Arial" font-size="10" fill="rgb(0, 0, 0)">X</tspan></text></g><g><text xml:space="preserve" text-anchor="start" text-rendering="geometricPrecision"><tspan x="64.31" y="644.06" font-family="Arial" font-size="10" fill="rgb(0, 0, 0)">head-to-tail</tspan></text></g><g><text xml:space="preserve" text-anchor="start" text-rendering="geometricPrecision"><tspan x="176.06" y="644.06" font-family="Arial" font-size="10" fill="rgb(0, 0, 0)">head-to-head</tspan></text></g><g><text xml:space="preserve" text-anchor="start" text-rendering="geometricPrecision"><tspan x="304.69" y="644.06" font-family="Arial" font-size="10" fill="rgb(0, 0, 0)">tail-to-tail</tspan></text></g><g id="Solid"><path d="M637.73 52.76 L637.73 52.76 L637.88 52.5 L638.03 52.24 L650.65 59.53 L650.35 59.7 L650.05 59.87 Z" stroke="rgb(0, 0, 0)" stroke-width="0" fill-rule="evenodd" stroke-linejoin="miter" fill="rgb(0, 0, 0)" shape-rendering="geometricPrecision" /><line x1="636.58" y1="54.74" x2="647.76" y2="61.2" stroke="rgb(0, 0, 0)" stroke-width="0.6" shape-rendering="auto" /></g><g id="Solid"><path d="M650.05 59.87 L650.05 59.87 L650.35 59.7 L650.65 59.53 L650.65 73.93 L650.35 74.1 L650.05 73.93 Z" stroke="rgb(0, 0, 0)" stroke-width="0" fill-rule="evenodd" stroke-linejoin="miter" fill="rgb(0, 0, 0)" shape-rendering="geometricPrecision" /></g><g id="Solid"><path d="M650.05 73.93 L650.05 73.93 L650.35 74.1 L650.35 74.45 L638.18 81.47 L637.88 81.3 L637.58 81.13 Z" stroke="rgb(0, 0, 0)" stroke-width="0" fill-rule="evenodd" stroke-linejoin="miter" fill="rgb(0, 0, 0)" shape-rendering="geometricPrecision" /><line x1="650.35" y1="77.09" x2="640.47" y2="82.8" stroke="rgb(0, 0, 0)" stroke-width="0.6" shape-rendering="auto" /></g><g id="Solid"><path d="M637.58 81.13 L637.58 81.13 L637.88 81.3 L638.18 81.47 L638.18 95.53 L637.88 95.7 L637.58 95.87 Z" stroke="rgb(0, 0, 0)" stroke-width="0" fill-rule="evenodd" stroke-linejoin="miter" fill="rgb(0, 0, 0)" shape-rendering="geometricPrecision" /></g><g id="Solid"><path d="M637.58 95.87 L637.58 95.87 L637.88 95.7 L638.18 95.53 L650.35 102.55 L650.35 102.9 L650.35 103.25 Z" stroke="rgb(0, 0, 0)" stroke-width="0" fill-rule="evenodd" stroke-linejoin="miter" fill="rgb(0, 0, 0)" shape-rendering="geometricPrecision" /><line x1="640.47" y1="94.2" x2="650.35" y2="99.91" stroke="rgb(0, 0, 0)" stroke-width="0.6" shape-rendering="auto" /></g><g id="Solid"><path d="M650.35 103.25 L650.35 103.25 L650.35 102.9 L650.35 102.55 L662.52 95.53 L662.82 95.7 L663.12 95.87 Z" stroke="rgb(0, 0, 0)" stroke-width="0" fill-rule="evenodd" stroke-linejoin="miter" fill="rgb(0, 0, 0)" shape-rendering="geometricPrecision" /></g><g id="Solid"><path d="M663.12 95.87 L663.12 95.87 L662.82 95.7 L662.52 95.53 L662.52 81.47 L662.82 81.3 L663.12 81.13 Z" stroke="rgb(0, 0, 0)" stroke-width="0" fill-rule="evenodd" stroke-linejoin="miter" fill="rgb(0, 0, 0)" shape-rendering="geometricPrecision" /><line x1="660.23" y1="94.2" x2="660.23" y2="82.8" stroke="rgb(0, 0, 0)" stroke-width="0.6" shape-rendering="auto" /></g><g id="Solid"><path d="M663.12 81.13 L663.12 81.13 L662.82 81.3 L662.52 81.47 L650.35 74.45 L650.35 74.1 L650.65 73.93 Z" stroke="rgb(0, 0, 0)" stroke-width="0" fill-rule="evenodd" stroke-linejoin="miter" fill="rgb(0, 0, 0)" shape-rendering="geometricPrecision" /></g><g id="Solid"><line x1="701.53" y1="52.5" x2="714" y2="59.7" stroke="rgb(0, 0, 0)" stroke-width="0.6" shape-rendering="auto" /><path d="M700.38 54.48 L700.38 54.48 L700.08 55 L713.05 62.49 L713.05 61.8 Z" stroke="rgb(0, 0, 0)" stroke-width="0" fill-rule="evenodd" stroke-linejoin="miter" fill="rgb(0, 0, 0)" shape-rendering="geometricPrecision" /><path d="M701.68 52.24 L701.68 52.24 L701.38 52.76 L714.05 60.07 L714.65 59.73 Z" stroke="rgb(0, 0, 0)" stroke-width="0" fill-rule="evenodd" stroke-linejoin="miter" fill="rgb(0, 0, 0)" shape-rendering="geometricPrecision" /></g><g id="Solid"><path d="M713.05 60.65 L713.05 60.65 L713.35 60.82 L713.65 60.99 L713.65 75.39 L713.35 75.22 L713.05 75.05 Z" stroke="rgb(0, 0, 0)" stroke-width="0" fill-rule="evenodd" stroke-linejoin="miter" fill="rgb(0, 0, 0)" shape-rendering="geometricPrecision" /></g><g id="Solid"><path d="M713.65 60.99 L713.65 60.99 L713.35 60.82 L713.05 60.65 L725.67 53.36 L725.82 53.62 L725.97 53.88 Z" stroke="rgb(0, 0, 0)" stroke-width="0" fill-rule="evenodd" stroke-linejoin="miter" fill="rgb(0, 0, 0)" shape-rendering="geometricPrecision" /></g><g id="Solid"><path d="M713.05 75.05 L713.05 75.05 L713.35 75.22 L713.65 75.39 L705.54 80.08 L705.39 79.82 L705.24 79.56 Z" stroke="rgb(0, 0, 0)" stroke-width="0" fill-rule="evenodd" stroke-linejoin="miter" fill="rgb(0, 0, 0)" shape-rendering="geometricPrecision" /></g><g><text xml:space="preserve" text-anchor="start" text-rendering="geometricPrecision"><tspan x="696.97" y="86.32" font-family="Arial" font-size="10" fill="rgb(0, 0, 0)">O</tspan></text></g><g><text xml:space="preserve" text-anchor="start" text-rendering="geometricPrecision"><tspan x="721.92" y="86.32" font-family="Arial" font-size="10" fill="rgb(0, 0, 0)">O</tspan></text></g><g id="Solid"><line x1="714" y1="74.1" x2="721.76" y2="78.58" stroke="rgb(0, 0, 0)" stroke-width="0.6" shape-rendering="auto" /><path d="M712.65 75.97 L712.65 75.97 L712.05 76.31 L720.32 81.09 L720.62 80.57 Z" stroke="rgb(0, 0, 0)" stroke-width="0" fill-rule="evenodd" stroke-linejoin="miter" fill="rgb(0, 0, 0)" shape-rendering="geometricPrecision" /><path d="M713.65 73.55 L713.65 73.55 L713.65 74.24 L721.61 78.84 L721.91 78.32 Z" stroke="rgb(0, 0, 0)" stroke-width="0" fill-rule="evenodd" stroke-linejoin="miter" fill="rgb(0, 0, 0)" shape-rendering="geometricPrecision" /></g><g id="Solid"><path d="M700.58 88.1 L700.58 88.1 L700.88 88.1 L701.18 88.1 L701.18 96.82 L700.88 96.82 L700.58 96.82 Z" stroke="rgb(0, 0, 0)" stroke-width="0" fill-rule="evenodd" stroke-linejoin="miter" fill="rgb(0, 0, 0)" shape-rendering="geometricPrecision" /></g><g id="Solid"><path d="M644.25 137.67 L644.25 137.67 L644.25 137.32 L644.25 136.97 L656.72 129.77 L656.72 130.12 L656.72 130.47 Z" stroke="rgb(0, 0, 0)" stroke-width="0" fill-rule="evenodd" stroke-linejoin="miter" fill="rgb(0, 0, 0)" shape-rendering="geometricPrecision" /></g><g id="Solid"><path d="M644.25 136.97 L644.25 136.97 L644.25 137.32 L644.25 137.67 L631.63 130.38 L631.78 130.12 L631.93 129.86 Z" stroke="rgb(0, 0, 0)" stroke-width="0" fill-rule="evenodd" stroke-linejoin="miter" fill="rgb(0, 0, 0)" shape-rendering="geometricPrecision" /><line x1="644.25" y1="134.33" x2="633.08" y2="127.88" stroke="rgb(0, 0, 0)" stroke-width="0.6" shape-rendering="auto" /></g><g id="Solid"><path d="M656.72 130.47 L656.72 130.47 L656.72 130.12 L656.72 129.77 L669.34 137.06 L669.19 137.32 L669.04 137.58 Z" stroke="rgb(0, 0, 0)" stroke-width="0" fill-rule="evenodd" stroke-linejoin="miter" fill="rgb(0, 0, 0)" shape-rendering="geometricPrecision" /><line x1="656.72" y1="133.11" x2="667.89" y2="139.56" stroke="rgb(0, 0, 0)" stroke-width="0.6" shape-rendering="auto" /></g><g id="Solid"><path d="M709.05 130.98 L709.05 130.98 L708.75 130.81 L708.45 130.64 L721.22 123.26 L721.22 123.61 L721.22 123.96 Z" stroke="rgb(0, 0, 0)" stroke-width="0" fill-rule="evenodd" stroke-linejoin="miter" fill="rgb(0, 0, 0)" shape-rendering="geometricPrecision" /></g><g id="Solid"><line x1="708.1" y1="131.93" x2="695.63" y2="124.73" stroke="rgb(0, 0, 0)" stroke-width="0.6" shape-rendering="auto" /><path d="M709.45 130.06 L709.45 130.06 L710.05 129.72 L697.08 122.23 L696.78 122.75 Z" stroke="rgb(0, 0, 0)" stroke-width="0" fill-rule="evenodd" stroke-linejoin="miter" fill="rgb(0, 0, 0)" shape-rendering="geometricPrecision" /><path d="M708.45 132.48 L708.45 132.48 L708.45 131.79 L695.78 124.47 L695.48 124.99 Z" stroke="rgb(0, 0, 0)" stroke-width="0" fill-rule="evenodd" stroke-linejoin="miter" fill="rgb(0, 0, 0)" shape-rendering="geometricPrecision" /></g><g id="Solid"><path d="M721.22 123.96 L721.22 123.96 L721.22 123.61 L721.22 123.26 L733.84 130.55 L733.69 130.81 L733.54 131.07 Z" stroke="rgb(0, 0, 0)" stroke-width="0" fill-rule="evenodd" stroke-linejoin="miter" fill="rgb(0, 0, 0)" shape-rendering="geometricPrecision" /><line x1="721.22" y1="126.6" x2="732.39" y2="133.05" stroke="rgb(0, 0, 0)" stroke-width="0.6" shape-rendering="auto" /></g><g id="Solid"><path d="M708.45 130.64 L708.45 130.64 L708.75 130.81 L709.05 130.98 L709.05 145.21 L708.75 145.21 L708.45 145.21 Z" stroke="rgb(0, 0, 0)" stroke-width="0" fill-rule="evenodd" stroke-linejoin="miter" fill="rgb(0, 0, 0)" shape-rendering="geometricPrecision" /></g><g id="Solid"><path d="M814.46 61.85 L814.46 61.85 L814.46 61.5 L814.46 61.15 L826.78 54.04 L826.93 54.3 L827.08 54.56 Z" stroke="rgb(0, 0, 0)" stroke-width="0" fill-rule="evenodd" stroke-linejoin="miter" fill="rgb(0, 0, 0)" shape-rendering="geometricPrecision" /></g><g id="Solid"><path d="M814.46 61.15 L814.46 61.15 L814.46 61.5 L814.46 61.85 L801.83 54.56 L801.98 54.3 L802.13 54.04 Z" stroke="rgb(0, 0, 0)" stroke-width="0" fill-rule="evenodd" stroke-linejoin="miter" fill="rgb(0, 0, 0)" shape-rendering="geometricPrecision" /><line x1="814.46" y1="58.51" x2="803.28" y2="52.05" stroke="rgb(0, 0, 0)" stroke-width="0.6" shape-rendering="auto" /></g><g id="Solid"><path d="M808.22 96.35 L808.22 96.35 L808.22 96 L808.22 95.65 L820.69 88.45 L820.69 88.8 L820.69 89.15 Z" stroke="rgb(0, 0, 0)" stroke-width="0" fill-rule="evenodd" stroke-linejoin="miter" fill="rgb(0, 0, 0)" shape-rendering="geometricPrecision" /></g><g id="Solid"><path d="M808.22 95.65 L808.22 95.65 L808.22 96 L808.22 96.35 L795.6 89.06 L795.75 88.8 L795.9 88.54 Z" stroke="rgb(0, 0, 0)" stroke-width="0" fill-rule="evenodd" stroke-linejoin="miter" fill="rgb(0, 0, 0)" shape-rendering="geometricPrecision" /><line x1="808.22" y1="93.01" x2="797.05" y2="86.56" stroke="rgb(0, 0, 0)" stroke-width="0.6" shape-rendering="auto" /></g><g id="Solid"><path d="M820.69 89.15 L820.69 89.15 L820.69 88.8 L820.69 88.45 L833.31 95.74 L833.16 96 L833.01 96.26 Z" stroke="rgb(0, 0, 0)" stroke-width="0" fill-rule="evenodd" stroke-linejoin="miter" fill="rgb(0, 0, 0)" shape-rendering="geometricPrecision" /></g><g id="Solid"><path d="M815.08 128.8 L815.08 128.8 L814.78 128.63 L814.48 128.46 L827.1 121.17 L827.25 121.43 L827.4 121.69 Z" stroke="rgb(0, 0, 0)" stroke-width="0" fill-rule="evenodd" stroke-linejoin="miter" fill="rgb(0, 0, 0)" shape-rendering="geometricPrecision" /></g><g id="Solid"><line x1="814.13" y1="129.75" x2="801.66" y2="122.55" stroke="rgb(0, 0, 0)" stroke-width="0.6" shape-rendering="auto" /><path d="M815.48 127.88 L815.48 127.88 L816.08 127.54 L803.11 120.05 L802.81 120.57 Z" stroke="rgb(0, 0, 0)" stroke-width="0" fill-rule="evenodd" stroke-linejoin="miter" fill="rgb(0, 0, 0)" shape-rendering="geometricPrecision" /><path d="M814.48 130.3 L814.48 130.3 L814.48 129.61 L801.81 122.29 L801.51 122.81 Z" stroke="rgb(0, 0, 0)" stroke-width="0" fill-rule="evenodd" stroke-linejoin="miter" fill="rgb(0, 0, 0)" shape-rendering="geometricPrecision" /></g><g id="Solid"><path d="M814.48 128.46 L814.48 128.46 L814.78 128.63 L815.08 128.8 L815.08 143.02 L814.78 143.02 L814.48 143.02 Z" stroke="rgb(0, 0, 0)" stroke-width="0" fill-rule="evenodd" stroke-linejoin="miter" fill="rgb(0, 0, 0)" shape-rendering="geometricPrecision" /></g><g><text xml:space="preserve" text-anchor="start" text-rendering="geometricPrecision"><tspan x="610.88" y="57.38" font-family="Arial" font-size="10" fill="rgb(0, 0, 0)">A</tspan></text></g><g><text xml:space="preserve" text-anchor="start" text-rendering="geometricPrecision"><tspan x="773.25" y="53.63" font-family="Arial" font-size="10" fill="rgb(0, 0, 0)">B</tspan></text></g><g id="Rectangle"><path d="M598.45 39.8 L598.45 39.8 L751.13 39.8 L751.13 153.84 L598.45 153.84 Z" stroke="rgb(0, 0, 0)" stroke-width="0.6" fill-rule="evenodd" stroke-linejoin="miter" fill="none" shape-rendering="geometricPrecision" /></g><g id="Rectangle"><path d="M765.53 39.98 L765.53 39.98 L844.13 39.98 L844.13 153.66 L765.53 153.66 Z" stroke="rgb(0, 0, 0)" stroke-width="0.6" fill-rule="evenodd" stroke-linejoin="miter" fill="none" shape-rendering="geometricPrecision" /></g></g></g></svg>