<?xml version="1.0"?><svg xmlns="http://www.w3.org/2000/svg" xmlns:xlink="http://www.w3.org/1999/xlink" viewBox="39 45.73 313.9 243.39" preserveAspectRatio="xMidYMid" width="100%" height="100%"><clipPath id="132"><rect x="0.3" y="0.3" width="539.4" height="719.15" /></clipPath><g id="drawing"><rect x="39" y="45.73" width="100%" height="100%" fill="rgb(255, 255, 255)" /><g id="page" clip-path="url(#132)"><g id="Solid"><path d="M142.85 86.01 L142.85 86.01 L143.15 86.18 L143.45 86.35 L143.45 100.4 L143.15 100.57 L142.85 100.74 Z" stroke="rgb(0, 0, 0)" stroke-width="0" fill-rule="evenodd" stroke-linejoin="miter" fill="rgb(0, 0, 0)" shape-rendering="geometricPrecision" /><line x1="145.74" y1="87.68" x2="145.74" y2="99.07" stroke="rgb(0, 0, 0)" stroke-width="0.6" shape-rendering="auto" /></g><g id="Solid"><path d="M142.85 100.74 L142.85 100.74 L143.15 100.57 L143.45 100.4 L155.63 107.42 L155.63 107.77 L155.63 108.12 Z" stroke="rgb(0, 0, 0)" stroke-width="0" fill-rule="evenodd" stroke-linejoin="miter" fill="rgb(0, 0, 0)" shape-rendering="geometricPrecision" /></g><g id="Solid"><path d="M155.63 108.12 L155.63 108.12 L155.63 107.77 L155.63 107.42 L167.8 100.4 L168.1 100.57 L168.4 100.74 Z" stroke="rgb(0, 0, 0)" stroke-width="0" fill-rule="evenodd" stroke-linejoin="miter" fill="rgb(0, 0, 0)" shape-rendering="geometricPrecision" /><line x1="155.63" y1="104.78" x2="165.51" y2="99.07" stroke="rgb(0, 0, 0)" stroke-width="0.6" shape-rendering="auto" /></g><g id="Solid"><path d="M168.4 100.74 L168.4 100.74 L168.1 100.57 L167.8 100.4 L167.8 86.35 L168.1 86.18 L168.4 86.01 Z" stroke="rgb(0, 0, 0)" stroke-width="0" fill-rule="evenodd" stroke-linejoin="miter" fill="rgb(0, 0, 0)" shape-rendering="geometricPrecision" /></g><g id="Solid"><path d="M168.4 86.01 L168.4 86.01 L168.1 86.18 L167.8 86.35 L155.63 79.33 L155.63 78.98 L155.93 78.81 Z" stroke="rgb(0, 0, 0)" stroke-width="0" fill-rule="evenodd" stroke-linejoin="miter" fill="rgb(0, 0, 0)" shape-rendering="geometricPrecision" /><line x1="165.51" y1="87.68" x2="155.63" y2="81.97" stroke="rgb(0, 0, 0)" stroke-width="0.6" shape-rendering="auto" /></g><g id="Solid"><path d="M155.33 78.81 L155.33 78.81 L155.63 78.98 L155.63 79.33 L143.45 86.35 L143.15 86.18 L142.85 86.01 Z" stroke="rgb(0, 0, 0)" stroke-width="0" fill-rule="evenodd" stroke-linejoin="miter" fill="rgb(0, 0, 0)" shape-rendering="geometricPrecision" /></g><g id="Solid"><path d="M155.93 78.81 L155.93 78.81 L155.63 78.98 L155.33 78.81 L155.33 64.75 L155.63 64.58 L155.93 64.75 Z" stroke="rgb(0, 0, 0)" stroke-width="0" fill-rule="evenodd" stroke-linejoin="miter" fill="rgb(0, 0, 0)" shape-rendering="geometricPrecision" /></g><g><text xml:space="preserve" text-anchor="start" text-rendering="geometricPrecision"><tspan x="164.5" y="61.28" font-family="Arial" font-size="10" fill="rgb(0, 0, 0)">H</tspan></text></g><g id="Solid"><path d="M155.93 64.75 L155.93 64.75 L155.63 64.58 L155.93 64.06 L163.76 59.54 L163.91 59.8 L164.06 60.06 Z" stroke="rgb(0, 0, 0)" stroke-width="0" fill-rule="evenodd" stroke-linejoin="miter" fill="rgb(0, 0, 0)" shape-rendering="geometricPrecision" /></g><g><text xml:space="preserve" text-anchor="start" text-rendering="geometricPrecision"><tspan x="139.55" y="61.28" font-family="Arial" font-size="10" fill="rgb(0, 0, 0)">H</tspan></text></g><g id="Solid"><path d="M155.33 64.06 L155.33 64.06 L155.63 64.58 L155.33 64.75 L147.24 60.08 L147.39 59.82 L147.54 59.56 Z" stroke="rgb(0, 0, 0)" stroke-width="0" fill-rule="evenodd" stroke-linejoin="miter" fill="rgb(0, 0, 0)" shape-rendering="geometricPrecision" /></g><g><text xml:space="preserve" text-anchor="start" text-rendering="geometricPrecision"><tspan x="152.02" y="54.08" font-family="Arial" font-size="10" fill="rgb(0, 0, 0)">H</tspan></text></g><g id="Solid"><path d="M155.93 64.06 L155.93 64.06 L155.63 64.58 L155.33 64.06 L155.33 55.7 L155.63 55.7 L155.93 55.7 Z" stroke="rgb(0, 0, 0)" stroke-width="0" fill-rule="evenodd" stroke-linejoin="miter" fill="rgb(0, 0, 0)" shape-rendering="geometricPrecision" /></g><g><text xml:space="preserve" text-anchor="start" text-rendering="geometricPrecision"><tspan x="57" y="98.25" font-family="Arial" font-size="10" fill="rgb(0, 0, 0)">P</tspan></text></g><circle cx="67.28" cy="87.67" r="0.833333333333333" stroke="rgb(0, 0, 0)" stroke-width="0" fill="rgb(0, 0, 0)" /><g><text xml:space="preserve" text-anchor="start" text-rendering="geometricPrecision"><tspan x="39" y="139.88" font-family="Arial" font-size="10" fill="rgb(0, 0, 0)">active chain</tspan></text></g><g><text xml:space="preserve" text-anchor="middle" text-rendering="geometricPrecision"><tspan x="158.25" y="136.5" font-family="Arial" font-size="10" fill="rgb(0, 0, 0)">toluene</tspan><tspan x="158.25" y="159.02" font-family="Arial" font-size="10" fill="rgb(0, 0, 0)">(solvent</tspan><tspan x="158.25" y="170.29" font-family="Arial" font-size="10" fill="rgb(0, 0, 0)">)</tspan></text></g><g id="Arrow"><path d="M96.56 66.87 C92.24 59.08 82.42 56.26 74.64 60.57 C68.26 64.1 64.93 72.18 66.96 79.17 " stroke="rgb(0, 0, 0)" stroke-width="0.6" fill-rule="evenodd" stroke-linejoin="bevel" fill="none" shape-rendering="geometricPrecision" /><path d="M97.67 70.31 L97.11 65.31 C96.76 66.6 95.98 66.46 95.98 66.46 Z" stroke="rgb(0, 0, 0)" stroke-width="0" fill-rule="evenodd" stroke-linejoin="miter" stroke-miterlimit="5.88642229266843" fill="rgb(0, 0, 0)" shape-rendering="geometricPrecision" /></g><g id="Arrow"><path d="M103.16 68.27 C107.62 73.09 120.55 75.47 132.03 73.6 C140.37 72.24 146.24 68.64 146.24 64.88 " stroke="rgb(0, 0, 0)" stroke-width="0.6" fill-rule="evenodd" stroke-linejoin="bevel" fill="none" shape-rendering="geometricPrecision" /><path d="M101.91 64.75 L102.73 69.74 C103.01 68.43 103.81 68.52 103.81 68.52 Z" stroke="rgb(0, 0, 0)" stroke-width="0" fill-rule="evenodd" stroke-linejoin="miter" stroke-miterlimit="5.95166993176685" fill="rgb(0, 0, 0)" shape-rendering="geometricPrecision" /></g><g id="Arrow"><path d="M148.88 64.87 C147.84 65.9 147.84 67.58 148.87 68.62 C149.9 69.66 151.58 69.66 152.62 68.63 C152.67 68.58 152.72 68.53 152.76 68.48 " stroke="rgb(0, 0, 0)" stroke-width="0.6" fill-rule="evenodd" stroke-linejoin="bevel" fill="none" shape-rendering="geometricPrecision" /><path d="M152.33 64.88 L153.69 69.17 C152.86 68.24 152.32 68.63 152.32 68.63 Z" stroke="rgb(0, 0, 0)" stroke-width="0" fill-rule="evenodd" stroke-linejoin="miter" stroke-miterlimit="4.89573437599032" fill="rgb(0, 0, 0)" shape-rendering="geometricPrecision" /></g><g id="Solid"><path d="M327.35 89.38 L327.35 89.38 L327.65 89.55 L327.95 89.72 L327.95 103.78 L327.65 103.95 L327.35 104.12 Z" stroke="rgb(0, 0, 0)" stroke-width="0" fill-rule="evenodd" stroke-linejoin="miter" fill="rgb(0, 0, 0)" shape-rendering="geometricPrecision" /><line x1="330.24" y1="91.05" x2="330.24" y2="102.45" stroke="rgb(0, 0, 0)" stroke-width="0.6" shape-rendering="auto" /></g><g id="Solid"><path d="M327.35 104.12 L327.35 104.12 L327.65 103.95 L327.95 103.78 L340.13 110.8 L340.13 111.15 L340.13 111.5 Z" stroke="rgb(0, 0, 0)" stroke-width="0" fill-rule="evenodd" stroke-linejoin="miter" fill="rgb(0, 0, 0)" shape-rendering="geometricPrecision" /></g><g id="Solid"><path d="M340.13 111.5 L340.13 111.5 L340.13 111.15 L340.13 110.8 L352.3 103.78 L352.6 103.95 L352.9 104.12 Z" stroke="rgb(0, 0, 0)" stroke-width="0" fill-rule="evenodd" stroke-linejoin="miter" fill="rgb(0, 0, 0)" shape-rendering="geometricPrecision" /><line x1="340.13" y1="108.16" x2="350.01" y2="102.45" stroke="rgb(0, 0, 0)" stroke-width="0.6" shape-rendering="auto" /></g><g id="Solid"><path d="M352.9 104.12 L352.9 104.12 L352.6 103.95 L352.3 103.78 L352.3 89.72 L352.6 89.55 L352.9 89.38 Z" stroke="rgb(0, 0, 0)" stroke-width="0" fill-rule="evenodd" stroke-linejoin="miter" fill="rgb(0, 0, 0)" shape-rendering="geometricPrecision" /></g><g id="Solid"><path d="M352.9 89.38 L352.9 89.38 L352.6 89.55 L352.3 89.72 L340.13 82.7 L340.13 82.35 L340.43 82.18 Z" stroke="rgb(0, 0, 0)" stroke-width="0" fill-rule="evenodd" stroke-linejoin="miter" fill="rgb(0, 0, 0)" shape-rendering="geometricPrecision" /><line x1="350.01" y1="91.05" x2="340.13" y2="85.34" stroke="rgb(0, 0, 0)" stroke-width="0.6" shape-rendering="auto" /></g><g id="Solid"><path d="M339.83 82.18 L339.83 82.18 L340.13 82.35 L340.13 82.7 L327.95 89.72 L327.65 89.55 L327.35 89.38 Z" stroke="rgb(0, 0, 0)" stroke-width="0" fill-rule="evenodd" stroke-linejoin="miter" fill="rgb(0, 0, 0)" shape-rendering="geometricPrecision" /></g><g id="Solid"><path d="M340.43 82.18 L340.43 82.18 L340.13 82.35 L339.83 82.18 L339.83 67.95 L340.13 67.95 L340.43 67.95 Z" stroke="rgb(0, 0, 0)" stroke-width="0" fill-rule="evenodd" stroke-linejoin="miter" fill="rgb(0, 0, 0)" shape-rendering="geometricPrecision" /></g><circle cx="340.1" cy="65.18" r="0.833333333333333" stroke="rgb(0, 0, 0)" stroke-width="0" fill="rgb(0, 0, 0)" /><g><text xml:space="preserve" text-anchor="start" text-rendering="geometricPrecision"><tspan x="260.25" y="94.5" font-family="Arial" font-size="10" fill="rgb(0, 0, 0)">P</tspan></text></g><g id="Solid"><path d="M268 90.9 L268 90.9 L268 90.6 L268 90.3 L273.6 90.3 L273.6 90.6 L273.6 90.9 Z" stroke="rgb(0, 0, 0)" stroke-width="0" fill-rule="evenodd" stroke-linejoin="miter" fill="rgb(0, 0, 0)" shape-rendering="geometricPrecision" /></g><g><text xml:space="preserve" text-anchor="start" text-rendering="geometricPrecision"><tspan x="274.37" y="94.5" font-family="Arial" font-size="10" fill="rgb(0, 0, 0)">H</tspan></text></g><g><text xml:space="preserve" text-anchor="start" text-rendering="geometricPrecision"><tspan x="101.63" y="96" font-family="Arial" font-size="10" fill="rgb(0, 0, 0)">+</tspan></text></g><g><text xml:space="preserve" text-anchor="start" text-rendering="geometricPrecision"><tspan x="301.5" y="94.5" font-family="Arial" font-size="10" fill="rgb(0, 0, 0)">+</tspan></text></g><g id="Arrow"><line x1="229.94" y1="90" x2="189.38" y2="90" stroke="rgb(0, 0, 0)" stroke-width="0.6" shape-rendering="auto" /><path d="M240.75 90 L227.25 86.62 C229.37 88.52 229.37 91.48 227.25 93.38 Z" stroke="rgb(0, 0, 0)" stroke-width="0" fill-rule="evenodd" stroke-linejoin="miter" stroke-miterlimit="6.92897103804184" fill="rgb(0, 0, 0)" shape-rendering="geometricPrecision" /></g><g id="Solid"><path d="M149.1 263.89 L149.1 263.89 L149.25 263.63 L149.4 263.37 L161.72 270.47 L161.72 270.82 L161.42 270.99 Z" stroke="rgb(0, 0, 0)" stroke-width="0" fill-rule="evenodd" stroke-linejoin="miter" fill="rgb(0, 0, 0)" shape-rendering="geometricPrecision" /></g><g id="Solid"><path d="M162.02 270.99 L162.02 270.99 L161.72 270.82 L161.72 270.47 L174.19 263.28 L174.19 263.63 L174.19 263.98 Z" stroke="rgb(0, 0, 0)" stroke-width="0" fill-rule="evenodd" stroke-linejoin="miter" fill="rgb(0, 0, 0)" shape-rendering="geometricPrecision" /></g><g id="Solid"><path d="M174.19 263.98 L174.19 263.98 L174.19 263.63 L174.19 263.28 L186.66 270.47 L186.66 270.82 L186.36 270.99 Z" stroke="rgb(0, 0, 0)" stroke-width="0" fill-rule="evenodd" stroke-linejoin="miter" fill="rgb(0, 0, 0)" shape-rendering="geometricPrecision" /></g><g id="Solid"><path d="M186.96 270.99 L186.96 270.99 L186.66 270.82 L186.66 270.47 L198.83 263.46 L199.13 263.63 L199.13 263.98 Z" stroke="rgb(0, 0, 0)" stroke-width="0" fill-rule="evenodd" stroke-linejoin="miter" fill="rgb(0, 0, 0)" shape-rendering="geometricPrecision" /></g><g id="Solid"><path d="M199.13 263.98 L199.13 263.98 L199.13 263.63 L199.43 263.46 L211.6 270.47 L211.6 270.82 L211.3 270.99 Z" stroke="rgb(0, 0, 0)" stroke-width="0" fill-rule="evenodd" stroke-linejoin="miter" fill="rgb(0, 0, 0)" shape-rendering="geometricPrecision" /></g><g id="Solid"><path d="M211.9 270.99 L211.9 270.99 L211.6 270.82 L211.6 270.47 L224.07 263.28 L224.07 263.63 L224.07 263.98 Z" stroke="rgb(0, 0, 0)" stroke-width="0" fill-rule="evenodd" stroke-linejoin="miter" fill="rgb(0, 0, 0)" shape-rendering="geometricPrecision" /></g><g id="Solid"><path d="M224.07 263.98 L224.07 263.98 L224.07 263.63 L224.07 263.28 L236.55 270.47 L236.55 270.82 L236.25 270.99 Z" stroke="rgb(0, 0, 0)" stroke-width="0" fill-rule="evenodd" stroke-linejoin="miter" fill="rgb(0, 0, 0)" shape-rendering="geometricPrecision" /></g><g id="Solid"><path d="M236.85 270.99 L236.85 270.99 L236.55 270.82 L236.55 270.47 L248.87 263.37 L249.02 263.63 L249.17 263.89 Z" stroke="rgb(0, 0, 0)" stroke-width="0" fill-rule="evenodd" stroke-linejoin="miter" fill="rgb(0, 0, 0)" shape-rendering="geometricPrecision" /></g><g><text xml:space="preserve" text-anchor="start" text-rendering="geometricPrecision"><tspan x="158.4" y="289.12" font-family="Arial" font-size="10" fill="rgb(0, 0, 0)">X</tspan></text></g><g id="Solid"><path d="M161.42 270.99 L161.42 270.99 L161.72 270.82 L162.02 270.99 L162.02 280.4 L161.72 280.4 L161.42 280.4 Z" stroke="rgb(0, 0, 0)" stroke-width="0" fill-rule="evenodd" stroke-linejoin="miter" fill="rgb(0, 0, 0)" shape-rendering="geometricPrecision" /></g><g><text xml:space="preserve" text-anchor="start" text-rendering="geometricPrecision"><tspan x="183.34" y="289.12" font-family="Arial" font-size="10" fill="rgb(0, 0, 0)">X</tspan></text></g><g id="Solid"><path d="M186.36 270.99 L186.36 270.99 L186.66 270.82 L186.96 270.99 L186.96 280.4 L186.66 280.4 L186.36 280.4 Z" stroke="rgb(0, 0, 0)" stroke-width="0" fill-rule="evenodd" stroke-linejoin="miter" fill="rgb(0, 0, 0)" shape-rendering="geometricPrecision" /></g><g id="Solid"><path d="M211.3 270.99 L211.3 270.99 L211.6 270.82 L211.9 270.99 L211.9 280.4 L211.6 280.4 L211.3 280.4 Z" stroke="rgb(0, 0, 0)" stroke-width="0" fill-rule="evenodd" stroke-linejoin="miter" fill="rgb(0, 0, 0)" shape-rendering="geometricPrecision" /></g><g><text xml:space="preserve" text-anchor="start" text-rendering="geometricPrecision"><tspan x="208.28" y="289.12" font-family="Arial" font-size="10" fill="rgb(0, 0, 0)">X</tspan></text></g><g id="Solid"><path d="M236.25 270.99 L236.25 270.99 L236.55 270.82 L236.85 270.99 L236.85 280.4 L236.55 280.4 L236.25 280.4 Z" stroke="rgb(0, 0, 0)" stroke-width="0" fill-rule="evenodd" stroke-linejoin="miter" fill="rgb(0, 0, 0)" shape-rendering="geometricPrecision" /></g><g><text xml:space="preserve" text-anchor="start" text-rendering="geometricPrecision"><tspan x="233.22" y="289.12" font-family="Arial" font-size="10" fill="rgb(0, 0, 0)">X</tspan></text></g><g id="Solid"><path d="M199.43 263.46 L199.43 263.46 L199.13 263.63 L198.83 263.46 L198.83 254.8 L199.13 254.8 L199.43 254.8 Z" stroke="rgb(0, 0, 0)" stroke-width="0" fill-rule="evenodd" stroke-linejoin="miter" fill="rgb(0, 0, 0)" shape-rendering="geometricPrecision" /></g><g><text xml:space="preserve" text-anchor="start" text-rendering="geometricPrecision"><tspan x="195.53" y="253.13" font-family="Arial" font-size="10" fill="rgb(0, 0, 0)">H</tspan></text></g><g><text xml:space="preserve" text-anchor="start" text-rendering="geometricPrecision"><tspan x="166.87" y="219" font-family="Arial" font-size="10" fill="rgb(0, 0, 0)">P</tspan></text></g><circle cx="176.03" cy="208.8" r="0.833333333333333" stroke="rgb(0, 0, 0)" stroke-width="0" fill="rgb(0, 0, 0)" /><g id="Arrow"><path d="M188.21 229.39 C193.44 226.17 195.08 219.29 191.86 214.05 C189.42 210.09 184.39 207.99 179.86 209.04 " stroke="rgb(0, 0, 0)" stroke-width="0.6" fill-rule="evenodd" stroke-linejoin="bevel" fill="none" shape-rendering="geometricPrecision" /><path d="M184.76 230.49 L189.75 229.91 C188.46 229.56 188.6 228.78 188.6 228.78 Z" stroke="rgb(0, 0, 0)" stroke-width="0" fill-rule="evenodd" stroke-linejoin="miter" stroke-miterlimit="5.88108911346754" fill="rgb(0, 0, 0)" shape-rendering="geometricPrecision" /></g><g id="Arrow"><path d="M182.8 235.11 C178.06 239.52 177.82 247.34 182.28 252.57 C185.65 256.53 191.32 258.01 195.79 256.1 " stroke="rgb(0, 0, 0)" stroke-width="0.6" fill-rule="evenodd" stroke-linejoin="bevel" fill="none" shape-rendering="geometricPrecision" /><path d="M186.12 233.31 L181.19 234.84 C182.55 234.93 182.57 235.75 182.57 235.75 Z" stroke="rgb(0, 0, 0)" stroke-width="0" fill-rule="evenodd" stroke-linejoin="miter" stroke-miterlimit="6.17720904419693" fill="rgb(0, 0, 0)" shape-rendering="geometricPrecision" /></g><g id="Arrow"><path d="M196.99 260.16 C196.6 258.74 195.14 257.91 193.72 258.29 C192.3 258.67 191.47 260.13 191.85 261.54 C191.87 261.61 191.89 261.68 191.92 261.75 " stroke="rgb(0, 0, 0)" stroke-width="0.6" fill-rule="evenodd" stroke-linejoin="bevel" fill="none" shape-rendering="geometricPrecision" /><path d="M195.27 263.15 L190.85 262.21 C192.07 261.94 192 261.28 192 261.28 Z" stroke="rgb(0, 0, 0)" stroke-width="0" fill-rule="evenodd" stroke-linejoin="miter" stroke-miterlimit="4.92141466741982" fill="rgb(0, 0, 0)" shape-rendering="geometricPrecision" /></g></g></g></svg>