<?xml version="1.0"?><svg xmlns="http://www.w3.org/2000/svg" xmlns:xlink="http://www.w3.org/1999/xlink" viewBox="84.79 84.19 318.11 273.56" preserveAspectRatio="xMidYMid" width="100%" height="100%"><clipPath id="280"><rect x="0.3" y="0.3" width="539.4" height="719.15" /></clipPath><g id="drawing"><rect x="84.79" y="84.19" width="100%" height="100%" fill="rgb(255, 255, 255)" /><g id="page" clip-path="url(#280)"><g id="Solid"><path d="M85.09 94.13 L85.09 94.13 L84.94 93.87 L84.79 93.61 L97.41 86.32 L97.41 86.67 L97.41 87.02 Z" stroke="rgb(0, 0, 0)" stroke-width="0" fill-rule="evenodd" stroke-linejoin="miter" fill="rgb(0, 0, 0)" shape-rendering="geometricPrecision" /></g><g id="Solid"><path d="M97.41 87.02 L97.41 87.02 L97.41 86.67 L97.41 86.32 L110.18 93.7 L109.88 93.87 L109.58 94.04 Z" stroke="rgb(0, 0, 0)" stroke-width="0" fill-rule="evenodd" stroke-linejoin="miter" fill="rgb(0, 0, 0)" shape-rendering="geometricPrecision" /></g><g><text xml:space="preserve" text-anchor="start" text-rendering="geometricPrecision"><tspan x="106.55" y="112.17" font-family="Arial" font-size="10" fill="rgb(0, 0, 0)">X</tspan></text></g><g id="Solid"><path d="M109.58 94.04 L109.58 94.04 L109.88 93.87 L110.18 93.7 L110.18 103.5 L109.88 103.5 L109.58 103.5 Z" stroke="rgb(0, 0, 0)" stroke-width="0" fill-rule="evenodd" stroke-linejoin="miter" fill="rgb(0, 0, 0)" shape-rendering="geometricPrecision" /></g><g id="Solid"><path d="M143.74 94.04 L143.74 94.04 L143.44 93.87 L143.14 93.7 L155.91 86.32 L155.91 86.67 L155.91 87.02 Z" stroke="rgb(0, 0, 0)" stroke-width="0" fill-rule="evenodd" stroke-linejoin="miter" fill="rgb(0, 0, 0)" shape-rendering="geometricPrecision" /></g><g id="Solid"><path d="M155.91 87.02 L155.91 87.02 L155.91 86.67 L155.91 86.32 L168.53 93.61 L168.38 93.87 L168.23 94.13 Z" stroke="rgb(0, 0, 0)" stroke-width="0" fill-rule="evenodd" stroke-linejoin="miter" fill="rgb(0, 0, 0)" shape-rendering="geometricPrecision" /></g><g><text xml:space="preserve" text-anchor="start" text-rendering="geometricPrecision"><tspan x="140.11" y="112.17" font-family="Arial" font-size="10" fill="rgb(0, 0, 0)">X</tspan></text></g><g id="Solid"><path d="M143.14 93.7 L143.14 93.7 L143.44 93.87 L143.74 94.04 L143.74 103.5 L143.44 103.5 L143.14 103.5 Z" stroke="rgb(0, 0, 0)" stroke-width="0" fill-rule="evenodd" stroke-linejoin="miter" fill="rgb(0, 0, 0)" shape-rendering="geometricPrecision" /></g><circle cx="112.65" cy="93.89" r="0.833333333333333" stroke="rgb(0, 0, 0)" stroke-width="0" fill="rgb(0, 0, 0)" /><circle cx="140.66" cy="93.89" r="0.833333333333333" stroke="rgb(0, 0, 0)" stroke-width="0" fill="rgb(0, 0, 0)" /><g id="Arrow"><path d="M125.16 88.85 C124.02 85.77 120.6 84.19 117.51 85.32 C115.73 85.98 114.31 87.53 113.82 89.37 " stroke="rgb(0, 0, 0)" stroke-width="0.6" fill-rule="evenodd" stroke-linejoin="bevel" fill="none" shape-rendering="geometricPrecision" /><path d="M125.02 92.48 L126.04 87.55 C125.3 88.67 124.61 88.3 124.61 88.3 Z" stroke="rgb(0, 0, 0)" stroke-width="0" fill-rule="evenodd" stroke-linejoin="miter" stroke-miterlimit="5.88642229266843" fill="rgb(0, 0, 0)" shape-rendering="geometricPrecision" /></g><g id="Arrow"><path d="M141.52 89.35 C140.67 86.17 137.4 84.28 134.22 85.14 C132.39 85.64 130.83 87.06 130.18 88.85 " stroke="rgb(0, 0, 0)" stroke-width="0.6" fill-rule="evenodd" stroke-linejoin="bevel" fill="none" shape-rendering="geometricPrecision" /><path d="M130.32 92.48 L129.29 87.55 C130.03 88.66 130.73 88.29 130.73 88.29 Z" stroke="rgb(0, 0, 0)" stroke-width="0" fill-rule="evenodd" stroke-linejoin="miter" stroke-miterlimit="5.90240454648509" fill="rgb(0, 0, 0)" shape-rendering="geometricPrecision" /></g><g id="Solid"><path d="M317.96 93.1 L317.96 93.1 L317.81 92.84 L317.66 92.58 L330.28 85.29 L330.28 85.64 L330.28 85.99 Z" stroke="rgb(0, 0, 0)" stroke-width="0" fill-rule="evenodd" stroke-linejoin="miter" fill="rgb(0, 0, 0)" shape-rendering="geometricPrecision" /></g><g id="Solid"><path d="M330.28 85.99 L330.28 85.99 L330.28 85.64 L330.28 85.29 L342.83 92.54 L342.75 92.84 L342.45 93.01 Z" stroke="rgb(0, 0, 0)" stroke-width="0" fill-rule="evenodd" stroke-linejoin="miter" fill="rgb(0, 0, 0)" shape-rendering="geometricPrecision" /></g><g><text xml:space="preserve" text-anchor="start" text-rendering="geometricPrecision"><tspan x="339.43" y="111.14" font-family="Arial" font-size="10" fill="rgb(0, 0, 0)">X</tspan></text></g><g id="Solid"><path d="M342.45 93.01 L342.45 93.01 L342.75 92.84 L343.05 93.14 L343.05 102.4 L342.75 102.4 L342.45 102.4 Z" stroke="rgb(0, 0, 0)" stroke-width="0" fill-rule="evenodd" stroke-linejoin="miter" fill="rgb(0, 0, 0)" shape-rendering="geometricPrecision" /></g><g id="Solid"><path d="M371.74 93.01 L371.74 93.01 L371.44 92.84 L371.36 92.54 L383.91 85.29 L383.91 85.64 L383.91 85.99 Z" stroke="rgb(0, 0, 0)" stroke-width="0" fill-rule="evenodd" stroke-linejoin="miter" fill="rgb(0, 0, 0)" shape-rendering="geometricPrecision" /></g><g id="Solid"><path d="M383.91 85.99 L383.91 85.99 L383.91 85.64 L383.91 85.29 L396.53 92.58 L396.38 92.84 L396.23 93.1 Z" stroke="rgb(0, 0, 0)" stroke-width="0" fill-rule="evenodd" stroke-linejoin="miter" fill="rgb(0, 0, 0)" shape-rendering="geometricPrecision" /></g><g><text xml:space="preserve" text-anchor="start" text-rendering="geometricPrecision"><tspan x="368.11" y="111.14" font-family="Arial" font-size="10" fill="rgb(0, 0, 0)">X</tspan></text></g><g id="Solid"><path d="M371.14 93.14 L371.14 93.14 L371.44 92.84 L371.74 93.01 L371.74 102.4 L371.44 102.4 L371.14 102.4 Z" stroke="rgb(0, 0, 0)" stroke-width="0" fill-rule="evenodd" stroke-linejoin="miter" fill="rgb(0, 0, 0)" shape-rendering="geometricPrecision" /></g><g id="Solid"><path d="M343.05 93.14 L343.05 93.14 L342.75 92.84 L342.83 92.54 L371.36 92.54 L371.44 92.84 L371.14 93.14 Z" stroke="rgb(0, 0, 0)" stroke-width="0" fill-rule="evenodd" stroke-linejoin="miter" fill="rgb(0, 0, 0)" shape-rendering="geometricPrecision" /></g><g id="Arrow"><line x1="256.83" y1="98.41" x2="224.44" y2="98.41" stroke="rgb(0, 0, 0)" stroke-width="0.6" shape-rendering="auto" /><path d="M267.64 98.41 L254.14 95.03 C256.26 96.93 256.26 99.89 254.14 101.79 Z" stroke="rgb(0, 0, 0)" stroke-width="0" fill-rule="evenodd" stroke-linejoin="miter" stroke-miterlimit="6.92897103804184" fill="rgb(0, 0, 0)" shape-rendering="geometricPrecision" /></g><g id="Solid"><path d="M87.34 202.5 L87.34 202.5 L87.19 202.24 L87.04 201.98 L99.36 194.87 L99.66 195.04 L99.66 195.39 Z" stroke="rgb(0, 0, 0)" stroke-width="0" fill-rule="evenodd" stroke-linejoin="miter" fill="rgb(0, 0, 0)" shape-rendering="geometricPrecision" /></g><g id="Solid"><path d="M99.66 195.39 L99.66 195.39 L99.66 195.04 L99.96 194.87 L112.43 202.07 L112.13 202.24 L111.83 202.41 Z" stroke="rgb(0, 0, 0)" stroke-width="0" fill-rule="evenodd" stroke-linejoin="miter" fill="rgb(0, 0, 0)" shape-rendering="geometricPrecision" /></g><g><text xml:space="preserve" text-anchor="start" text-rendering="geometricPrecision"><tspan x="108.8" y="220.54" font-family="Arial" font-size="10" fill="rgb(0, 0, 0)">X</tspan></text></g><g id="Solid"><path d="M111.83 202.41 L111.83 202.41 L112.13 202.24 L112.43 202.07 L112.43 211.8 L112.13 211.8 L111.83 211.8 Z" stroke="rgb(0, 0, 0)" stroke-width="0" fill-rule="evenodd" stroke-linejoin="miter" fill="rgb(0, 0, 0)" shape-rendering="geometricPrecision" /></g><g id="Solid"><path d="M145.99 202.41 L145.99 202.41 L145.69 202.24 L145.39 202.07 L158.16 194.69 L158.16 195.04 L158.16 195.39 Z" stroke="rgb(0, 0, 0)" stroke-width="0" fill-rule="evenodd" stroke-linejoin="miter" fill="rgb(0, 0, 0)" shape-rendering="geometricPrecision" /></g><g id="Solid"><path d="M158.16 195.39 L158.16 195.39 L158.16 195.04 L158.16 194.69 L170.78 201.98 L170.63 202.24 L170.48 202.5 Z" stroke="rgb(0, 0, 0)" stroke-width="0" fill-rule="evenodd" stroke-linejoin="miter" fill="rgb(0, 0, 0)" shape-rendering="geometricPrecision" /></g><g id="Solid"><path d="M145.39 202.07 L145.39 202.07 L145.69 202.24 L145.99 202.41 L145.99 211.8 L145.69 211.8 L145.39 211.8 Z" stroke="rgb(0, 0, 0)" stroke-width="0" fill-rule="evenodd" stroke-linejoin="miter" fill="rgb(0, 0, 0)" shape-rendering="geometricPrecision" /></g><g><text xml:space="preserve" text-anchor="start" text-rendering="geometricPrecision"><tspan x="142.36" y="220.54" font-family="Arial" font-size="10" fill="rgb(0, 0, 0)">X</tspan></text></g><circle cx="114.9" cy="202.27" r="0.833333333333333" stroke="rgb(0, 0, 0)" stroke-width="0" fill="rgb(0, 0, 0)" /><circle cx="142.91" cy="202.27" r="0.833333333333333" stroke="rgb(0, 0, 0)" stroke-width="0" fill="rgb(0, 0, 0)" /><g id="Arrow"><path d="M102.71 186.4 C105.95 190.34 111.78 190.9 115.72 187.66 C116.03 187.4 116.33 187.12 116.6 186.82 " stroke="rgb(0, 0, 0)" stroke-width="0.6" fill-rule="evenodd" stroke-linejoin="bevel" fill="none" shape-rendering="geometricPrecision" /><path d="M118.25 183.59 L116.84 188.42 C116.71 187.09 115.92 187.09 115.92 187.09 Z" stroke="rgb(0, 0, 0)" stroke-width="0" fill-rule="evenodd" stroke-linejoin="miter" stroke-miterlimit="5.8972694644789" fill="rgb(0, 0, 0)" shape-rendering="geometricPrecision" /></g><g id="Arrow"><path d="M142.59 199.15 C145.67 192.6 143.07 184.67 136.77 181.46 C131.79 178.91 125.31 180.26 121.65 184.61 " stroke="rgb(0, 0, 0)" stroke-width="0.6" fill-rule="evenodd" stroke-linejoin="bevel" fill="none" shape-rendering="geometricPrecision" /><path d="M120.04 187.68 L121.42 183.02 C121.56 184.32 122.3 184.31 122.3 184.31 Z" stroke="rgb(0, 0, 0)" stroke-width="0" fill-rule="evenodd" stroke-linejoin="miter" stroke-miterlimit="5.54706135108917" fill="rgb(0, 0, 0)" shape-rendering="geometricPrecision" /></g><g id="Arrow"><path d="M106.6 193.53 C106.14 191.83 104.39 190.82 102.68 191.27 C102.14 191.42 101.64 191.71 101.25 192.1 " stroke="rgb(0, 0, 0)" stroke-width="0.6" fill-rule="evenodd" stroke-linejoin="bevel" fill="none" shape-rendering="geometricPrecision" /><path d="M105.48 196.54 L107.6 193.33 C106.61 193.88 106.31 193.46 106.31 193.46 Z" stroke="rgb(0, 0, 0)" stroke-width="0" fill-rule="evenodd" stroke-linejoin="miter" stroke-miterlimit="3.92635512131981" fill="rgb(0, 0, 0)" shape-rendering="geometricPrecision" /></g><g id="Arrow"><path d="M114.9 199.98 C115.49 198.32 114.61 196.5 112.95 195.91 C112.42 195.72 111.85 195.68 111.3 195.78 " stroke="rgb(0, 0, 0)" stroke-width="0.6" fill-rule="evenodd" stroke-linejoin="bevel" fill="none" shape-rendering="geometricPrecision" /><path d="M109.08 198.09 L111.06 194.79 C110.98 195.92 111.5 196.01 111.5 196.01 Z" stroke="rgb(0, 0, 0)" stroke-width="0" fill-rule="evenodd" stroke-linejoin="miter" stroke-miterlimit="3.91874082458991" fill="rgb(0, 0, 0)" shape-rendering="geometricPrecision" /></g><g id="Solid"><path d="M319.46 204.38 L319.46 204.38 L319.31 204.12 L319.16 203.86 L331.78 196.57 L331.78 196.92 L331.78 197.27 Z" stroke="rgb(0, 0, 0)" stroke-width="0" fill-rule="evenodd" stroke-linejoin="miter" fill="rgb(0, 0, 0)" shape-rendering="geometricPrecision" /></g><g id="Solid"><path d="M331.78 197.27 L331.78 197.27 L331.78 196.92 L331.78 196.57 L344.55 203.95 L344.25 204.12 L343.95 204.29 Z" stroke="rgb(0, 0, 0)" stroke-width="0" fill-rule="evenodd" stroke-linejoin="miter" fill="rgb(0, 0, 0)" shape-rendering="geometricPrecision" /><line x1="331.78" y1="199.91" x2="341.66" y2="205.62" stroke="rgb(0, 0, 0)" stroke-width="0.6" shape-rendering="auto" /></g><g><text xml:space="preserve" text-anchor="start" text-rendering="geometricPrecision"><tspan x="340.93" y="222.42" font-family="Arial" font-size="10" fill="rgb(0, 0, 0)">X</tspan></text></g><g id="Solid"><path d="M343.95 204.29 L343.95 204.29 L344.25 204.12 L344.55 203.95 L344.55 213.7 L344.25 213.7 L343.95 213.7 Z" stroke="rgb(0, 0, 0)" stroke-width="0" fill-rule="evenodd" stroke-linejoin="miter" fill="rgb(0, 0, 0)" shape-rendering="geometricPrecision" /></g><g id="Solid"><path d="M378.11 204.29 L378.11 204.29 L377.81 204.12 L377.81 203.77 L390.28 196.57 L390.28 196.92 L390.28 197.27 Z" stroke="rgb(0, 0, 0)" stroke-width="0" fill-rule="evenodd" stroke-linejoin="miter" fill="rgb(0, 0, 0)" shape-rendering="geometricPrecision" /></g><g id="Solid"><path d="M390.28 197.27 L390.28 197.27 L390.28 196.92 L390.28 196.57 L402.9 203.86 L402.75 204.12 L402.6 204.38 Z" stroke="rgb(0, 0, 0)" stroke-width="0" fill-rule="evenodd" stroke-linejoin="miter" fill="rgb(0, 0, 0)" shape-rendering="geometricPrecision" /></g><g><text xml:space="preserve" text-anchor="start" text-rendering="geometricPrecision"><tspan x="374.49" y="222.42" font-family="Arial" font-size="10" fill="rgb(0, 0, 0)">X</tspan></text></g><g id="Solid"><path d="M377.51 204.29 L377.51 204.29 L377.81 204.12 L378.11 204.29 L378.11 213.7 L377.81 213.7 L377.51 213.7 Z" stroke="rgb(0, 0, 0)" stroke-width="0" fill-rule="evenodd" stroke-linejoin="miter" fill="rgb(0, 0, 0)" shape-rendering="geometricPrecision" /></g><g><text xml:space="preserve" text-anchor="start" text-rendering="geometricPrecision"><tspan x="361.74" y="200.82" font-family="Arial" font-size="10" fill="rgb(0, 0, 0)">H</tspan></text></g><g id="Solid"><path d="M377.81 203.77 L377.81 203.77 L377.81 204.12 L377.51 204.29 L369.44 199.63 L369.59 199.37 L369.74 199.11 Z" stroke="rgb(0, 0, 0)" stroke-width="0" fill-rule="evenodd" stroke-linejoin="miter" fill="rgb(0, 0, 0)" shape-rendering="geometricPrecision" /></g><g><text xml:space="preserve" text-anchor="start" text-rendering="geometricPrecision"><tspan x="96.06" y="184.54" font-family="Arial" font-size="10" fill="rgb(0, 0, 0)">H</tspan></text></g><g id="Solid"><path d="M99.96 194.87 L99.96 194.87 L99.66 195.04 L99.36 194.87 L99.36 186.2 L99.66 186.2 L99.96 186.2 Z" stroke="rgb(0, 0, 0)" stroke-width="0" fill-rule="evenodd" stroke-linejoin="miter" fill="rgb(0, 0, 0)" shape-rendering="geometricPrecision" /></g><g><text xml:space="preserve" text-anchor="start" text-rendering="geometricPrecision"><tspan x="126.94" y="211.5" font-family="Arial" font-size="10" fill="rgb(0, 0, 0)">+</tspan></text></g><g><text xml:space="preserve" text-anchor="start" text-rendering="geometricPrecision"><tspan x="125.06" y="104.25" font-family="Arial" font-size="10" fill="rgb(0, 0, 0)">+</tspan></text></g><g><text xml:space="preserve" text-anchor="start" text-rendering="geometricPrecision"><tspan x="358.69" y="213.38" font-family="Arial" font-size="10" fill="rgb(0, 0, 0)">+</tspan></text></g><g id="Arrow"><line x1="257.96" y1="201.91" x2="225.56" y2="201.91" stroke="rgb(0, 0, 0)" stroke-width="0.6" shape-rendering="auto" /><path d="M268.77 201.91 L255.27 198.53 C257.39 200.43 257.39 203.39 255.27 205.29 Z" stroke="rgb(0, 0, 0)" stroke-width="0" fill-rule="evenodd" stroke-linejoin="miter" stroke-miterlimit="6.92897103804184" fill="rgb(0, 0, 0)" shape-rendering="geometricPrecision" /></g><g id="Solid"><path d="M89.42 314.01 L89.42 314.01 L89.72 314.18 L90.02 314.35 L90.02 328.4 L89.72 328.57 L89.42 328.74 Z" stroke="rgb(0, 0, 0)" stroke-width="0" fill-rule="evenodd" stroke-linejoin="miter" fill="rgb(0, 0, 0)" shape-rendering="geometricPrecision" /><line x1="92.31" y1="315.68" x2="92.31" y2="327.07" stroke="rgb(0, 0, 0)" stroke-width="0.6" shape-rendering="auto" /></g><g id="Solid"><path d="M89.42 328.74 L89.42 328.74 L89.72 328.57 L90.02 328.4 L102.19 335.42 L102.19 335.77 L102.19 336.12 Z" stroke="rgb(0, 0, 0)" stroke-width="0" fill-rule="evenodd" stroke-linejoin="miter" fill="rgb(0, 0, 0)" shape-rendering="geometricPrecision" /></g><g id="Solid"><path d="M102.19 336.12 L102.19 336.12 L102.19 335.77 L102.19 335.42 L114.36 328.4 L114.66 328.57 L114.96 328.74 Z" stroke="rgb(0, 0, 0)" stroke-width="0" fill-rule="evenodd" stroke-linejoin="miter" fill="rgb(0, 0, 0)" shape-rendering="geometricPrecision" /><line x1="102.19" y1="332.78" x2="112.07" y2="327.07" stroke="rgb(0, 0, 0)" stroke-width="0.6" shape-rendering="auto" /></g><g id="Solid"><path d="M114.96 328.74 L114.96 328.74 L114.66 328.57 L114.36 328.4 L114.36 314.35 L114.66 314.18 L114.96 314.35 Z" stroke="rgb(0, 0, 0)" stroke-width="0" fill-rule="evenodd" stroke-linejoin="miter" fill="rgb(0, 0, 0)" shape-rendering="geometricPrecision" /></g><g id="Solid"><path d="M114.66 313.83 L114.66 313.83 L114.66 314.18 L114.36 314.35 L102.19 307.33 L102.19 306.98 L102.19 306.63 Z" stroke="rgb(0, 0, 0)" stroke-width="0" fill-rule="evenodd" stroke-linejoin="miter" fill="rgb(0, 0, 0)" shape-rendering="geometricPrecision" /><line x1="112.07" y1="315.68" x2="102.19" y2="309.97" stroke="rgb(0, 0, 0)" stroke-width="0.6" shape-rendering="auto" /></g><g id="Solid"><path d="M102.19 306.63 L102.19 306.63 L102.19 306.98 L102.19 307.33 L90.02 314.35 L89.72 314.18 L89.42 314.01 Z" stroke="rgb(0, 0, 0)" stroke-width="0" fill-rule="evenodd" stroke-linejoin="miter" fill="rgb(0, 0, 0)" shape-rendering="geometricPrecision" /></g><g id="Solid"><path d="M114.96 314.35 L114.96 314.35 L114.66 314.18 L114.66 313.83 L127.13 306.63 L127.13 306.98 L127.13 307.33 Z" stroke="rgb(0, 0, 0)" stroke-width="0" fill-rule="evenodd" stroke-linejoin="miter" fill="rgb(0, 0, 0)" shape-rendering="geometricPrecision" /></g><g><text xml:space="preserve" text-anchor="start" text-rendering="geometricPrecision"><tspan x="135.7" y="318.07" font-family="Arial" font-size="10" fill="rgb(0, 0, 0)">O</tspan></text></g><g id="Solid"><path d="M127.13 307.33 L127.13 307.33 L127.13 306.98 L127.13 306.63 L135.36 311.39 L135.21 311.65 L135.06 311.91 Z" stroke="rgb(0, 0, 0)" stroke-width="0" fill-rule="evenodd" stroke-linejoin="miter" fill="rgb(0, 0, 0)" shape-rendering="geometricPrecision" /></g><g id="Solid"><line x1="125.83" y1="306.98" x2="125.83" y2="298.3" stroke="rgb(0, 0, 0)" stroke-width="0.6" shape-rendering="auto" /><path d="M128.13 307.21 L128.13 307.21 L128.73 307.56 L128.73 298.3 L128.13 298.3 Z" stroke="rgb(0, 0, 0)" stroke-width="0" fill-rule="evenodd" stroke-linejoin="miter" fill="rgb(0, 0, 0)" shape-rendering="geometricPrecision" /><path d="M125.53 307.56 L125.53 307.56 L126.13 307.21 L126.13 298.3 L125.53 298.3 Z" stroke="rgb(0, 0, 0)" stroke-width="0" fill-rule="evenodd" stroke-linejoin="miter" fill="rgb(0, 0, 0)" shape-rendering="geometricPrecision" /></g><g><text xml:space="preserve" text-anchor="start" text-rendering="geometricPrecision"><tspan x="123.23" y="296.48" font-family="Arial" font-size="10" fill="rgb(0, 0, 0)">O</tspan></text></g><g id="Solid"><path d="M144.24 311.85 L144.24 311.85 L144.09 311.59 L143.94 311.33 L152.07 306.63 L152.07 306.98 L152.07 307.33 Z" stroke="rgb(0, 0, 0)" stroke-width="0" fill-rule="evenodd" stroke-linejoin="miter" fill="rgb(0, 0, 0)" shape-rendering="geometricPrecision" /></g><g id="Solid"><path d="M152.07 307.33 L152.07 307.33 L152.07 306.98 L152.07 306.63 L164.19 313.84 L164.17 314.18 L163.87 314.35 Z" stroke="rgb(0, 0, 0)" stroke-width="0" fill-rule="evenodd" stroke-linejoin="miter" fill="rgb(0, 0, 0)" shape-rendering="geometricPrecision" /></g><g id="Solid"><path d="M164.47 314.38 L164.47 314.38 L164.17 314.18 L164.19 313.84 L181.16 306.65 L181.14 306.98 L181.12 307.31 Z" stroke="rgb(0, 0, 0)" stroke-width="0" fill-rule="evenodd" stroke-linejoin="miter" fill="rgb(0, 0, 0)" shape-rendering="geometricPrecision" /></g><g id="Solid"><path d="M163.87 314.35 L163.87 314.35 L164.17 314.18 L164.47 314.38 L164.47 328.4 L164.17 328.57 L163.87 328.4 Z" stroke="rgb(0, 0, 0)" stroke-width="0" fill-rule="evenodd" stroke-linejoin="miter" fill="rgb(0, 0, 0)" shape-rendering="geometricPrecision" /></g><g id="Solid"><path d="M181.12 307.31 L181.12 307.31 L181.14 306.98 L181.16 306.65 L193.91 314.01 L193.61 314.18 L193.31 314.35 Z" stroke="rgb(0, 0, 0)" stroke-width="0" fill-rule="evenodd" stroke-linejoin="miter" fill="rgb(0, 0, 0)" shape-rendering="geometricPrecision" /></g><g id="Solid"><path d="M193.31 314.35 L193.31 314.35 L193.61 314.18 L193.91 314.01 L193.91 328.4 L193.61 328.57 L193.31 328.4 Z" stroke="rgb(0, 0, 0)" stroke-width="0" fill-rule="evenodd" stroke-linejoin="miter" fill="rgb(0, 0, 0)" shape-rendering="geometricPrecision" /></g><g id="Solid"><path d="M163.87 328.4 L163.87 328.4 L164.17 328.57 L164.17 328.92 L152 335.94 L151.7 335.77 L151.4 335.6 Z" stroke="rgb(0, 0, 0)" stroke-width="0" fill-rule="evenodd" stroke-linejoin="miter" fill="rgb(0, 0, 0)" shape-rendering="geometricPrecision" /><line x1="164.17" y1="331.56" x2="154.29" y2="337.27" stroke="rgb(0, 0, 0)" stroke-width="0.6" shape-rendering="auto" /></g><g id="Solid"><path d="M151.4 335.6 L151.4 335.6 L151.7 335.77 L152 335.94 L152 350 L151.7 350.17 L151.4 350.34 Z" stroke="rgb(0, 0, 0)" stroke-width="0" fill-rule="evenodd" stroke-linejoin="miter" fill="rgb(0, 0, 0)" shape-rendering="geometricPrecision" /></g><g id="Solid"><path d="M151.4 350.34 L151.4 350.34 L151.7 350.17 L152 350 L164.17 357.02 L164.17 357.37 L164.17 357.72 Z" stroke="rgb(0, 0, 0)" stroke-width="0" fill-rule="evenodd" stroke-linejoin="miter" fill="rgb(0, 0, 0)" shape-rendering="geometricPrecision" /><line x1="154.29" y1="348.67" x2="164.17" y2="354.38" stroke="rgb(0, 0, 0)" stroke-width="0.6" shape-rendering="auto" /></g><g id="Solid"><g id="Bond's parts"><path d="M176.15 350.1 L176.15 350.1 L176.57 350.1 L176.62 350.2 L176.85 350.25 L176.85 350.45 L176.65 350.5 L176.43 350.6 L176.38 350.7 L176.15 350.8 L175.93 350.9 L175.88 351 L175.65 351.1 L175.45 351.2 L175.23 351.3 L175.18 351.4 L174.95 351.5 L174.75 351.6 L174.52 351.7 L174.48 351.8 L174.25 351.9 L174.05 352 L173.82 352.1 L173.77 352.2 L173.55 352.3 L173.32 352.4 L173.27 352.5 L173.05 352.6 L172.85 352.7 L172.62 352.8 L172.57 352.9 L172.35 353 L172.15 353.1 L171.93 353.2 L171.88 353.3 L171.65 353.4 L171.45 353.5 L171.23 353.6 L171.18 353.7 L170.95 353.8 L170.73 353.9 L170.68 354 L170.45 354.1 L170.25 354.2 L170.02 354.3 L169.98 354.4 L169.75 354.5 L169.55 354.6 L169.32 354.7 L169.27 354.8 L169.05 354.9 L168.82 355 L168.77 355.1 L168.55 355.2 L168.35 355.3 L168.12 355.4 L168.07 355.5 L167.85 355.6 L167.65 355.7 L167.43 355.8 L167.38 355.9 L167.15 356 L166.95 356.1 L166.73 356.2 L166.68 356.3 L166.45 356.4 L166.23 356.5 L166.18 356.6 L165.95 356.7 L165.75 356.8 L165.52 356.9 L165.48 357 L165.25 357.1 L165.05 357.2 L164.82 357.3 L164.77 357.4 L164.55 357.5 L164.32 357.6 L164.25 357.7 L164.2 357.75 L164.2 357.05 L164.25 357 L164.32 356.9 L164.55 356.8 L164.75 356.7 L164.98 356.6 L165.02 356.5 L165.25 356.4 L165.48 356.3 L165.52 356.2 L165.75 356.1 L165.95 356 L166.18 355.9 L166.23 355.8 L166.45 355.7 L166.65 355.6 L166.88 355.5 L166.93 355.4 L167.15 355.3 L167.35 355.2 L167.57 355.1 L167.62 355 L167.85 354.9 L168.07 354.8 L168.12 354.7 L168.35 354.6 L168.55 354.5 L168.77 354.4 L168.82 354.3 L169.05 354.2 L169.25 354.1 L169.48 354 L169.52 353.9 L169.75 353.8 L169.98 353.7 L170.02 353.6 L170.25 353.5 L170.45 353.4 L170.68 353.3 L170.73 353.2 L170.95 353.1 L171.15 353 L171.38 352.9 L171.43 352.8 L171.65 352.7 L171.85 352.6 L172.07 352.5 L172.12 352.4 L172.35 352.3 L172.57 352.2 L172.62 352.1 L172.85 352 L173.05 351.9 L173.27 351.8 L173.32 351.7 L173.55 351.6 L173.75 351.5 L173.98 351.4 L174.02 351.3 L174.25 351.2 L174.48 351.1 L174.52 351 L174.75 350.9 L174.95 350.8 L175.18 350.7 L175.23 350.6 L175.45 350.5 L175.65 350.4 L175.88 350.3 L175.93 350.2 Z" stroke="rgb(0, 0, 0)" stroke-width="0" fill-rule="evenodd" stroke-linejoin="miter" fill="rgb(0, 0, 0)" shape-rendering="geometricPrecision" /></g></g><g id="Solid"><g id="Bond's parts"><path d="M176.75 335.7 L176.75 335.7 L176.95 335.65 L176.9 350.35 L176.88 350.3 L176.62 350.2 L176.57 350.1 L176.35 350.05 L176.4 335.95 L176.45 335.9 L176.52 335.8 Z" stroke="rgb(0, 0, 0)" stroke-width="0" fill-rule="evenodd" stroke-linejoin="miter" fill="rgb(0, 0, 0)" shape-rendering="geometricPrecision" /><path d="M173.75 337.25 L173.75 337.25 L174.35 337.25 L174.35 348.65 Z" stroke="rgb(0, 0, 0)" stroke-width="0" fill-rule="evenodd" stroke-linejoin="miter" fill="rgb(0, 0, 0)" shape-rendering="geometricPrecision" /></g></g><g id="Solid"><g id="Bond's parts"><path d="M164.23 328.5 L164.23 328.5 L164.65 328.5 L164.88 328.6 L164.93 328.7 L165.15 328.8 L165.35 328.9 L165.57 329 L165.62 329.1 L165.85 329.2 L166.05 329.3 L166.27 329.4 L166.32 329.5 L166.55 329.6 L166.75 329.7 L166.98 329.8 L167.02 329.9 L167.25 330 L167.48 330.1 L167.52 330.2 L167.75 330.3 L167.95 330.4 L168.18 330.5 L168.23 330.6 L168.45 330.7 L168.65 330.8 L168.88 330.9 L168.93 331 L169.15 331.1 L169.35 331.2 L169.57 331.3 L169.62 331.4 L169.85 331.5 L170.07 331.6 L170.12 331.7 L170.35 331.8 L170.55 331.9 L170.77 332 L170.82 332.1 L171.05 332.2 L171.25 332.3 L171.48 332.4 L171.52 332.5 L171.75 332.6 L171.98 332.7 L172.02 332.8 L172.25 332.9 L172.45 333 L172.68 333.1 L172.73 333.2 L172.95 333.3 L173.15 333.4 L173.38 333.5 L173.43 333.6 L173.65 333.7 L173.85 333.8 L174.07 333.9 L174.12 334 L174.35 334.1 L174.57 334.2 L174.62 334.3 L174.85 334.4 L175.05 334.5 L175.27 334.6 L175.32 334.7 L175.55 334.8 L175.75 334.9 L175.98 335 L176.02 335.1 L176.25 335.2 L176.45 335.3 L176.68 335.4 L176.73 335.5 L176.95 335.6 L176.75 335.7 L176.52 335.8 L176.48 335.9 L176.25 335.9 L176.02 335.8 L175.98 335.7 L175.75 335.6 L175.55 335.5 L175.32 335.4 L175.27 335.3 L175.05 335.2 L174.82 335.1 L174.77 335 L174.55 334.9 L174.35 334.8 L174.12 334.7 L174.07 334.6 L173.85 334.5 L173.65 334.4 L173.43 334.3 L173.38 334.2 L173.15 334.1 L172.95 334 L172.73 333.9 L172.68 333.8 L172.45 333.7 L172.23 333.6 L172.18 333.5 L171.95 333.4 L171.75 333.3 L171.52 333.2 L171.48 333.1 L171.25 333 L171.05 332.9 L170.82 332.8 L170.77 332.7 L170.55 332.6 L170.35 332.5 L170.12 332.4 L170.07 332.3 L169.85 332.2 L169.62 332.1 L169.57 332 L169.35 331.9 L169.15 331.8 L168.93 331.7 L168.88 331.6 L168.65 331.5 L168.45 331.4 L168.23 331.3 L168.18 331.2 L167.95 331.1 L167.73 331 L167.68 330.9 L167.45 330.8 L167.25 330.7 L167.02 330.6 L166.98 330.5 L166.75 330.4 L166.55 330.3 L166.32 330.2 L166.27 330.1 L166.05 330 L165.85 329.9 L165.62 329.8 L165.57 329.7 L165.35 329.6 L165.12 329.5 L165.07 329.4 L164.85 329.3 L164.65 329.2 L164.43 329.1 L164.38 329 L164.15 328.95 L164.2 328.55 Z" stroke="rgb(0, 0, 0)" stroke-width="0" fill-rule="evenodd" stroke-linejoin="miter" fill="rgb(0, 0, 0)" shape-rendering="geometricPrecision" /></g></g><g id="Solid"><path d="M193.31 328.4 L193.31 328.4 L193.61 328.57 L193.61 328.92 L181.44 335.94 L181.14 335.77 L180.84 335.6 Z" stroke="rgb(0, 0, 0)" stroke-width="0" fill-rule="evenodd" stroke-linejoin="miter" fill="rgb(0, 0, 0)" shape-rendering="geometricPrecision" /><line x1="193.61" y1="331.56" x2="183.73" y2="337.27" stroke="rgb(0, 0, 0)" stroke-width="0.6" shape-rendering="auto" /></g><g id="Solid"><path d="M180.84 335.6 L180.84 335.6 L181.14 335.77 L181.44 335.94 L181.44 350 L181.14 350.17 L180.84 350.34 Z" stroke="rgb(0, 0, 0)" stroke-width="0" fill-rule="evenodd" stroke-linejoin="miter" fill="rgb(0, 0, 0)" shape-rendering="geometricPrecision" /></g><g id="Solid"><path d="M180.84 350.34 L180.84 350.34 L181.14 350.17 L181.44 350 L193.61 357.02 L193.61 357.37 L193.61 357.72 Z" stroke="rgb(0, 0, 0)" stroke-width="0" fill-rule="evenodd" stroke-linejoin="miter" fill="rgb(0, 0, 0)" shape-rendering="geometricPrecision" /><line x1="183.73" y1="348.67" x2="193.61" y2="354.38" stroke="rgb(0, 0, 0)" stroke-width="0.6" shape-rendering="auto" /></g><g id="Solid"><path d="M193.61 357.72 L193.61 357.72 L193.61 357.37 L193.61 357.02 L205.78 350 L206.08 350.17 L206.38 350.34 Z" stroke="rgb(0, 0, 0)" stroke-width="0" fill-rule="evenodd" stroke-linejoin="miter" fill="rgb(0, 0, 0)" shape-rendering="geometricPrecision" /></g><g id="Solid"><path d="M206.38 350.34 L206.38 350.34 L206.08 350.17 L205.78 350 L205.78 335.94 L206.08 335.77 L206.38 335.6 Z" stroke="rgb(0, 0, 0)" stroke-width="0" fill-rule="evenodd" stroke-linejoin="miter" fill="rgb(0, 0, 0)" shape-rendering="geometricPrecision" /><line x1="203.49" y1="348.67" x2="203.49" y2="337.27" stroke="rgb(0, 0, 0)" stroke-width="0.6" shape-rendering="auto" /></g><g id="Solid"><path d="M206.38 335.6 L206.38 335.6 L206.08 335.77 L205.78 335.94 L193.61 328.92 L193.61 328.57 L193.91 328.4 Z" stroke="rgb(0, 0, 0)" stroke-width="0" fill-rule="evenodd" stroke-linejoin="miter" fill="rgb(0, 0, 0)" shape-rendering="geometricPrecision" /></g><g id="Bracket"><path d="M168.56 301.88 A15.37,15.37 0 0,1 168.56 317.25 " stroke="rgb(0, 0, 0)" stroke-width="0.6" fill-rule="evenodd" stroke-linejoin="miter" fill="none" shape-rendering="geometricPrecision" /></g><g id="Bracket"><path d="M147.94 317.25 A15.37,15.37 0 0,1 147.94 301.88 " stroke="rgb(0, 0, 0)" stroke-width="0.6" fill-rule="evenodd" stroke-linejoin="miter" fill="none" shape-rendering="geometricPrecision" /></g><circle cx="196.38" cy="314.2" r="0.833333333333333" stroke="rgb(0, 0, 0)" stroke-width="0" fill="rgb(0, 0, 0)" /><g id="Solid"><path d="M386.53 314.34 L386.53 314.34 L386.83 314.17 L387.13 314 L387.13 328.74 L386.83 328.57 L386.53 328.4 Z" stroke="rgb(0, 0, 0)" stroke-width="0" fill-rule="evenodd" stroke-linejoin="miter" fill="rgb(0, 0, 0)" shape-rendering="geometricPrecision" /><line x1="384.24" y1="315.67" x2="384.24" y2="327.07" stroke="rgb(0, 0, 0)" stroke-width="0.6" shape-rendering="auto" /></g><g id="Solid"><path d="M386.53 328.4 L386.53 328.4 L386.83 328.57 L387.13 328.74 L374.36 336.12 L374.36 335.77 L374.36 335.42 Z" stroke="rgb(0, 0, 0)" stroke-width="0" fill-rule="evenodd" stroke-linejoin="miter" fill="rgb(0, 0, 0)" shape-rendering="geometricPrecision" /></g><g id="Solid"><path d="M374.36 335.42 L374.36 335.42 L374.36 335.77 L374.36 336.12 L361.59 328.74 L361.89 328.57 L362.19 328.4 Z" stroke="rgb(0, 0, 0)" stroke-width="0" fill-rule="evenodd" stroke-linejoin="miter" fill="rgb(0, 0, 0)" shape-rendering="geometricPrecision" /><line x1="374.36" y1="332.78" x2="364.48" y2="327.07" stroke="rgb(0, 0, 0)" stroke-width="0.6" shape-rendering="auto" /></g><g id="Solid"><path d="M362.19 328.4 L362.19 328.4 L361.89 328.57 L361.59 328.74 L361.59 314.34 L361.89 314.17 L362.19 314.34 Z" stroke="rgb(0, 0, 0)" stroke-width="0" fill-rule="evenodd" stroke-linejoin="miter" fill="rgb(0, 0, 0)" shape-rendering="geometricPrecision" /></g><g id="Solid"><path d="M362.19 314.34 L362.19 314.34 L361.89 314.17 L361.89 313.82 L374.36 306.62 L374.36 306.97 L374.36 307.32 Z" stroke="rgb(0, 0, 0)" stroke-width="0" fill-rule="evenodd" stroke-linejoin="miter" fill="rgb(0, 0, 0)" shape-rendering="geometricPrecision" /><line x1="364.48" y1="315.67" x2="374.36" y2="309.96" stroke="rgb(0, 0, 0)" stroke-width="0.6" shape-rendering="auto" /></g><g id="Solid"><path d="M374.36 307.32 L374.36 307.32 L374.36 306.97 L374.36 306.62 L387.13 314 L386.83 314.17 L386.53 314.34 Z" stroke="rgb(0, 0, 0)" stroke-width="0" fill-rule="evenodd" stroke-linejoin="miter" fill="rgb(0, 0, 0)" shape-rendering="geometricPrecision" /></g><g id="Solid"><path d="M361.89 313.82 L361.89 313.82 L361.89 314.17 L361.59 314.34 L349.42 307.32 L349.42 306.97 L349.42 306.62 Z" stroke="rgb(0, 0, 0)" stroke-width="0" fill-rule="evenodd" stroke-linejoin="miter" fill="rgb(0, 0, 0)" shape-rendering="geometricPrecision" /></g><g><text xml:space="preserve" text-anchor="start" text-rendering="geometricPrecision"><tspan x="333.05" y="318.07" font-family="Arial" font-size="10" fill="rgb(0, 0, 0)">O</tspan></text></g><g id="Solid"><path d="M349.42 306.62 L349.42 306.62 L349.42 306.97 L349.42 307.32 L341.64 311.81 L341.49 311.55 L341.34 311.29 Z" stroke="rgb(0, 0, 0)" stroke-width="0" fill-rule="evenodd" stroke-linejoin="miter" fill="rgb(0, 0, 0)" shape-rendering="geometricPrecision" /></g><g id="Solid"><line x1="348.12" y1="306.97" x2="348.12" y2="298.3" stroke="rgb(0, 0, 0)" stroke-width="0.6" shape-rendering="auto" /><path d="M350.42 307.2 L350.42 307.2 L351.02 307.55 L351.02 298.3 L350.42 298.3 Z" stroke="rgb(0, 0, 0)" stroke-width="0" fill-rule="evenodd" stroke-linejoin="miter" fill="rgb(0, 0, 0)" shape-rendering="geometricPrecision" /><path d="M347.82 307.55 L347.82 307.55 L348.42 307.2 L348.42 298.3 L347.82 298.3 Z" stroke="rgb(0, 0, 0)" stroke-width="0" fill-rule="evenodd" stroke-linejoin="miter" fill="rgb(0, 0, 0)" shape-rendering="geometricPrecision" /></g><g><text xml:space="preserve" text-anchor="start" text-rendering="geometricPrecision"><tspan x="345.52" y="296.48" font-family="Arial" font-size="10" fill="rgb(0, 0, 0)">O</tspan></text></g><g id="Solid"><path d="M332.76 311.41 L332.76 311.41 L332.61 311.67 L332.46 311.93 L324.47 307.32 L324.47 306.97 L324.47 306.62 Z" stroke="rgb(0, 0, 0)" stroke-width="0" fill-rule="evenodd" stroke-linejoin="miter" fill="rgb(0, 0, 0)" shape-rendering="geometricPrecision" /></g><g id="Solid"><path d="M324.47 306.62 L324.47 306.62 L324.47 306.97 L324.47 307.32 L312.68 314.34 L312.38 314.17 L312.36 313.83 Z" stroke="rgb(0, 0, 0)" stroke-width="0" fill-rule="evenodd" stroke-linejoin="miter" fill="rgb(0, 0, 0)" shape-rendering="geometricPrecision" /></g><g id="Solid"><path d="M312.36 313.83 L312.36 313.83 L312.38 314.17 L312.08 314.37 L295.43 307.3 L295.41 306.97 L295.39 306.64 Z" stroke="rgb(0, 0, 0)" stroke-width="0" fill-rule="evenodd" stroke-linejoin="miter" fill="rgb(0, 0, 0)" shape-rendering="geometricPrecision" /></g><g id="Solid"><path d="M312.08 314.37 L312.08 314.37 L312.38 314.17 L312.68 314.34 L312.68 328.4 L312.38 328.57 L312.08 328.4 Z" stroke="rgb(0, 0, 0)" stroke-width="0" fill-rule="evenodd" stroke-linejoin="miter" fill="rgb(0, 0, 0)" shape-rendering="geometricPrecision" /></g><g id="Solid"><path d="M295.39 306.64 L295.39 306.64 L295.41 306.97 L295.43 307.3 L283.24 314.34 L282.94 314.17 L282.64 314 Z" stroke="rgb(0, 0, 0)" stroke-width="0" fill-rule="evenodd" stroke-linejoin="miter" fill="rgb(0, 0, 0)" shape-rendering="geometricPrecision" /></g><g id="Solid"><path d="M282.64 314 L282.64 314 L282.94 314.17 L283.24 314.34 L283.24 328.4 L282.94 328.57 L282.64 328.4 Z" stroke="rgb(0, 0, 0)" stroke-width="0" fill-rule="evenodd" stroke-linejoin="miter" fill="rgb(0, 0, 0)" shape-rendering="geometricPrecision" /></g><g id="Solid"><path d="M312.38 328.92 L312.38 328.92 L312.38 328.57 L312.68 328.4 L325.15 335.6 L324.85 335.77 L324.55 335.94 Z" stroke="rgb(0, 0, 0)" stroke-width="0" fill-rule="evenodd" stroke-linejoin="miter" fill="rgb(0, 0, 0)" shape-rendering="geometricPrecision" /><line x1="312.38" y1="331.56" x2="322.26" y2="337.27" stroke="rgb(0, 0, 0)" stroke-width="0.6" shape-rendering="auto" /></g><g id="Solid"><path d="M324.55 335.94 L324.55 335.94 L324.85 335.77 L325.15 335.6 L325.15 350.34 L324.85 350.17 L324.55 350 Z" stroke="rgb(0, 0, 0)" stroke-width="0" fill-rule="evenodd" stroke-linejoin="miter" fill="rgb(0, 0, 0)" shape-rendering="geometricPrecision" /></g><g id="Solid"><path d="M324.55 350 L324.55 350 L324.85 350.17 L325.15 350.34 L312.38 357.72 L312.38 357.37 L312.38 357.02 Z" stroke="rgb(0, 0, 0)" stroke-width="0" fill-rule="evenodd" stroke-linejoin="miter" fill="rgb(0, 0, 0)" shape-rendering="geometricPrecision" /><line x1="322.26" y1="348.67" x2="312.38" y2="354.38" stroke="rgb(0, 0, 0)" stroke-width="0.6" shape-rendering="auto" /></g><g id="Solid"><g id="Bond's parts"><path d="M300.05 350.1 L300.05 350.1 L300.35 350.1 L300.55 350.2 L300.75 350.3 L300.98 350.4 L301.02 350.5 L301.25 350.6 L301.45 350.7 L301.67 350.8 L301.73 350.9 L301.95 351 L302.15 351.1 L302.38 351.2 L302.42 351.3 L302.65 351.4 L302.88 351.5 L302.92 351.6 L303.15 351.7 L303.35 351.8 L303.58 351.9 L303.62 352 L303.85 352.1 L304.05 352.2 L304.27 352.3 L304.33 352.4 L304.55 352.5 L304.77 352.6 L304.83 352.7 L305.05 352.8 L305.25 352.9 L305.48 353 L305.52 353.1 L305.75 353.2 L305.95 353.3 L306.17 353.4 L306.23 353.5 L306.45 353.6 L306.67 353.7 L306.73 353.8 L306.95 353.9 L307.15 354 L307.38 354.1 L307.42 354.2 L307.65 354.3 L307.85 354.4 L308.08 354.5 L308.12 354.6 L308.35 354.7 L308.55 354.8 L308.77 354.9 L308.83 355 L309.05 355.1 L309.27 355.2 L309.33 355.3 L309.55 355.4 L309.75 355.5 L309.98 355.6 L310.02 355.7 L310.25 355.8 L310.45 355.9 L310.67 356 L310.73 356.1 L310.95 356.2 L311.17 356.3 L311.23 356.4 L311.45 356.5 L311.65 356.6 L311.88 356.7 L311.92 356.8 L312.15 356.9 L312.35 356.95 L312.35 357.65 L312.12 357.6 L312.08 357.5 L311.85 357.4 L311.65 357.3 L311.42 357.2 L311.38 357.1 L311.15 357 L310.95 356.9 L310.73 356.8 L310.67 356.7 L310.45 356.6 L310.25 356.5 L310.02 356.4 L309.98 356.3 L309.75 356.2 L309.52 356.1 L309.48 356 L309.25 355.9 L309.05 355.8 L308.83 355.7 L308.77 355.6 L308.55 355.5 L308.35 355.4 L308.12 355.3 L308.08 355.2 L307.85 355.1 L307.62 355 L307.58 354.9 L307.35 354.8 L307.15 354.7 L306.92 354.6 L306.88 354.5 L306.65 354.4 L306.45 354.3 L306.23 354.2 L306.17 354.1 L305.95 354 L305.75 353.9 L305.52 353.8 L305.48 353.7 L305.25 353.6 L305.02 353.5 L304.98 353.4 L304.75 353.3 L304.55 353.2 L304.33 353.1 L304.27 353 L304.05 352.9 L303.85 352.8 L303.62 352.7 L303.58 352.6 L303.35 352.5 L303.15 352.4 L302.92 352.3 L302.88 352.2 L302.65 352.1 L302.42 352 L302.38 351.9 L302.15 351.8 L301.95 351.7 L301.73 351.6 L301.67 351.5 L301.45 351.4 L301.25 351.3 L301.02 351.2 L300.98 351.1 L300.75 351 L300.52 350.9 L300.48 350.8 L300.25 350.7 L300.05 350.6 L299.83 350.5 L299.75 350.4 L299.67 350.3 L299.85 350.2 Z" stroke="rgb(0, 0, 0)" stroke-width="0" fill-rule="evenodd" stroke-linejoin="miter" fill="rgb(0, 0, 0)" shape-rendering="geometricPrecision" /></g></g><g id="Solid"><g id="Bond's parts"><path d="M299.7 335.65 L299.7 335.65 L299.73 335.7 L299.95 335.8 L300.17 335.9 L300.2 335.95 L300.25 350.05 L300.05 350.1 L299.85 350.2 Z" stroke="rgb(0, 0, 0)" stroke-width="0" fill-rule="evenodd" stroke-linejoin="miter" fill="rgb(0, 0, 0)" shape-rendering="geometricPrecision" /><path d="M302.15 337.25 L302.15 337.25 L302.75 337.25 L302.75 348.65 Z" stroke="rgb(0, 0, 0)" stroke-width="0" fill-rule="evenodd" stroke-linejoin="miter" fill="rgb(0, 0, 0)" shape-rendering="geometricPrecision" /></g></g><g id="Solid"><g id="Bond's parts"><path d="M311.83 328.5 L311.83 328.5 L312.27 328.5 L312.3 328.55 L312.3 328.95 L312.27 329 L312.05 329.1 L311.83 329.2 L311.77 329.3 L311.55 329.4 L311.33 329.5 L311.27 329.6 L311.05 329.7 L310.85 329.8 L310.62 329.9 L310.58 330 L310.35 330.1 L310.15 330.2 L309.92 330.3 L309.88 330.4 L309.65 330.5 L309.45 330.6 L309.23 330.7 L309.17 330.8 L308.95 330.9 L308.73 331 L308.67 331.1 L308.45 331.2 L308.25 331.3 L308.02 331.4 L307.98 331.5 L307.75 331.6 L307.55 331.7 L307.33 331.8 L307.27 331.9 L307.05 332 L306.85 332.1 L306.62 332.2 L306.58 332.3 L306.35 332.4 L306.12 332.5 L306.08 332.6 L305.85 332.7 L305.65 332.8 L305.42 332.9 L305.38 333 L305.15 333.1 L304.95 333.2 L304.73 333.3 L304.67 333.4 L304.45 333.5 L304.25 333.6 L304.02 333.7 L303.98 333.8 L303.75 333.9 L303.52 334 L303.48 334.1 L303.25 334.2 L303.05 334.3 L302.83 334.4 L302.77 334.5 L302.55 334.6 L302.35 334.7 L302.12 334.8 L302.08 334.9 L301.85 335 L301.62 335.1 L301.58 335.2 L301.35 335.3 L301.15 335.4 L300.92 335.5 L300.88 335.6 L300.65 335.7 L300.45 335.8 L300.23 335.9 L300.17 335.9 L299.95 335.8 L299.73 335.7 L299.7 335.6 L299.73 335.5 L299.95 335.4 L300.17 335.3 L300.23 335.2 L300.45 335.1 L300.65 335 L300.88 334.9 L300.92 334.8 L301.15 334.7 L301.35 334.6 L301.58 334.5 L301.62 334.4 L301.85 334.3 L302.08 334.2 L302.12 334.1 L302.35 334 L302.55 333.9 L302.77 333.8 L302.83 333.7 L303.05 333.6 L303.25 333.5 L303.48 333.4 L303.52 333.3 L303.75 333.2 L303.95 333.1 L304.17 333 L304.23 332.9 L304.45 332.8 L304.67 332.7 L304.73 332.6 L304.95 332.5 L305.15 332.4 L305.38 332.3 L305.42 332.2 L305.65 332.1 L305.85 332 L306.08 331.9 L306.12 331.8 L306.35 331.7 L306.55 331.6 L306.77 331.5 L306.83 331.4 L307.05 331.3 L307.27 331.2 L307.33 331.1 L307.55 331 L307.75 330.9 L307.98 330.8 L308.02 330.7 L308.25 330.6 L308.45 330.5 L308.67 330.4 L308.73 330.3 L308.95 330.2 L309.17 330.1 L309.23 330 L309.45 329.9 L309.65 329.8 L309.88 329.7 L309.92 329.6 L310.15 329.5 L310.35 329.4 L310.58 329.3 L310.62 329.2 L310.85 329.1 L311.05 329 L311.27 328.9 L311.33 328.8 L311.55 328.7 L311.77 328.6 Z" stroke="rgb(0, 0, 0)" stroke-width="0" fill-rule="evenodd" stroke-linejoin="miter" fill="rgb(0, 0, 0)" shape-rendering="geometricPrecision" /></g></g><g id="Solid"><path d="M282.94 328.92 L282.94 328.92 L282.94 328.57 L283.24 328.4 L295.71 335.6 L295.41 335.77 L295.11 335.94 Z" stroke="rgb(0, 0, 0)" stroke-width="0" fill-rule="evenodd" stroke-linejoin="miter" fill="rgb(0, 0, 0)" shape-rendering="geometricPrecision" /><line x1="282.94" y1="331.56" x2="292.82" y2="337.27" stroke="rgb(0, 0, 0)" stroke-width="0.6" shape-rendering="auto" /></g><g id="Solid"><path d="M295.11 335.94 L295.11 335.94 L295.41 335.77 L295.71 335.6 L295.71 350.34 L295.41 350.17 L295.11 350 Z" stroke="rgb(0, 0, 0)" stroke-width="0" fill-rule="evenodd" stroke-linejoin="miter" fill="rgb(0, 0, 0)" shape-rendering="geometricPrecision" /></g><g id="Solid"><path d="M295.11 350 L295.11 350 L295.41 350.17 L295.71 350.34 L282.94 357.72 L282.94 357.37 L282.94 357.02 Z" stroke="rgb(0, 0, 0)" stroke-width="0" fill-rule="evenodd" stroke-linejoin="miter" fill="rgb(0, 0, 0)" shape-rendering="geometricPrecision" /><line x1="292.82" y1="348.67" x2="282.94" y2="354.38" stroke="rgb(0, 0, 0)" stroke-width="0.6" shape-rendering="auto" /></g><g id="Solid"><path d="M282.94 357.02 L282.94 357.02 L282.94 357.37 L282.94 357.72 L270.17 350.34 L270.47 350.17 L270.77 350 Z" stroke="rgb(0, 0, 0)" stroke-width="0" fill-rule="evenodd" stroke-linejoin="miter" fill="rgb(0, 0, 0)" shape-rendering="geometricPrecision" /></g><g id="Solid"><path d="M270.77 350 L270.77 350 L270.47 350.17 L270.17 350.34 L270.17 335.6 L270.47 335.77 L270.77 335.94 Z" stroke="rgb(0, 0, 0)" stroke-width="0" fill-rule="evenodd" stroke-linejoin="miter" fill="rgb(0, 0, 0)" shape-rendering="geometricPrecision" /><line x1="273.06" y1="348.67" x2="273.06" y2="337.27" stroke="rgb(0, 0, 0)" stroke-width="0.6" shape-rendering="auto" /></g><g id="Solid"><path d="M270.77 335.94 L270.77 335.94 L270.47 335.77 L270.17 335.6 L282.64 328.4 L282.94 328.57 L282.94 328.92 Z" stroke="rgb(0, 0, 0)" stroke-width="0" fill-rule="evenodd" stroke-linejoin="miter" fill="rgb(0, 0, 0)" shape-rendering="geometricPrecision" /></g><g id="Bracket"><path d="M306.11 317.25 A15.38,15.38 0 0,1 306.11 301.87 " stroke="rgb(0, 0, 0)" stroke-width="0.6" fill-rule="evenodd" stroke-linejoin="miter" fill="none" shape-rendering="geometricPrecision" /></g><g id="Bracket"><path d="M327.48 301.87 A15.38,15.38 0 0,1 327.48 317.25 " stroke="rgb(0, 0, 0)" stroke-width="0.6" fill-rule="evenodd" stroke-linejoin="miter" fill="none" shape-rendering="geometricPrecision" /></g><circle cx="280.16" cy="314.2" r="0.833333333333333" stroke="rgb(0, 0, 0)" stroke-width="0" fill="rgb(0, 0, 0)" /><g><text xml:space="preserve" text-anchor="start" text-rendering="geometricPrecision"><tspan x="234.56" y="324" font-family="Arial" font-size="10" fill="rgb(0, 0, 0)">+</tspan></text></g></g></g></svg>