<?xml version="1.0"?><svg xmlns="http://www.w3.org/2000/svg" xmlns:xlink="http://www.w3.org/1999/xlink" viewBox="20.06 20.67 384.67 437.85" preserveAspectRatio="xMidYMid" width="100%" height="100%"><clipPath id="329"><rect x="0.3" y="0.3" width="539.4" height="719.15" /></clipPath><g id="drawing"><rect x="20.06" y="20.67" width="100%" height="100%" fill="rgb(255, 255, 255)" /><g id="page" clip-path="url(#329)"><g><text xml:space="preserve" text-anchor="start" text-rendering="geometricPrecision"><tspan x="83.81" y="53.63" font-family="Arial" font-size="10" fill="rgb(0, 0, 0)">R</tspan></text></g><g id="Charge9"><line x1="90.72" y1="44.46" x2="94.66" y2="44.46" stroke="rgb(0, 0, 0)" stroke-width="0.48" shape-rendering="auto" /></g><g id="Solid"><path d="M127.54 36.26 L127.54 36.26 L127.69 36 L127.84 35.74 L140.46 43.03 L140.16 43.2 L139.86 43.37 Z" stroke="rgb(0, 0, 0)" stroke-width="0" fill-rule="evenodd" stroke-linejoin="miter" fill="rgb(0, 0, 0)" shape-rendering="geometricPrecision" /><line x1="126.39" y1="38.24" x2="137.57" y2="44.7" stroke="rgb(0, 0, 0)" stroke-width="0.6" shape-rendering="auto" /></g><g><text xml:space="preserve" text-anchor="start" text-rendering="geometricPrecision"><tspan x="136.83" y="61.5" font-family="Arial" font-size="10" fill="rgb(0, 0, 0)">X</tspan></text></g><g id="Solid"><path d="M139.86 43.37 L139.86 43.37 L140.16 43.2 L140.46 43.03 L140.46 52.8 L140.16 52.8 L139.86 52.8 Z" stroke="rgb(0, 0, 0)" stroke-width="0" fill-rule="evenodd" stroke-linejoin="miter" fill="rgb(0, 0, 0)" shape-rendering="geometricPrecision" /></g><g><text xml:space="preserve" text-anchor="start" text-rendering="geometricPrecision"><tspan x="216.34" y="49.65" font-family="Arial" font-size="10" fill="rgb(0, 0, 0)">R</tspan></text></g><g id="Solid"><path d="M224.44 43.5 L224.44 43.5 L224.29 43.24 L224.14 42.98 L232.41 38.2 L232.41 38.55 L232.41 38.9 Z" stroke="rgb(0, 0, 0)" stroke-width="0" fill-rule="evenodd" stroke-linejoin="miter" fill="rgb(0, 0, 0)" shape-rendering="geometricPrecision" /></g><g id="Solid"><path d="M232.41 38.9 L232.41 38.9 L232.41 38.55 L232.41 38.2 L245.18 45.58 L244.88 45.75 L244.58 45.92 Z" stroke="rgb(0, 0, 0)" stroke-width="0" fill-rule="evenodd" stroke-linejoin="miter" fill="rgb(0, 0, 0)" shape-rendering="geometricPrecision" /></g><g><text xml:space="preserve" text-anchor="start" text-rendering="geometricPrecision"><tspan x="241.55" y="64.05" font-family="Arial" font-size="10" fill="rgb(0, 0, 0)">X</tspan></text></g><g id="Solid"><path d="M244.58 45.92 L244.58 45.92 L244.88 45.75 L245.18 45.58 L245.18 55.3 L244.88 55.3 L244.58 55.3 Z" stroke="rgb(0, 0, 0)" stroke-width="0" fill-rule="evenodd" stroke-linejoin="miter" fill="rgb(0, 0, 0)" shape-rendering="geometricPrecision" /></g><g><text xml:space="preserve" text-anchor="start" text-rendering="geometricPrecision"><tspan x="37.46" y="119.1" font-family="Arial" font-size="10" fill="rgb(0, 0, 0)">R</tspan></text></g><g id="Solid"><path d="M45.54 112.96 L45.54 112.96 L45.39 112.7 L45.24 112.44 L53.53 107.65 L53.53 108 L53.53 108.35 Z" stroke="rgb(0, 0, 0)" stroke-width="0" fill-rule="evenodd" stroke-linejoin="miter" fill="rgb(0, 0, 0)" shape-rendering="geometricPrecision" /></g><g id="Solid"><path d="M53.53 108.35 L53.53 108.35 L53.53 108 L53.53 107.65 L66 114.85 L66 115.2 L65.7 115.37 Z" stroke="rgb(0, 0, 0)" stroke-width="0" fill-rule="evenodd" stroke-linejoin="miter" fill="rgb(0, 0, 0)" shape-rendering="geometricPrecision" /></g><g id="Solid"><path d="M66.3 115.37 L66.3 115.37 L66 115.2 L66 114.85 L78.47 107.65 L78.47 108 L78.47 108.35 Z" stroke="rgb(0, 0, 0)" stroke-width="0" fill-rule="evenodd" stroke-linejoin="miter" fill="rgb(0, 0, 0)" shape-rendering="geometricPrecision" /></g><g id="Solid"><path d="M78.47 108.35 L78.47 108.35 L78.47 108 L78.47 107.65 L91.25 115.03 L90.95 115.2 L90.65 115.37 Z" stroke="rgb(0, 0, 0)" stroke-width="0" fill-rule="evenodd" stroke-linejoin="miter" fill="rgb(0, 0, 0)" shape-rendering="geometricPrecision" /></g><g id="Solid"><path d="M65.7 115.37 L65.7 115.37 L66 115.2 L66.3 115.37 L66.3 124.8 L66 124.8 L65.7 124.8 Z" stroke="rgb(0, 0, 0)" stroke-width="0" fill-rule="evenodd" stroke-linejoin="miter" fill="rgb(0, 0, 0)" shape-rendering="geometricPrecision" /></g><g><text xml:space="preserve" text-anchor="start" text-rendering="geometricPrecision"><tspan x="62.68" y="133.5" font-family="Arial" font-size="10" fill="rgb(0, 0, 0)">X</tspan></text></g><g id="Solid"><path d="M90.65 115.37 L90.65 115.37 L90.95 115.2 L91.25 115.03 L91.25 124.8 L90.95 124.8 L90.65 124.8 Z" stroke="rgb(0, 0, 0)" stroke-width="0" fill-rule="evenodd" stroke-linejoin="miter" fill="rgb(0, 0, 0)" shape-rendering="geometricPrecision" /></g><g><text xml:space="preserve" text-anchor="start" text-rendering="geometricPrecision"><tspan x="87.62" y="133.5" font-family="Arial" font-size="10" fill="rgb(0, 0, 0)">X</tspan></text></g><g><text xml:space="preserve" text-anchor="start" text-rendering="geometricPrecision"><tspan x="215.96" y="119.32" font-family="Arial" font-size="10" fill="rgb(0, 0, 0)">R</tspan></text></g><g id="Solid"><path d="M224.04 113.18 L224.04 113.18 L223.89 112.92 L223.74 112.66 L232.03 107.87 L232.03 108.22 L232.03 108.57 Z" stroke="rgb(0, 0, 0)" stroke-width="0" fill-rule="evenodd" stroke-linejoin="miter" fill="rgb(0, 0, 0)" shape-rendering="geometricPrecision" /></g><g id="Solid"><path d="M232.03 108.57 L232.03 108.57 L232.03 108.22 L232.03 107.87 L244.5 115.07 L244.5 115.42 L244.2 115.59 Z" stroke="rgb(0, 0, 0)" stroke-width="0" fill-rule="evenodd" stroke-linejoin="miter" fill="rgb(0, 0, 0)" shape-rendering="geometricPrecision" /></g><g id="Solid"><path d="M244.8 115.59 L244.8 115.59 L244.5 115.42 L244.5 115.07 L256.97 107.87 L256.97 108.22 L256.97 108.57 Z" stroke="rgb(0, 0, 0)" stroke-width="0" fill-rule="evenodd" stroke-linejoin="miter" fill="rgb(0, 0, 0)" shape-rendering="geometricPrecision" /></g><g id="Solid"><path d="M256.97 108.57 L256.97 108.57 L256.97 108.22 L256.97 107.87 L269.45 115.07 L269.45 115.42 L269.15 115.59 Z" stroke="rgb(0, 0, 0)" stroke-width="0" fill-rule="evenodd" stroke-linejoin="miter" fill="rgb(0, 0, 0)" shape-rendering="geometricPrecision" /></g><g><text xml:space="preserve" text-anchor="start" text-rendering="geometricPrecision"><tspan x="241.18" y="133.72" font-family="Arial" font-size="10" fill="rgb(0, 0, 0)">X</tspan></text></g><g id="Solid"><path d="M244.2 115.59 L244.2 115.59 L244.5 115.42 L244.8 115.59 L244.8 125 L244.5 125 L244.2 125 Z" stroke="rgb(0, 0, 0)" stroke-width="0" fill-rule="evenodd" stroke-linejoin="miter" fill="rgb(0, 0, 0)" shape-rendering="geometricPrecision" /></g><g><text xml:space="preserve" text-anchor="start" text-rendering="geometricPrecision"><tspan x="266.12" y="133.72" font-family="Arial" font-size="10" fill="rgb(0, 0, 0)">X</tspan></text></g><g id="Solid"><path d="M269.15 115.59 L269.15 115.59 L269.45 115.42 L269.75 115.59 L269.75 125 L269.45 125 L269.15 125 Z" stroke="rgb(0, 0, 0)" stroke-width="0" fill-rule="evenodd" stroke-linejoin="miter" fill="rgb(0, 0, 0)" shape-rendering="geometricPrecision" /></g><g id="Solid"><path d="M269.75 115.59 L269.75 115.59 L269.45 115.42 L269.45 115.07 L281.92 107.87 L281.92 108.22 L281.92 108.57 Z" stroke="rgb(0, 0, 0)" stroke-width="0" fill-rule="evenodd" stroke-linejoin="miter" fill="rgb(0, 0, 0)" shape-rendering="geometricPrecision" /></g><g id="Solid"><path d="M281.92 108.57 L281.92 108.57 L281.92 108.22 L281.92 107.87 L294.69 115.25 L294.39 115.42 L294.09 115.59 Z" stroke="rgb(0, 0, 0)" stroke-width="0" fill-rule="evenodd" stroke-linejoin="miter" fill="rgb(0, 0, 0)" shape-rendering="geometricPrecision" /></g><g><text xml:space="preserve" text-anchor="start" text-rendering="geometricPrecision"><tspan x="291.06" y="133.72" font-family="Arial" font-size="10" fill="rgb(0, 0, 0)">X</tspan></text></g><g id="Solid"><path d="M294.09 115.59 L294.09 115.59 L294.39 115.42 L294.69 115.25 L294.69 125 L294.39 125 L294.09 125 Z" stroke="rgb(0, 0, 0)" stroke-width="0" fill-rule="evenodd" stroke-linejoin="miter" fill="rgb(0, 0, 0)" shape-rendering="geometricPrecision" /></g><g id="Solid"><path d="M127.16 108.33 L127.16 108.33 L127.31 108.07 L127.46 107.81 L140.08 115.1 L139.78 115.27 L139.48 115.44 Z" stroke="rgb(0, 0, 0)" stroke-width="0" fill-rule="evenodd" stroke-linejoin="miter" fill="rgb(0, 0, 0)" shape-rendering="geometricPrecision" /><line x1="126.01" y1="110.31" x2="137.19" y2="116.77" stroke="rgb(0, 0, 0)" stroke-width="0.6" shape-rendering="auto" /></g><g id="Solid"><path d="M139.48 115.44 L139.48 115.44 L139.78 115.27 L140.08 115.1 L140.08 124.9 L139.78 124.9 L139.48 124.9 Z" stroke="rgb(0, 0, 0)" stroke-width="0" fill-rule="evenodd" stroke-linejoin="miter" fill="rgb(0, 0, 0)" shape-rendering="geometricPrecision" /></g><g><text xml:space="preserve" text-anchor="start" text-rendering="geometricPrecision"><tspan x="136.46" y="133.57" font-family="Arial" font-size="10" fill="rgb(0, 0, 0)">X</tspan></text></g><g id="Charge81"><line x1="92.82" y1="115.22" x2="96.76" y2="115.22" stroke="rgb(0, 0, 0)" stroke-width="0.48" shape-rendering="auto" /></g><g id="Charge82"><line x1="246.75" y1="45.77" x2="250.69" y2="45.77" stroke="rgb(0, 0, 0)" stroke-width="0.48" shape-rendering="auto" /></g><g id="Charge83"><line x1="296.26" y1="115.45" x2="300.2" y2="115.45" stroke="rgb(0, 0, 0)" stroke-width="0.48" shape-rendering="auto" /></g><g><text xml:space="preserve" text-anchor="start" text-rendering="geometricPrecision"><tspan x="20.81" y="29.63" font-family="Arial" font-size="10" fill="rgb(0, 0, 0)">Initiation:</tspan></text></g><g><text xml:space="preserve" text-anchor="start" text-rendering="geometricPrecision"><tspan x="20.06" y="91.13" font-family="Arial" font-size="10" fill="rgb(0, 0, 0)">Propagation:</tspan></text></g><g><text xml:space="preserve" text-anchor="start" text-rendering="geometricPrecision"><tspan x="110.06" y="54.38" font-family="Arial" font-size="10" fill="rgb(0, 0, 0)">+</tspan></text></g><g><text xml:space="preserve" text-anchor="start" text-rendering="geometricPrecision"><tspan x="110.06" y="123.82" font-family="Arial" font-size="10" fill="rgb(0, 0, 0)">+</tspan></text></g><g id="Arrow"><line x1="191.17" y1="49.13" x2="164.06" y2="49.13" stroke="rgb(0, 0, 0)" stroke-width="0.6" shape-rendering="auto" /><path d="M201.98 49.13 L188.48 45.75 C190.6 47.65 190.6 50.61 188.48 52.51 Z" stroke="rgb(0, 0, 0)" stroke-width="0" fill-rule="evenodd" stroke-linejoin="miter" stroke-miterlimit="6.92897103804181" fill="rgb(0, 0, 0)" shape-rendering="geometricPrecision" /></g><g id="Arrow"><line x1="191.92" y1="118.05" x2="164.81" y2="118.05" stroke="rgb(0, 0, 0)" stroke-width="0.6" shape-rendering="auto" /><path d="M202.73 118.05 L189.23 114.67 C191.35 116.57 191.35 119.53 189.23 121.43 Z" stroke="rgb(0, 0, 0)" stroke-width="0" fill-rule="evenodd" stroke-linejoin="miter" stroke-miterlimit="6.92897103804181" fill="rgb(0, 0, 0)" shape-rendering="geometricPrecision" /></g><g id="Bracket"><path d="M70.69 102.45 A16.5,16.5 0 0,1 70.69 118.95 " stroke="rgb(0, 0, 0)" stroke-width="0.6" fill-rule="evenodd" stroke-linejoin="miter" fill="none" shape-rendering="geometricPrecision" /></g><g id="Bracket"><path d="M50.81 118.95 A16.5,16.5 0 0,1 50.81 102.45 " stroke="rgb(0, 0, 0)" stroke-width="0.6" fill-rule="evenodd" stroke-linejoin="miter" fill="none" shape-rendering="geometricPrecision" /></g><g><text xml:space="preserve" text-anchor="start" text-rendering="geometricPrecision"><tspan x="72.94" y="123.07" font-family="Arial" font-size="10" fill="rgb(0, 0, 0)">n</tspan></text></g><g id="Bracket"><path d="M249.19 102.3 A16.5,16.5 0 0,1 249.19 118.8 " stroke="rgb(0, 0, 0)" stroke-width="0.6" fill-rule="evenodd" stroke-linejoin="miter" fill="none" shape-rendering="geometricPrecision" /></g><g id="Bracket"><path d="M229.31 118.8 A16.5,16.5 0 0,1 229.31 102.3 " stroke="rgb(0, 0, 0)" stroke-width="0.6" fill-rule="evenodd" stroke-linejoin="miter" fill="none" shape-rendering="geometricPrecision" /></g><g><text xml:space="preserve" text-anchor="start" text-rendering="geometricPrecision"><tspan x="251.44" y="122.92" font-family="Arial" font-size="10" fill="rgb(0, 0, 0)">n</tspan></text></g><g><text xml:space="preserve" text-anchor="start" text-rendering="geometricPrecision"><tspan x="38.21" y="246.97" font-family="Arial" font-size="10" fill="rgb(0, 0, 0)">R</tspan></text></g><g id="Solid"><path d="M46.34 240.81 L46.34 240.81 L46.19 240.55 L46.04 240.29 L54.28 235.53 L54.28 235.88 L54.28 236.23 Z" stroke="rgb(0, 0, 0)" stroke-width="0" fill-rule="evenodd" stroke-linejoin="miter" fill="rgb(0, 0, 0)" shape-rendering="geometricPrecision" /></g><g id="Solid"><path d="M54.28 236.23 L54.28 236.23 L54.28 235.88 L54.28 235.53 L66.75 242.72 L66.75 243.07 L66.45 243.24 Z" stroke="rgb(0, 0, 0)" stroke-width="0" fill-rule="evenodd" stroke-linejoin="miter" fill="rgb(0, 0, 0)" shape-rendering="geometricPrecision" /></g><g id="Solid"><path d="M67.05 243.24 L67.05 243.24 L66.75 243.07 L66.75 242.72 L79.22 235.53 L79.22 235.88 L79.22 236.23 Z" stroke="rgb(0, 0, 0)" stroke-width="0" fill-rule="evenodd" stroke-linejoin="miter" fill="rgb(0, 0, 0)" shape-rendering="geometricPrecision" /></g><g id="Solid"><path d="M79.22 236.23 L79.22 236.23 L79.22 235.88 L79.22 235.53 L92 242.9 L91.7 243.07 L91.4 243.24 Z" stroke="rgb(0, 0, 0)" stroke-width="0" fill-rule="evenodd" stroke-linejoin="miter" fill="rgb(0, 0, 0)" shape-rendering="geometricPrecision" /></g><g id="Solid"><path d="M66.45 243.24 L66.45 243.24 L66.75 243.07 L67.05 243.24 L67.05 252.7 L66.75 252.7 L66.45 252.7 Z" stroke="rgb(0, 0, 0)" stroke-width="0" fill-rule="evenodd" stroke-linejoin="miter" fill="rgb(0, 0, 0)" shape-rendering="geometricPrecision" /></g><g><text xml:space="preserve" text-anchor="start" text-rendering="geometricPrecision"><tspan x="63.43" y="261.37" font-family="Arial" font-size="10" fill="rgb(0, 0, 0)">X</tspan></text></g><g id="Solid"><path d="M91.4 243.24 L91.4 243.24 L91.7 243.07 L92 242.9 L92 252.7 L91.7 252.7 L91.4 252.7 Z" stroke="rgb(0, 0, 0)" stroke-width="0" fill-rule="evenodd" stroke-linejoin="miter" fill="rgb(0, 0, 0)" shape-rendering="geometricPrecision" /></g><g><text xml:space="preserve" text-anchor="start" text-rendering="geometricPrecision"><tspan x="88.37" y="261.37" font-family="Arial" font-size="10" fill="rgb(0, 0, 0)">X</tspan></text></g><g id="Charge137"><line x1="93.57" y1="243.1" x2="97.51" y2="243.1" stroke="rgb(0, 0, 0)" stroke-width="0.48" shape-rendering="auto" /></g><g id="Bracket"><path d="M71.44 230.32 A16.5,16.5 0 0,1 71.44 246.82 " stroke="rgb(0, 0, 0)" stroke-width="0.6" fill-rule="evenodd" stroke-linejoin="miter" fill="none" shape-rendering="geometricPrecision" /></g><g id="Bracket"><path d="M51.56 246.82 A16.5,16.5 0 0,1 51.56 230.32 " stroke="rgb(0, 0, 0)" stroke-width="0.6" fill-rule="evenodd" stroke-linejoin="miter" fill="none" shape-rendering="geometricPrecision" /></g><g><text xml:space="preserve" text-anchor="start" text-rendering="geometricPrecision"><tspan x="73.69" y="250.95" font-family="Arial" font-size="10" fill="rgb(0, 0, 0)">n</tspan></text></g><g><text xml:space="preserve" text-anchor="start" text-rendering="geometricPrecision"><tspan x="193.04" y="248.1" font-family="Arial" font-size="10" fill="rgb(0, 0, 0)">R</tspan></text></g><g id="Solid"><path d="M192.66 241.56 L192.66 241.56 L192.51 241.82 L192.36 242.08 L184.17 237.35 L184.17 237 L184.17 236.65 Z" stroke="rgb(0, 0, 0)" stroke-width="0" fill-rule="evenodd" stroke-linejoin="miter" fill="rgb(0, 0, 0)" shape-rendering="geometricPrecision" /></g><g id="Solid"><path d="M184.17 236.65 L184.17 236.65 L184.17 237 L184.17 237.35 L172 244.37 L171.7 244.2 L171.7 243.85 Z" stroke="rgb(0, 0, 0)" stroke-width="0" fill-rule="evenodd" stroke-linejoin="miter" fill="rgb(0, 0, 0)" shape-rendering="geometricPrecision" /></g><g id="Solid"><path d="M171.7 243.85 L171.7 243.85 L171.7 244.2 L171.4 244.37 L159.23 237.35 L159.23 237 L159.23 236.65 Z" stroke="rgb(0, 0, 0)" stroke-width="0" fill-rule="evenodd" stroke-linejoin="miter" fill="rgb(0, 0, 0)" shape-rendering="geometricPrecision" /></g><g id="Solid"><path d="M159.23 236.65 L159.23 236.65 L159.23 237 L159.23 237.35 L147.06 244.37 L146.76 244.2 L146.46 244.03 Z" stroke="rgb(0, 0, 0)" stroke-width="0" fill-rule="evenodd" stroke-linejoin="miter" fill="rgb(0, 0, 0)" shape-rendering="geometricPrecision" /></g><g><text xml:space="preserve" text-anchor="start" text-rendering="geometricPrecision"><tspan x="168.38" y="262.5" font-family="Arial" font-size="10" fill="rgb(0, 0, 0)">X</tspan></text></g><g id="Solid"><path d="M171.4 244.37 L171.4 244.37 L171.7 244.2 L172 244.37 L172 253.8 L171.7 253.8 L171.4 253.8 Z" stroke="rgb(0, 0, 0)" stroke-width="0" fill-rule="evenodd" stroke-linejoin="miter" fill="rgb(0, 0, 0)" shape-rendering="geometricPrecision" /></g><g id="Solid"><path d="M146.46 244.03 L146.46 244.03 L146.76 244.2 L147.06 244.37 L147.06 253.8 L146.76 253.8 L146.46 253.8 Z" stroke="rgb(0, 0, 0)" stroke-width="0" fill-rule="evenodd" stroke-linejoin="miter" fill="rgb(0, 0, 0)" shape-rendering="geometricPrecision" /></g><g><text xml:space="preserve" text-anchor="start" text-rendering="geometricPrecision"><tspan x="143.43" y="262.5" font-family="Arial" font-size="10" fill="rgb(0, 0, 0)">X</tspan></text></g><g id="Charge158"><line x1="140.96" y1="244.22" x2="144.9" y2="244.22" stroke="rgb(0, 0, 0)" stroke-width="0.48" shape-rendering="auto" /></g><g id="Bracket"><path d="M167.03 247.95 A16.5,16.5 0 0,1 167.03 231.45 " stroke="rgb(0, 0, 0)" stroke-width="0.6" fill-rule="evenodd" stroke-linejoin="miter" fill="none" shape-rendering="geometricPrecision" /></g><g id="Bracket"><path d="M186.9 231.45 A16.5,16.5 0 0,1 186.9 247.95 " stroke="rgb(0, 0, 0)" stroke-width="0.6" fill-rule="evenodd" stroke-linejoin="miter" fill="none" shape-rendering="geometricPrecision" /></g><g><text xml:space="preserve" text-anchor="end" text-rendering="geometricPrecision"><tspan x="164.78" y="252.07" font-family="Arial" font-size="10" fill="rgb(0, 0, 0)">n</tspan></text></g><g><text xml:space="preserve" text-anchor="start" text-rendering="geometricPrecision"><tspan x="117.19" y="247.88" font-family="Arial" font-size="10" fill="rgb(0, 0, 0)">+</tspan></text></g><g id="Solid"><path d="M42.11 345.65 L42.11 345.65 L41.81 345.45 L41.83 345.12 L58.78 337.92 L58.78 338.25 L58.78 338.58 Z" stroke="rgb(0, 0, 0)" stroke-width="0" fill-rule="evenodd" stroke-linejoin="miter" fill="rgb(0, 0, 0)" shape-rendering="geometricPrecision" /></g><g id="Solid"><path d="M58.78 338.58 L58.78 338.58 L58.78 338.25 L58.78 337.92 L75.75 345.12 L75.75 345.45 L75.45 345.65 Z" stroke="rgb(0, 0, 0)" stroke-width="0" fill-rule="evenodd" stroke-linejoin="miter" fill="rgb(0, 0, 0)" shape-rendering="geometricPrecision" /></g><g id="Solid"><path d="M76.05 345.65 L76.05 345.65 L75.75 345.45 L75.75 345.12 L92.72 337.92 L92.72 338.25 L92.72 338.58 Z" stroke="rgb(0, 0, 0)" stroke-width="0" fill-rule="evenodd" stroke-linejoin="miter" fill="rgb(0, 0, 0)" shape-rendering="geometricPrecision" /></g><g id="Solid"><path d="M92.72 338.58 L92.72 338.58 L92.72 338.25 L92.72 337.92 L110 345.25 L109.7 345.45 L109.4 345.65 Z" stroke="rgb(0, 0, 0)" stroke-width="0" fill-rule="evenodd" stroke-linejoin="miter" fill="rgb(0, 0, 0)" shape-rendering="geometricPrecision" /></g><g id="Solid"><path d="M75.45 345.65 L75.45 345.65 L75.75 345.45 L76.05 345.65 L76.05 359.68 L75.75 359.85 L75.45 359.68 Z" stroke="rgb(0, 0, 0)" stroke-width="0" fill-rule="evenodd" stroke-linejoin="miter" fill="rgb(0, 0, 0)" shape-rendering="geometricPrecision" /></g><g id="Solid"><path d="M109.4 345.65 L109.4 345.65 L109.7 345.45 L110 345.25 L110 359.68 L109.7 359.85 L109.4 359.68 Z" stroke="rgb(0, 0, 0)" stroke-width="0" fill-rule="evenodd" stroke-linejoin="miter" fill="rgb(0, 0, 0)" shape-rendering="geometricPrecision" /></g><g id="Charge177"><line x1="111.57" y1="345.47" x2="115.51" y2="345.47" stroke="rgb(0, 0, 0)" stroke-width="0.48" shape-rendering="auto" /></g><g id="Bracket"><path d="M80.44 332.7 A16.5,16.5 0 0,1 80.44 349.2 " stroke="rgb(0, 0, 0)" stroke-width="0.6" fill-rule="evenodd" stroke-linejoin="miter" fill="none" shape-rendering="geometricPrecision" /></g><g id="Bracket"><path d="M51.56 349.2 A16.5,16.5 0 0,1 51.56 332.7 " stroke="rgb(0, 0, 0)" stroke-width="0.6" fill-rule="evenodd" stroke-linejoin="miter" fill="none" shape-rendering="geometricPrecision" /></g><g><text xml:space="preserve" text-anchor="start" text-rendering="geometricPrecision"><tspan x="82.69" y="353.32" font-family="Arial" font-size="10" fill="rgb(0, 0, 0)">n</tspan></text></g><g id="Solid"><path d="M352.76 214.67 L352.76 214.67 L353.06 214.5 L353.36 214.33 L353.36 229.07 L353.06 228.9 L352.76 228.73 Z" stroke="rgb(0, 0, 0)" stroke-width="0" fill-rule="evenodd" stroke-linejoin="miter" fill="rgb(0, 0, 0)" shape-rendering="geometricPrecision" /></g><g id="Solid"><path d="M352.76 228.73 L352.76 228.73 L353.06 228.9 L353.36 229.07 L340.74 236.36 L340.59 236.1 L340.44 235.84 Z" stroke="rgb(0, 0, 0)" stroke-width="0" fill-rule="evenodd" stroke-linejoin="miter" fill="rgb(0, 0, 0)" shape-rendering="geometricPrecision" /></g><g id="Solid"><path d="M353.36 214.33 L353.36 214.33 L353.06 214.5 L352.76 214.67 L340.44 207.56 L340.59 207.3 L340.74 207.04 Z" stroke="rgb(0, 0, 0)" stroke-width="0" fill-rule="evenodd" stroke-linejoin="miter" fill="rgb(0, 0, 0)" shape-rendering="geometricPrecision" /></g><g id="Charge189"><line x1="354.93" y1="214.52" x2="358.87" y2="214.52" stroke="rgb(0, 0, 0)" stroke-width="0.48" shape-rendering="auto" /></g><g><text xml:space="preserve" text-anchor="start" text-rendering="geometricPrecision"><tspan x="374.06" y="223.5" font-family="Arial" font-size="10" fill="rgb(0, 0, 0)">Li</tspan></text></g><g id="Charge193"><line x1="381.46" y1="214.13" x2="385.4" y2="214.13" stroke="rgb(0, 0, 0)" stroke-width="0.48" shape-rendering="auto" /><line x1="383.43" y1="212.16" x2="383.43" y2="216.1" stroke="rgb(0, 0, 0)" stroke-width="0.48" shape-rendering="auto" /></g><g id="Solid"><path d="M41.51 345.62 L41.51 345.62 L41.81 345.45 L42.11 345.65 L42.11 360.02 L41.81 359.85 L41.51 359.68 Z" stroke="rgb(0, 0, 0)" stroke-width="0" fill-rule="evenodd" stroke-linejoin="miter" fill="rgb(0, 0, 0)" shape-rendering="geometricPrecision" /></g><g id="Solid"><path d="M41.51 359.68 L41.51 359.68 L41.81 359.85 L42.11 360.02 L29.49 367.31 L29.34 367.05 L29.19 366.79 Z" stroke="rgb(0, 0, 0)" stroke-width="0" fill-rule="evenodd" stroke-linejoin="miter" fill="rgb(0, 0, 0)" shape-rendering="geometricPrecision" /></g><g id="Solid"><path d="M41.83 345.12 L41.83 345.12 L41.81 345.45 L41.51 345.62 L29.19 338.51 L29.34 338.25 L29.49 337.99 Z" stroke="rgb(0, 0, 0)" stroke-width="0" fill-rule="evenodd" stroke-linejoin="miter" fill="rgb(0, 0, 0)" shape-rendering="geometricPrecision" /></g><g id="Solid"><path d="M75.45 359.68 L75.45 359.68 L75.75 359.85 L75.75 360.2 L63.58 367.22 L63.28 367.05 L62.98 366.88 Z" stroke="rgb(0, 0, 0)" stroke-width="0" fill-rule="evenodd" stroke-linejoin="miter" fill="rgb(0, 0, 0)" shape-rendering="geometricPrecision" /><line x1="77.05" y1="362.09" x2="65.87" y2="368.55" stroke="rgb(0, 0, 0)" stroke-width="0.6" shape-rendering="auto" /></g><g id="Solid"><path d="M62.98 366.88 L62.98 366.88 L63.28 367.05 L63.58 367.22 L63.58 381.28 L63.28 381.45 L62.98 381.62 Z" stroke="rgb(0, 0, 0)" stroke-width="0" fill-rule="evenodd" stroke-linejoin="miter" fill="rgb(0, 0, 0)" shape-rendering="geometricPrecision" /></g><g id="Solid"><path d="M62.98 381.62 L62.98 381.62 L63.28 381.45 L63.58 381.28 L75.75 388.3 L75.75 388.65 L75.75 389 Z" stroke="rgb(0, 0, 0)" stroke-width="0" fill-rule="evenodd" stroke-linejoin="miter" fill="rgb(0, 0, 0)" shape-rendering="geometricPrecision" /><line x1="65.87" y1="379.95" x2="75.75" y2="385.66" stroke="rgb(0, 0, 0)" stroke-width="0.6" shape-rendering="auto" /></g><g id="Solid"><path d="M75.75 389 L75.75 389 L75.75 388.65 L75.75 388.3 L87.92 381.28 L88.22 381.45 L88.52 381.62 Z" stroke="rgb(0, 0, 0)" stroke-width="0" fill-rule="evenodd" stroke-linejoin="miter" fill="rgb(0, 0, 0)" shape-rendering="geometricPrecision" /></g><g id="Solid"><path d="M88.52 381.62 L88.52 381.62 L88.22 381.45 L87.92 381.28 L87.92 367.22 L88.22 367.05 L88.52 366.88 Z" stroke="rgb(0, 0, 0)" stroke-width="0" fill-rule="evenodd" stroke-linejoin="miter" fill="rgb(0, 0, 0)" shape-rendering="geometricPrecision" /><line x1="85.63" y1="379.95" x2="85.63" y2="368.55" stroke="rgb(0, 0, 0)" stroke-width="0.6" shape-rendering="auto" /></g><g id="Solid"><path d="M88.52 366.88 L88.52 366.88 L88.22 367.05 L87.92 367.22 L75.75 360.2 L75.75 359.85 L76.05 359.68 Z" stroke="rgb(0, 0, 0)" stroke-width="0" fill-rule="evenodd" stroke-linejoin="miter" fill="rgb(0, 0, 0)" shape-rendering="geometricPrecision" /></g><g id="Solid"><path d="M109.4 359.68 L109.4 359.68 L109.7 359.85 L109.7 360.2 L97.52 367.22 L97.22 367.05 L96.92 366.88 Z" stroke="rgb(0, 0, 0)" stroke-width="0" fill-rule="evenodd" stroke-linejoin="miter" fill="rgb(0, 0, 0)" shape-rendering="geometricPrecision" /><line x1="111" y1="362.1" x2="99.81" y2="368.55" stroke="rgb(0, 0, 0)" stroke-width="0.6" shape-rendering="auto" /></g><g id="Solid"><path d="M96.92 366.88 L96.92 366.88 L97.22 367.05 L97.52 367.22 L97.52 381.28 L97.22 381.45 L96.92 381.62 Z" stroke="rgb(0, 0, 0)" stroke-width="0" fill-rule="evenodd" stroke-linejoin="miter" fill="rgb(0, 0, 0)" shape-rendering="geometricPrecision" /></g><g id="Solid"><path d="M96.92 381.62 L96.92 381.62 L97.22 381.45 L97.52 381.28 L109.7 388.3 L109.7 388.65 L109.7 389 Z" stroke="rgb(0, 0, 0)" stroke-width="0" fill-rule="evenodd" stroke-linejoin="miter" fill="rgb(0, 0, 0)" shape-rendering="geometricPrecision" /><line x1="99.81" y1="379.95" x2="109.7" y2="385.66" stroke="rgb(0, 0, 0)" stroke-width="0.6" shape-rendering="auto" /></g><g id="Solid"><path d="M109.7 389 L109.7 389 L109.7 388.65 L109.7 388.3 L121.87 381.28 L122.17 381.45 L122.47 381.62 Z" stroke="rgb(0, 0, 0)" stroke-width="0" fill-rule="evenodd" stroke-linejoin="miter" fill="rgb(0, 0, 0)" shape-rendering="geometricPrecision" /></g><g id="Solid"><path d="M122.47 381.62 L122.47 381.62 L122.17 381.45 L121.87 381.28 L121.87 367.22 L122.17 367.05 L122.47 366.88 Z" stroke="rgb(0, 0, 0)" stroke-width="0" fill-rule="evenodd" stroke-linejoin="miter" fill="rgb(0, 0, 0)" shape-rendering="geometricPrecision" /><line x1="119.58" y1="379.95" x2="119.58" y2="368.55" stroke="rgb(0, 0, 0)" stroke-width="0.6" shape-rendering="auto" /></g><g id="Solid"><path d="M122.47 366.88 L122.47 366.88 L122.17 367.05 L121.87 367.22 L109.7 360.2 L109.7 359.85 L110 359.68 Z" stroke="rgb(0, 0, 0)" stroke-width="0" fill-rule="evenodd" stroke-linejoin="miter" fill="rgb(0, 0, 0)" shape-rendering="geometricPrecision" /></g><g id="Solid"><path d="M217.24 343.77 L217.24 343.77 L216.94 343.57 L216.96 343.24 L233.91 336.05 L233.91 336.38 L233.91 336.71 Z" stroke="rgb(255, 0, 0)" stroke-width="0" fill-rule="evenodd" stroke-linejoin="miter" fill="rgb(255, 0, 0)" shape-rendering="geometricPrecision" /></g><g id="Solid"><path d="M233.91 336.71 L233.91 336.71 L233.91 336.38 L233.91 336.05 L250.88 343.24 L250.88 343.57 L250.58 343.77 Z" stroke="rgb(255, 0, 0)" stroke-width="0" fill-rule="evenodd" stroke-linejoin="miter" fill="rgb(255, 0, 0)" shape-rendering="geometricPrecision" /></g><g id="Solid"><path d="M251.18 343.77 L251.18 343.77 L250.88 343.57 L250.88 343.24 L267.85 336.05 L267.85 336.38 L267.85 336.71 Z" stroke="rgb(255, 0, 0)" stroke-width="0" fill-rule="evenodd" stroke-linejoin="miter" fill="rgb(255, 0, 0)" shape-rendering="geometricPrecision" /></g><g id="Solid"><path d="M267.85 336.71 L267.85 336.71 L267.85 336.38 L267.85 336.05 L284.79 343.23 L284.82 343.57 L284.52 343.77 Z" stroke="rgb(255, 0, 0)" stroke-width="0" fill-rule="evenodd" stroke-linejoin="miter" fill="rgb(255, 0, 0)" shape-rendering="geometricPrecision" /></g><g id="Solid"><path d="M250.58 343.77 L250.58 343.77 L250.88 343.57 L251.18 343.77 L251.18 357.8 L250.88 357.97 L250.58 357.8 Z" stroke="rgb(255, 0, 0)" stroke-width="0" fill-rule="evenodd" stroke-linejoin="miter" fill="rgb(255, 0, 0)" shape-rendering="geometricPrecision" /></g><g id="Solid"><path d="M284.52 343.77 L284.52 343.77 L284.82 343.57 L285.12 343.73 L285.12 357.8 L284.82 357.97 L284.52 357.8 Z" stroke="rgb(255, 0, 0)" stroke-width="0" fill-rule="evenodd" stroke-linejoin="miter" fill="rgb(255, 0, 0)" shape-rendering="geometricPrecision" /></g><g id="Bracket"><path d="M255.56 330.82 A16.5,16.5 0 0,1 255.56 347.32 " stroke="rgb(255, 0, 0)" stroke-width="0.6" fill-rule="evenodd" stroke-linejoin="miter" fill="none" shape-rendering="geometricPrecision" /></g><g id="Bracket"><path d="M226.69 347.32 A16.5,16.5 0 0,1 226.69 330.82 " stroke="rgb(255, 0, 0)" stroke-width="0.6" fill-rule="evenodd" stroke-linejoin="miter" fill="none" shape-rendering="geometricPrecision" /></g><g><text xml:space="preserve" text-anchor="start" text-rendering="geometricPrecision"><tspan x="257.81" y="351.45" font-family="Arial" font-size="10" fill="rgb(255, 0, 0)">n</tspan></text></g><g id="Solid"><path d="M216.64 343.74 L216.64 343.74 L216.94 343.57 L217.24 343.77 L217.24 358.14 L216.94 357.97 L216.64 357.8 Z" stroke="rgb(255, 0, 0)" stroke-width="0" fill-rule="evenodd" stroke-linejoin="miter" fill="rgb(255, 0, 0)" shape-rendering="geometricPrecision" /></g><g id="Solid"><path d="M216.64 357.8 L216.64 357.8 L216.94 357.97 L217.24 358.14 L204.62 365.43 L204.47 365.17 L204.32 364.91 Z" stroke="rgb(255, 0, 0)" stroke-width="0" fill-rule="evenodd" stroke-linejoin="miter" fill="rgb(255, 0, 0)" shape-rendering="geometricPrecision" /></g><g id="Solid"><path d="M216.96 343.24 L216.96 343.24 L216.94 343.57 L216.64 343.74 L204.32 336.64 L204.47 336.38 L204.62 336.12 Z" stroke="rgb(255, 0, 0)" stroke-width="0" fill-rule="evenodd" stroke-linejoin="miter" fill="rgb(255, 0, 0)" shape-rendering="geometricPrecision" /></g><g id="Solid"><path d="M250.58 357.8 L250.58 357.8 L250.88 357.97 L250.88 358.32 L238.71 365.34 L238.41 365.17 L238.11 365 Z" stroke="rgb(255, 0, 0)" stroke-width="0" fill-rule="evenodd" stroke-linejoin="miter" fill="rgb(255, 0, 0)" shape-rendering="geometricPrecision" /><line x1="250.88" y1="360.96" x2="241" y2="366.67" stroke="rgb(255, 0, 0)" stroke-width="0.6" shape-rendering="auto" /></g><g id="Solid"><path d="M238.11 365 L238.11 365 L238.41 365.17 L238.71 365.34 L238.71 379.4 L238.41 379.57 L238.11 379.74 Z" stroke="rgb(255, 0, 0)" stroke-width="0" fill-rule="evenodd" stroke-linejoin="miter" fill="rgb(255, 0, 0)" shape-rendering="geometricPrecision" /></g><g id="Solid"><path d="M238.11 379.74 L238.11 379.74 L238.41 379.57 L238.71 379.4 L250.88 386.42 L250.88 386.77 L250.88 387.12 Z" stroke="rgb(255, 0, 0)" stroke-width="0" fill-rule="evenodd" stroke-linejoin="miter" fill="rgb(255, 0, 0)" shape-rendering="geometricPrecision" /><line x1="241" y1="378.07" x2="250.88" y2="383.78" stroke="rgb(255, 0, 0)" stroke-width="0.6" shape-rendering="auto" /></g><g id="Solid"><path d="M250.88 387.12 L250.88 387.12 L250.88 386.77 L250.88 386.42 L263.05 379.4 L263.35 379.57 L263.65 379.74 Z" stroke="rgb(255, 0, 0)" stroke-width="0" fill-rule="evenodd" stroke-linejoin="miter" fill="rgb(255, 0, 0)" shape-rendering="geometricPrecision" /></g><g id="Solid"><path d="M263.65 379.74 L263.65 379.74 L263.35 379.57 L263.05 379.4 L263.05 365.34 L263.35 365.17 L263.65 365 Z" stroke="rgb(255, 0, 0)" stroke-width="0" fill-rule="evenodd" stroke-linejoin="miter" fill="rgb(255, 0, 0)" shape-rendering="geometricPrecision" /><line x1="260.76" y1="378.07" x2="260.76" y2="366.67" stroke="rgb(255, 0, 0)" stroke-width="0.6" shape-rendering="auto" /></g><g id="Solid"><path d="M263.65 365 L263.65 365 L263.35 365.17 L263.05 365.34 L250.88 358.32 L250.88 357.97 L251.18 357.8 Z" stroke="rgb(255, 0, 0)" stroke-width="0" fill-rule="evenodd" stroke-linejoin="miter" fill="rgb(255, 0, 0)" shape-rendering="geometricPrecision" /></g><g id="Solid"><path d="M284.52 357.8 L284.52 357.8 L284.82 357.97 L284.82 358.32 L272.65 365.34 L272.35 365.17 L272.05 365 Z" stroke="rgb(255, 0, 0)" stroke-width="0" fill-rule="evenodd" stroke-linejoin="miter" fill="rgb(255, 0, 0)" shape-rendering="geometricPrecision" /><line x1="284.82" y1="360.96" x2="274.94" y2="366.67" stroke="rgb(255, 0, 0)" stroke-width="0.6" shape-rendering="auto" /></g><g id="Solid"><path d="M272.05 365 L272.05 365 L272.35 365.17 L272.65 365.34 L272.65 379.4 L272.35 379.57 L272.05 379.74 Z" stroke="rgb(255, 0, 0)" stroke-width="0" fill-rule="evenodd" stroke-linejoin="miter" fill="rgb(255, 0, 0)" shape-rendering="geometricPrecision" /></g><g id="Solid"><path d="M272.05 379.74 L272.05 379.74 L272.35 379.57 L272.65 379.4 L284.82 386.42 L284.82 386.77 L284.82 387.12 Z" stroke="rgb(255, 0, 0)" stroke-width="0" fill-rule="evenodd" stroke-linejoin="miter" fill="rgb(255, 0, 0)" shape-rendering="geometricPrecision" /><line x1="274.94" y1="378.07" x2="284.82" y2="383.78" stroke="rgb(255, 0, 0)" stroke-width="0.6" shape-rendering="auto" /></g><g id="Solid"><path d="M284.82 387.12 L284.82 387.12 L284.82 386.77 L284.82 386.42 L296.99 379.4 L297.29 379.57 L297.59 379.74 Z" stroke="rgb(255, 0, 0)" stroke-width="0" fill-rule="evenodd" stroke-linejoin="miter" fill="rgb(255, 0, 0)" shape-rendering="geometricPrecision" /></g><g id="Solid"><path d="M297.59 379.74 L297.59 379.74 L297.29 379.57 L296.99 379.4 L296.99 365.34 L297.29 365.17 L297.59 365 Z" stroke="rgb(255, 0, 0)" stroke-width="0" fill-rule="evenodd" stroke-linejoin="miter" fill="rgb(255, 0, 0)" shape-rendering="geometricPrecision" /><line x1="294.7" y1="378.07" x2="294.7" y2="366.67" stroke="rgb(255, 0, 0)" stroke-width="0.6" shape-rendering="auto" /></g><g id="Solid"><path d="M297.59 365 L297.59 365 L297.29 365.17 L296.99 365.34 L284.82 358.32 L284.82 357.97 L285.12 357.8 Z" stroke="rgb(255, 0, 0)" stroke-width="0" fill-rule="evenodd" stroke-linejoin="miter" fill="rgb(255, 0, 0)" shape-rendering="geometricPrecision" /></g><g id="Solid"><path d="M285.12 343.73 L285.12 343.73 L284.82 343.57 L284.79 343.23 L292.6 338.07 L292.77 338.32 L292.93 338.57 Z" stroke="rgb(255, 0, 0)" stroke-width="0" fill-rule="evenodd" stroke-linejoin="miter" fill="rgb(255, 0, 0)" shape-rendering="geometricPrecision" /></g><g><text xml:space="preserve" text-anchor="start" text-rendering="geometricPrecision"><tspan x="293.23" y="339.53" font-family="Arial" font-size="10" fill="rgb(255, 0, 0)">H</tspan></text></g><g><text xml:space="preserve" text-anchor="start" text-rendering="geometricPrecision"><tspan x="190.31" y="454.32" font-family="Arial" font-size="10" fill="rgb(0, 0, 0)">P</tspan><tspan font-family="Arial" dy="2.26" font-size="7.5" fill="rgb(0, 0, 0)">i</tspan></text></g><g id="Charge302"><line x1="199.97" y1="443.82" x2="203.91" y2="443.82" stroke="rgb(0, 0, 0)" stroke-width="0.48" shape-rendering="auto" /></g><g><text xml:space="preserve" text-anchor="start" text-rendering="geometricPrecision"><tspan x="262.31" y="454.13" font-family="Arial" font-size="10" fill="rgb(0, 0, 0)">R</tspan></text></g><g><text xml:space="preserve" text-anchor="end" text-rendering="geometricPrecision"><tspan x="255.41" y="454.13" font-family="Arial" font-size="10" fill="rgb(0, 0, 0)">HO</tspan></text></g><g id="Solid"><path d="M261.5 449.93 L261.5 449.93 L261.5 450.23 L261.5 450.53 L256.6 450.53 L256.6 450.23 L256.6 449.93 Z" stroke="rgb(0, 0, 0)" stroke-width="0" fill-rule="evenodd" stroke-linejoin="miter" fill="rgb(0, 0, 0)" shape-rendering="geometricPrecision" /></g><g><text xml:space="preserve" text-anchor="start" text-rendering="geometricPrecision"><tspan x="219.56" y="454.13" font-family="Arial" font-size="10" fill="rgb(0, 0, 0)">+</tspan></text></g><g><text xml:space="preserve" text-anchor="start" text-rendering="geometricPrecision"><tspan x="380" y="455.2" font-family="Arial" font-size="10" fill="rgb(0, 0, 0)">R</tspan></text></g><g id="Solid"><path d="M387.9 451.6 L387.9 451.6 L387.9 451.3 L387.9 451 L393.1 451 L393.1 451.3 L393.1 451.6 Z" stroke="rgb(0, 0, 0)" stroke-width="0" fill-rule="evenodd" stroke-linejoin="miter" fill="rgb(0, 0, 0)" shape-rendering="geometricPrecision" /></g><g><text xml:space="preserve" text-anchor="start" text-rendering="geometricPrecision"><tspan x="394.1" y="455.2" font-family="Arial" font-size="10" fill="rgb(0, 0, 0)">O</tspan></text></g><g><text xml:space="preserve" text-anchor="start" text-rendering="geometricPrecision"><tspan x="359.06" y="454.13" font-family="Arial" font-size="10" fill="rgb(0, 0, 0)">+</tspan></text></g><g id="Charge318"><line x1="400.31" y1="444.6" x2="404.25" y2="444.6" stroke="rgb(0, 0, 0)" stroke-width="0.48" shape-rendering="auto" /></g><g><text xml:space="preserve" text-anchor="end" text-rendering="geometricPrecision"><tspan x="331.76" y="454" font-family="Arial" font-size="10" fill="rgb(0, 0, 0)">P</tspan><tspan font-family="Arial" dy="2.26" font-size="7.5" fill="rgb(0, 0, 0)">i</tspan></text></g><g><text xml:space="preserve" text-anchor="start" text-rendering="geometricPrecision"><tspan x="341.74" y="454" font-family="Arial" font-size="10" fill="rgb(0, 0, 0)">H</tspan></text></g><g id="Solid"><path d="M334.14 450.4 L334.14 450.4 L334.14 450.1 L334.14 449.8 L341 449.8 L341 450.1 L341 450.4 Z" stroke="rgb(0, 0, 0)" stroke-width="0" fill-rule="evenodd" stroke-linejoin="miter" fill="rgb(0, 0, 0)" shape-rendering="geometricPrecision" /></g><g id="Arrow"><line x1="301.75" y1="451.12" x2="281.44" y2="451.12" stroke="rgb(0, 0, 0)" stroke-width="0.6" shape-rendering="auto" /><path d="M312.56 451.12 L299.06 447.74 C301.18 449.64 301.18 452.6 299.06 454.5 Z" stroke="rgb(0, 0, 0)" stroke-width="0" fill-rule="evenodd" stroke-linejoin="miter" stroke-miterlimit="6.92897103804184" fill="rgb(0, 0, 0)" shape-rendering="geometricPrecision" /></g></g></g></svg>