<?xml version="1.0" encoding="UTF-8" standalone="no"?>
<!-- Created with Inkscape (http://www.inkscape.org/) -->

<svg
   xmlns:dc="http://purl.org/dc/elements/1.1/"
   xmlns:cc="http://creativecommons.org/ns#"
   xmlns:rdf="http://www.w3.org/1999/02/22-rdf-syntax-ns#"
   xmlns:svg="http://www.w3.org/2000/svg"
   xmlns="http://www.w3.org/2000/svg"
   xmlns:sodipodi="http://sodipodi.sourceforge.net/DTD/sodipodi-0.dtd"
   xmlns:inkscape="http://www.inkscape.org/namespaces/inkscape"
   version="1.1"
   id="svg4485"
   xml:space="preserve"
   width="157.89369mm"
   height="89.152351mm"
   viewBox="0 0 596.76359 336.95377"
   sodipodi:docname="meltingpoints_cleaned.svg"
   inkscape:version="0.92.1 r15371"><metadata
     id="metadata4491"><rdf:RDF><cc:Work
         rdf:about=""><dc:format>image/svg+xml</dc:format><dc:type
           rdf:resource="http://purl.org/dc/dcmitype/StillImage" /><dc:title></dc:title></cc:Work></rdf:RDF></metadata><defs
     id="defs4489"><clipPath
       clipPathUnits="userSpaceOnUse"
       id="clipPath4503"><path
         d="M 0,-3.047e-5 H 1288 V 689.99997 H 0 Z"
         id="path4501"
         inkscape:connector-curvature="0" /></clipPath></defs><sodipodi:namedview
     pagecolor="#ffffff"
     bordercolor="#666666"
     borderopacity="1"
     objecttolerance="10"
     gridtolerance="10"
     guidetolerance="10"
     inkscape:pageopacity="0"
     inkscape:pageshadow="2"
     inkscape:window-width="2736"
     inkscape:window-height="1699"
     id="namedview4487"
     showgrid="false"
     fit-margin-top="2"
     fit-margin-left="2"
     fit-margin-right="2"
     fit-margin-bottom="2"
     units="mm"
     inkscape:zoom="1.3181818"
     inkscape:cx="318.20981"
     inkscape:cy="175.58868"
     inkscape:window-x="-13"
     inkscape:window-y="-13"
     inkscape:window-maximized="1"
     inkscape:current-layer="g4493" /><g
     id="g4493"
     inkscape:groupmode="layer"
     inkscape:label="meltingpoints"
     transform="matrix(1.3333333,0,0,-1.3333333,-89.79019,689.36506)"><g
       transform="matrix(0.37470885,0,0,-0.37554348,64.6875,525.56249)"
       id="g4515"><path
         inkscape:connector-curvature="0"
         id="path4517"
         style="fill:none;stroke:#262626;stroke-width:5.33333302;stroke-linecap:square;stroke-linejoin:round;stroke-miterlimit:10;stroke-dasharray:none;stroke-opacity:1"
         d="m 180,562 h 985" /></g><g
       transform="matrix(0.37470885,0,0,-0.37554348,64.6875,525.56249)"
       id="g4519"><path
         inkscape:connector-curvature="0"
         id="path4521"
         style="fill:none;stroke:#262626;stroke-width:5.33333302;stroke-linecap:square;stroke-linejoin:round;stroke-miterlimit:10;stroke-dasharray:none;stroke-opacity:1"
         d="m 180,52 h 985" /></g><g
       transform="matrix(0.37470885,0,0,-0.37554348,64.6875,525.56249)"
       id="g4523"><path
         inkscape:connector-curvature="0"
         id="path4525"
         style="fill:none;stroke:#262626;stroke-width:5.33333302;stroke-linecap:square;stroke-linejoin:round;stroke-miterlimit:10;stroke-dasharray:none;stroke-opacity:1"
         d="m 180,562 v -9.84998" /></g><g
       transform="matrix(0.37470885,0,0,-0.37554348,64.6875,525.56249)"
       id="g4527"><path
         inkscape:connector-curvature="0"
         id="path4529"
         style="fill:none;stroke:#262626;stroke-width:5.33333302;stroke-linecap:square;stroke-linejoin:round;stroke-miterlimit:10;stroke-dasharray:none;stroke-opacity:1"
         d="m 344.16666,562 v -9.84998" /></g><g
       transform="matrix(0.37470885,0,0,-0.37554348,64.6875,525.56249)"
       id="g4531"><path
         inkscape:connector-curvature="0"
         id="path4533"
         style="fill:none;stroke:#262626;stroke-width:5.33333302;stroke-linecap:square;stroke-linejoin:round;stroke-miterlimit:10;stroke-dasharray:none;stroke-opacity:1"
         d="m 508.33334,562 v -9.84998" /></g><g
       transform="matrix(0.37470885,0,0,-0.37554348,64.6875,525.56249)"
       id="g4535"><path
         inkscape:connector-curvature="0"
         id="path4537"
         style="fill:none;stroke:#262626;stroke-width:5.33333302;stroke-linecap:square;stroke-linejoin:round;stroke-miterlimit:10;stroke-dasharray:none;stroke-opacity:1"
         d="m 672.5,562 v -9.84998" /></g><g
       transform="matrix(0.37470885,0,0,-0.37554348,64.6875,525.56249)"
       id="g4539"><path
         inkscape:connector-curvature="0"
         id="path4541"
         style="fill:none;stroke:#262626;stroke-width:5.33333302;stroke-linecap:square;stroke-linejoin:round;stroke-miterlimit:10;stroke-dasharray:none;stroke-opacity:1"
         d="m 836.66669,562 v -9.84998" /></g><g
       transform="matrix(0.37470885,0,0,-0.37554348,64.6875,525.56249)"
       id="g4543"><path
         inkscape:connector-curvature="0"
         id="path4545"
         style="fill:none;stroke:#262626;stroke-width:5.33333302;stroke-linecap:square;stroke-linejoin:round;stroke-miterlimit:10;stroke-dasharray:none;stroke-opacity:1"
         d="m 1000.8333,562 v -9.84998" /></g><g
       transform="matrix(0.37470885,0,0,-0.37554348,64.6875,525.56249)"
       id="g4547"><path
         inkscape:connector-curvature="0"
         id="path4549"
         style="fill:none;stroke:#262626;stroke-width:5.33333302;stroke-linecap:square;stroke-linejoin:round;stroke-miterlimit:10;stroke-dasharray:none;stroke-opacity:1"
         d="m 1165,562 v -9.84998" /></g><g
       transform="matrix(0.37470885,0,0,-0.37554348,64.6875,525.56249)"
       id="g4551"><path
         inkscape:connector-curvature="0"
         id="path4553"
         style="fill:none;stroke:#262626;stroke-width:5.33333302;stroke-linecap:square;stroke-linejoin:round;stroke-miterlimit:10;stroke-dasharray:none;stroke-opacity:1"
         d="m 180,52 v 9.849991" /></g><g
       transform="matrix(0.37470885,0,0,-0.37554348,64.6875,525.56249)"
       id="g4555"><path
         inkscape:connector-curvature="0"
         id="path4557"
         style="fill:none;stroke:#262626;stroke-width:5.33333302;stroke-linecap:square;stroke-linejoin:round;stroke-miterlimit:10;stroke-dasharray:none;stroke-opacity:1"
         d="m 344.16666,52 v 9.849991" /></g><g
       transform="matrix(0.37470885,0,0,-0.37554348,64.6875,525.56249)"
       id="g4559"><path
         inkscape:connector-curvature="0"
         id="path4561"
         style="fill:none;stroke:#262626;stroke-width:5.33333302;stroke-linecap:square;stroke-linejoin:round;stroke-miterlimit:10;stroke-dasharray:none;stroke-opacity:1"
         d="m 508.33334,52 v 9.849991" /></g><g
       transform="matrix(0.37470885,0,0,-0.37554348,64.6875,525.56249)"
       id="g4563"><path
         inkscape:connector-curvature="0"
         id="path4565"
         style="fill:none;stroke:#262626;stroke-width:5.33333302;stroke-linecap:square;stroke-linejoin:round;stroke-miterlimit:10;stroke-dasharray:none;stroke-opacity:1"
         d="m 672.5,52 v 9.849991" /></g><g
       transform="matrix(0.37470885,0,0,-0.37554348,64.6875,525.56249)"
       id="g4567"><path
         inkscape:connector-curvature="0"
         id="path4569"
         style="fill:none;stroke:#262626;stroke-width:5.33333302;stroke-linecap:square;stroke-linejoin:round;stroke-miterlimit:10;stroke-dasharray:none;stroke-opacity:1"
         d="m 836.66669,52 v 9.849991" /></g><g
       transform="matrix(0.37470885,0,0,-0.37554348,64.6875,525.56249)"
       id="g4571"><path
         inkscape:connector-curvature="0"
         id="path4573"
         style="fill:none;stroke:#262626;stroke-width:5.33333302;stroke-linecap:square;stroke-linejoin:round;stroke-miterlimit:10;stroke-dasharray:none;stroke-opacity:1"
         d="m 1000.8333,52 v 9.849991" /></g><g
       transform="matrix(0.37470885,0,0,-0.37554348,64.6875,525.56249)"
       id="g4575"><path
         inkscape:connector-curvature="0"
         id="path4577"
         style="fill:none;stroke:#262626;stroke-width:5.33333302;stroke-linecap:square;stroke-linejoin:round;stroke-miterlimit:10;stroke-dasharray:none;stroke-opacity:1"
         d="m 1165,52 v 9.849991" /></g><g
       id="g4579"
       transform="matrix(0.125,0,0,-0.125,0,792)"><g
         transform="matrix(2.9976708,0,0,3.0043478,1057.0807,3861.6038)"
         id="g4581"><text
           id="text4585"
           style="font-variant:normal;font-weight:normal;font-size:42.66699982px;font-family:Helvetica;-inkscape-font-specification:Helvetica;writing-mode:lr-tb;fill:#262626;fill-opacity:1;fill-rule:nonzero;stroke:none"
           transform="translate(-12,43)"><tspan
             id="tspan4583"
             y="0"
             x="0">0</tspan></text>
</g></g><g
       id="g4587"
       transform="matrix(0.125,0,0,-0.125,0,792)"><g
         transform="matrix(2.9976708,0,0,3.0043478,1549.1983,3861.6038)"
         id="g4589"><text
           id="text4593"
           style="font-variant:normal;font-weight:normal;font-size:42.66699982px;font-family:Helvetica;-inkscape-font-specification:Helvetica;writing-mode:lr-tb;fill:#262626;fill-opacity:1;fill-rule:nonzero;stroke:none"
           transform="translate(-24,43)"><tspan
             id="tspan4591"
             sodipodi:role="line"
             y="0"
             x="0 23.722853">10</tspan></text>
</g></g><g
       id="g4595"
       transform="matrix(0.125,0,0,-0.125,0,792)"><g
         transform="matrix(2.9976708,0,0,3.0043478,2041.316,3861.6038)"
         id="g4597"><text
           id="text4601"
           style="font-variant:normal;font-weight:normal;font-size:42.66699982px;font-family:Helvetica;-inkscape-font-specification:Helvetica;writing-mode:lr-tb;fill:#262626;fill-opacity:1;fill-rule:nonzero;stroke:none"
           transform="translate(-24,43)"><tspan
             id="tspan4599"
             sodipodi:role="line"
             y="0"
             x="0 23.722853">20</tspan></text>
</g></g><g
       id="g4603"
       transform="matrix(0.125,0,0,-0.125,0,792)"><g
         transform="matrix(2.9976708,0,0,3.0043478,2533.4336,3861.6038)"
         id="g4605"><text
           id="text4609"
           style="font-variant:normal;font-weight:normal;font-size:42.66699982px;font-family:Helvetica;-inkscape-font-specification:Helvetica;writing-mode:lr-tb;fill:#262626;fill-opacity:1;fill-rule:nonzero;stroke:none"
           transform="translate(-24,43)"><tspan
             id="tspan4607"
             sodipodi:role="line"
             y="0"
             x="0 23.722853">30</tspan></text>
</g></g><g
       id="g4611"
       transform="matrix(0.125,0,0,-0.125,0,792)"><g
         transform="matrix(2.9976708,0,0,3.0043478,3025.5513,3861.6038)"
         id="g4613"><text
           id="text4617"
           style="font-variant:normal;font-weight:normal;font-size:42.66699982px;font-family:Helvetica;-inkscape-font-specification:Helvetica;writing-mode:lr-tb;fill:#262626;fill-opacity:1;fill-rule:nonzero;stroke:none"
           transform="translate(-24,43)"><tspan
             id="tspan4615"
             sodipodi:role="line"
             y="0"
             x="0 23.722853">40</tspan></text>
</g></g><g
       id="g4619"
       transform="matrix(0.125,0,0,-0.125,0,792)"><g
         transform="matrix(2.9976708,0,0,3.0043478,3517.6688,3861.6038)"
         id="g4621"><text
           id="text4625"
           style="font-variant:normal;font-weight:normal;font-size:42.66699982px;font-family:Helvetica;-inkscape-font-specification:Helvetica;writing-mode:lr-tb;fill:#262626;fill-opacity:1;fill-rule:nonzero;stroke:none"
           transform="translate(-24,43)"><tspan
             id="tspan4623"
             sodipodi:role="line"
             y="0"
             x="0 23.722853">50</tspan></text>
</g></g><g
       id="g4627"
       transform="matrix(0.125,0,0,-0.125,0,792)"><g
         transform="matrix(2.9976708,0,0,3.0043478,4009.7865,3861.6038)"
         id="g4629"><text
           id="text4633"
           style="font-variant:normal;font-weight:normal;font-size:42.66699982px;font-family:Helvetica;-inkscape-font-specification:Helvetica;writing-mode:lr-tb;fill:#262626;fill-opacity:1;fill-rule:nonzero;stroke:none"
           transform="translate(-24,43)"><tspan
             id="tspan4631"
             sodipodi:role="line"
             y="0"
             x="0 23.722853">60</tspan></text>
</g></g><g
       id="g4635"
       transform="matrix(0.125,0,0,-0.125,0,792)"><g
         transform="matrix(2.9976708,0,0,3.0043478,2533.4351,4030.2479)"
         id="g4637"><text
           id="text4641"
           style="font-variant:normal;font-weight:normal;font-size:46.93299866px;font-family:Helvetica;-inkscape-font-specification:Helvetica;writing-mode:lr-tb;fill:#262626;fill-opacity:1;fill-rule:nonzero;stroke:none"
           transform="translate(-266,48)"><tspan
             id="tspan4639"
             sodipodi:role="line"
             y="0"
             x="0 33.885628 59.980373 99.075562 125.17031 151.26506 166.89375 179.94112 206.03587 219.08324 232.13062 266.01624 292.11099 307.73969 333.83444 359.92917 386.02393 399.07129 430.37561 443.42297 469.51773 508.61292">Number of Carbon Atoms</tspan></text>
</g></g><g
       transform="matrix(0.37470885,0,0,-0.37554348,64.6875,525.56249)"
       id="g4643"><path
         inkscape:connector-curvature="0"
         id="path4645"
         style="fill:none;stroke:#262626;stroke-width:5.33333302;stroke-linecap:square;stroke-linejoin:round;stroke-miterlimit:10;stroke-dasharray:none;stroke-opacity:1"
         d="M 180,562 V 52" /></g><g
       transform="matrix(0.37470885,0,0,-0.37554348,64.6875,525.56249)"
       id="g4647"><path
         inkscape:connector-curvature="0"
         id="path4649"
         style="fill:none;stroke:#262626;stroke-width:5.33333302;stroke-linecap:square;stroke-linejoin:round;stroke-miterlimit:10;stroke-dasharray:none;stroke-opacity:1"
         d="M 1165,562 V 52" /></g><g
       transform="matrix(0.37470885,0,0,-0.37554348,64.6875,525.56249)"
       id="g4651"><path
         inkscape:connector-curvature="0"
         id="path4653"
         style="fill:none;stroke:#262626;stroke-width:5.33333302;stroke-linecap:square;stroke-linejoin:round;stroke-miterlimit:10;stroke-dasharray:none;stroke-opacity:1"
         d="m 180,562 h 9.85001" /></g><g
       transform="matrix(0.37470885,0,0,-0.37554348,64.6875,525.56249)"
       id="g4655"><path
         inkscape:connector-curvature="0"
         id="path4657"
         style="fill:none;stroke:#262626;stroke-width:5.33333302;stroke-linecap:square;stroke-linejoin:round;stroke-miterlimit:10;stroke-dasharray:none;stroke-opacity:1"
         d="m 180,477 h 9.85001" /></g><g
       transform="matrix(0.37470885,0,0,-0.37554348,64.6875,525.56249)"
       id="g4659"><path
         inkscape:connector-curvature="0"
         id="path4661"
         style="fill:none;stroke:#262626;stroke-width:5.33333302;stroke-linecap:square;stroke-linejoin:round;stroke-miterlimit:10;stroke-dasharray:none;stroke-opacity:1"
         d="m 180,392 h 9.85001" /></g><g
       transform="matrix(0.37470885,0,0,-0.37554348,64.6875,525.56249)"
       id="g4663"><path
         inkscape:connector-curvature="0"
         id="path4665"
         style="fill:none;stroke:#262626;stroke-width:5.33333302;stroke-linecap:square;stroke-linejoin:round;stroke-miterlimit:10;stroke-dasharray:none;stroke-opacity:1"
         d="m 180,307 h 9.85001" /></g><g
       transform="matrix(0.37470885,0,0,-0.37554348,64.6875,525.56249)"
       id="g4667"><path
         inkscape:connector-curvature="0"
         id="path4669"
         style="fill:none;stroke:#262626;stroke-width:5.33333302;stroke-linecap:square;stroke-linejoin:round;stroke-miterlimit:10;stroke-dasharray:none;stroke-opacity:1"
         d="m 180,222 h 9.85001" /></g><g
       transform="matrix(0.37470885,0,0,-0.37554348,64.6875,525.56249)"
       id="g4671"><path
         inkscape:connector-curvature="0"
         id="path4673"
         style="fill:none;stroke:#262626;stroke-width:5.33333302;stroke-linecap:square;stroke-linejoin:round;stroke-miterlimit:10;stroke-dasharray:none;stroke-opacity:1"
         d="m 180,137 h 9.85001" /></g><g
       transform="matrix(0.37470885,0,0,-0.37554348,64.6875,525.56249)"
       id="g4675"><path
         inkscape:connector-curvature="0"
         id="path4677"
         style="fill:none;stroke:#262626;stroke-width:5.33333302;stroke-linecap:square;stroke-linejoin:round;stroke-miterlimit:10;stroke-dasharray:none;stroke-opacity:1"
         d="m 180,52 h 9.85001" /></g><g
       transform="matrix(0.37470885,0,0,-0.37554348,64.6875,525.56249)"
       id="g4679"><path
         inkscape:connector-curvature="0"
         id="path4681"
         style="fill:none;stroke:#262626;stroke-width:5.33333302;stroke-linecap:square;stroke-linejoin:round;stroke-miterlimit:10;stroke-dasharray:none;stroke-opacity:1"
         d="m 1165,562 h -9.85" /></g><g
       transform="matrix(0.37470885,0,0,-0.37554348,64.6875,525.56249)"
       id="g4683"><path
         inkscape:connector-curvature="0"
         id="path4685"
         style="fill:none;stroke:#262626;stroke-width:5.33333302;stroke-linecap:square;stroke-linejoin:round;stroke-miterlimit:10;stroke-dasharray:none;stroke-opacity:1"
         d="m 1165,477 h -9.85" /></g><g
       transform="matrix(0.37470885,0,0,-0.37554348,64.6875,525.56249)"
       id="g4687"><path
         inkscape:connector-curvature="0"
         id="path4689"
         style="fill:none;stroke:#262626;stroke-width:5.33333302;stroke-linecap:square;stroke-linejoin:round;stroke-miterlimit:10;stroke-dasharray:none;stroke-opacity:1"
         d="m 1165,392 h -9.85" /></g><g
       transform="matrix(0.37470885,0,0,-0.37554348,64.6875,525.56249)"
       id="g4691"><path
         inkscape:connector-curvature="0"
         id="path4693"
         style="fill:none;stroke:#262626;stroke-width:5.33333302;stroke-linecap:square;stroke-linejoin:round;stroke-miterlimit:10;stroke-dasharray:none;stroke-opacity:1"
         d="m 1165,307 h -9.85" /></g><g
       transform="matrix(0.37470885,0,0,-0.37554348,64.6875,525.56249)"
       id="g4695"><path
         inkscape:connector-curvature="0"
         id="path4697"
         style="fill:none;stroke:#262626;stroke-width:5.33333302;stroke-linecap:square;stroke-linejoin:round;stroke-miterlimit:10;stroke-dasharray:none;stroke-opacity:1"
         d="m 1165,222 h -9.85" /></g><g
       transform="matrix(0.37470885,0,0,-0.37554348,64.6875,525.56249)"
       id="g4699"><path
         inkscape:connector-curvature="0"
         id="path4701"
         style="fill:none;stroke:#262626;stroke-width:5.33333302;stroke-linecap:square;stroke-linejoin:round;stroke-miterlimit:10;stroke-dasharray:none;stroke-opacity:1"
         d="m 1165,137 h -9.85" /></g><g
       transform="matrix(0.37470885,0,0,-0.37554348,64.6875,525.56249)"
       id="g4703"><path
         inkscape:connector-curvature="0"
         id="path4705"
         style="fill:none;stroke:#262626;stroke-width:5.33333302;stroke-linecap:square;stroke-linejoin:round;stroke-miterlimit:10;stroke-dasharray:none;stroke-opacity:1"
         d="m 1165,52 h -9.85" /></g><g
       id="g4707"
       transform="matrix(0.125,0,0,-0.125,0,792)"><g
         transform="matrix(2.9976708,0,0,3.0043478,1015.513,3819.9436)"
         id="g4709"><text
           id="text4713"
           style="font-variant:normal;font-weight:normal;font-size:42.66699982px;font-family:Helvetica;-inkscape-font-specification:Helvetica;writing-mode:lr-tb;fill:#262626;fill-opacity:1;fill-rule:nonzero;stroke:none"
           transform="translate(-86,16.5)"><tspan
             id="tspan4711"
             sodipodi:role="line"
             y="0"
             x="0 14.208111 37.930962 61.653816">-150</tspan></text>
</g></g><g
       id="g4715"
       transform="matrix(0.125,0,0,-0.125,0,792)"><g
         transform="matrix(2.9976708,0,0,3.0043478,1015.513,3564.574)"
         id="g4717"><text
           id="text4721"
           style="font-variant:normal;font-weight:normal;font-size:42.66699982px;font-family:Helvetica;-inkscape-font-specification:Helvetica;writing-mode:lr-tb;fill:#262626;fill-opacity:1;fill-rule:nonzero;stroke:none"
           transform="translate(-86,16.5)"><tspan
             id="tspan4719"
             sodipodi:role="line"
             y="0"
             x="0 14.208111 37.930962 61.653816">-100</tspan></text>
</g></g><g
       id="g4723"
       transform="matrix(0.125,0,0,-0.125,0,792)"><g
         transform="matrix(2.9976708,0,0,3.0043478,1015.513,3309.2044)"
         id="g4725"><text
           id="text4729"
           style="font-variant:normal;font-weight:normal;font-size:42.66699982px;font-family:Helvetica;-inkscape-font-specification:Helvetica;writing-mode:lr-tb;fill:#262626;fill-opacity:1;fill-rule:nonzero;stroke:none"
           transform="translate(-62,16.5)"><tspan
             id="tspan4727"
             sodipodi:role="line"
             y="0"
             x="0 14.208111 37.930962">-50</tspan></text>
</g></g><g
       id="g4731"
       transform="matrix(0.125,0,0,-0.125,0,792)"><g
         transform="matrix(2.9976708,0,0,3.0043478,1015.513,3053.8349)"
         id="g4733"><text
           id="text4737"
           style="font-variant:normal;font-weight:normal;font-size:42.66699982px;font-family:Helvetica;-inkscape-font-specification:Helvetica;writing-mode:lr-tb;fill:#262626;fill-opacity:1;fill-rule:nonzero;stroke:none"
           transform="translate(-24,16.5)"><tspan
             id="tspan4735"
             y="0"
             x="0">0</tspan></text>
</g></g><g
       id="g4739"
       transform="matrix(0.125,0,0,-0.125,0,792)"><g
         transform="matrix(2.9976708,0,0,3.0043478,1015.513,2798.4653)"
         id="g4741"><text
           id="text4745"
           style="font-variant:normal;font-weight:normal;font-size:42.66699982px;font-family:Helvetica;-inkscape-font-specification:Helvetica;writing-mode:lr-tb;fill:#262626;fill-opacity:1;fill-rule:nonzero;stroke:none"
           transform="translate(-48,16.5)"><tspan
             id="tspan4743"
             sodipodi:role="line"
             y="0"
             x="0 23.722853">50</tspan></text>
</g></g><g
       id="g4747"
       transform="matrix(0.125,0,0,-0.125,0,792)"><g
         transform="matrix(2.9976708,0,0,3.0043478,1015.513,2543.0957)"
         id="g4749"><text
           id="text4753"
           style="font-variant:normal;font-weight:normal;font-size:42.66699982px;font-family:Helvetica;-inkscape-font-specification:Helvetica;writing-mode:lr-tb;fill:#262626;fill-opacity:1;fill-rule:nonzero;stroke:none"
           transform="translate(-72,16.5)"><tspan
             id="tspan4751"
             sodipodi:role="line"
             y="0"
             x="0 23.722853 47.445705">100</tspan></text>
</g></g><g
       id="g4755"
       transform="matrix(0.125,0,0,-0.125,0,792)"><g
         transform="matrix(2.9976708,0,0,3.0043478,1015.513,2287.7262)"
         id="g4757"><text
           id="text4761"
           style="font-variant:normal;font-weight:normal;font-size:42.66699982px;font-family:Helvetica;-inkscape-font-specification:Helvetica;writing-mode:lr-tb;fill:#262626;fill-opacity:1;fill-rule:nonzero;stroke:none"
           transform="translate(-72,16.5)"><tspan
             id="tspan4759"
             sodipodi:role="line"
             y="0"
             x="0 23.722853 47.445705">150</tspan></text>
</g></g><g
       id="g4763"
       transform="matrix(0.125,0,0,-0.125,0,792)"><g
         transform="matrix(-1.3e-7,-3.0043478,2.9976708,-1.3e-7,700.35792,3603.6305)"
         id="g4765"><text
           id="text4769"
           style="font-variant:normal;font-weight:normal;font-size:46.93299866px;font-family:Helvetica;-inkscape-font-specification:Helvetica;writing-mode:lr-tb;fill:#262626;fill-opacity:1;fill-rule:nonzero;stroke:none"><tspan
             id="tspan4767"
             sodipodi:role="line"
             y="0"
             x="0 39.095188 65.189934 75.609062 88.656441 99.075562 125.17031 151.26506 164.31244 195.61674 221.71149 232.13062 258.22537 271.27274 284.3201">Melting Point (</tspan></text>
</g></g><g
       id="g4771"
       transform="matrix(0.125,0,0,-0.125,4.5,792)"><g
         transform="matrix(-1.3e-7,-3.0043478,2.9976708,-1.3e-7,631.41149,2702.3262)"
         id="g4773"><text
           id="text4777"
           style="font-variant:normal;font-weight:normal;font-size:37.54700089px;font-family:Courier;-inkscape-font-specification:Courier;writing-mode:lr-tb;fill:#262626;fill-opacity:1;fill-rule:nonzero;stroke:none"><tspan
             id="tspan4775"
             y="0"
             x="0">°</tspan></text>
</g></g><g
       id="g4779"
       transform="matrix(0.125,0,0,-0.125,0,792)"><g
         transform="matrix(-1.3e-7,-3.0043478,2.9976708,-1.3e-7,700.35792,2654.2566)"
         id="g4781"><text
           id="text4785"
           style="font-variant:normal;font-weight:normal;font-size:46.93299866px;font-family:Helvetica;-inkscape-font-specification:Helvetica;writing-mode:lr-tb;fill:#262626;fill-opacity:1;fill-rule:nonzero;stroke:none"><tspan
             id="tspan4783"
             sodipodi:role="line"
             y="0"
             x="0 33.885628">C)</tspan></text>
</g></g><g
       transform="matrix(0.37470885,0,0,-0.37554348,156.74097,320.89129)"
       id="g4787"><path
         inkscape:connector-curvature="0"
         id="path4789"
         style="fill:none;stroke:#0072bd;stroke-width:4;stroke-linecap:butt;stroke-linejoin:miter;stroke-miterlimit:10;stroke-dasharray:none;stroke-opacity:1"
         d="M 8,0 C 8,-4.418278 4.418278,-8 0,-8 -4.418278,-8 -8,-4.418278 -8,0 -8,4.418278 -4.418278,8 0,8 4.418278,8 8,4.418278 8,0 Z" /></g><g
       transform="matrix(0.37470885,0,0,-0.37554348,169.04391,349.62038)"
       id="g4791"><path
         inkscape:connector-curvature="0"
         id="path4793"
         style="fill:none;stroke:#0072bd;stroke-width:4;stroke-linecap:butt;stroke-linejoin:miter;stroke-miterlimit:10;stroke-dasharray:none;stroke-opacity:1"
         d="M 8,0 C 8,-4.418278 4.418278,-8 0,-8 -4.418278,-8 -8,-4.418278 -8,0 -8,4.418278 -4.418278,8 0,8 4.418278,8 8,4.418278 8,0 Z" /></g><g
       transform="matrix(0.37470885,0,0,-0.37554348,181.34686,373.88047)"
       id="g4795"><path
         inkscape:connector-curvature="0"
         id="path4797"
         style="fill:none;stroke:#0072bd;stroke-width:4;stroke-linecap:butt;stroke-linejoin:miter;stroke-miterlimit:10;stroke-dasharray:none;stroke-opacity:1"
         d="M 8,0 C 8,-4.418278 4.418278,-8 0,-8 -4.418278,-8 -8,-4.418278 -8,0 -8,4.418278 -4.418278,8 0,8 4.418278,8 8,4.418278 8,0 Z" /></g><g
       transform="matrix(0.37470885,0,0,-0.37554348,193.64979,391.11793)"
       id="g4799"><path
         inkscape:connector-curvature="0"
         id="path4801"
         style="fill:none;stroke:#0072bd;stroke-width:4;stroke-linecap:butt;stroke-linejoin:miter;stroke-miterlimit:10;stroke-dasharray:none;stroke-opacity:1"
         d="M 8,0 C 8,-4.418278 4.418278,-8 0,-8 -4.418278,-8 -8,-4.418278 -8,0 -8,4.418278 -4.418278,8 0,8 4.418278,8 8,4.418278 8,0 Z" /></g><g
       transform="matrix(0.37470885,0,0,-0.37554348,205.95274,403.8864)"
       id="g4803"><path
         inkscape:connector-curvature="0"
         id="path4805"
         style="fill:none;stroke:#0072bd;stroke-width:4;stroke-linecap:butt;stroke-linejoin:miter;stroke-miterlimit:10;stroke-dasharray:none;stroke-opacity:1"
         d="M 8,0 C 8,-4.418278 4.418278,-8 0,-8 -4.418278,-8 -8,-4.418278 -8,0 -8,4.418278 -4.418278,8 0,8 4.418278,8 8,4.418278 8,0 Z" /></g><g
       transform="matrix(0.37470885,0,0,-0.37554348,218.25567,413.46276)"
       id="g4807"><path
         inkscape:connector-curvature="0"
         id="path4809"
         style="fill:none;stroke:#0072bd;stroke-width:4;stroke-linecap:butt;stroke-linejoin:miter;stroke-miterlimit:10;stroke-dasharray:none;stroke-opacity:1"
         d="M 8,0 C 8,-4.418278 4.418278,-8 0,-8 -4.418278,-8 -8,-4.418278 -8,0 -8,4.418278 -4.418278,8 0,8 4.418278,8 8,4.418278 8,0 Z" /></g><g
       transform="matrix(0.37470885,0,0,-0.37554348,230.55861,421.76227)"
       id="g4811"><path
         inkscape:connector-curvature="0"
         id="path4813"
         style="fill:none;stroke:#0072bd;stroke-width:4;stroke-linecap:butt;stroke-linejoin:miter;stroke-miterlimit:10;stroke-dasharray:none;stroke-opacity:1"
         d="M 8,0 C 8,-4.418278 4.418278,-8 0,-8 -4.418278,-8 -8,-4.418278 -8,0 -8,4.418278 -4.418278,8 0,8 4.418278,8 8,4.418278 8,0 Z" /></g><g
       transform="matrix(0.37470885,0,0,-0.37554348,242.86156,429.42336)"
       id="g4815"><path
         inkscape:connector-curvature="0"
         id="path4817"
         style="fill:none;stroke:#0072bd;stroke-width:4;stroke-linecap:butt;stroke-linejoin:miter;stroke-miterlimit:10;stroke-dasharray:none;stroke-opacity:1"
         d="M 8,0 C 8,-4.418278 4.418278,-8 0,-8 -4.418278,-8 -8,-4.418278 -8,0 -8,4.418278 -4.418278,8 0,8 4.418278,8 8,4.418278 8,0 Z" /></g><g
       transform="matrix(0.37470885,0,0,-0.37554348,255.1645,433.89233)"
       id="g4819"><path
         inkscape:connector-curvature="0"
         id="path4821"
         style="fill:none;stroke:#0072bd;stroke-width:4;stroke-linecap:butt;stroke-linejoin:miter;stroke-miterlimit:10;stroke-dasharray:none;stroke-opacity:1"
         d="M 8,0 C 8,-4.418278 4.418278,-8 0,-8 -4.418278,-8 -8,-4.418278 -8,0 -8,4.418278 -4.418278,8 0,8 4.418278,8 8,4.418278 8,0 Z" /></g><g
       transform="matrix(0.37470885,0,0,-0.37554348,267.46745,437.08444)"
       id="g4823"><path
         inkscape:connector-curvature="0"
         id="path4825"
         style="fill:none;stroke:#0072bd;stroke-width:4;stroke-linecap:butt;stroke-linejoin:miter;stroke-miterlimit:10;stroke-dasharray:none;stroke-opacity:1"
         d="M 8,0 C 8,-4.418278 4.418278,-8 0,-8 -4.418278,-8 -8,-4.418278 -8,0 -8,4.418278 -4.418278,8 0,8 4.418278,8 8,4.418278 8,0 Z" /></g><g
       transform="matrix(0.37470885,0,0,-0.37554348,279.77037,443.46869)"
       id="g4827"><path
         inkscape:connector-curvature="0"
         id="path4829"
         style="fill:none;stroke:#0072bd;stroke-width:4;stroke-linecap:butt;stroke-linejoin:miter;stroke-miterlimit:10;stroke-dasharray:none;stroke-opacity:1"
         d="M 8,0 C 8,-4.418278 4.418278,-8 0,-8 -4.418278,-8 -8,-4.418278 -8,0 -8,4.418278 -4.418278,8 0,8 4.418278,8 8,4.418278 8,0 Z" /></g><g
       transform="matrix(0.37470885,0,0,-0.37554348,316.6792,452.27894)"
       id="g4831"><path
         inkscape:connector-curvature="0"
         id="path4833"
         style="fill:none;stroke:#0072bd;stroke-width:4;stroke-linecap:butt;stroke-linejoin:miter;stroke-miterlimit:10;stroke-dasharray:none;stroke-opacity:1"
         d="M 8,0 C 8,-4.418278 4.418278,-8 0,-8 -4.418278,-8 -8,-4.418278 -8,0 -8,4.418278 -4.418278,8 0,8 4.418278,8 8,4.418278 8,0 Z" /></g><g
       transform="matrix(0.37470885,0,0,-0.37554348,378.19391,463.89825)"
       id="g4835"><path
         inkscape:connector-curvature="0"
         id="path4837"
         style="fill:none;stroke:#0072bd;stroke-width:4;stroke-linecap:butt;stroke-linejoin:miter;stroke-miterlimit:10;stroke-dasharray:none;stroke-opacity:1"
         d="M 8,0 C 8,-4.418278 4.418278,-8 0,-8 -4.418278,-8 -8,-4.418278 -8,0 -8,4.418278 -4.418278,8 0,8 4.418278,8 8,4.418278 8,0 Z" /></g><g
       transform="matrix(0.37470885,0,0,-0.37554348,439.7086,469.64406)"
       id="g4839"><path
         inkscape:connector-curvature="0"
         id="path4841"
         style="fill:none;stroke:#0072bd;stroke-width:4;stroke-linecap:butt;stroke-linejoin:miter;stroke-miterlimit:10;stroke-dasharray:none;stroke-opacity:1"
         d="M 8,0 C 8,-4.418278 4.418278,-8 0,-8 -4.418278,-8 -8,-4.418278 -8,0 -8,4.418278 -4.418278,8 0,8 4.418278,8 8,4.418278 8,0 Z" /></g></g></svg>