<?xml version="1.0"?><svg xmlns="http://www.w3.org/2000/svg" xmlns:xlink="http://www.w3.org/1999/xlink" viewBox="126.6 147.07 280.21 170.16" preserveAspectRatio="xMidYMid" width="100%" height="100%"><clipPath id="109"><rect x="0.3" y="0.3" width="539.4" height="719.15" /></clipPath><g id="drawing"><rect x="126.6" y="147.07" width="100%" height="100%" fill="rgb(255, 255, 255)" /><g id="page" clip-path="url(#109)"><g id="Solid"><path d="M132.15 187.76 L132.15 187.76 L132 187.5 L131.85 187.24 L144.47 179.95 L144.47 180.3 L144.47 180.65 Z" stroke="rgb(0, 0, 0)" stroke-width="0" fill-rule="evenodd" stroke-linejoin="miter" fill="rgb(0, 0, 0)" shape-rendering="geometricPrecision" /></g><g id="Solid"><path d="M144.47 180.65 L144.47 180.65 L144.47 180.3 L144.47 179.95 L156.94 187.15 L156.94 187.5 L156.94 187.85 Z" stroke="rgb(0, 0, 0)" stroke-width="0" fill-rule="evenodd" stroke-linejoin="miter" fill="rgb(0, 0, 0)" shape-rendering="geometricPrecision" /></g><g id="Solid"><path d="M156.94 187.85 L156.94 187.85 L156.94 187.5 L156.94 187.15 L169.26 180.04 L169.41 180.3 L169.56 180.56 Z" stroke="rgb(0, 0, 0)" stroke-width="0" fill-rule="evenodd" stroke-linejoin="miter" fill="rgb(0, 0, 0)" shape-rendering="geometricPrecision" /></g><g id="Solid"><path d="M128.78 226.39 L128.78 226.39 L128.63 226.13 L128.48 225.87 L141.1 218.58 L141.1 218.93 L141.1 219.28 Z" stroke="rgb(0, 0, 0)" stroke-width="0" fill-rule="evenodd" stroke-linejoin="miter" fill="rgb(0, 0, 0)" shape-rendering="geometricPrecision" /></g><g id="Solid"><path d="M141.1 219.28 L141.1 219.28 L141.1 218.93 L141.1 218.58 L153.57 225.78 L153.57 226.13 L153.57 226.48 Z" stroke="rgb(0, 0, 0)" stroke-width="0" fill-rule="evenodd" stroke-linejoin="miter" fill="rgb(0, 0, 0)" shape-rendering="geometricPrecision" /></g><g id="Solid"><path d="M153.57 226.48 L153.57 226.48 L153.57 226.13 L153.57 225.78 L166.04 218.58 L166.04 218.93 L166.04 219.28 Z" stroke="rgb(0, 0, 0)" stroke-width="0" fill-rule="evenodd" stroke-linejoin="miter" fill="rgb(0, 0, 0)" shape-rendering="geometricPrecision" /></g><g id="Solid"><path d="M166.04 219.28 L166.04 219.28 L166.04 218.93 L166.04 218.58 L178.51 225.78 L178.51 226.13 L178.51 226.48 Z" stroke="rgb(0, 0, 0)" stroke-width="0" fill-rule="evenodd" stroke-linejoin="miter" fill="rgb(0, 0, 0)" shape-rendering="geometricPrecision" /></g><g id="Solid"><path d="M178.51 226.48 L178.51 226.48 L178.51 226.13 L178.51 225.78 L190.83 218.67 L190.98 218.93 L191.13 219.19 Z" stroke="rgb(0, 0, 0)" stroke-width="0" fill-rule="evenodd" stroke-linejoin="miter" fill="rgb(0, 0, 0)" shape-rendering="geometricPrecision" /></g><g id="Solid"><path d="M131.78 275.14 L131.78 275.14 L131.63 274.88 L131.48 274.62 L144.1 267.33 L144.1 267.68 L144.1 268.03 Z" stroke="rgb(0, 0, 0)" stroke-width="0" fill-rule="evenodd" stroke-linejoin="miter" fill="rgb(0, 0, 0)" shape-rendering="geometricPrecision" /></g><g id="Solid"><path d="M144.1 268.03 L144.1 268.03 L144.1 267.68 L144.1 267.33 L156.57 274.53 L156.57 274.88 L156.57 275.23 Z" stroke="rgb(0, 0, 0)" stroke-width="0" fill-rule="evenodd" stroke-linejoin="miter" fill="rgb(0, 0, 0)" shape-rendering="geometricPrecision" /></g><g id="Solid"><path d="M156.57 275.23 L156.57 275.23 L156.57 274.88 L156.57 274.53 L169.04 267.33 L169.04 267.68 L169.04 268.03 Z" stroke="rgb(0, 0, 0)" stroke-width="0" fill-rule="evenodd" stroke-linejoin="miter" fill="rgb(0, 0, 0)" shape-rendering="geometricPrecision" /></g><g id="Solid"><path d="M169.04 268.03 L169.04 268.03 L169.04 267.68 L169.04 267.33 L181.51 274.53 L181.51 274.88 L181.51 275.23 Z" stroke="rgb(0, 0, 0)" stroke-width="0" fill-rule="evenodd" stroke-linejoin="miter" fill="rgb(0, 0, 0)" shape-rendering="geometricPrecision" /></g><g id="Solid"><path d="M181.51 275.23 L181.51 275.23 L181.51 274.88 L181.51 274.53 L193.98 267.33 L193.98 267.68 L193.98 268.03 Z" stroke="rgb(0, 0, 0)" stroke-width="0" fill-rule="evenodd" stroke-linejoin="miter" fill="rgb(0, 0, 0)" shape-rendering="geometricPrecision" /></g><g id="Solid"><path d="M193.98 268.03 L193.98 268.03 L193.98 267.68 L193.98 267.33 L206.45 274.53 L206.45 274.88 L206.45 275.23 Z" stroke="rgb(0, 0, 0)" stroke-width="0" fill-rule="evenodd" stroke-linejoin="miter" fill="rgb(0, 0, 0)" shape-rendering="geometricPrecision" /></g><g id="Solid"><path d="M206.45 275.23 L206.45 275.23 L206.45 274.88 L206.45 274.53 L218.77 267.42 L218.92 267.68 L219.07 267.94 Z" stroke="rgb(0, 0, 0)" stroke-width="0" fill-rule="evenodd" stroke-linejoin="miter" fill="rgb(0, 0, 0)" shape-rendering="geometricPrecision" /></g><g id="Solid"><path d="M126.9 317.14 L126.9 317.14 L126.75 316.88 L126.6 316.62 L139.22 309.33 L139.22 309.68 L139.22 310.03 Z" stroke="rgb(0, 0, 0)" stroke-width="0" fill-rule="evenodd" stroke-linejoin="miter" fill="rgb(0, 0, 0)" shape-rendering="geometricPrecision" /></g><g id="Solid"><path d="M139.22 310.03 L139.22 310.03 L139.22 309.68 L139.22 309.33 L151.69 316.53 L151.69 316.88 L151.69 317.23 Z" stroke="rgb(0, 0, 0)" stroke-width="0" fill-rule="evenodd" stroke-linejoin="miter" fill="rgb(0, 0, 0)" shape-rendering="geometricPrecision" /></g><g id="Solid"><path d="M151.69 317.23 L151.69 317.23 L151.69 316.88 L151.69 316.53 L164.16 309.33 L164.16 309.68 L164.16 310.03 Z" stroke="rgb(0, 0, 0)" stroke-width="0" fill-rule="evenodd" stroke-linejoin="miter" fill="rgb(0, 0, 0)" shape-rendering="geometricPrecision" /></g><g id="Solid"><path d="M164.16 310.03 L164.16 310.03 L164.16 309.68 L164.16 309.33 L176.63 316.53 L176.63 316.88 L176.63 317.23 Z" stroke="rgb(0, 0, 0)" stroke-width="0" fill-rule="evenodd" stroke-linejoin="miter" fill="rgb(0, 0, 0)" shape-rendering="geometricPrecision" /></g><g id="Solid"><path d="M176.63 317.23 L176.63 317.23 L176.63 316.88 L176.63 316.53 L189.1 309.33 L189.1 309.68 L189.1 310.03 Z" stroke="rgb(0, 0, 0)" stroke-width="0" fill-rule="evenodd" stroke-linejoin="miter" fill="rgb(0, 0, 0)" shape-rendering="geometricPrecision" /></g><g id="Solid"><path d="M189.1 310.03 L189.1 310.03 L189.1 309.68 L189.1 309.33 L201.57 316.53 L201.57 316.88 L201.57 317.23 Z" stroke="rgb(0, 0, 0)" stroke-width="0" fill-rule="evenodd" stroke-linejoin="miter" fill="rgb(0, 0, 0)" shape-rendering="geometricPrecision" /></g><g id="Solid"><path d="M201.57 317.23 L201.57 317.23 L201.57 316.88 L201.57 316.53 L214.05 309.33 L214.05 309.68 L214.05 310.03 Z" stroke="rgb(0, 0, 0)" stroke-width="0" fill-rule="evenodd" stroke-linejoin="miter" fill="rgb(0, 0, 0)" shape-rendering="geometricPrecision" /></g><g id="Solid"><path d="M214.05 310.03 L214.05 310.03 L214.05 309.68 L214.05 309.33 L226.52 316.53 L226.52 316.88 L226.52 317.23 Z" stroke="rgb(0, 0, 0)" stroke-width="0" fill-rule="evenodd" stroke-linejoin="miter" fill="rgb(0, 0, 0)" shape-rendering="geometricPrecision" /></g><g id="Solid"><path d="M226.52 317.23 L226.52 317.23 L226.52 316.88 L226.52 316.53 L238.84 309.42 L238.99 309.68 L239.14 309.94 Z" stroke="rgb(0, 0, 0)" stroke-width="0" fill-rule="evenodd" stroke-linejoin="miter" fill="rgb(0, 0, 0)" shape-rendering="geometricPrecision" /></g><g id="Solid"><path d="M139.13 147.68 L139.13 147.68 L139.13 147.38 L139.13 147.08 L153.52 147.08 L153.52 147.38 L153.52 147.68 Z" stroke="rgb(0, 0, 0)" stroke-width="0" fill-rule="evenodd" stroke-linejoin="miter" fill="rgb(0, 0, 0)" shape-rendering="geometricPrecision" /></g><g id="Solid"><path d="M366.15 168.64 L366.15 168.64 L366 168.38 L365.85 168.12 L378.47 160.83 L378.47 161.18 L378.47 161.53 Z" stroke="rgb(0, 0, 0)" stroke-width="0" fill-rule="evenodd" stroke-linejoin="miter" fill="rgb(0, 0, 0)" shape-rendering="geometricPrecision" /></g><g id="Solid"><path d="M378.47 161.53 L378.47 161.53 L378.47 161.18 L378.47 160.83 L390.94 168.03 L390.94 168.38 L390.94 168.73 Z" stroke="rgb(0, 0, 0)" stroke-width="0" fill-rule="evenodd" stroke-linejoin="miter" fill="rgb(0, 0, 0)" shape-rendering="geometricPrecision" /></g><g id="Solid"><path d="M390.94 168.73 L390.94 168.73 L390.94 168.38 L390.94 168.03 L403.26 160.92 L403.41 161.18 L403.56 161.44 Z" stroke="rgb(0, 0, 0)" stroke-width="0" fill-rule="evenodd" stroke-linejoin="miter" fill="rgb(0, 0, 0)" shape-rendering="geometricPrecision" /></g><g id="Bracket"><path d="M396.38 156 A16.88,16.88 0 0,1 396.38 172.88 " stroke="rgb(0, 0, 0)" stroke-width="0.6" fill-rule="evenodd" stroke-linejoin="miter" fill="none" shape-rendering="geometricPrecision" /></g><g id="Bracket"><path d="M374.63 172.88 A16.88,16.88 0 0,1 374.63 156 " stroke="rgb(0, 0, 0)" stroke-width="0.6" fill-rule="evenodd" stroke-linejoin="miter" fill="none" shape-rendering="geometricPrecision" /></g><g><text xml:space="preserve" text-anchor="start" text-rendering="geometricPrecision"><tspan x="399.38" y="176.63" font-family="Arial" font-size="10" fill="rgb(0, 0, 0)">n</tspan></text></g><g id="Solid"><path d="M368.03 232.76 L368.03 232.76 L367.88 232.5 L367.73 232.24 L380.35 224.95 L380.35 225.3 L380.35 225.65 Z" stroke="rgb(0, 0, 0)" stroke-width="0" fill-rule="evenodd" stroke-linejoin="miter" fill="rgb(0, 0, 0)" shape-rendering="geometricPrecision" /></g><g id="Solid"><path d="M380.35 225.65 L380.35 225.65 L380.35 225.3 L380.35 224.95 L392.82 232.15 L392.82 232.5 L392.82 232.85 Z" stroke="rgb(0, 0, 0)" stroke-width="0" fill-rule="evenodd" stroke-linejoin="miter" fill="rgb(0, 0, 0)" shape-rendering="geometricPrecision" /></g><g id="Solid"><path d="M392.82 232.85 L392.82 232.85 L392.82 232.5 L392.82 232.15 L405.14 225.04 L405.29 225.3 L405.44 225.56 Z" stroke="rgb(0, 0, 0)" stroke-width="0" fill-rule="evenodd" stroke-linejoin="miter" fill="rgb(0, 0, 0)" shape-rendering="geometricPrecision" /></g><g id="Bracket"><path d="M398.25 220.13 A16.87,16.87 0 0,1 398.25 237 " stroke="rgb(0, 0, 0)" stroke-width="0.6" fill-rule="evenodd" stroke-linejoin="miter" fill="none" shape-rendering="geometricPrecision" /></g><g id="Bracket"><path d="M376.5 237 A16.87,16.87 0 0,1 376.5 220.13 " stroke="rgb(0, 0, 0)" stroke-width="0.6" fill-rule="evenodd" stroke-linejoin="miter" fill="none" shape-rendering="geometricPrecision" /></g><g><text xml:space="preserve" text-anchor="start" text-rendering="geometricPrecision"><tspan x="401.25" y="240.75" font-family="Arial" font-size="10" fill="rgb(0, 0, 0)">4</tspan></text></g></g></g></svg>