<?xml version="1.0" encoding="UTF-8" standalone="no"?>
<!-- Created with Inkscape (http://www.inkscape.org/) -->

<svg
   xmlns:dc="http://purl.org/dc/elements/1.1/"
   xmlns:cc="http://creativecommons.org/ns#"
   xmlns:rdf="http://www.w3.org/1999/02/22-rdf-syntax-ns#"
   xmlns:svg="http://www.w3.org/2000/svg"
   xmlns="http://www.w3.org/2000/svg"
   xmlns:sodipodi="http://sodipodi.sourceforge.net/DTD/sodipodi-0.dtd"
   xmlns:inkscape="http://www.inkscape.org/namespaces/inkscape"
   id="svg4136"
   version="1.1"
   inkscape:version="0.91 r13725"
   xml:space="preserve"
   width="157.94588mm"
   height="113.32866mm"
   viewBox="0 0 559.65076 401.55825"
   sodipodi:docname="exercise-samplespinodal.svg"><metadata
     id="metadata4142"><rdf:RDF><cc:Work
         rdf:about=""><dc:format>image/svg+xml</dc:format><dc:type
           rdf:resource="http://purl.org/dc/dcmitype/StillImage" /><dc:title></dc:title></cc:Work></rdf:RDF></metadata><defs
     id="defs4140"><clipPath
       clipPathUnits="userSpaceOnUse"
       id="clipPath4152"><path
         d="M 4.77e-6,0 785.99997,0 l 0,525 L 4.77e-6,525 l 0,-525 z"
         id="path4154"
         inkscape:connector-curvature="0" /></clipPath></defs><sodipodi:namedview
     pagecolor="#ffffff"
     bordercolor="#666666"
     borderopacity="1"
     objecttolerance="10"
     gridtolerance="10"
     guidetolerance="10"
     inkscape:pageopacity="0"
     inkscape:pageshadow="2"
     inkscape:window-width="1536"
     inkscape:window-height="801"
     id="namedview4138"
     showgrid="false"
     units="mm"
     fit-margin-top="5"
     fit-margin-left="5"
     fit-margin-right="5"
     fit-margin-bottom="5"
     inkscape:zoom="0.63838384"
     inkscape:cx="301.98295"
     inkscape:cy="210.09156"
     inkscape:window-x="-8"
     inkscape:window-y="-8"
     inkscape:window-maximized="1"
     inkscape:current-layer="g4144" /><g
     id="g4144"
     inkscape:groupmode="layer"
     inkscape:label="spinodal_N75_thetaT375K"
     transform="matrix(1.25,0,0,-1.25,-80.517048,686.46672)"><g
       transform="matrix(0.60000001,0,0,-0.6,70.200001,553.5)"
       id="g4166"><path
         inkscape:connector-curvature="0"
         id="path4168"
         style="fill:none;stroke:#262626;stroke-width:3.33333302;stroke-linecap:square;stroke-linejoin:round;stroke-miterlimit:10;stroke-dasharray:none;stroke-opacity:1"
         d="M 102.00001,431 711,431" /></g><g
       transform="matrix(0.60000001,0,0,-0.6,70.200001,553.5)"
       id="g4170"><path
         inkscape:connector-curvature="0"
         id="path4172"
         style="fill:none;stroke:#262626;stroke-width:3.33333302;stroke-linecap:square;stroke-linejoin:round;stroke-miterlimit:10;stroke-dasharray:none;stroke-opacity:1"
         d="M 102.00001,39 711,39" /></g><g
       transform="matrix(0.60000001,0,0,-0.6,70.200001,553.5)"
       id="g4174"><path
         inkscape:connector-curvature="0"
         id="path4176"
         style="fill:none;stroke:#262626;stroke-width:3.33333302;stroke-linecap:square;stroke-linejoin:round;stroke-miterlimit:10;stroke-dasharray:none;stroke-opacity:1"
         d="m 148.82179,431 0,-6.08997" /></g><g
       transform="matrix(0.60000001,0,0,-0.6,70.200001,553.5)"
       id="g4178"><path
         inkscape:connector-curvature="0"
         id="path4180"
         style="fill:none;stroke:#262626;stroke-width:3.33333302;stroke-linecap:square;stroke-linejoin:round;stroke-miterlimit:10;stroke-dasharray:none;stroke-opacity:1"
         d="m 242.51817,431 0,-6.08997" /></g><g
       transform="matrix(0.60000001,0,0,-0.6,70.200001,553.5)"
       id="g4182"><path
         inkscape:connector-curvature="0"
         id="path4184"
         style="fill:none;stroke:#262626;stroke-width:3.33333302;stroke-linecap:square;stroke-linejoin:round;stroke-miterlimit:10;stroke-dasharray:none;stroke-opacity:1"
         d="m 336.21457,431 0,-6.08997" /></g><g
       transform="matrix(0.60000001,0,0,-0.6,70.200001,553.5)"
       id="g4186"><path
         inkscape:connector-curvature="0"
         id="path4188"
         style="fill:none;stroke:#262626;stroke-width:3.33333302;stroke-linecap:square;stroke-linejoin:round;stroke-miterlimit:10;stroke-dasharray:none;stroke-opacity:1"
         d="m 429.91095,431 0,-6.08997" /></g><g
       transform="matrix(0.60000001,0,0,-0.6,70.200001,553.5)"
       id="g4190"><path
         inkscape:connector-curvature="0"
         id="path4192"
         style="fill:none;stroke:#262626;stroke-width:3.33333302;stroke-linecap:square;stroke-linejoin:round;stroke-miterlimit:10;stroke-dasharray:none;stroke-opacity:1"
         d="m 523.60724,431 0,-6.08997" /></g><g
       transform="matrix(0.60000001,0,0,-0.6,70.200001,553.5)"
       id="g4194"><path
         inkscape:connector-curvature="0"
         id="path4196"
         style="fill:none;stroke:#262626;stroke-width:3.33333302;stroke-linecap:square;stroke-linejoin:round;stroke-miterlimit:10;stroke-dasharray:none;stroke-opacity:1"
         d="m 617.30359,431 0,-6.08997" /></g><g
       transform="matrix(0.60000001,0,0,-0.6,70.200001,553.5)"
       id="g4198"><path
         inkscape:connector-curvature="0"
         id="path4200"
         style="fill:none;stroke:#262626;stroke-width:3.33333302;stroke-linecap:square;stroke-linejoin:round;stroke-miterlimit:10;stroke-dasharray:none;stroke-opacity:1"
         d="m 711,431 0,-6.08997" /></g><g
       transform="matrix(0.60000001,0,0,-0.6,70.200001,553.5)"
       id="g4202"><path
         inkscape:connector-curvature="0"
         id="path4204"
         style="fill:none;stroke:#262626;stroke-width:3.33333302;stroke-linecap:square;stroke-linejoin:round;stroke-miterlimit:10;stroke-dasharray:none;stroke-opacity:1"
         d="m 148.82179,39 0,6.089966" /></g><g
       transform="matrix(0.60000001,0,0,-0.6,70.200001,553.5)"
       id="g4206"><path
         inkscape:connector-curvature="0"
         id="path4208"
         style="fill:none;stroke:#262626;stroke-width:3.33333302;stroke-linecap:square;stroke-linejoin:round;stroke-miterlimit:10;stroke-dasharray:none;stroke-opacity:1"
         d="m 242.51817,39 0,6.089966" /></g><g
       transform="matrix(0.60000001,0,0,-0.6,70.200001,553.5)"
       id="g4210"><path
         inkscape:connector-curvature="0"
         id="path4212"
         style="fill:none;stroke:#262626;stroke-width:3.33333302;stroke-linecap:square;stroke-linejoin:round;stroke-miterlimit:10;stroke-dasharray:none;stroke-opacity:1"
         d="m 336.21457,39 0,6.089966" /></g><g
       transform="matrix(0.60000001,0,0,-0.6,70.200001,553.5)"
       id="g4214"><path
         inkscape:connector-curvature="0"
         id="path4216"
         style="fill:none;stroke:#262626;stroke-width:3.33333302;stroke-linecap:square;stroke-linejoin:round;stroke-miterlimit:10;stroke-dasharray:none;stroke-opacity:1"
         d="m 429.91095,39 0,6.089966" /></g><g
       transform="matrix(0.60000001,0,0,-0.6,70.200001,553.5)"
       id="g4218"><path
         inkscape:connector-curvature="0"
         id="path4220"
         style="fill:none;stroke:#262626;stroke-width:3.33333302;stroke-linecap:square;stroke-linejoin:round;stroke-miterlimit:10;stroke-dasharray:none;stroke-opacity:1"
         d="m 523.60724,39 0,6.089966" /></g><g
       transform="matrix(0.60000001,0,0,-0.6,70.200001,553.5)"
       id="g4222"><path
         inkscape:connector-curvature="0"
         id="path4224"
         style="fill:none;stroke:#262626;stroke-width:3.33333302;stroke-linecap:square;stroke-linejoin:round;stroke-miterlimit:10;stroke-dasharray:none;stroke-opacity:1"
         d="m 617.30359,39 0,6.089966" /></g><g
       transform="matrix(0.60000001,0,0,-0.6,70.200001,553.5)"
       id="g4226"><path
         inkscape:connector-curvature="0"
         id="path4228"
         style="fill:none;stroke:#262626;stroke-width:3.33333302;stroke-linecap:square;stroke-linejoin:round;stroke-miterlimit:10;stroke-dasharray:none;stroke-opacity:1"
         d="m 711,39 0,6.089966" /></g><g
       id="g4230"
       transform="matrix(0.125,0,0,-0.125,0,792)"><g
         transform="matrix(4.8000001,0,0,4.8,1275.9446,4018.4001)"
         id="g4232"><text
           id="text4234"
           style="font-variant:normal;font-weight:normal;font-size:26.66699982px;font-family:Helvetica;-inkscape-font-specification:Helvetica;writing-mode:lr-tb;fill:#262626;fill-opacity:1;fill-rule:nonzero;stroke:none"
           transform="translate(-19,28)"><tspan
             id="tspan4236"
             sodipodi:role="line"
             y="0"
             x="0 14.826852 22.240278">0.7</tspan></text>
</g></g><g
       id="g4238"
       transform="matrix(0.125,0,0,-0.125,0,792)"><g
         transform="matrix(4.8000001,0,0,4.8,1725.6873,4018.4001)"
         id="g4240"><text
           id="text4242"
           style="font-variant:normal;font-weight:normal;font-size:26.66699982px;font-family:Helvetica;-inkscape-font-specification:Helvetica;writing-mode:lr-tb;fill:#262626;fill-opacity:1;fill-rule:nonzero;stroke:none"
           transform="translate(-26.5,28)"><tspan
             id="tspan4244"
             sodipodi:role="line"
             y="0"
             x="0 14.826852 22.240278 37.067131">0.75</tspan></text>
</g></g><g
       id="g4246"
       transform="matrix(0.125,0,0,-0.125,0,792)"><g
         transform="matrix(4.8000001,0,0,4.8,2175.43,4018.4001)"
         id="g4248"><text
           id="text4250"
           style="font-variant:normal;font-weight:normal;font-size:26.66699982px;font-family:Helvetica;-inkscape-font-specification:Helvetica;writing-mode:lr-tb;fill:#262626;fill-opacity:1;fill-rule:nonzero;stroke:none"
           transform="translate(-19,28)"><tspan
             id="tspan4252"
             sodipodi:role="line"
             y="0"
             x="0 14.826852 22.240278">0.8</tspan></text>
</g></g><g
       id="g4254"
       transform="matrix(0.125,0,0,-0.125,0,792)"><g
         transform="matrix(4.8000001,0,0,4.8,2625.1726,4018.4001)"
         id="g4256"><text
           id="text4258"
           style="font-variant:normal;font-weight:normal;font-size:26.66699982px;font-family:Helvetica;-inkscape-font-specification:Helvetica;writing-mode:lr-tb;fill:#262626;fill-opacity:1;fill-rule:nonzero;stroke:none"
           transform="translate(-26.5,28)"><tspan
             id="tspan4260"
             sodipodi:role="line"
             y="0"
             x="0 14.826852 22.240278 37.067131">0.85</tspan></text>
</g></g><g
       id="g4262"
       transform="matrix(0.125,0,0,-0.125,0,792)"><g
         transform="matrix(4.8000001,0,0,4.8,3074.9148,4018.4001)"
         id="g4264"><text
           id="text4266"
           style="font-variant:normal;font-weight:normal;font-size:26.66699982px;font-family:Helvetica;-inkscape-font-specification:Helvetica;writing-mode:lr-tb;fill:#262626;fill-opacity:1;fill-rule:nonzero;stroke:none"
           transform="translate(-19,28)"><tspan
             id="tspan4268"
             sodipodi:role="line"
             y="0"
             x="0 14.826852 22.240278">0.9</tspan></text>
</g></g><g
       id="g4270"
       transform="matrix(0.125,0,0,-0.125,0,792)"><g
         transform="matrix(4.8000001,0,0,4.8,3524.6573,4018.4001)"
         id="g4272"><text
           id="text4274"
           style="font-variant:normal;font-weight:normal;font-size:26.66699982px;font-family:Helvetica;-inkscape-font-specification:Helvetica;writing-mode:lr-tb;fill:#262626;fill-opacity:1;fill-rule:nonzero;stroke:none"
           transform="translate(-26.5,28)"><tspan
             id="tspan4276"
             sodipodi:role="line"
             y="0"
             x="0 14.826852 22.240278 37.067131">0.95</tspan></text>
</g></g><g
       id="g4278"
       transform="matrix(0.125,0,0,-0.125,0,792)"><g
         transform="matrix(4.8000001,0,0,4.8,3974.4001,4018.4001)"
         id="g4280"><text
           id="text4282"
           style="font-variant:normal;font-weight:normal;font-size:26.66699982px;font-family:Helvetica;-inkscape-font-specification:Helvetica;writing-mode:lr-tb;fill:#262626;fill-opacity:1;fill-rule:nonzero;stroke:none"
           transform="translate(-8,28)"><tspan
             id="tspan4284"
             y="0"
             x="0">1</tspan></text>
</g></g><g
       transform="matrix(0.60000001,0,0,-0.6,304.8,250.5)"
       id="g4286"><path
         inkscape:connector-curvature="0"
         id="path4288"
         style="fill:#262626;fill-opacity:1;fill-rule:nonzero;stroke:none"
         d="m 5.625,5.65625 1.296875,-5.25 c -0.9791667,0 -1.8932292,-0.22916667 -2.7421875,-0.6875 C 3.3307292,-0.73958333 2.6484375,-1.3776042 2.1328125,-2.1953125 1.6171875,-3.0130208 1.359375,-3.90625 1.359375,-4.875 c 0,-1.0416667 0.2604167,-2.0390625 0.78125,-2.9921875 0.5208333,-0.953125 1.2317708,-1.8203125 2.1328125,-2.6015625 0.9010417,-0.78125 1.8697917,-1.382813 2.90625,-1.804688 1.0364583,-0.421875 2.0651042,-0.632812 3.0859375,-0.632812 l 1.75,-7.046875 c 0.03125,-0.114583 0.104167,-0.171875 0.21875,-0.171875 l 0.359375,0 c 0.07292,0 0.132813,0.03385 0.179688,0.101563 0.04687,0.06771 0.07031,0.127604 0.07031,0.179687 l -1.734375,6.9375 c 0.71875,0 1.419271,0.132812 2.101563,0.398437 0.682291,0.265625 1.283854,0.638021 1.804687,1.117188 0.520833,0.479167 0.929688,1.041667 1.226562,1.6875 0.296875,0.6458333 0.445313,1.3385417 0.445313,2.078125 0,1.0416667 -0.260417,2.0390625 -0.78125,2.9921875 -0.520833,0.953125 -1.221354,1.8125 -2.101562,2.578125 C 12.924479,-1.2890625 11.945313,-0.6875 10.867188,-0.25 9.7890625,0.1875 8.7604167,0.40625 7.78125,0.40625 L 6.4375,5.78125 C 6.40625,5.8958333 6.328125,5.953125 6.203125,5.953125 l -0.34375,0 C 5.7864583,5.953125 5.7291667,5.9166667 5.6875,5.84375 5.6458333,5.7708333 5.625,5.7083333 5.625,5.65625 Z M 7.109375,-0.359375 10.0625,-12.15625 c -0.4895833,0 -1.0026042,0.09896 -1.5390625,0.296875 -0.5364583,0.197917 -1.0442708,0.447917 -1.5234375,0.75 -0.4791667,0.302083 -0.9114583,0.651042 -1.296875,1.046875 -0.46875,0.46875 -0.8828125,1.0234375 -1.2421875,1.6640625 -0.359375,0.640625 -0.6302083,1.3177083 -0.8125,2.03125 C 3.4661458,-5.6536458 3.375,-4.953125 3.375,-4.265625 c 0,0.7291667 0.15625,1.390625 0.46875,1.984375 0.3125,0.59375 0.75,1.0625 1.3125,1.40625 0.5625,0.34375 1.2135417,0.515625 1.953125,0.515625 z m 0.859375,0 c 0.7291667,0 1.5052083,-0.20572917 2.328125,-0.6171875 C 11.119792,-1.3880208 11.791667,-1.875 12.3125,-2.4375 c 0.729167,-0.71875 1.304688,-1.5989583 1.726563,-2.640625 0.421875,-1.0416667 0.632812,-2.09375 0.632812,-3.15625 0,-0.71875 -0.15625,-1.3776042 -0.46875,-1.976563 -0.3125,-0.598958 -0.752604,-1.072916 -1.320312,-1.421875 -0.567709,-0.348958 -1.216146,-0.523437 -1.945313,-0.523437 L 7.96875,-0.359375 Z" /></g><g
       id="g4290"
       transform="matrix(0.125,0,0,-0.125,0,792)"><g
         transform="matrix(4.8000001,0,0,4.8,2524.8,4399.2)"
         id="g4292"><text
           id="text4294"
           style="font-variant:normal;font-weight:normal;font-size:23.46699905px;font-family:Helvetica;-inkscape-font-specification:Helvetica;writing-mode:lr-tb;fill:#262626;fill-opacity:1;fill-rule:nonzero;stroke:none"><tspan
             id="tspan4296"
             y="0"
             x="0">1</tspan></text>
</g></g><g
       transform="matrix(0.60000001,0,0,-0.6,70.200001,553.5)"
       id="g4298"><path
         inkscape:connector-curvature="0"
         id="path4300"
         style="fill:none;stroke:#262626;stroke-width:3.33333302;stroke-linecap:square;stroke-linejoin:round;stroke-miterlimit:10;stroke-dasharray:none;stroke-opacity:1"
         d="m 102.00001,431 0,-392" /></g><g
       transform="matrix(0.60000001,0,0,-0.6,70.200001,553.5)"
       id="g4302"><path
         inkscape:connector-curvature="0"
         id="path4304"
         style="fill:none;stroke:#262626;stroke-width:3.33333302;stroke-linecap:square;stroke-linejoin:round;stroke-miterlimit:10;stroke-dasharray:none;stroke-opacity:1"
         d="M 711,431 711,39" /></g><g
       transform="matrix(0.60000001,0,0,-0.6,70.200001,553.5)"
       id="g4306"><path
         inkscape:connector-curvature="0"
         id="path4308"
         style="fill:none;stroke:#262626;stroke-width:3.33333302;stroke-linecap:square;stroke-linejoin:round;stroke-miterlimit:10;stroke-dasharray:none;stroke-opacity:1"
         d="m 102.00001,431 6.09005,0" /></g><g
       transform="matrix(0.60000001,0,0,-0.6,70.200001,553.5)"
       id="g4310"><path
         inkscape:connector-curvature="0"
         id="path4312"
         style="fill:none;stroke:#262626;stroke-width:3.33333302;stroke-linecap:square;stroke-linejoin:round;stroke-miterlimit:10;stroke-dasharray:none;stroke-opacity:1"
         d="m 102.00001,375 6.09005,0" /></g><g
       transform="matrix(0.60000001,0,0,-0.6,70.200001,553.5)"
       id="g4314"><path
         inkscape:connector-curvature="0"
         id="path4316"
         style="fill:none;stroke:#262626;stroke-width:3.33333302;stroke-linecap:square;stroke-linejoin:round;stroke-miterlimit:10;stroke-dasharray:none;stroke-opacity:1"
         d="m 102.00001,319 6.09005,0" /></g><g
       transform="matrix(0.60000001,0,0,-0.6,70.200001,553.5)"
       id="g4318"><path
         inkscape:connector-curvature="0"
         id="path4320"
         style="fill:none;stroke:#262626;stroke-width:3.33333302;stroke-linecap:square;stroke-linejoin:round;stroke-miterlimit:10;stroke-dasharray:none;stroke-opacity:1"
         d="m 102.00001,263 6.09005,0" /></g><g
       transform="matrix(0.60000001,0,0,-0.6,70.200001,553.5)"
       id="g4322"><path
         inkscape:connector-curvature="0"
         id="path4324"
         style="fill:none;stroke:#262626;stroke-width:3.33333302;stroke-linecap:square;stroke-linejoin:round;stroke-miterlimit:10;stroke-dasharray:none;stroke-opacity:1"
         d="m 102.00001,207 6.09005,0" /></g><g
       transform="matrix(0.60000001,0,0,-0.6,70.200001,553.5)"
       id="g4326"><path
         inkscape:connector-curvature="0"
         id="path4328"
         style="fill:none;stroke:#262626;stroke-width:3.33333302;stroke-linecap:square;stroke-linejoin:round;stroke-miterlimit:10;stroke-dasharray:none;stroke-opacity:1"
         d="m 102.00001,151 6.09005,0" /></g><g
       transform="matrix(0.60000001,0,0,-0.6,70.200001,553.5)"
       id="g4330"><path
         inkscape:connector-curvature="0"
         id="path4332"
         style="fill:none;stroke:#262626;stroke-width:3.33333302;stroke-linecap:square;stroke-linejoin:round;stroke-miterlimit:10;stroke-dasharray:none;stroke-opacity:1"
         d="m 102.00001,95 6.09005,0" /></g><g
       transform="matrix(0.60000001,0,0,-0.6,70.200001,553.5)"
       id="g4334"><path
         inkscape:connector-curvature="0"
         id="path4336"
         style="fill:none;stroke:#262626;stroke-width:3.33333302;stroke-linecap:square;stroke-linejoin:round;stroke-miterlimit:10;stroke-dasharray:none;stroke-opacity:1"
         d="m 102.00001,39 6.09005,0" /></g><g
       transform="matrix(0.60000001,0,0,-0.6,70.200001,553.5)"
       id="g4338"><path
         inkscape:connector-curvature="0"
         id="path4340"
         style="fill:none;stroke:#262626;stroke-width:3.33333302;stroke-linecap:square;stroke-linejoin:round;stroke-miterlimit:10;stroke-dasharray:none;stroke-opacity:1"
         d="m 711,431 -6.09003,0" /></g><g
       transform="matrix(0.60000001,0,0,-0.6,70.200001,553.5)"
       id="g4342"><path
         inkscape:connector-curvature="0"
         id="path4344"
         style="fill:none;stroke:#262626;stroke-width:3.33333302;stroke-linecap:square;stroke-linejoin:round;stroke-miterlimit:10;stroke-dasharray:none;stroke-opacity:1"
         d="m 711,375 -6.09003,0" /></g><g
       transform="matrix(0.60000001,0,0,-0.6,70.200001,553.5)"
       id="g4346"><path
         inkscape:connector-curvature="0"
         id="path4348"
         style="fill:none;stroke:#262626;stroke-width:3.33333302;stroke-linecap:square;stroke-linejoin:round;stroke-miterlimit:10;stroke-dasharray:none;stroke-opacity:1"
         d="m 711,319 -6.09003,0" /></g><g
       transform="matrix(0.60000001,0,0,-0.6,70.200001,553.5)"
       id="g4350"><path
         inkscape:connector-curvature="0"
         id="path4352"
         style="fill:none;stroke:#262626;stroke-width:3.33333302;stroke-linecap:square;stroke-linejoin:round;stroke-miterlimit:10;stroke-dasharray:none;stroke-opacity:1"
         d="m 711,263 -6.09003,0" /></g><g
       transform="matrix(0.60000001,0,0,-0.6,70.200001,553.5)"
       id="g4354"><path
         inkscape:connector-curvature="0"
         id="path4356"
         style="fill:none;stroke:#262626;stroke-width:3.33333302;stroke-linecap:square;stroke-linejoin:round;stroke-miterlimit:10;stroke-dasharray:none;stroke-opacity:1"
         d="m 711,207 -6.09003,0" /></g><g
       transform="matrix(0.60000001,0,0,-0.6,70.200001,553.5)"
       id="g4358"><path
         inkscape:connector-curvature="0"
         id="path4360"
         style="fill:none;stroke:#262626;stroke-width:3.33333302;stroke-linecap:square;stroke-linejoin:round;stroke-miterlimit:10;stroke-dasharray:none;stroke-opacity:1"
         d="m 711,151 -6.09003,0" /></g><g
       transform="matrix(0.60000001,0,0,-0.6,70.200001,553.5)"
       id="g4362"><path
         inkscape:connector-curvature="0"
         id="path4364"
         style="fill:none;stroke:#262626;stroke-width:3.33333302;stroke-linecap:square;stroke-linejoin:round;stroke-miterlimit:10;stroke-dasharray:none;stroke-opacity:1"
         d="m 711,95 -6.09003,0" /></g><g
       transform="matrix(0.60000001,0,0,-0.6,70.200001,553.5)"
       id="g4366"><path
         inkscape:connector-curvature="0"
         id="path4368"
         style="fill:none;stroke:#262626;stroke-width:3.33333302;stroke-linecap:square;stroke-linejoin:round;stroke-miterlimit:10;stroke-dasharray:none;stroke-opacity:1"
         d="m 711,39 -6.09003,0" /></g><g
       id="g4370"
       transform="matrix(0.125,0,0,-0.125,0,792)"><g
         transform="matrix(4.8000001,0,0,4.8,1009.6003,3976.8)"
         id="g4372"><text
           id="text4374"
           style="font-variant:normal;font-weight:normal;font-size:26.66699982px;font-family:Helvetica;-inkscape-font-specification:Helvetica;writing-mode:lr-tb;fill:#262626;fill-opacity:1;fill-rule:nonzero;stroke:none"
           transform="translate(-46,11)"><tspan
             id="tspan4376"
             sodipodi:role="line"
             y="0"
             x="0 14.826852 29.653704">250</tspan></text>
</g></g><g
       id="g4378"
       transform="matrix(0.125,0,0,-0.125,0,792)"><g
         transform="matrix(4.8000001,0,0,4.8,1009.6003,3708)"
         id="g4380"><text
           id="text4382"
           style="font-variant:normal;font-weight:normal;font-size:26.66699982px;font-family:Helvetica;-inkscape-font-specification:Helvetica;writing-mode:lr-tb;fill:#262626;fill-opacity:1;fill-rule:nonzero;stroke:none"
           transform="translate(-46,11)"><tspan
             id="tspan4384"
             sodipodi:role="line"
             y="0"
             x="0 14.826852 29.653704">260</tspan></text>
</g></g><g
       id="g4386"
       transform="matrix(0.125,0,0,-0.125,0,792)"><g
         transform="matrix(4.8000001,0,0,4.8,1009.6003,3439.2)"
         id="g4388"><text
           id="text4390"
           style="font-variant:normal;font-weight:normal;font-size:26.66699982px;font-family:Helvetica;-inkscape-font-specification:Helvetica;writing-mode:lr-tb;fill:#262626;fill-opacity:1;fill-rule:nonzero;stroke:none"
           transform="translate(-46,11)"><tspan
             id="tspan4392"
             sodipodi:role="line"
             y="0"
             x="0 14.826852 29.653704">270</tspan></text>
</g></g><g
       id="g4394"
       transform="matrix(0.125,0,0,-0.125,0,792)"><g
         transform="matrix(4.8000001,0,0,4.8,1009.6003,3170.4)"
         id="g4396"><text
           id="text4398"
           style="font-variant:normal;font-weight:normal;font-size:26.66699982px;font-family:Helvetica;-inkscape-font-specification:Helvetica;writing-mode:lr-tb;fill:#262626;fill-opacity:1;fill-rule:nonzero;stroke:none"
           transform="translate(-46,11)"><tspan
             id="tspan4400"
             sodipodi:role="line"
             y="0"
             x="0 14.826852 29.653704">280</tspan></text>
</g></g><g
       id="g4402"
       transform="matrix(0.125,0,0,-0.125,0,792)"><g
         transform="matrix(4.8000001,0,0,4.8,1009.6003,2901.6)"
         id="g4404"><text
           id="text4406"
           style="font-variant:normal;font-weight:normal;font-size:26.66699982px;font-family:Helvetica;-inkscape-font-specification:Helvetica;writing-mode:lr-tb;fill:#262626;fill-opacity:1;fill-rule:nonzero;stroke:none"
           transform="translate(-46,11)"><tspan
             id="tspan4408"
             sodipodi:role="line"
             y="0"
             x="0 14.826852 29.653704">290</tspan></text>
</g></g><g
       id="g4410"
       transform="matrix(0.125,0,0,-0.125,0,792)"><g
         transform="matrix(4.8000001,0,0,4.8,1009.6003,2632.8)"
         id="g4412"><text
           id="text4414"
           style="font-variant:normal;font-weight:normal;font-size:26.66699982px;font-family:Helvetica;-inkscape-font-specification:Helvetica;writing-mode:lr-tb;fill:#262626;fill-opacity:1;fill-rule:nonzero;stroke:none"
           transform="translate(-46,11)"><tspan
             id="tspan4416"
             sodipodi:role="line"
             y="0"
             x="0 14.826852 29.653704">300</tspan></text>
</g></g><g
       id="g4418"
       transform="matrix(0.125,0,0,-0.125,0,792)"><g
         transform="matrix(4.8000001,0,0,4.8,1009.6003,2364)"
         id="g4420"><text
           id="text4422"
           style="font-variant:normal;font-weight:normal;font-size:26.66699982px;font-family:Helvetica;-inkscape-font-specification:Helvetica;writing-mode:lr-tb;fill:#262626;fill-opacity:1;fill-rule:nonzero;stroke:none"
           transform="translate(-46,11)"><tspan
             id="tspan4424"
             sodipodi:role="line"
             y="0"
             x="0 14.826852 29.653704">310</tspan></text>
</g></g><g
       id="g4426"
       transform="matrix(0.125,0,0,-0.125,0,792)"><g
         transform="matrix(4.8000001,0,0,4.8,1009.6003,2095.2)"
         id="g4428"><text
           id="text4430"
           style="font-variant:normal;font-weight:normal;font-size:26.66699982px;font-family:Helvetica;-inkscape-font-specification:Helvetica;writing-mode:lr-tb;fill:#262626;fill-opacity:1;fill-rule:nonzero;stroke:none"
           transform="translate(-46,11)"><tspan
             id="tspan4432"
             sodipodi:role="line"
             y="0"
             x="0 14.826852 29.653704">320</tspan></text>
</g></g><g
       id="g4434"
       transform="matrix(0.125,0,0,-0.125,0,792)"><g
         transform="matrix(-2.1e-7,-4.8,4.8000001,-2.1e-7,764.80003,3035.9992)"
         id="g4436"><text
           id="text4438"
           style="font-variant:normal;font-weight:normal;font-size:29.33300018px;font-family:Helvetica;-inkscape-font-specification:Helvetica;writing-mode:lr-tb;fill:#262626;fill-opacity:1;fill-rule:nonzero;stroke:none"
           transform="translate(-32.5,-7)"><tspan
             id="tspan4440"
             sodipodi:role="line"
             y="0"
             x="0 17.922462 26.077038 35.844925 55.410038">T (K)</tspan></text>
</g></g><g
       transform="matrix(0.60000001,0,0,-0.6,70.200001,553.5)"
       id="g4442"><path
         inkscape:connector-curvature="0"
         id="path4444"
         style="fill:none;stroke:#0072bd;stroke-width:1.66666698;stroke-linecap:butt;stroke-linejoin:round;stroke-miterlimit:10;stroke-dasharray:none;stroke-opacity:1"
         d="m 122.71756,431.04675 0.75376,-0.74676 1.06054,-1.04999 1.0611,-1.04999 1.06155,-1.05002 1.06222,-1.04998 1.06266,-1.05002 1.06322,-1.04999 1.06378,-1.04999 1.06445,-1.05002 1.0649,-1.04998 1.06558,-1.05002 1.06611,-1.04999 1.06669,-1.04999 1.06724,-1.05002 1.06781,-1.04998 1.06847,-1.05002 1.06903,-1.04999 1.0697,-1.04999 1.07027,-1.05002 1.07081,-1.04998 1.07149,-1.05002 1.07216,-1.04999 1.07271,-1.04999 1.07327,-1.05002 1.07407,-1.04998 1.07461,-1.05002 1.07517,-1.04999 1.07595,-1.04999 1.07653,-1.05002 1.07728,-1.04998 1.07787,-1.05002 1.07852,-1.04999 1.07919,-1.04999 1.07987,-1.05002 1.08064,-1.04998 1.08121,-1.05002 1.08198,-1.04999 1.08266,-1.04999 1.08333,-1.05002 1.084,-1.04998 1.08478,-1.05002 1.08545,-1.04999 1.08624,-1.04999 1.0869,-1.05002 1.08767,-1.04998 1.08847,-1.05002 1.08913,-1.04999 1.08992,-1.04999 1.09059,-1.05002 1.09148,-1.04998 1.09216,-1.05002 1.09303,-1.04999 1.09372,-1.04999 1.09461,-1.05002 1.09529,-1.04998 1.09616,-1.05002 1.09696,-1.04999 1.09774,-1.04999 1.09862,-1.05002 1.09941,-1.04998 1.10031,-1.05002 1.10109,-1.04999 1.10187,-1.04999 1.10287,-1.05002 1.10366,-1.04998 1.10455,-1.05002 1.10544,-1.04999 1.10623,-1.04999 1.10722,-1.05002 1.10813,-1.04998 1.10902,-1.05002 1.10991,-1.04999 1.11081,-1.04999 1.1118,-1.05002 1.1127,-1.04998 1.11371,-1.05002 1.11461,-1.04999 1.1156,-1.04999 1.11662,-1.05002 1.11762,-1.04998 1.11851,-1.05002 1.11951,-1.04999 1.12064,-1.04999 1.12152,-1.05002 1.12265,-1.04998 1.12365,-1.05002 1.12476,-1.04999 1.12578,-1.04999 1.12677,-1.05002 1.128,-1.04998 1.12902,-1.05002 1.13002,-1.04999 1.13124,-1.04999 1.13237,-1.05002 1.13347,-1.04998 1.1346,-1.05002 1.13581,-1.04999 1.13695,-1.04999 1.13806,-1.05002 1.13929,-1.04998 1.14051,-1.05002 1.14174,-1.04999 1.14287,-1.04999 1.1442,-1.05002 1.14543,-1.04998 1.14665,-1.05002 1.14801,-1.04999 1.14922,-1.04999 1.15057,-1.05002 1.1519,-1.04998 1.15314,-1.05002 1.1546,-1.04999 1.15593,-1.04999 1.15726,-1.05002 1.15861,-1.04998 1.16007,-1.05002 1.16151,-1.04999 1.16286,-1.04999 1.16441,-1.05002 1.16576,-1.04998 1.16731,-1.05002 1.16879,-1.04999 1.17032,-1.04999 1.17191,-1.05002 1.17337,-1.04998 1.17489,-1.05002 1.17661,-1.04999 1.17816,-1.04999 1.17972,-1.05002 1.18139,-1.04998 1.18308,-1.05002 1.18472,-1.04999 1.18643,-1.04999 1.18821,-1.05002 1.18991,-1.04998 1.19165,-1.05002 1.19345,-1.04999 1.19525,-1.04999 1.19714,-1.05002 1.19895,-1.04998 1.20071,-1.05002 1.20273,-1.04999 1.20462,-1.04999 1.20654,-1.05002 1.20865,-1.04998 1.21042,-1.05002 1.21268,-1.04999 1.21457,-1.04999 1.2167,-1.05002 1.21881,-1.04998 1.22092,-1.05002 1.22308,-1.04999 1.22528,-1.04999 1.22751,-1.05002 1.22977,-1.04998 1.23199,-1.05002 1.23447,-1.04999 1.23666,-1.04999 1.23917,-1.05002 1.24149,-1.04998 1.24392,-1.05002 1.24652,-1.04999 1.24897,-1.04999 1.25155,-1.05002 1.25409,-1.04998 1.2569,-1.05002 1.25949,-1.04999 1.26215,-1.05 1.26504,-1.05001 1.26773,-1.04998 1.27066,-1.05001 1.27353,-1.05 1.27646,-1.05 1.27957,-1.05001 1.28247,-1.04998 1.28562,-1.05001 1.28885,-1.05 1.29187,-1.05 1.29531,-1.05001 1.29847,-1.04998 1.30191,-1.05001 1.30536,-1.05 1.30883,-1.05 1.31241,-1.05001 1.31601,-1.04998 1.31967,-1.05001 1.32337,-1.05 1.32727,-1.05 1.33117,-1.05001 1.33509,-1.04998 1.33911,-1.05001 1.34323,-1.05 1.34747,-1.05 1.35175,-1.05001 1.3562,-1.04998 1.36053,-1.05001 1.36515,-1.05 1.36984,-1.05 1.37451,-1.05001 1.37943,-1.04998 1.38434,-1.05001 1.38949,-1.05 1.39462,-1.05 1.39988,-1.05001 1.40533,-1.04998 1.41083,-1.05001 1.4165,-1.05 1.42243,-1.05 1.42825,-1.05001 1.43439,-1.04998 1.44061,-1.05001 1.44714,-1.05 1.45359,-1.05 1.46029,-1.05001 1.46735,-1.04998 1.47436,-1.05001 1.48175,-1.05 1.48911,-1.05 1.49692,-1.05001 1.50488,-1.04998 1.513,-1.05001 1.52139,-1.05 1.53012,-1.05 1.53904,-1.05001 1.54821,-1.04998 1.5578,-1.05001 1.56754,-1.05 1.57779,-1.05 1.58819,-1.05001 1.59913,-1.04998 1.61032,-1.05001 1.62201,-1.05 1.63409,-1.05 1.64673,-1.05001 1.65967,-1.04998 1.67331,-1.05001 1.68737,-1.05 1.70209,-1.05 1.71744,-1.05001 1.73349,-1.04998 1.75015,-1.05001 1.76779,-1.05 1.78623,-1.05 1.80545,-1.05001 1.82574,-1.04998 1.8472,-1.05001 1.86966,-1.05 1.89359,-1.05 1.91879,-1.05001 1.94562,-1.04998 1.97409,-1.05001 2.00448,-1.05 2.03708,-1.05 2.07193,-1.05001 2.10947,-1.04998 2.15002,-1.05001 2.194,-1.05 2.24195,-1.05 2.29455,-1.05001 2.35218,-1.04998 2.41629,-1.05001 2.48767,-1.05 2.56829,-1.05 2.6597,-1.05001 2.76499,-1.04998 2.88788,-1.05001 3.03375,-1.05 3.21087,-1.05 3.43216,-1.05001 3.71943,-1.04998 4.11383,-1.05001 4.70459,-1.05 5.7409,-1.05 8.51303,-1.05001 17.1781,0 7.58857,1.05001 4.81646,1.05 3.78009,1.05 3.18933,1.05001 2.79493,1.04998 2.50781,1.05001 2.28638,1.05 2.10925,1.05 1.96338,1.05001 1.84057,1.04998 1.73523,1.05001 1.6438,1.05 1.56329,1.05 1.49164,1.05001 1.4278,1.04998 1.36993,1.05001 1.31757,1.05 1.26953,1.05 1.22565,1.05001 1.18493,1.04998 1.14759,1.05001 1.11248,1.05 1.08008,1.05 1.04956,1.05001 1.02112,1.04998 0.99445,1.05001 0.96905,1.05 0.94513,1.05 0.92273,1.05001 0.90125,1.04998 0.8811,1.05001 0.86169,1.05 0.84333,1.05 0.82574,1.05001 0.80902,1.04998 0.79291,1.05001 0.77759,1.05 0.76288,1.05 0.74884,1.05001 0.73529,1.04998 0.72216,1.05001 0.7096,1.05 0.69757,1.05 0.68591,1.05001 0.67463,1.04998 0.66369,1.05001 0.65332,1.05 0.64313,1.05 0.6333,1.05001 0.62372,1.04998 0.61456,1.05001 0.60559,1.05 0.59699,1.05 0.5885,1.05001 0.58038,1.04998 0.57245,1.05001 0.56476,1.05 0.55719,1.05 0.54992,1.05001 0.54279,1.04998 0.53595,1.05001 0.52911,1.05 0.52259,1.05 0.51617,1.05001 0.50995,1.04998 0.50378,1.05001 0.49793,1.05 0.492,1.05 0.48645,1.05001 0.48084,1.04998 0.47546,1.05001 0.47016,1.05 0.46484,1.05 0.45996,1.05001 0.45496,1.04998 0.45001,1.05001 0.44531,1.05 0.44074,1.05 0.43609,1.05001 0.4317,1.04998 0.42731,1.05001 0.42304,1.05 0.4187,1.05 0.41473,1.05001 0.41058,1.04998 0.40668,1.05001 0.40277,1.05 0.39899,1.05 0.3952,1.05001 0.39148,1.04998 0.38788,1.05001 0.38434,1.05 0.38092,1.05 0.37738,1.05001 0.37408,1.04998 0.37085,1.05001 0.36744,1.05 0.36438,1.05 0.36108,1.05001 0.35809,1.04998 0.35498,1.05001 0.35205,1.05 0.34906,1.05 0.34613,1.05001 0.34339,1.04998 0.34045,1.05001 0.33771,1.05 0.33508,1.04999 0.33234,1.05002 0.32971,1.04998 0.32703,1.05002 0.32446,1.04999 0.32202,1.04999 0.31958,1.05002 0.31696,1.04998 0.31469,1.05002 0.31226,1.04999 0.30988,1.04999 0.30761,1.05002 0.30524,1.04998 0.30304,1.05002 0.30078,1.04999 0.29865,1.04999 0.29644,1.05002 0.29431,1.04998 0.29224,1.05002 0.29016,1.04999 0.28809,1.04999 0.28613,1.05002 0.28406,1.04998 0.2821,1.05002 0.28015,1.04999 0.27826,1.04999 0.27631,1.05002 0.27441,1.04998 0.27265,1.05002 0.27075,1.04999 0.26898,1.04999 0.26715,1.05002 0.26551,1.04998 0.26373,1.05002 0.2619,1.04999 0.26025,1.04999 0.25873,1.05002 0.2569,1.04998 0.25531,1.05002 0.25366,1.04999 0.25195,1.04999 0.25055,1.05002 0.24897,1.04998 0.24731,1.05002 0.24585,1.04999 0.24439,1.04999 0.24279,1.05002 0.2414,1.04998 0.2398,1.05002 0.23847,1.04999 0.237,1.04999 0.23559,1.05002 0.2342,1.04998 0.23278,1.05002 0.23145,1.04999 0.23004,1.04999 0.22876,1.05002 0.22742,1.04998 0.22607,1.05002 0.22473,1.04999 0.22351,1.04999 0.22229,1.05002 0.22089,1.04998 0.21973,1.05002 0.2185,1.04999 0.21723,1.04999 0.216,1.05002 0.21478,1.04998 0.21369,1.05002 0.21246,1.04999 0.2113,1.04999 0.21009,1.05002 0.20898,1.04998 0.20789,1.05002 0.20672,1.04999 0.20563,1.04999 0.20465,1.05002 0.20337,1.04998 0.20239,1.05002 0.2013,1.04999 0.20025,1.04999 0.19916,1.05002 0.19818,1.04998 0.19715,1.05002 0.1961,1.04999 0.19501,1.04999 0.19415,1.05002 0.19312,1.04998 0.19207,1.05002 0.19117,1.04999 0.19018,1.04999 0.18921,1.05002 0.18823,1.04998 0.18732,1.05002 0.1864,1.04999 0.18543,1.04999 0.18451,1.05002 0.18359,1.04998 0.18274,1.05002 0.18188,1.04999 0.18091,1.04999 0.18006,1.05002 0.17926,1.04998 0.17828,1.05002 0.17749,1.04999 0.1767,1.04999 0.17578,1.05002 0.17493,1.04998 0.17413,1.05002 0.17322,1.04999 0.1726,1.04999 0.1717,1.05002 0.17077,1.04998 0.17011,1.05002 0.16931,1.04999 0.16846,1.04999 0.16772,1.05002 0.16699,1.04998 0.1662,1.05002 0.16547,1.04999 0.16461,1.04999 0.16394,1.05002 0.16321,1.04998 0.16253,1.05002 0.16175,1.04999 0.16095,1.04999 0.16028,1.05002 0.1596,1.04998 0.15882,1.05002 0.15814,1.04999 0.15753,1.04999 0.1568,1.05002 0.156,1.04998 0.15552,1.05002 0.15467,1.04999 0.15417,1.04999 0.15332,1.05002 0.15283,1.04998 0.15198,1.05002 0.15149,1.04999 0.15076,1.04999 0.15014,1.05002 0.14954,1.04998 0.14892,1.05002 0.1482,1.04999 0.14764,1.04999 0.14704,1.05002 0.14642,1.04998 0.14575,1.05002 0.14508,1.04999 0.14465,1.04999 0.14399,1.05002 0.14343,1.04998 0.1427,1.05002 0.14221,1.04999 0.14166,1.04999 0.14106,1.05002 0.1405,1.04998 0.13995,1.05002 0.13929,1.04999 0.13885,1.04999 0.13812,1.05002 0.13776,1.04998 0.13714,1.05002 0.13648,1.04999 0.13605,1.04999 0.0964,0.74676" /></g></g></svg>