<?xml version="1.0" encoding="UTF-8" standalone="no"?>
<!-- Created with Inkscape (http://www.inkscape.org/) -->

<svg
   xmlns:dc="http://purl.org/dc/elements/1.1/"
   xmlns:cc="http://creativecommons.org/ns#"
   xmlns:rdf="http://www.w3.org/1999/02/22-rdf-syntax-ns#"
   xmlns:svg="http://www.w3.org/2000/svg"
   xmlns="http://www.w3.org/2000/svg"
   xmlns:sodipodi="http://sodipodi.sourceforge.net/DTD/sodipodi-0.dtd"
   xmlns:inkscape="http://www.inkscape.org/namespaces/inkscape"
   id="svg2"
   version="1.1"
   inkscape:version="0.91 r13725"
   xml:space="preserve"
   width="142.71962mm"
   height="107.82533mm"
   viewBox="0 0 505.69946 382.05825"
   sodipodi:docname="model1-blankaxes.svg"><metadata
     id="metadata8"><rdf:RDF><cc:Work
         rdf:about=""><dc:format>image/svg+xml</dc:format><dc:type
           rdf:resource="http://purl.org/dc/dcmitype/StillImage" /><dc:title></dc:title></cc:Work></rdf:RDF></metadata><defs
     id="defs6"><clipPath
       clipPathUnits="userSpaceOnUse"
       id="clipPath18"><path
         d="M -4.77e-6,0 700,0 700,525 -4.77e-6,525 l 0,-525 z"
         id="path20"
         inkscape:connector-curvature="0" /></clipPath></defs><sodipodi:namedview
     pagecolor="#ffffff"
     bordercolor="#666666"
     borderopacity="1"
     objecttolerance="10"
     gridtolerance="10"
     guidetolerance="10"
     inkscape:pageopacity="0"
     inkscape:pageshadow="2"
     inkscape:window-width="1536"
     inkscape:window-height="801"
     id="namedview4"
     showgrid="false"
     units="mm"
     fit-margin-top="5"
     fit-margin-left="5"
     fit-margin-right="5"
     fit-margin-bottom="5"
     inkscape:zoom="0.95353535"
     inkscape:cx="148.94831"
     inkscape:cy="198.45311"
     inkscape:window-x="-8"
     inkscape:window-y="-8"
     inkscape:window-maximized="1"
     inkscape:current-layer="g10" /><g
     id="g10"
     inkscape:groupmode="layer"
     inkscape:label="model1-phi1lnphi1"
     transform="matrix(1.25,0,0,-1.25,-108.76705,672.2167)"><g
       transform="matrix(0.6,0,0,-0.6,96.000002,553.5)"
       id="g32"><path
         inkscape:connector-curvature="0"
         id="path34"
         style="fill:none;stroke:#262626;stroke-width:3.33333302;stroke-linecap:square;stroke-linejoin:round;stroke-miterlimit:10;stroke-dasharray:none;stroke-opacity:1"
         d="m 98,467 536,0" /></g><g
       transform="matrix(0.6,0,0,-0.6,96.000002,553.5)"
       id="g36"><path
         inkscape:connector-curvature="0"
         id="path38"
         style="fill:none;stroke:#262626;stroke-width:3.33333302;stroke-linecap:square;stroke-linejoin:round;stroke-miterlimit:10;stroke-dasharray:none;stroke-opacity:1"
         d="m 98,57.999996 536,0" /></g><g
       transform="matrix(0.6,0,0,-0.6,96.000002,553.5)"
       id="g40"><path
         inkscape:connector-curvature="0"
         id="path42"
         style="fill:none;stroke:#262626;stroke-width:3.33333302;stroke-linecap:square;stroke-linejoin:round;stroke-miterlimit:10;stroke-dasharray:none;stroke-opacity:1"
         d="M 98,467 98,57.999996" /></g><g
       transform="matrix(0.6,0,0,-0.6,96.000002,553.5)"
       id="g44"><path
         inkscape:connector-curvature="0"
         id="path46"
         style="fill:none;stroke:#262626;stroke-width:3.33333302;stroke-linecap:square;stroke-linejoin:round;stroke-miterlimit:10;stroke-dasharray:none;stroke-opacity:1"
         d="M 634,467 634,57.999996" /></g><g
       transform="matrix(0.6,0,0,-0.6,96.000002,553.5)"
       id="g48"><path
         inkscape:connector-curvature="0"
         id="path50"
         style="fill:none;stroke:#262626;stroke-width:3.33333302;stroke-linecap:square;stroke-linejoin:round;stroke-miterlimit:10;stroke-dasharray:none;stroke-opacity:1"
         d="m 98,262.5 536,0" /></g><g
       transform="matrix(0.6,0,0,-0.6,96.000002,553.5)"
       id="g52"><path
         inkscape:connector-curvature="0"
         id="path54"
         style="fill:none;stroke:#262626;stroke-width:3.33333302;stroke-linecap:square;stroke-linejoin:round;stroke-miterlimit:10;stroke-dasharray:none;stroke-opacity:1"
         d="m 98,262.5 0,-5.35999" /></g><g
       transform="matrix(0.6,0,0,-0.6,96.000002,553.5)"
       id="g56"><path
         inkscape:connector-curvature="0"
         id="path58"
         style="fill:none;stroke:#262626;stroke-width:3.33333302;stroke-linecap:square;stroke-linejoin:round;stroke-miterlimit:10;stroke-dasharray:none;stroke-opacity:1"
         d="m 205.2,262.5 0,-5.35999" /></g><g
       transform="matrix(0.6,0,0,-0.6,96.000002,553.5)"
       id="g60"><path
         inkscape:connector-curvature="0"
         id="path62"
         style="fill:none;stroke:#262626;stroke-width:3.33333302;stroke-linecap:square;stroke-linejoin:round;stroke-miterlimit:10;stroke-dasharray:none;stroke-opacity:1"
         d="m 312.39999,262.5 0,-5.35999" /></g><g
       transform="matrix(0.6,0,0,-0.6,96.000002,553.5)"
       id="g64"><path
         inkscape:connector-curvature="0"
         id="path66"
         style="fill:none;stroke:#262626;stroke-width:3.33333302;stroke-linecap:square;stroke-linejoin:round;stroke-miterlimit:10;stroke-dasharray:none;stroke-opacity:1"
         d="m 419.60001,262.5 0,-5.35999" /></g><g
       transform="matrix(0.6,0,0,-0.6,96.000002,553.5)"
       id="g68"><path
         inkscape:connector-curvature="0"
         id="path70"
         style="fill:none;stroke:#262626;stroke-width:3.33333302;stroke-linecap:square;stroke-linejoin:round;stroke-miterlimit:10;stroke-dasharray:none;stroke-opacity:1"
         d="m 526.79999,262.5 0,-5.35999" /></g><g
       transform="matrix(0.6,0,0,-0.6,96.000002,553.5)"
       id="g72"><path
         inkscape:connector-curvature="0"
         id="path74"
         style="fill:none;stroke:#262626;stroke-width:3.33333302;stroke-linecap:square;stroke-linejoin:round;stroke-miterlimit:10;stroke-dasharray:none;stroke-opacity:1"
         d="m 634,262.5 0,-5.35999" /></g><g
       id="g76"
       transform="matrix(0.125,0,0,-0.125,0,792)"><g
         transform="matrix(4.8,0,0,4.8,1752.96,3209.6)"
         id="g78"><text
           id="text80"
           style="font-variant:normal;font-weight:normal;font-size:26.66699982px;font-family:Helvetica;-inkscape-font-specification:Helvetica;writing-mode:lr-tb;fill:#262626;fill-opacity:1;fill-rule:nonzero;stroke:none"
           transform="translate(-19,28)"><tspan
             id="tspan82"
             sodipodi:role="line"
             y="0"
             x="0 14.826852 22.240278">0.2</tspan></text>
</g></g><g
       id="g84"
       transform="matrix(0.125,0,0,-0.125,0,792)"><g
         transform="matrix(4.8,0,0,4.8,2267.52,3209.6)"
         id="g86"><text
           id="text88"
           style="font-variant:normal;font-weight:normal;font-size:26.66699982px;font-family:Helvetica;-inkscape-font-specification:Helvetica;writing-mode:lr-tb;fill:#262626;fill-opacity:1;fill-rule:nonzero;stroke:none"
           transform="translate(-19,28)"><tspan
             id="tspan90"
             sodipodi:role="line"
             y="0"
             x="0 14.826852 22.240278">0.4</tspan></text>
</g></g><g
       id="g92"
       transform="matrix(0.125,0,0,-0.125,0,792)"><g
         transform="matrix(4.8,0,0,4.8,2782.0801,3209.6)"
         id="g94"><text
           id="text96"
           style="font-variant:normal;font-weight:normal;font-size:26.66699982px;font-family:Helvetica;-inkscape-font-specification:Helvetica;writing-mode:lr-tb;fill:#262626;fill-opacity:1;fill-rule:nonzero;stroke:none"
           transform="translate(-19,28)"><tspan
             id="tspan98"
             sodipodi:role="line"
             y="0"
             x="0 14.826852 22.240278">0.6</tspan></text>
</g></g><g
       id="g100"
       transform="matrix(0.125,0,0,-0.125,0,792)"><g
         transform="matrix(4.8,0,0,4.8,3296.64,3209.6)"
         id="g102"><text
           id="text104"
           style="font-variant:normal;font-weight:normal;font-size:26.66699982px;font-family:Helvetica;-inkscape-font-specification:Helvetica;writing-mode:lr-tb;fill:#262626;fill-opacity:1;fill-rule:nonzero;stroke:none"
           transform="translate(-19,28)"><tspan
             id="tspan106"
             sodipodi:role="line"
             y="0"
             x="0 14.826852 22.240278">0.8</tspan></text>
</g></g><g
       transform="matrix(0.6,0,0,-0.6,313.2,254.7)"
       id="g108"><path
         inkscape:connector-curvature="0"
         id="path110"
         style="fill:#262626;fill-opacity:1;fill-rule:nonzero;stroke:none"
         d="m 5.625,5.65625 1.296875,-5.25 c -0.9791667,0 -1.8932292,-0.22916667 -2.7421875,-0.6875 C 3.3307292,-0.73958333 2.6484375,-1.3776042 2.1328125,-2.1953125 1.6171875,-3.0130208 1.359375,-3.90625 1.359375,-4.875 c 0,-1.0416667 0.2604167,-2.0390625 0.78125,-2.9921875 0.5208333,-0.953125 1.2317708,-1.8203125 2.1328125,-2.6015625 0.9010417,-0.78125 1.8697917,-1.382813 2.90625,-1.804688 1.0364583,-0.421875 2.0651042,-0.632812 3.0859375,-0.632812 l 1.75,-7.046875 c 0.03125,-0.114583 0.104167,-0.171875 0.21875,-0.171875 l 0.359375,0 c 0.07292,0 0.132813,0.03385 0.179688,0.101563 0.04687,0.06771 0.07031,0.127604 0.07031,0.179687 l -1.734375,6.9375 c 0.71875,0 1.419271,0.132812 2.101563,0.398437 0.682291,0.265625 1.283854,0.638021 1.804687,1.117188 0.520833,0.479167 0.929688,1.041667 1.226562,1.6875 0.296875,0.6458333 0.445313,1.3385417 0.445313,2.078125 0,1.0416667 -0.260417,2.0390625 -0.78125,2.9921875 -0.520833,0.953125 -1.221354,1.8125 -2.101562,2.578125 C 12.924479,-1.2890625 11.945313,-0.6875 10.867188,-0.25 9.7890625,0.1875 8.7604167,0.40625 7.78125,0.40625 L 6.4375,5.78125 C 6.40625,5.8958333 6.328125,5.953125 6.203125,5.953125 l -0.34375,0 C 5.7864583,5.953125 5.7291667,5.9166667 5.6875,5.84375 5.6458333,5.7708333 5.625,5.7083333 5.625,5.65625 Z M 7.109375,-0.359375 10.0625,-12.15625 c -0.4895833,0 -1.0026042,0.09896 -1.5390625,0.296875 -0.5364583,0.197917 -1.0442708,0.447917 -1.5234375,0.75 -0.4791667,0.302083 -0.9114583,0.651042 -1.296875,1.046875 -0.46875,0.46875 -0.8828125,1.0234375 -1.2421875,1.6640625 -0.359375,0.640625 -0.6302083,1.3177083 -0.8125,2.03125 C 3.4661458,-5.6536458 3.375,-4.953125 3.375,-4.265625 c 0,0.7291667 0.15625,1.390625 0.46875,1.984375 0.3125,0.59375 0.75,1.0625 1.3125,1.40625 0.5625,0.34375 1.2135417,0.515625 1.953125,0.515625 z m 0.859375,0 c 0.7291667,0 1.5052083,-0.20572917 2.328125,-0.6171875 C 11.119792,-1.3880208 11.791667,-1.875 12.3125,-2.4375 c 0.729167,-0.71875 1.304688,-1.5989583 1.726563,-2.640625 0.421875,-1.0416667 0.632812,-2.09375 0.632812,-3.15625 0,-0.71875 -0.15625,-1.3776042 -0.46875,-1.976563 -0.3125,-0.598958 -0.752604,-1.072916 -1.320312,-1.421875 -0.567709,-0.348958 -1.216146,-0.523437 -1.945313,-0.523437 L 7.96875,-0.359375 Z" /></g><g
       id="g112"
       transform="matrix(0.125,0,0,-0.125,0,792)"><g
         transform="matrix(4.8,0,0,4.8,2592,4365.6)"
         id="g114"><text
           id="text116"
           style="font-variant:normal;font-weight:normal;font-size:23.46699905px;font-family:Helvetica;-inkscape-font-specification:Helvetica;writing-mode:lr-tb;fill:#262626;fill-opacity:1;fill-rule:nonzero;stroke:none"><tspan
             id="tspan118"
             y="0"
             x="0">1</tspan></text>
</g></g><g
       transform="matrix(0.6,0,0,-0.6,96.000002,553.5)"
       id="g120"><path
         inkscape:connector-curvature="0"
         id="path122"
         style="fill:none;stroke:#262626;stroke-width:3.33333302;stroke-linecap:square;stroke-linejoin:round;stroke-miterlimit:10;stroke-dasharray:none;stroke-opacity:1"
         d="M 98,467 98,57.999996" /></g><g
       transform="matrix(0.6,0,0,-0.6,96.000002,553.5)"
       id="g124"><path
         inkscape:connector-curvature="0"
         id="path126"
         style="fill:none;stroke:#262626;stroke-width:3.33333302;stroke-linecap:square;stroke-linejoin:round;stroke-miterlimit:10;stroke-dasharray:none;stroke-opacity:1"
         d="M 634,467 634,57.999996" /></g><g
       transform="matrix(0.6,0,0,-0.6,96.000002,553.5)"
       id="g128"><path
         inkscape:connector-curvature="0"
         id="path130"
         style="fill:none;stroke:#262626;stroke-width:3.33333302;stroke-linecap:square;stroke-linejoin:round;stroke-miterlimit:10;stroke-dasharray:none;stroke-opacity:1"
         d="m 98,467 5.36,0" /></g><g
       transform="matrix(0.6,0,0,-0.6,96.000002,553.5)"
       id="g132"><path
         inkscape:connector-curvature="0"
         id="path134"
         style="fill:none;stroke:#262626;stroke-width:3.33333302;stroke-linecap:square;stroke-linejoin:round;stroke-miterlimit:10;stroke-dasharray:none;stroke-opacity:1"
         d="m 98,364.75 5.36,0" /></g><g
       transform="matrix(0.6,0,0,-0.6,96.000002,553.5)"
       id="g136"><path
         inkscape:connector-curvature="0"
         id="path138"
         style="fill:none;stroke:#262626;stroke-width:3.33333302;stroke-linecap:square;stroke-linejoin:round;stroke-miterlimit:10;stroke-dasharray:none;stroke-opacity:1"
         d="m 98,262.5 5.36,0" /></g><g
       transform="matrix(0.6,0,0,-0.6,96.000002,553.5)"
       id="g140"><path
         inkscape:connector-curvature="0"
         id="path142"
         style="fill:none;stroke:#262626;stroke-width:3.33333302;stroke-linecap:square;stroke-linejoin:round;stroke-miterlimit:10;stroke-dasharray:none;stroke-opacity:1"
         d="m 98,160.25 5.36,0" /></g><g
       transform="matrix(0.6,0,0,-0.6,96.000002,553.5)"
       id="g144"><path
         inkscape:connector-curvature="0"
         id="path146"
         style="fill:none;stroke:#262626;stroke-width:3.33333302;stroke-linecap:square;stroke-linejoin:round;stroke-miterlimit:10;stroke-dasharray:none;stroke-opacity:1"
         d="m 98,57.999996 5.36,0" /></g><g
       transform="matrix(0.6,0,0,-0.6,96.000002,553.5)"
       id="g148"><path
         inkscape:connector-curvature="0"
         id="path150"
         style="fill:none;stroke:#262626;stroke-width:3.33333302;stroke-linecap:square;stroke-linejoin:round;stroke-miterlimit:10;stroke-dasharray:none;stroke-opacity:1"
         d="m 634,467 -5.35999,0" /></g><g
       transform="matrix(0.6,0,0,-0.6,96.000002,553.5)"
       id="g152"><path
         inkscape:connector-curvature="0"
         id="path154"
         style="fill:none;stroke:#262626;stroke-width:3.33333302;stroke-linecap:square;stroke-linejoin:round;stroke-miterlimit:10;stroke-dasharray:none;stroke-opacity:1"
         d="m 634,364.75 -5.35999,0" /></g><g
       transform="matrix(0.6,0,0,-0.6,96.000002,553.5)"
       id="g156"><path
         inkscape:connector-curvature="0"
         id="path158"
         style="fill:none;stroke:#262626;stroke-width:3.33333302;stroke-linecap:square;stroke-linejoin:round;stroke-miterlimit:10;stroke-dasharray:none;stroke-opacity:1"
         d="m 634,262.5 -5.35999,0" /></g><g
       transform="matrix(0.6,0,0,-0.6,96.000002,553.5)"
       id="g160"><path
         inkscape:connector-curvature="0"
         id="path162"
         style="fill:none;stroke:#262626;stroke-width:3.33333302;stroke-linecap:square;stroke-linejoin:round;stroke-miterlimit:10;stroke-dasharray:none;stroke-opacity:1"
         d="m 634,160.25 -5.35999,0" /></g><g
       transform="matrix(0.6,0,0,-0.6,96.000002,553.5)"
       id="g164"><path
         inkscape:connector-curvature="0"
         id="path166"
         style="fill:none;stroke:#262626;stroke-width:3.33333302;stroke-linecap:square;stroke-linejoin:round;stroke-miterlimit:10;stroke-dasharray:none;stroke-opacity:1"
         d="m 634,57.999996 -5.35999,0" /></g><g
       id="g168"
       transform="matrix(0.125,0,0,-0.125,0,792)"><g
         transform="matrix(4.8,0,0,4.8,1196.8,4149.6)"
         id="g170"><text
           id="text172"
           style="font-variant:normal;font-weight:normal;font-size:26.66699982px;font-family:Helvetica;-inkscape-font-specification:Helvetica;writing-mode:lr-tb;fill:#262626;fill-opacity:1;fill-rule:nonzero;stroke:none"
           transform="translate(-47,11)"><tspan
             id="tspan174"
             sodipodi:role="line"
             y="0"
             x="0 8.8801107 23.706963 31.12039">-0.4</tspan></text>
</g></g><g
       id="g176"
       transform="matrix(0.125,0,0,-0.125,0,792)"><g
         transform="matrix(4.8,0,0,4.8,1196.8,3658.8)"
         id="g178"><text
           id="text180"
           style="font-variant:normal;font-weight:normal;font-size:26.66699982px;font-family:Helvetica;-inkscape-font-specification:Helvetica;writing-mode:lr-tb;fill:#262626;fill-opacity:1;fill-rule:nonzero;stroke:none"
           transform="translate(-47,11)"><tspan
             id="tspan182"
             sodipodi:role="line"
             y="0"
             x="0 8.8801107 23.706963 31.12039">-0.2</tspan></text>
</g></g><g
       id="g184"
       transform="matrix(0.125,0,0,-0.125,0,792)"><g
         transform="matrix(4.8,0,0,4.8,1196.8,3168)"
         id="g186"><text
           id="text188"
           style="font-variant:normal;font-weight:normal;font-size:26.66699982px;font-family:Helvetica;-inkscape-font-specification:Helvetica;writing-mode:lr-tb;fill:#262626;fill-opacity:1;fill-rule:nonzero;stroke:none"
           transform="translate(-16,11)"><tspan
             id="tspan190"
             y="0"
             x="0">0</tspan></text>
</g></g><g
       id="g192"
       transform="matrix(0.125,0,0,-0.125,0,792)"><g
         transform="matrix(4.8,0,0,4.8,1196.8,2677.2)"
         id="g194"><text
           id="text196"
           style="font-variant:normal;font-weight:normal;font-size:26.66699982px;font-family:Helvetica;-inkscape-font-specification:Helvetica;writing-mode:lr-tb;fill:#262626;fill-opacity:1;fill-rule:nonzero;stroke:none"
           transform="translate(-38,11)"><tspan
             id="tspan198"
             sodipodi:role="line"
             y="0"
             x="0 14.826852 22.240278">0.2</tspan></text>
</g></g><g
       id="g200"
       transform="matrix(0.125,0,0,-0.125,0,792)"><g
         transform="matrix(4.8,0,0,4.8,1196.8,2186.4)"
         id="g202"><text
           id="text204"
           style="font-variant:normal;font-weight:normal;font-size:26.66699982px;font-family:Helvetica;-inkscape-font-specification:Helvetica;writing-mode:lr-tb;fill:#262626;fill-opacity:1;fill-rule:nonzero;stroke:none"
           transform="translate(-38,11)"><tspan
             id="tspan206"
             sodipodi:role="line"
             y="0"
             x="0 14.826852 22.240278">0.4</tspan></text>
</g></g><g
       transform="matrix(-2.625e-8,0.6,0.6,2.625e-8,114,367.5)"
       id="g208"><path
         inkscape:connector-curvature="0"
         id="path210"
         style="fill:#262626;fill-opacity:1;fill-rule:nonzero;stroke:none"
         d="m 1.578125,0 c -0.1666667,0 -0.25,-0.078125 -0.25,-0.234375 0.010417,-0.0104167 0.018229,-0.0208333 0.023437,-0.03125 0.00521,-0.0104167 0.00781,-0.03125 0.00781,-0.0625 l 9.984375,-20.125 c 0.08333,-0.208333 0.255208,-0.3125 0.515625,-0.3125 l 0.40625,0 c 0.260417,0 0.432292,0.104167 0.515625,0.3125 l 9.984375,20.125 c 0.01042,0.0208333 0.01823,0.0390625 0.02344,0.0546875 0.0052,0.015625 0.0078,0.0286458 0.0078,0.0390625 C 22.796875,-0.078125 22.71875,0 22.5625,0 L 1.578125,0 Z m 1.90625,-2.328125 15.28125,0 L 11.125,-17.71875 3.484375,-2.328125 Z" /></g><g
       id="g212"
       transform="matrix(0.125,0,0,-0.125,0,792)"><g
         transform="matrix(-2.1e-7,-4.8,4.8,-2.1e-7,912.00002,3276)"
         id="g214"><text
           id="text216"
           style="font-variant:normal;font-weight:normal;font-size:29.33300018px;font-family:Helvetica;-inkscape-font-specification:Helvetica;writing-mode:lr-tb;fill:#262626;fill-opacity:1;fill-rule:nonzero;stroke:none"
           transform="translate(8.154574,0)"><tspan
             id="tspan218"
             sodipodi:role="line"
             y="0"
             x="0 22.821074 30.975649 45.642147">G/kT</tspan></text>
</g></g></g></svg>