<?xml version="1.0" encoding="UTF-8" standalone="no"?>
<!-- Created with Inkscape (http://www.inkscape.org/) -->

<svg
   xmlns:dc="http://purl.org/dc/elements/1.1/"
   xmlns:cc="http://creativecommons.org/ns#"
   xmlns:rdf="http://www.w3.org/1999/02/22-rdf-syntax-ns#"
   xmlns:svg="http://www.w3.org/2000/svg"
   xmlns="http://www.w3.org/2000/svg"
   xmlns:sodipodi="http://sodipodi.sourceforge.net/DTD/sodipodi-0.dtd"
   xmlns:inkscape="http://www.inkscape.org/namespaces/inkscape"
   width="77.995171mm"
   height="55.804398mm"
   viewBox="0 0 276.36084 197.73212"
   id="svg2"
   version="1.1"
   inkscape:version="0.91 r13725"
   sodipodi:docname="model1-paralleplates.svg">
  <defs
     id="defs4">
    <marker
       inkscape:stockid="Arrow2Mend"
       orient="auto"
       refY="0"
       refX="0"
       id="Arrow2Mend"
       style="overflow:visible"
       inkscape:isstock="true">
      <path
         id="path4257"
         style="fill:#000000;fill-opacity:1;fill-rule:evenodd;stroke:#000000;stroke-width:0.625;stroke-linejoin:round;stroke-opacity:1"
         d="M 8.7185878,4.0337352 -2.2072895,0.01601326 8.7185884,-4.0017078 c -1.7454984,2.3720609 -1.7354408,5.6174519 -6e-7,8.035443 z"
         transform="scale(-0.6,-0.6)"
         inkscape:connector-curvature="0" />
    </marker>
    <marker
       inkscape:isstock="true"
       style="overflow:visible"
       id="marker4850"
       refX="0"
       refY="0"
       orient="auto"
       inkscape:stockid="Arrow1Send">
      <path
         transform="matrix(-0.2,0,0,-0.2,-1.2,0)"
         style="fill:#000000;fill-opacity:1;fill-rule:evenodd;stroke:#000000;stroke-width:1pt;stroke-opacity:1"
         d="M 0,0 5,-5 -12.5,0 5,5 0,0 Z"
         id="path4852"
         inkscape:connector-curvature="0" />
    </marker>
    <marker
       inkscape:stockid="Arrow1Send"
       orient="auto"
       refY="0"
       refX="0"
       id="Arrow1Send"
       style="overflow:visible"
       inkscape:isstock="true"
       inkscape:collect="always">
      <path
         id="path4245"
         d="M 0,0 5,-5 -12.5,0 5,5 0,0 Z"
         style="fill:#000000;fill-opacity:1;fill-rule:evenodd;stroke:#000000;stroke-width:1pt;stroke-opacity:1"
         transform="matrix(-0.2,0,0,-0.2,-1.2,0)"
         inkscape:connector-curvature="0" />
    </marker>
    <marker
       inkscape:stockid="Arrow1Sstart"
       orient="auto"
       refY="0"
       refX="0"
       id="Arrow1Sstart"
       style="overflow:visible"
       inkscape:isstock="true">
      <path
         id="path4242"
         d="M 0,0 5,-5 -12.5,0 5,5 0,0 Z"
         style="fill:#000000;fill-opacity:1;fill-rule:evenodd;stroke:#000000;stroke-width:1pt;stroke-opacity:1"
         transform="matrix(0.2,0,0,0.2,1.2,0)"
         inkscape:connector-curvature="0" />
    </marker>
  </defs>
  <sodipodi:namedview
     id="base"
     pagecolor="#ffffff"
     bordercolor="#666666"
     borderopacity="1.0"
     inkscape:pageopacity="0.0"
     inkscape:pageshadow="2"
     inkscape:zoom="0.98994949"
     inkscape:cx="212.96779"
     inkscape:cy="-7.9640778"
     inkscape:document-units="px"
     inkscape:current-layer="layer1"
     showgrid="false"
     fit-margin-top="2"
     fit-margin-left="2"
     fit-margin-right="2"
     fit-margin-bottom="2"
     inkscape:window-width="1536"
     inkscape:window-height="801"
     inkscape:window-x="-8"
     inkscape:window-y="-8"
     inkscape:window-maximized="1" />
  <metadata
     id="metadata7">
    <rdf:RDF>
      <cc:Work
         rdf:about="">
        <dc:format>image/svg+xml</dc:format>
        <dc:type
           rdf:resource="http://purl.org/dc/dcmitype/StillImage" />
        <dc:title></dc:title>
      </cc:Work>
    </rdf:RDF>
  </metadata>
  <g
     inkscape:label="Layer 1"
     inkscape:groupmode="layer"
     id="layer1"
     transform="translate(-142.9986,-229.85622)">
    <path
       style="opacity:1;fill:none;fill-opacity:1;stroke:#000000;stroke-width:2;stroke-linejoin:miter;stroke-miterlimit:4;stroke-dasharray:none;stroke-dashoffset:0;stroke-opacity:1"
       d="m 318.13062,405.267 c 0,7.86162 -37.3944,14.23473 -83.52271,14.23473 -46.12831,0 -83.52269,-6.37311 -83.5227,-14.23473 l 0,-17.26099 c 1e-5,7.86162 37.39439,14.23473 83.5227,14.23473 46.12831,0 83.5227,-6.37311 83.52271,-14.23473 z"
       id="path4136"
       inkscape:connector-curvature="0"
       sodipodi:nodetypes="csccscc" />
    <path
       style="opacity:1;fill:none;fill-opacity:1;stroke:#000000;stroke-width:2;stroke-linejoin:miter;stroke-miterlimit:4;stroke-dasharray:none;stroke-dashoffset:0;stroke-opacity:1"
       d="m 318.13062,377.4233 c -1e-5,7.86162 -37.3944,14.23473 -83.5227,14.23473 -46.12831,0 -83.5227,-6.37311 -83.5227,-14.23473 l 0,-17.26099 c 1e-5,7.86162 37.39439,14.23473 83.5227,14.23473 46.1283,0 83.52269,-6.37311 83.5227,-14.23473 z"
       id="path4136-6"
       inkscape:connector-curvature="0"
       sodipodi:nodetypes="csccscc" />
    <path
       style="opacity:1;fill:none;fill-opacity:1;stroke:#000000;stroke-width:2;stroke-linejoin:miter;stroke-miterlimit:4;stroke-dasharray:none;stroke-dashoffset:0;stroke-opacity:1"
       d="m 151.08522,378.83584 0,-17.26099 c 0,-7.86162 37.3944,-14.23473 83.52269,-14.23473 46.12831,0 83.52269,6.37311 83.5227,14.23473 l 0,17.26099"
       id="path4136-6-8"
       inkscape:connector-curvature="0"
       sodipodi:nodetypes="ccscc" />
    <g
       id="g4204"
       transform="matrix(0.6689091,0,0,0.5085247,-82.295494,105.71652)"
       style="stroke-width:3.4291811;stroke-miterlimit:4;stroke-dasharray:none">
      <path
         sodipodi:nodetypes="csccscc"
         inkscape:connector-curvature="0"
         id="path4136-6-0"
         d="m 500.2724,488.7428 c 0,8.06273 -11.86932,14.59887 -26.51086,14.59887 -14.64154,0 -26.51085,-6.53614 -26.51085,-14.59887 l 0,-215.82503 c 0,8.06273 11.86931,14.59888 26.51085,14.59888 14.64154,0 26.51086,-6.53615 26.51086,-14.59888 z"
         style="opacity:1;fill:#ffffff;fill-opacity:1;stroke:#000000;stroke-width:3.4291811;stroke-linejoin:miter;stroke-miterlimit:4;stroke-dasharray:none;stroke-dashoffset:0;stroke-opacity:1" />
      <path
         sodipodi:nodetypes="ccscc"
         inkscape:connector-curvature="0"
         id="path4136-6-8-9"
         d="m 447.25069,490.19148 0,-215.82503 c 0,-8.06273 11.86932,-14.59887 26.51085,-14.59887 14.64155,0 26.51086,6.53614 26.51086,14.59887 l 0,215.82503"
         style="opacity:1;fill:none;fill-opacity:1;stroke:#000000;stroke-width:3.4291811;stroke-linejoin:miter;stroke-miterlimit:4;stroke-dasharray:none;stroke-dashoffset:0;stroke-opacity:1" />
    </g>
    <path
       style="opacity:1;fill:#cccccc;fill-opacity:1;stroke:#000000;stroke-width:2;stroke-linejoin:miter;stroke-miterlimit:4;stroke-dasharray:none;stroke-dashoffset:0;stroke-opacity:1"
       d="m 318.13062,387.52483 c 0,7.86162 -37.3944,14.23473 -83.52271,14.23473 -46.12831,0 -83.52269,-6.37311 -83.5227,-14.23473 l 0,-11.26099 c 1e-5,7.86162 37.39439,14.23473 83.5227,14.23473 46.12831,0 83.5227,-6.37311 83.52271,-14.23473 z"
       id="path4136-5"
       inkscape:connector-curvature="0"
       sodipodi:nodetypes="csccscc" />
    <path
       style="opacity:1;fill:none;fill-opacity:1;stroke:#000000;stroke-width:3.23543763;stroke-linejoin:miter;stroke-miterlimit:4;stroke-dasharray:none;stroke-dashoffset:0;stroke-opacity:1;marker-start:url(#Arrow1Sstart);marker-end:url(#Arrow1Send)"
       d="m 263.14805,268.711 c 7.30405,2.8967 11.82172,6.89847 11.82172,11.3187 1e-5,8.84047 -18.07061,16.00708 -40.36185,16.00708 -22.29124,0 -40.36187,-7.16661 -40.36185,-16.00708 0,-4.42023 4.51766,-8.422 11.82172,-11.31871"
       id="path4223"
       inkscape:connector-curvature="0"
       sodipodi:nodetypes="csssc" />
    <text
       xml:space="preserve"
       style="font-style:normal;font-variant:normal;font-weight:normal;font-stretch:normal;font-size:20px;line-height:125%;font-family:Arial;-inkscape-font-specification:'Arial, Normal';text-align:center;letter-spacing:0px;word-spacing:0px;writing-mode:lr-tb;text-anchor:middle;fill:#000000;fill-opacity:1;stroke:none;stroke-width:1px;stroke-linecap:butt;stroke-linejoin:miter;stroke-opacity:1"
       x="380.82751"
       y="386.67169"
       id="text4838"
       sodipodi:linespacing="125%"><tspan
         sodipodi:role="line"
         id="tspan4840"
         x="380.82751"
         y="386.67169">sample</tspan></text>
    <path
       style="fill:none;fill-rule:evenodd;stroke:#000000;stroke-width:1px;stroke-linecap:butt;stroke-linejoin:miter;stroke-opacity:1;marker-end:url(#Arrow2Mend)"
       d="m 343.45187,382.63107 -21.21321,3.03045"
       id="path4842"
       inkscape:connector-curvature="0" />
    <text
       xml:space="preserve"
       style="font-style:normal;font-variant:normal;font-weight:normal;font-stretch:normal;font-size:12.5px;line-height:125%;font-family:Arial;-inkscape-font-specification:'Arial, Normal';text-align:center;letter-spacing:0px;word-spacing:0px;writing-mode:lr-tb;text-anchor:middle;fill:#000000;fill-opacity:1;stroke:none;stroke-width:1px;stroke-linecap:butt;stroke-linejoin:miter;stroke-opacity:1"
       x="299.00516"
       y="288.68686"
       id="text4928"
       sodipodi:linespacing="125%"><tspan
         sodipodi:role="line"
         id="tspan4930"
         x="299.00516"
         y="288.68686"
         style="font-size:35px">ω</tspan></text>
  </g>
</svg>
