<?xml version="1.0" encoding="UTF-8" standalone="no"?>
<svg
   sodipodi:docname="Model3-SEC.svg"
   inkscape:version="1.1.1 (3bf5ae0d25, 2021-09-20)"
   id="svg8"
   version="1.1"
   viewBox="0 0 88.059477 60.039084"
   height="60.039085mm"
   width="88.059479mm"
   xmlns:inkscape="http://www.inkscape.org/namespaces/inkscape"
   xmlns:sodipodi="http://sodipodi.sourceforge.net/DTD/sodipodi-0.dtd"
   xmlns="http://www.w3.org/2000/svg"
   xmlns:svg="http://www.w3.org/2000/svg"
   xmlns:rdf="http://www.w3.org/1999/02/22-rdf-syntax-ns#"
   xmlns:cc="http://creativecommons.org/ns#"
   xmlns:dc="http://purl.org/dc/elements/1.1/">
  <defs
     id="defs2">
    <rect
       id="rect1254"
       height="28.283047"
       width="114.04454"
       y="193.41954"
       x="46.986351" />
    <marker
       inkscape:isstock="true"
       style="overflow:visible"
       id="marker1222"
       refX="0"
       refY="0"
       orient="auto"
       inkscape:stockid="Arrow2Lend">
      <path
         transform="matrix(-1.1,0,0,-1.1,-1.1,0)"
         d="M 8.7185878,4.0337352 -2.2072895,0.01601326 8.7185884,-4.0017078 c -1.7454984,2.3720609 -1.7354408,5.6174519 -6e-7,8.035443 z"
         style="fill:#ff0000;fill-opacity:1;fill-rule:evenodd;stroke:#ff0000;stroke-width:0.625;stroke-linejoin:round;stroke-opacity:1"
         id="path1220" />
    </marker>
    <marker
       inkscape:isstock="true"
       style="overflow:visible"
       id="Arrow2Lend"
       refX="0"
       refY="0"
       orient="auto"
       inkscape:stockid="Arrow2Lend">
      <path
         transform="matrix(-1.1,0,0,-1.1,-1.1,0)"
         d="M 8.7185878,4.0337352 -2.2072895,0.01601326 8.7185884,-4.0017078 c -1.7454984,2.3720609 -1.7354408,5.6174519 -6e-7,8.035443 z"
         style="fill:#008000;fill-opacity:1;fill-rule:evenodd;stroke:#008000;stroke-width:0.625;stroke-linejoin:round;stroke-opacity:1"
         id="path965" />
    </marker>
    <rect
       x="46.986351"
       y="193.41954"
       width="114.04454"
       height="28.283047"
       id="rect1254-8" />
    <rect
       x="46.986351"
       y="193.41954"
       width="114.04454"
       height="28.283047"
       id="rect1267" />
    <marker
       inkscape:isstock="true"
       style="overflow:visible"
       id="Arrow1Mstart"
       refX="0"
       refY="0"
       orient="auto"
       inkscape:stockid="Arrow1Mstart">
      <path
         transform="matrix(0.4,0,0,0.4,4,0)"
         style="fill:#000000;fill-opacity:1;fill-rule:evenodd;stroke:#000000;stroke-width:1pt;stroke-opacity:1"
         d="M 0,0 5,-5 -12.5,0 5,5 Z"
         id="path2881" />
    </marker>
    <marker
       inkscape:stockid="Arrow1Mend"
       orient="auto"
       refY="0"
       refX="0"
       id="marker3553"
       style="overflow:visible"
       inkscape:isstock="true">
      <path
         id="path3551"
         d="M 0,0 5,-5 -12.5,0 5,5 Z"
         style="fill:#000000;fill-opacity:1;fill-rule:evenodd;stroke:#000000;stroke-width:1pt;stroke-opacity:1"
         transform="matrix(-0.4,0,0,-0.4,-4,0)" />
    </marker>
    <rect
       id="rect3772"
       height="11.1521"
       width="16.868887"
       y="183.23804"
       x="110.33688" />
    <rect
       id="rect1544"
       height="10.695922"
       width="22.799202"
       y="183.23804"
       x="110.33688" />
  </defs>
  <sodipodi:namedview
     inkscape:window-maximized="1"
     inkscape:window-y="559"
     inkscape:window-x="-8"
     inkscape:window-height="1017"
     inkscape:window-width="1920"
     fit-margin-bottom="2"
     fit-margin-right="2"
     fit-margin-left="2"
     fit-margin-top="2"
     showgrid="false"
     inkscape:document-rotation="0"
     inkscape:current-layer="layer2"
     inkscape:document-units="mm"
     inkscape:cy="154.16667"
     inkscape:cx="263.42593"
     inkscape:zoom="1.08"
     inkscape:pageshadow="2"
     inkscape:pageopacity="0.0"
     borderopacity="1.0"
     bordercolor="#666666"
     pagecolor="#ffffff"
     id="base"
     inkscape:pagecheckerboard="0" />
  <metadata
     id="metadata5">
    <rdf:RDF>
      <cc:Work
         rdf:about="">
        <dc:format>image/svg+xml</dc:format>
        <dc:type
           rdf:resource="http://purl.org/dc/dcmitype/StillImage" />
      </cc:Work>
    </rdf:RDF>
  </metadata>
  <g
     transform="translate(-2.8957747,-276.71639)"
     id="layer1"
     inkscape:groupmode="layer"
     inkscape:label="Layer 1"
     sodipodi:insensitive="true">
    <path
       d="m 54.004436,93.728416 c -3.05666,0.714607 -5.861716,1.642331 -6.561873,2.342478 -2.339972,2.339968 0.427673,5.716786 -2.7373,7.299276 -1.290904,0.64545 -0.819089,-6.470982 -0.91209,-6.842969 -0.10356,-0.414247 -0.427566,-0.740917 -0.873847,-0.986504 a 14.597701,14.597701 0 0 0 -6.881233,12.390953 14.597701,14.597701 0 0 0 7.05073,12.49536 c 3.096858,-4.02925 2.313827,-10.56332 7.090524,-12.95167 1.860629,-0.93031 -1.567654,13.14546 -1.368391,14.14178 0.05694,0.28472 0.142132,0.55946 0.246497,0.82682 a 14.597701,14.597701 0 0 0 1.578197,0.0853 14.597701,14.597701 0 0 0 7.138067,-1.86449 c -0.68009,-1.06796 -0.952606,-2.03946 -0.295074,-2.69699 1.113478,-1.11348 3.628075,-4.77923 5.017783,-5.47409 0.608912,-0.30445 1.293212,-0.25841 2.023647,-0.0553 a 14.597701,14.597701 0 0 0 0.713653,-4.5067 14.597701,14.597701 0 0 0 -0.108003,-1.77147 c -11.734691,5.84932 -3.655661,-1.02245 -8.103383,-3.24631 -1.684272,-0.84214 -3.234809,1.82469 -4.105693,1.82469 -0.879129,0 1.605912,-4.34321 1.824696,-4.56199 2.503578,-2.503565 4.939149,1.40796 7.755083,0 0.127431,-0.0637 0.248708,-0.13853 0.365869,-0.220137 a 14.597701,14.597701 0 0 0 -8.857859,-6.228017 z"
       style="fill:#ececec;stroke:#000000;stroke-width:0.465;stop-color:#000000"
       id="path12" />
    <path
       d="m 165.19729,112.73597 a 14.597701,14.597701 0 0 0 0.88132,-1.87726 c -3.135,-3.28394 -7.80009,5.48922 -10.84808,1.00653 -3.83016,-5.63302 13.45103,-3.45257 6.26918,-7.46988 -1.19455,-0.66819 -3.97703,-3.45167 -5.35097,-3.51541 -1.81464,-0.0842 -2.18484,1.94079 -4.17053,1.84867 -1.02728,-0.0477 -4.2692,-1.29113 -2.11845,-2.753524 7.29085,-4.957405 12.40679,4.867784 17.08743,3.865574 a 14.597701,14.597701 0 0 0 -7.36349,-10.970888 14.597701,14.597701 0 0 0 -18.33112,3.383776 c 0.9058,2.093136 1.82155,4.714942 1.6363,8.708142 -0.08,1.7253 -2.29216,2.88402 -4.66221,3.89947 a 14.597701,14.597701 0 0 0 5.17402,8.19718 c 4.39998,-1.642 4.09543,-9.19523 6.35068,-10.34875 1.30337,-0.66664 1.98483,1.24056 1.94344,2.13278 -0.0695,1.4981 -2.98898,6.2698 -4.47988,10.39158 a 14.597701,14.597701 0 0 0 17.98236,-6.49799 z"
       style="fill:#ececec;stroke:#000000;stroke-width:0.465;stop-color:#000000"
       id="path12-7" />
    <path
       d="m 119.92597,90.179127 a 14.597701,14.597701 0 0 0 -4.19561,0.615982 c 0.31609,1.700576 0.62484,3.489694 0.0899,3.489694 -1.35196,0 -2.3324,-1.021644 -3.33054,-2.069628 a 14.597701,14.597701 0 0 0 -6.66833,8.797865 c 2.07707,-0.71244 6.80527,2.37422 6.80527,4.6762 0,4.46005 -3.61235,3.83465 -6.78356,2.93109 a 14.597701,14.597701 0 0 0 12.69586,10.68772 c 0.54166,-0.30619 0.93069,-0.70326 0.93069,-1.30225 0,-1.24896 -4.14218,-4.52499 -2.28099,-6.38617 0.86686,-0.86687 2.78252,-0.41057 3.64938,0.4563 0.0711,0.0711 -0.23487,2.05958 0.45631,1.3684 0.75227,-0.75228 2.09192,-1.77003 2.73678,-2.73731 0.63065,-0.94597 -1.28355,-2.36532 -0.91209,-2.73678 0.37026,-0.37026 1.8549,3.13267 1.36839,4.10569 -0.37738,0.75477 -2.28099,2.07194 -2.28099,2.73679 0,0.16657 1.52684,2.27357 2.61948,3.7145 a 14.597701,14.597701 0 0 0 8.50542,-7.97213 c -1.96089,-2.74746 -6.75628,-6.29887 -7.9313,-6.69054 -1.57023,-0.52341 -7.75508,2.44071 -7.75508,-0.4563 0,-5.516738 5.97646,-2.71401 7.75508,-1.8247 4.71168,2.35584 -2.62946,-9.525552 2.73678,-6.84245 3.10144,1.550724 1.28235,7.93992 4.562,9.57975 0.66928,0.33464 1.27725,0.41279 1.82366,0.30696 A 14.597701,14.597701 0 0 0 119.92597,90.179127 Z"
       style="fill:#ececec;stroke:#000000;stroke-width:0.465;stop-color:#000000"
       id="path12-71" />
    <path
       id="path12-4"
       style="fill:#ececec;stroke:#000000;stroke-width:0.465;stop-color:#000000"
       d="m 53.934843,143.25023 c 0.225239,3.13098 0.700497,6.047 1.281883,6.84851 1.943059,2.67871 5.712965,0.47629 6.778266,3.85068 0.434504,1.37631 -6.519306,-0.2083 -6.901291,-0.17493 -0.425379,0.0372 -0.798919,0.30578 -1.111609,0.70791 a 14.597701,14.597701 0 0 0 11.155245,8.74347 14.597701,14.597701 0 0 0 13.448344,-4.99888 c -3.49235,-3.69173 -10.068273,-3.94555 -11.676063,-9.0383 -0.626264,-1.98373 12.735603,3.61455 13.750863,3.57438 0.29013,-0.0115 0.57485,-0.0524 0.85529,-0.11346 a 14.597701,14.597701 0 0 0 0.33232,-1.54516 14.597701,14.597701 0 0 0 -0.71925,-7.34242 c -1.16159,0.50376 -2.16385,0.62018 -2.70984,-0.13254 -0.92461,-1.27467 -4.1495,-4.33424 -4.61727,-5.81589 -0.20495,-0.64921 -0.0519,-1.31776 0.26349,-2.00718 a 14.597701,14.597701 0 0 0 -4.338491,-1.41321 14.597701,14.597701 0 0 0 -1.766424,-0.1718 c 3.931975,12.50827 -1.584386,3.44948 -4.479752,7.49233 -1.096427,1.53095 1.293513,3.48143 1.156615,4.34148 -0.138194,0.8682 -4.036774,-2.26867 -4.218444,-2.51912 -2.078907,-2.866 2.16686,-4.65642 1.219051,-7.65867 -0.04287,-0.13587 -0.09771,-0.26739 -0.15989,-0.39592 a 14.597701,14.597701 0 0 0 -7.543023,7.76872 z" />
    <path
       id="path12-8"
       style="fill:#ececec;stroke:#000000;stroke-width:0.465;stop-color:#000000"
       d="m 135.2697,150.24531 c 2.15573,-2.28181 3.98405,-4.60265 4.18198,-5.57283 0.66153,-3.24244 -3.50947,-4.53303 -1.74201,-7.59855 0.7209,-1.25034 4.25191,4.94631 4.53464,5.20533 0.31484,0.28845 0.76528,0.38227 1.273,0.34102 a 14.597701,14.597701 0 0 0 -1.09318,-14.13127 14.597701,14.597701 0 0 0 -12.77259,-6.53511 c -0.3613,5.06901 3.89532,10.08781 1.2278,14.71441 -1.03907,1.80216 -5.94178,-11.8303 -6.65745,-12.55153 -0.20449,-0.20613 -0.4271,-0.38831 -0.66161,-0.55378 a 14.597701,14.597701 0 0 0 -1.36354,0.79919 14.597701,14.597701 0 0 0 -4.92625,5.49185 c 1.15628,0.51582 1.91938,1.17594 1.73348,2.08707 -0.31477,1.54291 -0.39082,5.98758 -1.1669,7.33363 -0.34004,0.58977 -0.93627,0.92874 -1.6576,1.16214 a 14.597701,14.597701 0 0 0 1.89005,4.15299 14.597701,14.597701 0 0 0 1.06702,1.41818 c 6.56314,-11.35091 3.61338,-1.16313 8.55002,-1.76085 1.86943,-0.22635 1.69216,-3.30607 2.41863,-3.78635 0.73336,-0.48482 1.05558,4.50868 0.99372,4.81184 -0.70777,3.46913 -4.89663,1.54935 -6.46919,4.27679 -0.0712,0.12341 -0.13107,0.25272 -0.1838,0.38541 a 14.597701,14.597701 0 0 0 10.82377,0.3104 z" />
    <path
       id="path12-7-2"
       style="fill:#ececec;stroke:#000000;stroke-width:0.465;stop-color:#000000"
       d="m 93.861536,119.29141 a 14.597701,14.597701 0 0 0 -2.06861,0.14728 c -1.33556,4.33922 8.598534,4.12771 6.174296,8.9762 -3.046336,6.09268 -9.579769,-10.05378 -9.579769,-1.8247 0,1.36873 -1.070898,5.15596 -0.455787,6.38618 0.812401,1.62481 2.76041,0.95933 3.64939,2.7373 0.45991,0.91982 0.95734,4.35621 -1.368909,3.19308 -7.885808,-3.9429 -1.808491,-13.20428 -4.968171,-16.8 a 14.597701,14.597701 0 0 0 -5.979999,11.78222 14.597701,14.597701 0 0 0 11.902119,14.34641 c 1.38457,-1.81236 3.22567,-3.8915 6.801126,-5.67924 1.544811,-0.77241 3.635988,0.59253 5.679228,2.16524 a 14.597701,14.597701 0 0 0 4.62815,-8.5173 c -3.58105,-3.03845 -10.024368,0.91471 -12.132064,-0.49041 -1.21809,-0.81207 0.11372,-2.33786 0.9126,-2.7373 1.341376,-0.6707 6.931074,-0.45222 11.256154,-1.16324 A 14.597701,14.597701 0 0 0 93.861536,119.29141 Z" />
    <path
       id="path12-7-3"
       style="fill:#ececec;stroke:#000000;stroke-width:0.465;stop-color:#000000"
       d="m 70.168941,92.326304 a 14.597701,14.597701 0 0 0 -0.84358,1.89452 c 3.20012,3.22053 7.68866,-5.644247 10.82577,-1.22347 3.94215,5.55523 -13.37923,3.72112 -6.1184,7.593866 1.20768,0.64415 4.04531,3.37138 5.42025,3.4076 1.81597,0.0479 2.14556,-1.98413 4.13269,-1.93177 1.02803,0.0271 4.2942,1.20541 2.17315,2.71056 -7.19016,5.10234 -12.50174,-4.61846 -17.16138,-3.52277 a 14.597701,14.597701 0 0 0 7.5816,10.8213 14.597701,14.597701 0 0 0 18.25972,-3.75002 c -0.94751,-2.07458 -1.91557,-4.67754 -1.81027,-8.673646 0.0455,-1.72655 2.23397,-2.92931 4.583217,-3.992 a 14.597701,14.597701 0 0 0 -5.337057,-8.091978 c -4.36623,1.729752 -3.91055,9.275368 -6.14227,10.473798 -1.28977,0.69259 -2.00925,-1.20059 -1.98573,-2.09346 0.0395,-1.49918 2.86288,-6.328365 4.27098,-10.479163 a 14.597701,14.597701 0 0 0 -17.84869,6.856633 z" />
    <path
       id="path12-71-9"
       style="fill:#ececec;stroke:#000000;stroke-width:0.465;stop-color:#000000"
       d="m 29.021851,153.90944 a 14.597701,14.597701 0 0 0 4.03844,1.29366 c 0.464714,-1.66611 0.974993,-3.4085 1.455309,-3.17304 1.213953,0.59508 1.644607,1.94401 2.079569,3.32435 a 14.597701,14.597701 0 0 0 9.860142,-4.96462 c -2.178632,-0.27453 -5.065521,-5.12729 -4.052264,-7.19428 1.963159,-4.00476 4.931466,-1.85316 7.381236,0.35402 a 14.597701,14.597701 0 0 0 -6.69546,-15.18497 c -0.621142,0.0365 -1.14524,0.22182 -1.40889,0.75965 -0.549749,1.12147 1.727583,5.88632 -0.762826,6.73827 -1.159942,0.39681 -2.67919,-0.85611 -3.075998,-2.01606 -0.03255,-0.0951 1.11745,-1.74593 0.192595,-1.42955 -1.0066,0.34436 -2.657476,0.66854 -3.662268,1.25323 -0.982655,0.57182 0.111383,2.68885 -0.385658,2.85887 -0.495443,0.1695 -0.286658,-3.62933 0.578483,-4.28888 0.671082,-0.5116 2.96014,-0.85641 3.25278,-1.45339 0.07332,-0.14956 -0.370223,-2.71354 -0.717079,-4.48831 a 14.597701,14.597701 0 0 0 -11.146213,3.41451 c 0.55138,3.3301 3.294031,8.62974 4.176701,9.49863 1.17955,1.16114 8.03773,1.22197 6.762567,3.82324 -2.428283,4.95359 -6.56098,-0.19367 -7.766584,-1.7751 -3.193738,-4.18926 -1.831808,9.7106 -5.469227,4.93934 -2.102262,-2.75756 2.343452,-7.69385 0.120395,-10.60987 -0.453665,-0.59508 -0.965165,-0.93285 -1.502388,-1.07833 a 14.597701,14.597701 0 0 0 6.746638,19.39863 z" />
    <path
       id="path12-71-7"
       style="fill:#ececec;stroke:#000000;stroke-width:0.465;stop-color:#000000"
       d="m 148.9363,137.22012 a 14.597701,14.597701 0 0 0 -1.43721,3.98961 c 1.64843,0.52398 3.37147,1.09622 3.11899,1.56783 -0.63811,1.19191 -2.00156,1.57407 -3.39658,1.9594 a 14.597701,14.597701 0 0 0 4.60896,10.03132 c 0.35225,-2.16742 5.3051,-4.87898 7.33455,-3.79248 3.93201,2.10507 1.67568,4.99456 -0.61767,7.36386 a 14.597701,14.597701 0 0 0 15.41462,-6.14833 c -0.0143,-0.62205 -0.18073,-1.15243 -0.7088,-1.43514 -1.1011,-0.58949 -5.94431,1.51605 -6.70669,-1.00324 -0.35509,-1.17338 0.95134,-2.64687 2.12473,-3.00195 0.0962,-0.0291 1.70488,1.17915 1.42176,0.24358 -0.30816,-1.01827 -0.57311,-2.67968 -1.12152,-3.70474 -0.53631,-1.00246 -2.69109,0.0152 -2.84325,-0.48761 -0.15167,-0.50118 3.63726,-0.15672 4.26546,0.73144 0.48729,0.68894 0.75005,2.98886 1.33618,3.30266 0.14685,0.0786 2.72504,-0.27299 4.51109,-0.55617 A 14.597701,14.597701 0 0 0 173.22705,135.019 c -3.34769,0.43198 -8.74198,2.98342 -9.64187,3.83447 -1.20257,1.13728 -1.50853,7.98891 -4.06255,6.62157 -4.86361,-2.60382 0.4281,-6.54986 2.0516,-7.69817 4.30076,-3.04193 -9.6389,-2.17778 -4.74066,-5.6423 2.83096,-2.00233 7.60516,2.617 10.59879,0.49961 0.61092,-0.43211 0.96676,-0.9312 1.13136,-1.46287 a 14.597701,14.597701 0 0 0 -19.62743,6.04882 z" />
    <path
       sodipodi:nodetypes="cssccssc"
       d="m 15.05388,82.119473 c 0,-0.256824 0.206757,-0.463582 0.463581,-0.463582 H 177.44589 c 0.25682,0 0.46358,0.206758 0.46358,0.463582 m 0,83.009617 c 0,0.25683 -0.20676,0.46358 -0.46358,0.46358 H 15.517461 c -0.256824,0 -0.463581,-0.20675 -0.463581,-0.46358"
       style="fill:none;stroke:#000000;stroke-width:0.465;stop-color:#000000"
       id="rect110" />
    <circle
       r="7.1302118"
       cy="136.16917"
       cx="-23.493176"
       id="path113"
       style="fill:#ff0000;stroke:#ff0000;stroke-width:0.3461;stop-color:#000000" />
    <circle
       r="1.9076338"
       cy="111.76366"
       cx="-23.721266"
       id="path115"
       style="fill:#008000;stroke:#008000;stroke-width:0.299158;stop-color:#000000" />
    <path
       id="path117"
       d="m -12.31681,131.83549 c 11.2999424,-0.46115 33.365967,-10.29664 43.793103,-8.21121 10.763801,2.15276 20.781238,2.76244 31.93247,1.36853 12.201083,-1.52513 24.822721,-13.92642 37.862787,-9.57974 13.3803,4.4601 10.56934,20.80882 16.42242,30.56394 8.42366,14.03944 45.32927,21.58464 59.30315,14.5977 6.62535,-3.31267 9.42083,-9.95646 15.96624,-13.22917 2.52656,-1.26328 6.60623,-1.58826 8.21121,-3.19324"
       style="fill:none;stroke:#ff0000;stroke-width:0.865;stroke-linecap:butt;stroke-linejoin:miter;stroke-miterlimit:4;stroke-dasharray:2.595, 0.865;stroke-dashoffset:0;stroke-opacity:1;marker-end:url(#marker1222)" />
    <path
       id="path119"
       d="m -12.31681,110.85129 c 2.280891,-0.15206 4.5680631,-0.22872 6.8426722,-0.45618 2.0538694,-0.20538 5.07967012,-1.39939 6.8426723,-2.28089 3.9717842,-1.98589 8.1756477,3.43912 12.3168105,1.36854 1.25952,-0.62976 4.229175,-5.01796 5.474137,-5.01796 1.40493,0 4.643097,1.87777 5.930316,0.91235 5.287617,-3.96571 9.020245,-11.67413 15.05388,-13.685342 5.254742,-1.751579 5.048253,7.739883 5.930315,7.298851 4.121621,-2.06081 1.329413,-8.191645 5.930316,-10.492097 2.128496,-1.064249 12.489304,1.886014 13.229166,4.105604 0.47934,1.438018 1.217441,6.990868 0.912358,8.211204 -0.321948,1.28779 -2.076329,2.63479 -3.193249,3.19325 -0.0837,0.0419 -1.368533,-0.0335 -1.368533,0 0,1.09652 0.84396,-2.24669 1.824712,-2.73707 0.806355,-0.40318 3.106669,3.10667 3.649427,3.64942 0.733258,0.73327 -0.02756,9.17869 -0.456179,10.03593 -1.113332,2.22666 -2.786224,0.50533 -4.105603,1.82471 -1.28443,1.28443 1.02148,3.36677 2.280891,2.73707 1.638657,-0.81933 2.394913,-2.33791 4.105603,-3.19325 3.559257,-1.77963 7.020065,-0.0887 10.492097,-1.82471 4.034621,-2.01731 7.098509,6.7425 10.035918,8.2112 0.481346,0.24068 -0.912355,-2.35266 -0.912355,-3.19324 0,-3.72069 6.500202,-2.96449 7.755028,-5.47414 2.038927,-4.07785 -0.456176,-7.85513 -0.456176,-11.86063 0,-1.66146 11.860626,0.57966 11.860626,2.28089 0,0.71128 -7.48289,1.00045 -5.93031,4.1056 0.70294,1.40588 2.82912,2.00882 3.64942,3.64943 0.59531,1.19061 -0.0508,2.63539 0.45618,3.64942 0.51975,1.0395 3.27417,2.36181 4.10561,3.19325 0.78533,0.78534 -0.71971,2.60531 1.36853,3.64942 3.35925,1.67963 8.86444,-2.86663 12.77299,-0.91235 1.44576,0.72288 2.05027,4.7924 3.19324,3.64942 0.97366,-0.97365 -1.07197,-2.87401 -0.45617,-4.1056 1.68598,-3.37198 12.02481,-3.77725 8.2112,-11.40445 -0.23929,-0.4786 0.36411,-1.91679 0,-2.2809 -0.38373,-0.38372 -5.93031,-2.51746 -5.93031,-3.64942 0,-2.37659 7.59701,4.87781 10.4921,-0.91236 0.10934,-0.21868 -3.32152,-5.730677 -3.64943,-6.386491 -3.37793,-6.755863 7.26394,-8.7727 12.31681,-10.035919 6.62689,-1.656723 25.64295,3.911666 20.52802,14.14152 -0.50942,1.01883 -4.43157,5.73456 -4.10561,6.3865 1.08954,2.17907 4.5473,-0.45618 5.93032,-0.45618 1.32221,0 -2.18631,0.73991 -1.82471,1.82471 0.49552,1.48658 2.89318,2.33293 4.1056,2.73707 2.07539,0.6918 4.16397,-2.48671 5.93032,-3.19325 2.64159,-1.05664 5.72312,-0.45618 8.2112,-0.45618 3.93447,0 6.87418,-0.0157 10.4921,-1.82471"
       style="fill:none;stroke:#008000;stroke-width:0.665;stroke-linecap:butt;stroke-linejoin:miter;stroke-miterlimit:4;stroke-dasharray:0.665, 0.665;stroke-dashoffset:0;stroke-opacity:1;marker-end:url(#Arrow2Lend)" />
    <text
       transform="translate(21.896552,-23.762195)"
       style="font-size:3.52778px;line-height:1.25;font-family:Arial;-inkscape-font-specification:'Arial, Normal';letter-spacing:0px;word-spacing:0px;writing-mode:lr-tb;white-space:pre;shape-inside:url(#rect1254)"
       id="text1252"
       xml:space="preserve"><tspan
         x="46.986328"
         y="202.31738"
         id="tspan5913"><tspan
           style="font-size:9.87778px"
           id="tspan5911">SEC Column</tspan></tspan></text>
    <text
       y="0"
       x="17.951706"
       xml:space="preserve"
       id="text1252-6"
       style="font-size:3.52778px;line-height:1.25;font-family:Arial;-inkscape-font-specification:'Arial, Normal';letter-spacing:0px;word-spacing:0px;writing-mode:lr-tb;white-space:pre;shape-inside:url(#rect1254-8)"
       transform="translate(-128.81084,-29.996099)"><tspan
         x="85.895507"
         y="202.31738"
         id="tspan5917"><tspan
           style="font-size:9.87778px;text-align:center;text-anchor:middle"
           id="tspan5915">Polymer
</tspan></tspan><tspan
         x="88.635047"
         y="214.6646"
         id="tspan5921"><tspan
           style="font-size:9.87778px;text-align:center;text-anchor:middle"
           id="tspan5919">Chains</tspan></tspan></text>
    <path
       id="path3505"
       d="m 24.342172,280.49776 v 41.93927 h 58.264631"
       style="fill:none;stroke:#000000;stroke-width:0.529167;stroke-linecap:butt;stroke-linejoin:miter;stroke-miterlimit:4;stroke-dasharray:none;stroke-opacity:1;marker-start:url(#Arrow1Mstart);marker-end:url(#marker3553)" />
    <text
       id="text3766"
       y="281.79837"
       x="12.616227"
       style="font-size:3.52777px;line-height:1.25;font-family:Arial;-inkscape-font-specification:'Arial, Normal';letter-spacing:0px;word-spacing:0px;writing-mode:lr-tb;stroke-width:0.264583"
       xml:space="preserve"><tspan
         id="tspan3776"
         style="font-size:4.23333px;text-align:center;text-anchor:middle;stroke-width:0.264583"
         y="281.79837"
         x="12.616227"
         sodipodi:role="line">mass of </tspan><tspan
         id="tspan1658"
         style="font-size:4.23333px;text-align:center;text-anchor:middle;stroke-width:0.264583"
         y="287.09003"
         x="12.616227"
         sodipodi:role="line">polymer</tspan></text>
    <text
       y="0"
       x="6.2053008"
       transform="translate(-36.057759,142.36274)"
       style="font-size:4.23333px;line-height:1.25;font-family:Arial;-inkscape-font-specification:'Arial, Normal';letter-spacing:0px;word-spacing:0px;writing-mode:lr-tb;white-space:pre;shape-inside:url(#rect3772)"
       id="text3770"
       xml:space="preserve"><tspan
         x="112.53317"
         y="187.05147"
         id="tspan5925"><tspan
           style="text-align:center;text-anchor:middle"
           id="tspan5923">elution </tspan></tspan><tspan
         x="114.77179"
         y="192.34313"
         id="tspan5929"><tspan
           style="text-align:center;text-anchor:middle"
           id="tspan5927">time</tspan></tspan></text>
  </g>
  <g
     inkscape:groupmode="layer"
     id="layer2"
     inkscape:label="soln">
    <path
       style="fill:none;stroke:#ff0000;stroke-width:0.5;stroke-linecap:butt;stroke-linejoin:miter;stroke-opacity:1;stroke-miterlimit:4;stroke-dasharray:none"
       d="m 30.139649,45.805543 c 6.230002,-2.938466 9.196672,-28.650052 12.460009,-28.650052 3.263334,0 5.043336,28.405179 7.713337,28.405179 2.670004,0 5.933338,-13.223101 9.196676,-13.223101 3.263333,0 4.746667,13.467974 8.603337,13.467974"
       id="path1080" />
    <text
       xml:space="preserve"
       style="font-style:normal;font-weight:normal;font-size:4.23333px;line-height:1.25;font-family:sans-serif;fill:#000000;fill-opacity:1;stroke:none;stroke-width:0.264583"
       x="32.092979"
       y="13.719135"
       id="text1798"><tspan
         sodipodi:role="line"
         id="tspan1796"
         style="font-style:normal;font-variant:normal;font-weight:normal;font-stretch:normal;font-size:4.23333px;font-family:Arial;-inkscape-font-specification:Arial;fill:#ff0000;stroke-width:0.264583"
         x="32.092979"
         y="13.719135">100 kg/mol</tspan></text>
    <text
       xml:space="preserve"
       style="font-style:normal;font-weight:normal;font-size:4.23333px;line-height:1.25;font-family:sans-serif;fill:#000000;fill-opacity:1;stroke:none;stroke-width:0.264583"
       x="50.810612"
       y="30.003717"
       id="text1798-1"><tspan
         sodipodi:role="line"
         id="tspan1796-5"
         style="font-style:normal;font-variant:normal;font-weight:normal;font-stretch:normal;font-size:4.23333px;font-family:Arial;-inkscape-font-specification:Arial;fill:#ff0000;stroke-width:0.264583"
         x="50.810612"
         y="30.003717">30 kg/mol</tspan></text>
  </g>
</svg>
